G04 Layer_Color=128*
%FSLAX43Y43*%
%MOMM*%
G71*
G01*
G75*
%ADD10C,0.102*%
%ADD11R,1.000X0.640*%
%ADD12C,0.127*%
%ADD22R,0.700X0.510*%
%ADD27R,0.800X0.800*%
%ADD76R,0.640X0.890*%
%ADD79R,0.510X0.700*%
%ADD81R,0.510X0.560*%
%ADD85R,0.640X1.000*%
%ADD91R,0.640X1.000*%
%ADD92R,2.160X1.520*%
%ADD93R,2.300X0.350*%
%ADD94R,0.350X1.300*%
%ADD95R,0.950X0.400*%
%ADD96R,0.500X2.000*%
%ADD97C,0.900*%
%ADD98R,0.550X0.800*%
D10*
X45804Y-27345D02*
X45658Y-27200D01*
X45441Y-27128D01*
X45151D01*
X44933Y-27200D01*
X44788Y-27345D01*
Y-27490D01*
X44860Y-27635D01*
X44933Y-27708D01*
X45078Y-27781D01*
X45513Y-27926D01*
X45658Y-27998D01*
X45731Y-28071D01*
X45804Y-28216D01*
Y-28434D01*
X45658Y-28579D01*
X45441Y-28651D01*
X45151D01*
X44933Y-28579D01*
X44788Y-28434D01*
X46580Y-27128D02*
X46435Y-27200D01*
X46290Y-27345D01*
X46217Y-27490D01*
X46145Y-27708D01*
Y-28071D01*
X46217Y-28288D01*
X46290Y-28434D01*
X46435Y-28579D01*
X46580Y-28651D01*
X46870D01*
X47015Y-28579D01*
X47160Y-28434D01*
X47233Y-28288D01*
X47305Y-28071D01*
Y-27708D01*
X47233Y-27490D01*
X47160Y-27345D01*
X47015Y-27200D01*
X46870Y-27128D01*
X46580D01*
X47661D02*
Y-28651D01*
X48532D01*
X48699Y-27128D02*
Y-28651D01*
Y-27128D02*
X49206D01*
X49424Y-27200D01*
X49569Y-27345D01*
X49642Y-27490D01*
X49714Y-27708D01*
Y-28071D01*
X49642Y-28288D01*
X49569Y-28434D01*
X49424Y-28579D01*
X49206Y-28651D01*
X48699D01*
X50999Y-27128D02*
X50055D01*
Y-28651D01*
X50999D01*
X50055Y-27853D02*
X50636D01*
X51253Y-27128D02*
Y-28651D01*
Y-27128D02*
X51906D01*
X52123Y-27200D01*
X52196Y-27273D01*
X52268Y-27418D01*
Y-27563D01*
X52196Y-27708D01*
X52123Y-27781D01*
X51906Y-27853D01*
X51253D01*
X51760D02*
X52268Y-28651D01*
X53806Y-27926D02*
X54459D01*
X54677Y-27853D01*
X54750Y-27781D01*
X54822Y-27635D01*
Y-27418D01*
X54750Y-27273D01*
X54677Y-27200D01*
X54459Y-27128D01*
X53806D01*
Y-28651D01*
X56324D02*
X55744Y-27128D01*
X55163Y-28651D01*
X55381Y-28143D02*
X56107D01*
X57695Y-27345D02*
X57550Y-27200D01*
X57333Y-27128D01*
X57042D01*
X56825Y-27200D01*
X56680Y-27345D01*
Y-27490D01*
X56752Y-27635D01*
X56825Y-27708D01*
X56970Y-27781D01*
X57405Y-27926D01*
X57550Y-27998D01*
X57623Y-28071D01*
X57695Y-28216D01*
Y-28434D01*
X57550Y-28579D01*
X57333Y-28651D01*
X57042D01*
X56825Y-28579D01*
X56680Y-28434D01*
X58544Y-27128D02*
Y-28651D01*
X58036Y-27128D02*
X59052D01*
X60177D02*
X59234D01*
Y-28651D01*
X60177D01*
X59234Y-27853D02*
X59814D01*
X62136Y-26837D02*
X61991Y-26982D01*
X61846Y-27200D01*
X61701Y-27490D01*
X61628Y-27853D01*
Y-28143D01*
X61701Y-28506D01*
X61846Y-28796D01*
X61991Y-29014D01*
X62136Y-29159D01*
X61991Y-26982D02*
X61846Y-27273D01*
X61773Y-27490D01*
X61701Y-27853D01*
Y-28143D01*
X61773Y-28506D01*
X61846Y-28724D01*
X61991Y-29014D01*
X63442Y-27345D02*
X63297Y-27200D01*
X63079Y-27128D01*
X62789D01*
X62571Y-27200D01*
X62426Y-27345D01*
Y-27490D01*
X62499Y-27635D01*
X62571Y-27708D01*
X62716Y-27781D01*
X63152Y-27926D01*
X63297Y-27998D01*
X63369Y-28071D01*
X63442Y-28216D01*
Y-28434D01*
X63297Y-28579D01*
X63079Y-28651D01*
X62789D01*
X62571Y-28579D01*
X62426Y-28434D01*
X64726Y-27128D02*
X63783D01*
Y-28651D01*
X64726D01*
X63783Y-27853D02*
X64363D01*
X66068Y-27490D02*
X65996Y-27345D01*
X65851Y-27200D01*
X65706Y-27128D01*
X65415D01*
X65270Y-27200D01*
X65125Y-27345D01*
X65053Y-27490D01*
X64980Y-27708D01*
Y-28071D01*
X65053Y-28288D01*
X65125Y-28434D01*
X65270Y-28579D01*
X65415Y-28651D01*
X65706D01*
X65851Y-28579D01*
X65996Y-28434D01*
X66068Y-28288D01*
X66932Y-27128D02*
X66787Y-27200D01*
X66642Y-27345D01*
X66569Y-27490D01*
X66497Y-27708D01*
Y-28071D01*
X66569Y-28288D01*
X66642Y-28434D01*
X66787Y-28579D01*
X66932Y-28651D01*
X67222D01*
X67367Y-28579D01*
X67512Y-28434D01*
X67585Y-28288D01*
X67657Y-28071D01*
Y-27708D01*
X67585Y-27490D01*
X67512Y-27345D01*
X67367Y-27200D01*
X67222Y-27128D01*
X66932D01*
X68013D02*
Y-28651D01*
Y-27128D02*
X69029Y-28651D01*
Y-27128D02*
Y-28651D01*
X69450Y-27128D02*
Y-28651D01*
Y-27128D02*
X69957D01*
X70175Y-27200D01*
X70320Y-27345D01*
X70393Y-27490D01*
X70465Y-27708D01*
Y-28071D01*
X70393Y-28288D01*
X70320Y-28434D01*
X70175Y-28579D01*
X69957Y-28651D01*
X69450D01*
X71967D02*
X71387Y-27128D01*
X70806Y-28651D01*
X71024Y-28143D02*
X71750D01*
X72323Y-27128D02*
Y-28651D01*
Y-27128D02*
X72976D01*
X73193Y-27200D01*
X73266Y-27273D01*
X73339Y-27418D01*
Y-27563D01*
X73266Y-27708D01*
X73193Y-27781D01*
X72976Y-27853D01*
X72323D01*
X72831D02*
X73339Y-28651D01*
X73680Y-27128D02*
X74260Y-27853D01*
Y-28651D01*
X74840Y-27128D02*
X74260Y-27853D01*
X75036Y-26837D02*
X75181Y-26982D01*
X75327Y-27200D01*
X75472Y-27490D01*
X75544Y-27853D01*
Y-28143D01*
X75472Y-28506D01*
X75327Y-28796D01*
X75181Y-29014D01*
X75036Y-29159D01*
X75181Y-26982D02*
X75327Y-27273D01*
X75399Y-27490D01*
X75472Y-27853D01*
Y-28143D01*
X75399Y-28506D01*
X75327Y-28724D01*
X75181Y-29014D01*
X45804Y-27345D02*
X45658Y-27200D01*
X45441Y-27128D01*
X45151D01*
X44933Y-27200D01*
X44788Y-27345D01*
Y-27490D01*
X44860Y-27635D01*
X44933Y-27708D01*
X45078Y-27781D01*
X45513Y-27926D01*
X45658Y-27998D01*
X45731Y-28071D01*
X45804Y-28216D01*
Y-28434D01*
X45658Y-28579D01*
X45441Y-28651D01*
X45151D01*
X44933Y-28579D01*
X44788Y-28434D01*
X46580Y-27128D02*
X46435Y-27200D01*
X46290Y-27345D01*
X46217Y-27490D01*
X46145Y-27708D01*
Y-28071D01*
X46217Y-28288D01*
X46290Y-28434D01*
X46435Y-28579D01*
X46580Y-28651D01*
X46870D01*
X47015Y-28579D01*
X47160Y-28434D01*
X47233Y-28288D01*
X47305Y-28071D01*
Y-27708D01*
X47233Y-27490D01*
X47160Y-27345D01*
X47015Y-27200D01*
X46870Y-27128D01*
X46580D01*
X47661D02*
Y-28651D01*
X48532D01*
X48699Y-27128D02*
Y-28651D01*
Y-27128D02*
X49206D01*
X49424Y-27200D01*
X49569Y-27345D01*
X49642Y-27490D01*
X49714Y-27708D01*
Y-28071D01*
X49642Y-28288D01*
X49569Y-28434D01*
X49424Y-28579D01*
X49206Y-28651D01*
X48699D01*
X50999Y-27128D02*
X50055D01*
Y-28651D01*
X50999D01*
X50055Y-27853D02*
X50636D01*
X51253Y-27128D02*
Y-28651D01*
Y-27128D02*
X51906D01*
X52123Y-27200D01*
X52196Y-27273D01*
X52268Y-27418D01*
Y-27563D01*
X52196Y-27708D01*
X52123Y-27781D01*
X51906Y-27853D01*
X51253D01*
X51760D02*
X52268Y-28651D01*
X53806Y-27926D02*
X54459D01*
X54677Y-27853D01*
X54750Y-27781D01*
X54822Y-27635D01*
Y-27418D01*
X54750Y-27273D01*
X54677Y-27200D01*
X54459Y-27128D01*
X53806D01*
Y-28651D01*
X56324D02*
X55744Y-27128D01*
X55163Y-28651D01*
X55381Y-28143D02*
X56107D01*
X57695Y-27345D02*
X57550Y-27200D01*
X57333Y-27128D01*
X57042D01*
X56825Y-27200D01*
X56680Y-27345D01*
Y-27490D01*
X56752Y-27635D01*
X56825Y-27708D01*
X56970Y-27781D01*
X57405Y-27926D01*
X57550Y-27998D01*
X57623Y-28071D01*
X57695Y-28216D01*
Y-28434D01*
X57550Y-28579D01*
X57333Y-28651D01*
X57042D01*
X56825Y-28579D01*
X56680Y-28434D01*
X58544Y-27128D02*
Y-28651D01*
X58036Y-27128D02*
X59052D01*
X60177D02*
X59234D01*
Y-28651D01*
X60177D01*
X59234Y-27853D02*
X59814D01*
X62136Y-26837D02*
X61991Y-26982D01*
X61846Y-27200D01*
X61701Y-27490D01*
X61628Y-27853D01*
Y-28143D01*
X61701Y-28506D01*
X61846Y-28796D01*
X61991Y-29014D01*
X62136Y-29159D01*
X61991Y-26982D02*
X61846Y-27273D01*
X61773Y-27490D01*
X61701Y-27853D01*
Y-28143D01*
X61773Y-28506D01*
X61846Y-28724D01*
X61991Y-29014D01*
X63442Y-27345D02*
X63297Y-27200D01*
X63079Y-27128D01*
X62789D01*
X62571Y-27200D01*
X62426Y-27345D01*
Y-27490D01*
X62499Y-27635D01*
X62571Y-27708D01*
X62716Y-27781D01*
X63152Y-27926D01*
X63297Y-27998D01*
X63369Y-28071D01*
X63442Y-28216D01*
Y-28434D01*
X63297Y-28579D01*
X63079Y-28651D01*
X62789D01*
X62571Y-28579D01*
X62426Y-28434D01*
X64726Y-27128D02*
X63783D01*
Y-28651D01*
X64726D01*
X63783Y-27853D02*
X64363D01*
X66068Y-27490D02*
X65996Y-27345D01*
X65851Y-27200D01*
X65706Y-27128D01*
X65415D01*
X65270Y-27200D01*
X65125Y-27345D01*
X65053Y-27490D01*
X64980Y-27708D01*
Y-28071D01*
X65053Y-28288D01*
X65125Y-28434D01*
X65270Y-28579D01*
X65415Y-28651D01*
X65706D01*
X65851Y-28579D01*
X65996Y-28434D01*
X66068Y-28288D01*
X66932Y-27128D02*
X66787Y-27200D01*
X66642Y-27345D01*
X66569Y-27490D01*
X66497Y-27708D01*
Y-28071D01*
X66569Y-28288D01*
X66642Y-28434D01*
X66787Y-28579D01*
X66932Y-28651D01*
X67222D01*
X67367Y-28579D01*
X67512Y-28434D01*
X67585Y-28288D01*
X67657Y-28071D01*
Y-27708D01*
X67585Y-27490D01*
X67512Y-27345D01*
X67367Y-27200D01*
X67222Y-27128D01*
X66932D01*
X68013D02*
Y-28651D01*
Y-27128D02*
X69029Y-28651D01*
Y-27128D02*
Y-28651D01*
X69450Y-27128D02*
Y-28651D01*
Y-27128D02*
X69957D01*
X70175Y-27200D01*
X70320Y-27345D01*
X70393Y-27490D01*
X70465Y-27708D01*
Y-28071D01*
X70393Y-28288D01*
X70320Y-28434D01*
X70175Y-28579D01*
X69957Y-28651D01*
X69450D01*
X71967D02*
X71387Y-27128D01*
X70806Y-28651D01*
X71024Y-28143D02*
X71750D01*
X72323Y-27128D02*
Y-28651D01*
Y-27128D02*
X72976D01*
X73193Y-27200D01*
X73266Y-27273D01*
X73339Y-27418D01*
Y-27563D01*
X73266Y-27708D01*
X73193Y-27781D01*
X72976Y-27853D01*
X72323D01*
X72831D02*
X73339Y-28651D01*
X73680Y-27128D02*
X74260Y-27853D01*
Y-28651D01*
X74840Y-27128D02*
X74260Y-27853D01*
X75036Y-26837D02*
X75181Y-26982D01*
X75327Y-27200D01*
X75472Y-27490D01*
X75544Y-27853D01*
Y-28143D01*
X75472Y-28506D01*
X75327Y-28796D01*
X75181Y-29014D01*
X75036Y-29159D01*
X75181Y-26982D02*
X75327Y-27273D01*
X75399Y-27490D01*
X75472Y-27853D01*
Y-28143D01*
X75399Y-28506D01*
X75327Y-28724D01*
X75181Y-29014D01*
D11*
X28442Y70936D02*
D03*
X28442Y72336D02*
D03*
X41900Y63938D02*
D03*
X41900Y65338D02*
D03*
D12*
X0Y5080D02*
G03*
X5080Y-0I5080J0D01*
G01*
X121920D02*
G03*
X127000Y5080I0J5080D01*
G01*
X127000Y82920D02*
G03*
X121920Y88000I-5080J0D01*
G01*
X5080Y88000D02*
G03*
X0Y82920I-0J-5080D01*
G01*
X109060Y80620D02*
G03*
X108192Y81610I-929J61D01*
G01*
X108161Y79781D02*
G03*
X109060Y80620I30J869D01*
G01*
X94186Y81611D02*
G03*
X93287Y80772I-30J-869D01*
G01*
Y80772D02*
G03*
X94155Y79781I929J-61D01*
G01*
X15900Y-0D02*
X121920D01*
X5080D02*
X15900D01*
X127000Y5080D02*
Y82920D01*
X108192Y88000D02*
X121920D01*
X94155Y79781D02*
X108160D01*
X94186Y81611D02*
Y88000D01*
X108192Y81610D02*
Y88005D01*
X5080Y88000D02*
X94186D01*
X0Y5080D02*
Y82920D01*
D22*
X48514Y78403D02*
D03*
Y77503D02*
D03*
X2815Y40709D02*
D03*
Y39809D02*
D03*
X46859Y78403D02*
D03*
Y77503D02*
D03*
X6476Y34003D02*
D03*
Y33103D02*
D03*
X7582Y34003D02*
D03*
Y33103D02*
D03*
X2053Y34003D02*
D03*
Y33103D02*
D03*
X3158Y34003D02*
D03*
Y33103D02*
D03*
X4264Y34003D02*
D03*
Y33103D02*
D03*
X5370Y34003D02*
D03*
Y33103D02*
D03*
D27*
X123684Y50695D02*
D03*
X125184D02*
D03*
Y48425D02*
D03*
X123684D02*
D03*
X123506Y46482D02*
D03*
X125006D02*
D03*
D76*
X44615Y64838D02*
D03*
X46015D02*
D03*
D79*
X26926Y6766D02*
D03*
X26026D02*
D03*
X120677Y50690D02*
D03*
X121577D02*
D03*
X18820Y79773D02*
D03*
X19720D02*
D03*
X19703Y82067D02*
D03*
X18803D02*
D03*
Y83134D02*
D03*
X19703D02*
D03*
D81*
X24699Y6822D02*
D03*
X23799D02*
D03*
X18820Y81043D02*
D03*
X19720D02*
D03*
X37494Y82649D02*
D03*
X38394D02*
D03*
X44533Y62982D02*
D03*
X45433D02*
D03*
D85*
X121908Y46532D02*
D03*
X120508D02*
D03*
X120488Y48404D02*
D03*
X121888D02*
D03*
D91*
X40603Y41250D02*
D03*
X39203Y41250D02*
D03*
D92*
X31769Y84779D02*
D03*
Y80279D02*
D03*
X22269Y84779D02*
D03*
Y80279D02*
D03*
X41065D02*
D03*
Y84779D02*
D03*
X50565Y80279D02*
D03*
Y84779D02*
D03*
D93*
X26299Y3146D02*
D03*
Y5596D02*
D03*
D94*
X28024Y4371D02*
D03*
X24574D02*
D03*
D95*
X26974Y3921D02*
D03*
Y4821D02*
D03*
X25624Y3921D02*
D03*
Y4821D02*
D03*
D96*
X77400Y44000D02*
D03*
X78200D02*
D03*
X79000D02*
D03*
X79800D02*
D03*
X80600D02*
D03*
X73400D02*
D03*
X74200D02*
D03*
X75000D02*
D03*
X75800D02*
D03*
X76600D02*
D03*
X69400D02*
D03*
X70200D02*
D03*
X71000D02*
D03*
X71800D02*
D03*
X72600D02*
D03*
X65400D02*
D03*
X66200D02*
D03*
X67000D02*
D03*
X67800D02*
D03*
X68600D02*
D03*
X61400D02*
D03*
X62200D02*
D03*
X63000D02*
D03*
X63800D02*
D03*
X64600D02*
D03*
X57400D02*
D03*
X58200D02*
D03*
X59000D02*
D03*
X59800D02*
D03*
X60600D02*
D03*
X53400D02*
D03*
X54200D02*
D03*
X55000D02*
D03*
X55800D02*
D03*
X56600D02*
D03*
X52600D02*
D03*
X51800D02*
D03*
X51000D02*
D03*
X50200D02*
D03*
X49400D02*
D03*
D97*
X5513Y28905D02*
D03*
Y27635D02*
D03*
Y26365D02*
D03*
Y25095D02*
D03*
Y23825D02*
D03*
X4243D02*
D03*
Y25095D02*
D03*
Y26365D02*
D03*
Y27635D02*
D03*
Y28905D02*
D03*
D98*
X18628Y84358D02*
D03*
X19878D02*
D03*
X37170Y84068D02*
D03*
X38420D02*
D03*
M02*
