G04 Layer_Color=128*
%FSLAX43Y43*%
%MOMM*%
G71*
G01*
G75*
%ADD88C,0.127*%
%ADD255C,0.051*%
D88*
X0Y5080D02*
G03*
X5080Y-0I5080J0D01*
G01*
X121920D02*
G03*
X127000Y5080I0J5080D01*
G01*
X127000Y82920D02*
G03*
X121920Y88000I-5080J0D01*
G01*
X5080Y88000D02*
G03*
X0Y82920I-0J-5080D01*
G01*
X109060Y80620D02*
G03*
X108192Y81610I-929J61D01*
G01*
X108161Y79781D02*
G03*
X109060Y80620I30J869D01*
G01*
X94186Y81611D02*
G03*
X93287Y80772I-30J-869D01*
G01*
Y80772D02*
G03*
X94155Y79781I929J-61D01*
G01*
X15900Y-0D02*
X121920D01*
X5080D02*
X15900D01*
X127000Y5080D02*
Y82920D01*
X108192Y88000D02*
X121920D01*
X94155Y79781D02*
X108160D01*
X94186Y81611D02*
Y88000D01*
X108192Y81610D02*
Y88005D01*
X5080Y88000D02*
X94186D01*
X0Y5080D02*
Y82920D01*
D255*
X108338Y5131D02*
X109238D01*
X108788Y4681D02*
Y5581D01*
X113338Y5131D02*
X114238D01*
X113788Y4681D02*
Y5581D01*
X107488Y2431D02*
X108088D01*
X107788Y2131D02*
Y2731D01*
X114488Y2431D02*
X115088D01*
X114788Y2131D02*
Y2731D01*
X4328Y30175D02*
X5428D01*
X4878Y29625D02*
Y30725D01*
X3313Y22555D02*
X4413D01*
X3863Y22005D02*
Y23105D01*
X5343Y22555D02*
X6443D01*
X5893Y22005D02*
Y23105D01*
X120150Y22860D02*
X121150D01*
X120650Y22360D02*
Y23360D01*
X122690Y22860D02*
X123690D01*
X123190Y22360D02*
Y23360D01*
X3330Y5080D02*
X6830D01*
X5080Y3330D02*
Y6830D01*
X120170Y5080D02*
X123670D01*
X121920Y3330D02*
Y6830D01*
X120170Y82918D02*
X123670D01*
X121920Y81168D02*
Y84668D01*
X3330Y82918D02*
X6830D01*
X5080Y81168D02*
Y84668D01*
X7168Y54878D02*
X8068D01*
X7618Y54428D02*
Y55328D01*
X9168Y54878D02*
X10068D01*
X9618Y54428D02*
Y55328D01*
X9168Y56878D02*
X10068D01*
X9618Y56428D02*
Y57328D01*
X7168Y56878D02*
X8068D01*
X7618Y56428D02*
Y57328D01*
X7168Y58878D02*
X8068D01*
X7618Y58428D02*
Y59328D01*
X7168Y60878D02*
X8068D01*
X7618Y60428D02*
Y61328D01*
X7168Y62878D02*
X8068D01*
X7618Y62428D02*
Y63328D01*
X7168Y64878D02*
X8068D01*
X7618Y64428D02*
Y65328D01*
X7168Y66878D02*
X8068D01*
X7618Y66428D02*
Y67328D01*
X7168Y68878D02*
X8068D01*
X7618Y68428D02*
Y69328D01*
X7168Y70878D02*
X8068D01*
X7618Y70428D02*
Y71328D01*
X7168Y72878D02*
X8068D01*
X7618Y72428D02*
Y73328D01*
X9168Y58878D02*
X10068D01*
X9618Y58428D02*
Y59328D01*
X9168Y60878D02*
X10068D01*
X9618Y60428D02*
Y61328D01*
X9168Y62878D02*
X10068D01*
X9618Y62428D02*
Y63328D01*
X9168Y64878D02*
X10068D01*
X9618Y64428D02*
Y65328D01*
X9168Y66878D02*
X10068D01*
X9618Y66428D02*
Y67328D01*
X9168Y68878D02*
X10068D01*
X9618Y68428D02*
Y69328D01*
X9168Y70878D02*
X10068D01*
X9618Y70428D02*
Y71328D01*
X9168Y72878D02*
X10068D01*
X9618Y72428D02*
Y73328D01*
X40140Y2540D02*
X41140D01*
X40640Y2040D02*
Y3040D01*
X40140Y5080D02*
X41140D01*
X40640Y4580D02*
Y5580D01*
X43950Y2540D02*
X44950D01*
X44450Y2040D02*
Y3040D01*
X43950Y5080D02*
X44950D01*
X44450Y4580D02*
Y5580D01*
X50300Y2540D02*
X51300D01*
X50800Y2040D02*
Y3040D01*
X50300Y5080D02*
X51300D01*
X50800Y4580D02*
Y5580D01*
X5850Y17780D02*
X6850D01*
X6350Y17280D02*
Y18280D01*
X3310Y17780D02*
X4310D01*
X3810Y17280D02*
Y18280D01*
X5850Y12700D02*
X6850D01*
X6350Y12200D02*
Y13200D01*
X3310Y12700D02*
X4310D01*
X3810Y12200D02*
Y13200D01*
X12327Y83642D02*
X13327D01*
X12827Y83142D02*
Y84142D01*
X12327Y81102D02*
X13327D01*
X12827Y80602D02*
Y81602D01*
X17694Y5001D02*
X19694D01*
X18694Y4001D02*
Y6001D01*
X17694Y12001D02*
X19694D01*
X18694Y11001D02*
Y13001D01*
X32020Y5001D02*
X34020D01*
X33020Y4001D02*
Y6001D01*
X32020Y12001D02*
X34020D01*
X33020Y11001D02*
Y13001D01*
X4252Y36084D02*
X5442D01*
X4847Y35489D02*
Y36679D01*
X4252Y46974D02*
X5442D01*
X4847Y46379D02*
Y47569D01*
X4362Y38354D02*
X5332D01*
X4847Y37869D02*
Y38839D01*
X4362Y44704D02*
X5332D01*
X4847Y44219D02*
Y45189D01*
X65041Y5336D02*
X65691D01*
X65366Y5011D02*
Y5661D01*
X69541Y1686D02*
X70391D01*
X69966Y1261D02*
Y2111D01*
X71466Y2336D02*
X72066D01*
X71766Y2036D02*
Y2636D01*
X69491Y5336D02*
X70141D01*
X69816Y5011D02*
Y5661D01*
X63116Y2336D02*
X63716D01*
X63416Y2036D02*
Y2636D01*
X64791Y1686D02*
X65641D01*
X65216Y1261D02*
Y2111D01*
X95832Y5170D02*
X96732D01*
X96282Y4720D02*
Y5620D01*
X100832Y5170D02*
X101732D01*
X101282Y4720D02*
Y5620D01*
X94982Y2470D02*
X95582D01*
X95282Y2170D02*
Y2770D01*
X101982Y2470D02*
X102582D01*
X102282Y2170D02*
Y2770D01*
X122715Y28785D02*
X123715D01*
X123215Y28285D02*
Y29285D01*
X122715Y31325D02*
X123715D01*
X123215Y30825D02*
Y31825D01*
X122715Y33865D02*
X123715D01*
X123215Y33365D02*
Y34365D01*
X122715Y36405D02*
X123715D01*
X123215Y35905D02*
Y36905D01*
X9736Y50276D02*
X10736D01*
X10236Y49776D02*
Y50776D01*
X7196Y50276D02*
X8196D01*
X7696Y49776D02*
Y50776D01*
X108876Y83811D02*
X109576D01*
X109226Y83461D02*
Y84161D01*
X107896Y78491D02*
X108596D01*
X108246Y78141D02*
Y78841D01*
X105606Y78491D02*
X106306D01*
X105956Y78141D02*
Y78841D01*
X93776Y78491D02*
X94476D01*
X94126Y78141D02*
Y78841D01*
X97266Y77411D02*
X97966D01*
X97616Y77061D02*
Y77761D01*
X98286Y76311D02*
X98986D01*
X98636Y75961D02*
Y76661D01*
X99306Y77411D02*
X100006D01*
X99656Y77061D02*
Y77761D01*
X100326Y76311D02*
X101026D01*
X100676Y75961D02*
Y76661D01*
X101346Y77411D02*
X102046D01*
X101696Y77061D02*
Y77761D01*
X102366Y76311D02*
X103066D01*
X102716Y75961D02*
Y76661D01*
X103386Y77411D02*
X104086D01*
X103736Y77061D02*
Y77761D01*
X104406Y76311D02*
X105106D01*
X104756Y75961D02*
Y76661D01*
X96066Y78491D02*
X96766D01*
X96416Y78141D02*
Y78841D01*
X92796Y83811D02*
X93496D01*
X93146Y83461D02*
Y84161D01*
X82100Y44000D02*
X83100D01*
X82600Y43500D02*
Y44500D01*
X46900Y44000D02*
X47900D01*
X47400Y43500D02*
Y44500D01*
X54110Y2540D02*
X55110D01*
X54610Y2040D02*
Y3040D01*
X54110Y5080D02*
X55110D01*
X54610Y4580D02*
Y5580D01*
X88400Y5080D02*
X89400D01*
X88900Y4580D02*
Y5580D01*
X85860Y5080D02*
X86860D01*
X86360Y4580D02*
Y5580D01*
X83320Y5080D02*
X84320D01*
X83820Y4580D02*
Y5580D01*
X80780Y5080D02*
X81780D01*
X81280Y4580D02*
Y5580D01*
X83320Y2540D02*
X84320D01*
X83820Y2040D02*
Y3040D01*
X85860Y2540D02*
X86860D01*
X86360Y2040D02*
Y3040D01*
X88400Y2540D02*
X89400D01*
X88900Y2040D02*
Y3040D01*
X80780Y2540D02*
X81780D01*
X81280Y2040D02*
Y3040D01*
X78240Y2540D02*
X79240D01*
X78740Y2040D02*
Y3040D01*
X75700Y2540D02*
X76700D01*
X76200Y2040D02*
Y3040D01*
X75700Y5080D02*
X76700D01*
X76200Y4580D02*
Y5580D01*
X78240Y5080D02*
X79240D01*
X78740Y4580D02*
Y5580D01*
X82140Y19047D02*
X82445D01*
X82293Y18894D02*
Y19199D01*
X82902Y19047D02*
X83207D01*
X83055Y18894D02*
Y19199D01*
X80675Y20980D02*
X80929D01*
X80802Y20853D02*
Y21107D01*
X80747Y21742D02*
X81001D01*
X80874Y21615D02*
Y21869D01*
X76175Y15549D02*
X76378D01*
X76276Y15448D02*
Y15651D01*
X59639Y67440D02*
X59842D01*
X59741Y67338D02*
Y67541D01*
X59630Y66850D02*
X59833D01*
X59732Y66748D02*
Y66952D01*
X72756Y36421D02*
X73010D01*
X72883Y36294D02*
Y36548D01*
X109979Y22098D02*
X110233D01*
X110106Y21971D02*
Y22225D01*
X45877Y60741D02*
X46080D01*
X45979Y60640D02*
Y60843D01*
X73711Y53453D02*
X73965D01*
X73838Y53326D02*
Y53580D01*
X71765Y71191D02*
X72019D01*
X71892Y71064D02*
Y71318D01*
X81839Y59686D02*
X82093D01*
X81966Y59559D02*
Y59813D01*
X52029Y76179D02*
X52283D01*
X52156Y76052D02*
Y76306D01*
X49479Y68047D02*
X49682D01*
X49581Y67945D02*
Y68148D01*
X47925Y53652D02*
X48128D01*
X48026Y53550D02*
Y53753D01*
X47359Y53721D02*
X47562D01*
X47460Y53620D02*
Y53823D01*
X45060Y55956D02*
X45263D01*
X45161Y55855D02*
Y56058D01*
X45542Y53289D02*
X45745D01*
X45644Y53188D02*
Y53391D01*
X47664Y54132D02*
X47867D01*
X47765Y54030D02*
Y54233D01*
X48025Y52806D02*
X48228D01*
X48127Y52704D02*
Y52907D01*
X46913Y73177D02*
X47167D01*
X47040Y73050D02*
Y73304D01*
X40538Y51594D02*
X40792D01*
X40665Y51467D02*
Y51721D01*
X49784Y78854D02*
X50038D01*
X49911Y78727D02*
Y78981D01*
X63475Y54792D02*
X63729D01*
X63602Y54665D02*
Y54919D01*
X63475Y57262D02*
X63729D01*
X63602Y57135D02*
Y57389D01*
X49146Y49682D02*
X49400D01*
X49273Y49555D02*
Y49809D01*
X48158Y49682D02*
X48412D01*
X48285Y49555D02*
Y49809D01*
X59154Y59385D02*
X59408D01*
X59281Y59258D02*
Y59512D01*
X58950Y57154D02*
X59153D01*
X59052Y57053D02*
Y57256D01*
X57064Y58308D02*
X57267D01*
X57165Y58207D02*
Y58410D01*
X55503Y56713D02*
X55706D01*
X55605Y56611D02*
Y56814D01*
X54721Y56736D02*
X54924D01*
X54823Y56635D02*
Y56837D01*
X52324Y56769D02*
X52527D01*
X52426Y56668D02*
Y56870D01*
X48277Y56741D02*
X48480D01*
X48379Y56640D02*
Y56843D01*
X48569Y58996D02*
X48772D01*
X48671Y58895D02*
Y59098D01*
X48277Y57541D02*
X48480D01*
X48379Y57439D02*
Y57642D01*
X55514Y58369D02*
X55717D01*
X55615Y58267D02*
Y58470D01*
X53696Y60096D02*
X53899D01*
X53797Y59995D02*
Y60198D01*
X54721Y59121D02*
X54924D01*
X54823Y59020D02*
Y59223D01*
X53093Y58359D02*
X53296D01*
X53195Y58258D02*
Y58461D01*
X56240Y56635D02*
X56443D01*
X56342Y56534D02*
Y56737D01*
X56283Y58346D02*
X56486D01*
X56385Y58244D02*
Y58447D01*
X58061Y60195D02*
X58264D01*
X58163Y60093D02*
Y60296D01*
X60195Y60276D02*
X60449D01*
X60322Y60149D02*
Y60403D01*
X59233Y62408D02*
X59436D01*
X59334Y62306D02*
Y62509D01*
X59966Y61612D02*
X60169D01*
X60068Y61510D02*
Y61713D01*
X44047Y63715D02*
X44250D01*
X44149Y63613D02*
Y63816D01*
X40005Y63560D02*
X40259D01*
X40132Y63433D02*
Y63687D01*
X40005Y64551D02*
X40259D01*
X40132Y64424D02*
Y64678D01*
X42567Y66116D02*
X42821D01*
X42694Y65989D02*
Y66243D01*
X27182Y20523D02*
X27386D01*
X27284Y20422D02*
Y20625D01*
X22834Y20523D02*
X23038D01*
X22936Y20422D02*
Y20625D01*
X22835Y19573D02*
X23038D01*
X22936Y19472D02*
Y19675D01*
X11074Y52299D02*
X11277D01*
X11175Y52197D02*
Y52400D01*
X8539Y40259D02*
X8742D01*
X8640Y40157D02*
Y40361D01*
X14246Y52299D02*
X14450D01*
X14348Y52197D02*
Y52400D01*
X14262Y54198D02*
X14465D01*
X14364Y54096D02*
Y54300D01*
X110161Y982D02*
X110415D01*
X110288Y855D02*
Y1109D01*
X112161Y920D02*
X112415D01*
X112288Y793D02*
Y1047D01*
X66396Y10961D02*
X66650D01*
X66523Y10834D02*
Y11088D01*
X108788Y6538D02*
X109093D01*
X108941Y6385D02*
Y6690D01*
X112928Y6401D02*
X113182D01*
X113055Y6274D02*
Y6528D01*
X112039Y7772D02*
X112293D01*
X112166Y7645D02*
Y7899D01*
X90738Y28829D02*
X90992D01*
X90865Y28702D02*
Y28956D01*
X90738Y26822D02*
X90992D01*
X90865Y26695D02*
Y26949D01*
X90738Y27863D02*
X90992D01*
X90865Y27736D02*
Y27990D01*
X81759Y18412D02*
X82064D01*
X81912Y18259D02*
Y18564D01*
X24470Y33436D02*
X24622D01*
X24546Y33360D02*
Y33512D01*
X23649Y31257D02*
X23801D01*
X23725Y31181D02*
Y31333D01*
X52465Y65550D02*
X52668D01*
X52566Y65449D02*
Y65652D01*
X51569Y65634D02*
X51773D01*
X51671Y65532D02*
Y65735D01*
X52350Y66446D02*
X52552D01*
X52451Y66345D02*
Y66548D01*
X40056Y53188D02*
X40310D01*
X40183Y53061D02*
Y53315D01*
X28194Y56439D02*
X28397D01*
X28296Y56337D02*
Y56540D01*
X19555Y45963D02*
X19809D01*
X19682Y45836D02*
Y46090D01*
X65831Y36988D02*
X66034D01*
X65932Y36887D02*
Y37090D01*
X65913Y38405D02*
X66167D01*
X66040Y38278D02*
Y38532D01*
X64468Y36459D02*
X64671D01*
X64569Y36357D02*
Y36561D01*
X64338Y35763D02*
X64541D01*
X64440Y35662D02*
Y35865D01*
X26604Y52575D02*
X26807D01*
X26705Y52473D02*
Y52676D01*
X28448Y52756D02*
X28651D01*
X28550Y52654D02*
Y52857D01*
X90602Y55059D02*
X90856D01*
X90729Y54932D02*
Y55186D01*
X93535Y61465D02*
X93789D01*
X93662Y61338D02*
Y61592D01*
X93523Y58141D02*
X93777D01*
X93650Y58014D02*
Y58268D01*
X81063Y85330D02*
X81317D01*
X81190Y85203D02*
Y85457D01*
X65504Y49781D02*
X65758D01*
X65631Y49654D02*
Y49908D01*
X70891Y41649D02*
X71145D01*
X71018Y41522D02*
Y41776D01*
X70838Y42542D02*
X71092D01*
X70965Y42415D02*
Y42669D01*
X54353Y49682D02*
X54607D01*
X54480Y49555D02*
Y49809D01*
X69187Y53365D02*
X69441D01*
X69314Y53238D02*
Y53492D01*
X6502Y23825D02*
X6756D01*
X6629Y23698D02*
Y23952D01*
X6528Y26365D02*
X6782D01*
X6655Y26238D02*
Y26492D01*
X6528Y28905D02*
X6782D01*
X6655Y28778D02*
Y29032D01*
X11354Y27610D02*
X11659D01*
X11506Y27457D02*
Y27762D01*
X57252Y13030D02*
X57506D01*
X57379Y12903D02*
Y13157D01*
X12421Y34950D02*
X12675D01*
X12548Y34823D02*
Y35077D01*
X14402Y35804D02*
X14656D01*
X14529Y35677D02*
Y35931D01*
X13741Y31953D02*
X13995D01*
X13868Y31826D02*
Y32080D01*
X14757Y31394D02*
X15011D01*
X14884Y31267D02*
Y31521D01*
X15392Y30353D02*
X15646D01*
X15519Y30226D02*
Y30480D01*
X16332Y30012D02*
X16586D01*
X16459Y29885D02*
Y30139D01*
X10141Y35824D02*
X10395D01*
X10268Y35697D02*
Y35951D01*
X53391Y21666D02*
X53645D01*
X53518Y21539D02*
Y21793D01*
X56617Y19863D02*
X56871D01*
X56744Y19736D02*
Y19990D01*
X36398Y30379D02*
X36652D01*
X36525Y30252D02*
Y30506D01*
X54966Y22784D02*
X55220D01*
X55093Y22657D02*
Y22911D01*
X50221Y28898D02*
X50475D01*
X50348Y28771D02*
Y29025D01*
X53696Y25984D02*
X53950D01*
X53823Y25857D02*
Y26111D01*
X41605Y33506D02*
X41808D01*
X41707Y33404D02*
Y33607D01*
X34900Y33580D02*
X35154D01*
X35027Y33453D02*
Y33707D01*
X36466Y31202D02*
X36720D01*
X36593Y31075D02*
Y31329D01*
X35956Y33706D02*
X36210D01*
X36083Y33579D02*
Y33833D01*
X36888Y33630D02*
X37142D01*
X37015Y33503D02*
Y33757D01*
X38583Y33985D02*
X38837D01*
X38710Y33858D02*
Y34112D01*
X39243Y35230D02*
X39497D01*
X39370Y35103D02*
Y35357D01*
X13785Y39809D02*
X14039D01*
X13912Y39682D02*
Y39936D01*
X11448Y39784D02*
X11702D01*
X11575Y39657D02*
Y39911D01*
X96545Y49606D02*
X96799D01*
X96672Y49479D02*
Y49733D01*
X88646Y70104D02*
X88900D01*
X88773Y69977D02*
Y70231D01*
X89049Y73736D02*
X89354D01*
X89202Y73584D02*
Y73889D01*
X115468Y49657D02*
X115722D01*
X115595Y49530D02*
Y49784D01*
X119532Y49629D02*
X119786D01*
X119659Y49502D02*
Y49756D01*
X123598Y44712D02*
X123852D01*
X123725Y44585D02*
Y44839D01*
X124258Y47500D02*
X124512D01*
X124385Y47373D02*
Y47627D01*
X116541Y46482D02*
X116795D01*
X116668Y46355D02*
Y46609D01*
X120371Y44983D02*
X120625D01*
X120498Y44856D02*
Y45110D01*
X94031Y57023D02*
X94285D01*
X94158Y56896D02*
Y57150D01*
X93287Y56582D02*
X93541D01*
X93414Y56455D02*
Y56709D01*
X90373Y57887D02*
X90627D01*
X90500Y57760D02*
Y58014D01*
X91364Y55867D02*
X91618D01*
X91491Y55740D02*
Y55994D01*
X93167Y51079D02*
X93421D01*
X93294Y50952D02*
Y51206D01*
X93269Y54322D02*
X93523D01*
X93396Y54195D02*
Y54449D01*
X92151Y54322D02*
X92405D01*
X92278Y54195D02*
Y54449D01*
X84861Y49759D02*
X85115D01*
X84988Y49632D02*
Y49886D01*
X83541Y43866D02*
X83795D01*
X83668Y43739D02*
Y43993D01*
X88477Y55332D02*
X88731D01*
X88604Y55205D02*
Y55459D01*
X38481Y48768D02*
X38735D01*
X38608Y48641D02*
Y48895D01*
X38468Y49403D02*
X38722D01*
X38595Y49276D02*
Y49530D01*
X20295Y4039D02*
X20549D01*
X20422Y3912D02*
Y4166D01*
X35049Y54815D02*
X35303D01*
X35176Y54688D02*
Y54942D01*
X65656Y67028D02*
X65910D01*
X65783Y66901D02*
Y67155D01*
X97914Y60924D02*
X98168D01*
X98041Y60797D02*
Y61051D01*
X100457Y59055D02*
X100711D01*
X100584Y58928D02*
Y59182D01*
X105788Y58249D02*
X106042D01*
X105915Y58122D02*
Y58376D01*
X105788Y60967D02*
X106042D01*
X105915Y60840D02*
Y61094D01*
X96390Y58293D02*
X96644D01*
X96517Y58166D02*
Y58420D01*
X96136Y54226D02*
X96390D01*
X96263Y54099D02*
Y54353D01*
X103825Y54226D02*
X104079D01*
X103952Y54099D02*
Y54353D01*
X101460Y59156D02*
X101714D01*
X101587Y59029D02*
Y59283D01*
X95478Y62120D02*
X95732D01*
X95605Y61993D02*
Y62247D01*
X102448Y59151D02*
X102702D01*
X102575Y59024D02*
Y59278D01*
X98018Y62120D02*
X98272D01*
X98145Y61993D02*
Y62247D01*
X67688Y54861D02*
X67942D01*
X67815Y54734D02*
Y54988D01*
X36205Y66372D02*
X36407D01*
X36306Y66271D02*
Y66473D01*
X36217Y67289D02*
X36420D01*
X36319Y67187D02*
Y67390D01*
X36957Y69192D02*
X37211D01*
X37084Y69065D02*
Y69319D01*
X36957Y70147D02*
X37211D01*
X37084Y70020D02*
Y70274D01*
X36957Y68166D02*
X37211D01*
X37084Y68039D02*
Y68293D01*
X36957Y66367D02*
X37211D01*
X37084Y66240D02*
Y66494D01*
X54721Y63111D02*
X54924D01*
X54823Y63009D02*
Y63212D01*
X54704Y62367D02*
X54907D01*
X54805Y62265D02*
Y62468D01*
X48301Y63962D02*
X48503D01*
X48402Y63861D02*
Y64063D01*
X47497Y63954D02*
X47700D01*
X47599Y63852D02*
Y64055D01*
X47478Y62367D02*
X47681D01*
X47579Y62265D02*
Y62468D01*
X36957Y65521D02*
X37211D01*
X37084Y65394D02*
Y65648D01*
X36205Y65524D02*
X36407D01*
X36306Y65422D02*
Y65625D01*
X36957Y64523D02*
X37211D01*
X37084Y64396D02*
Y64650D01*
X36205Y64541D02*
X36407D01*
X36306Y64439D02*
Y64642D01*
X54732Y59913D02*
X54934D01*
X54833Y59812D02*
Y60014D01*
X36197Y59278D02*
X36400D01*
X36299Y59177D02*
Y59379D01*
X35049Y53210D02*
X35303D01*
X35176Y53083D02*
Y53337D01*
X36154Y46946D02*
X36357D01*
X36256Y46845D02*
Y47048D01*
X36795Y46990D02*
X36998D01*
X36896Y46889D02*
Y47091D01*
X36179Y48031D02*
X36382D01*
X36281Y47929D02*
Y48132D01*
X36142Y45897D02*
X36344D01*
X36243Y45796D02*
Y45999D01*
X36810Y44856D02*
X37013D01*
X36911Y44754D02*
Y44957D01*
X36810Y45897D02*
X37013D01*
X36911Y45796D02*
Y45999D01*
X96092Y30944D02*
X96295D01*
X96194Y30843D02*
Y31046D01*
X101284Y23804D02*
X101487D01*
X101386Y23702D02*
Y23905D01*
X101924Y30286D02*
X102127D01*
X102026Y30184D02*
Y30387D01*
X103244Y25755D02*
X103446D01*
X103345Y25653D02*
Y25856D01*
X103235Y25105D02*
X103438D01*
X103337Y25003D02*
Y25206D01*
X11448Y41455D02*
X11702D01*
X11575Y41328D02*
Y41582D01*
X10776Y44409D02*
X11030D01*
X10903Y44282D02*
Y44536D01*
X56918Y40434D02*
X57172D01*
X57045Y40307D02*
Y40561D01*
X11448Y42900D02*
X11702D01*
X11575Y42773D02*
Y43027D01*
X8036Y75244D02*
X8290D01*
X8163Y75117D02*
Y75371D01*
X17541Y78308D02*
X17795D01*
X17668Y78181D02*
Y78435D01*
X56029Y69974D02*
X56232D01*
X56131Y69872D02*
Y70075D01*
X4749Y72720D02*
X5003D01*
X4876Y72593D02*
Y72847D01*
X6248Y74980D02*
X6502D01*
X6375Y74853D02*
Y75107D01*
X5486Y75006D02*
X5740D01*
X5613Y74879D02*
Y75133D01*
X46677Y66367D02*
X46880D01*
X46779Y66265D02*
Y66468D01*
X14094Y71902D02*
X14348D01*
X14221Y71775D02*
Y72029D01*
X14348Y68069D02*
X14602D01*
X14475Y67942D02*
Y68196D01*
X33804Y42288D02*
X34007D01*
X33906Y42186D02*
Y42389D01*
X14351Y64942D02*
X14605D01*
X14478Y64815D02*
Y65069D01*
X55623Y42542D02*
X55877D01*
X55750Y42415D02*
Y42669D01*
X14351Y60370D02*
X14605D01*
X14478Y60243D02*
Y60497D01*
X55623Y41907D02*
X55877D01*
X55750Y41780D02*
Y42034D01*
X14351Y57322D02*
X14605D01*
X14478Y57195D02*
Y57449D01*
X51506Y32809D02*
X51760D01*
X51633Y32682D02*
Y32936D01*
X52575Y32890D02*
X52829D01*
X52702Y32763D02*
Y33017D01*
X54640Y41877D02*
X54894D01*
X54767Y41750D02*
Y42004D01*
X5511Y75801D02*
X5765D01*
X5638Y75674D02*
Y75928D01*
X93938Y27863D02*
X94141D01*
X94040Y27762D02*
Y27965D01*
X95438Y29657D02*
X95641D01*
X95539Y29556D02*
Y29759D01*
X94144Y32895D02*
X94347D01*
X94246Y32794D02*
Y32996D01*
X94144Y32245D02*
X94347D01*
X94246Y32144D02*
Y32347D01*
X22599Y53355D02*
X22801D01*
X22700Y53254D02*
Y53456D01*
X49098Y76720D02*
X49352D01*
X49225Y76593D02*
Y76847D01*
X21005Y52575D02*
X21208D01*
X21107Y52473D02*
Y52676D01*
X21806Y52575D02*
X22008D01*
X21907Y52473D02*
Y52676D01*
X40665Y75844D02*
X40919D01*
X40792Y75717D02*
Y75971D01*
X24086Y51638D02*
X24289D01*
X24188Y51536D02*
Y51739D01*
X37076Y61396D02*
X37330D01*
X37203Y61269D02*
Y61523D01*
X29717Y53258D02*
X29920D01*
X29819Y53156D02*
Y53359D01*
X27431Y53375D02*
X27634D01*
X27533Y53274D02*
Y53477D01*
X41656Y73126D02*
X41910D01*
X41783Y72999D02*
Y73253D01*
X30723Y53233D02*
X30926D01*
X30825Y53132D02*
Y53335D01*
X21005Y53375D02*
X21208D01*
X21107Y53274D02*
Y53477D01*
X40007Y69182D02*
X40261D01*
X40134Y69055D02*
Y69309D01*
X26632Y57373D02*
X26834D01*
X26733Y57272D02*
Y57474D01*
X26632Y56573D02*
X26834D01*
X26733Y56471D02*
Y56674D01*
X40043Y68132D02*
X40297D01*
X40170Y68005D02*
Y68259D01*
X27388Y58145D02*
X27591D01*
X27490Y58043D02*
Y58246D01*
X40005Y70055D02*
X40259D01*
X40132Y69928D02*
Y70182D01*
X27431Y56573D02*
X27634D01*
X27533Y56471D02*
Y56674D01*
X37061Y67292D02*
X37315D01*
X37188Y67165D02*
Y67419D01*
X44805Y73025D02*
X45059D01*
X44932Y72898D02*
Y73152D01*
X27412Y60553D02*
X27615D01*
X27513Y60451D02*
Y60654D01*
X43746Y73025D02*
X44000D01*
X43873Y72898D02*
Y73152D01*
X26632Y55775D02*
X26834D01*
X26733Y55673D02*
Y55876D01*
X42672Y75971D02*
X42926D01*
X42799Y75844D02*
Y76098D01*
X25831Y55775D02*
X26034D01*
X25933Y55673D02*
Y55876D01*
X37061Y63543D02*
X37315D01*
X37188Y63416D02*
Y63670D01*
X27431Y54975D02*
X27634D01*
X27533Y54874D02*
Y55076D01*
X45847Y76022D02*
X46101D01*
X45974Y75895D02*
Y76149D01*
X21806Y54975D02*
X22008D01*
X21907Y54874D02*
Y55076D01*
X43746Y76004D02*
X44000D01*
X43873Y75877D02*
Y76131D01*
X23779Y55717D02*
X23982D01*
X23881Y55615D02*
Y55818D01*
X45854Y73025D02*
X46108D01*
X45981Y72898D02*
Y73152D01*
X21806Y55775D02*
X22008D01*
X21907Y55673D02*
Y55876D01*
X21005Y57373D02*
X21208D01*
X21107Y57272D02*
Y57474D01*
X40012Y60317D02*
X40266D01*
X40139Y60190D02*
Y60444D01*
X25113Y53543D02*
X25316D01*
X25214Y53441D02*
Y53644D01*
X25607Y53035D02*
X25810D01*
X25709Y52933D02*
Y53136D01*
X37086Y60309D02*
X37340D01*
X37213Y60182D02*
Y60436D01*
X24388Y55692D02*
X24591D01*
X24490Y55591D02*
Y55794D01*
X21806Y58173D02*
X22008D01*
X21907Y58071D02*
Y58274D01*
X37091Y62481D02*
X37345D01*
X37218Y62354D02*
Y62608D01*
X21806Y51775D02*
X22008D01*
X21907Y51673D02*
Y51876D01*
X40040Y62478D02*
X40294D01*
X40167Y62351D02*
Y62605D01*
X22604Y52575D02*
X22807D01*
X22705Y52473D02*
Y52676D01*
X47625Y78079D02*
X47879D01*
X47752Y77952D02*
Y78206D01*
X21005Y51775D02*
X21208D01*
X21107Y51673D02*
Y51876D01*
X22604Y50947D02*
X22807D01*
X22705Y50846D02*
Y51049D01*
X26632Y53375D02*
X26834D01*
X26733Y53274D02*
Y53477D01*
X44836Y76004D02*
X45090D01*
X44963Y75877D02*
Y76131D01*
X47447Y76022D02*
X47701D01*
X47574Y75895D02*
Y76149D01*
X49077Y76014D02*
X49331D01*
X49204Y75887D02*
Y76141D01*
X24358Y53484D02*
X24561D01*
X24460Y53383D02*
Y53585D01*
X28960Y50358D02*
X29163D01*
X29062Y50257D02*
Y50460D01*
X29520Y50383D02*
X29722D01*
X29621Y50281D02*
Y50484D01*
X25761Y50129D02*
X25963D01*
X25862Y50027D02*
Y50230D01*
X23475Y51018D02*
X23677D01*
X23576Y50916D02*
Y51119D01*
X39801Y48107D02*
X40055D01*
X39928Y47980D02*
Y48234D01*
X20493Y51155D02*
X20696D01*
X20594Y51053D02*
Y51256D01*
X40523Y48155D02*
X40777D01*
X40650Y48028D02*
Y48282D01*
X21806Y50947D02*
X22008D01*
X21907Y50846D02*
Y51049D01*
X47478Y59166D02*
X47681D01*
X47579Y59065D02*
Y59267D01*
X41399Y42288D02*
X41653D01*
X41526Y42161D02*
Y42415D01*
X43431Y42288D02*
X43685D01*
X43558Y42161D02*
Y42415D01*
X44802Y42262D02*
X45056D01*
X44929Y42135D02*
Y42389D01*
X44066Y42288D02*
X44320D01*
X44193Y42161D02*
Y42415D01*
X40383Y42288D02*
X40637D01*
X40510Y42161D02*
Y42415D01*
X42415Y42288D02*
X42669D01*
X42542Y42161D02*
Y42415D01*
X39342Y42329D02*
X39596D01*
X39469Y42202D02*
Y42456D01*
X38328Y42336D02*
X38582D01*
X38455Y42209D02*
Y42463D01*
X56639Y41907D02*
X56893D01*
X56766Y41780D02*
Y42034D01*
X56639Y42542D02*
X56893D01*
X56766Y42415D02*
Y42669D01*
X57147Y27302D02*
X57401D01*
X57274Y27175D02*
Y27429D01*
X26467Y33256D02*
X26619D01*
X26543Y33180D02*
Y33332D01*
X57045Y53591D02*
X57248D01*
X57147Y53489D02*
Y53692D01*
X25148Y32755D02*
X25300D01*
X25224Y32679D02*
Y32831D01*
X57067Y53058D02*
X57270D01*
X57169Y52956D02*
Y53159D01*
X52425Y28623D02*
X52679D01*
X52552Y28496D02*
Y28750D01*
X70136Y31874D02*
X70390D01*
X70263Y31747D02*
Y32001D01*
X25646Y31935D02*
X25798D01*
X25722Y31859D02*
Y32011D01*
X25966Y32755D02*
X26118D01*
X26042Y32679D02*
Y32831D01*
X56385Y27302D02*
X56639D01*
X56512Y27175D02*
Y27429D01*
X56283Y55161D02*
X56486D01*
X56385Y55059D02*
Y55262D01*
X67307Y49809D02*
X67561D01*
X67434Y49682D02*
Y49936D01*
X98508Y59176D02*
X98762D01*
X98635Y59049D02*
Y59303D01*
X101828Y62120D02*
X102082D01*
X101955Y61993D02*
Y62247D01*
X99494Y59174D02*
X99748D01*
X99621Y59047D02*
Y59301D01*
X104368Y62120D02*
X104622D01*
X104495Y61993D02*
Y62247D01*
X57274Y78102D02*
X57528D01*
X57401Y77975D02*
Y78229D01*
X15694Y66189D02*
X15948D01*
X15821Y66062D02*
Y66316D01*
X14069Y77543D02*
X14323D01*
X14196Y77416D02*
Y77670D01*
X32128Y69847D02*
X32382D01*
X32255Y69720D02*
Y69974D01*
X31823Y74775D02*
X32077D01*
X31950Y74648D02*
Y74902D01*
X34112Y84500D02*
X34366D01*
X34239Y84373D02*
Y84627D01*
X55623Y77086D02*
X55877D01*
X55750Y76959D02*
Y77213D01*
X16364Y71092D02*
X16618D01*
X16491Y70965D02*
Y71219D01*
X33349Y74930D02*
X33603D01*
X33476Y74803D02*
Y75057D01*
X32077Y70507D02*
X32331D01*
X32204Y70380D02*
Y70634D01*
X55623Y77721D02*
X55877D01*
X55750Y77594D02*
Y77848D01*
X14754Y77594D02*
X15008D01*
X14881Y77467D02*
Y77721D01*
X15645Y68401D02*
X15899D01*
X15772Y68274D02*
Y68528D01*
X55953Y78686D02*
X56207D01*
X56080Y78559D02*
Y78813D01*
X26794Y75283D02*
X27048D01*
X26921Y75156D02*
Y75410D01*
X36040Y74648D02*
X36294D01*
X36167Y74521D02*
Y74775D01*
X32712Y70431D02*
X32966D01*
X32839Y70304D02*
Y70558D01*
X57274Y78737D02*
X57528D01*
X57401Y78610D02*
Y78864D01*
X13154Y77594D02*
X13408D01*
X13281Y77467D02*
Y77721D01*
X33221Y85137D02*
X33475D01*
X33348Y85010D02*
Y85264D01*
X57274Y77492D02*
X57528D01*
X57401Y77365D02*
Y77619D01*
X37947Y78994D02*
X38201D01*
X38074Y78867D02*
Y79121D01*
X14094Y72514D02*
X14348D01*
X14221Y72387D02*
Y72641D01*
X62354Y86357D02*
X62608D01*
X62481Y86230D02*
Y86484D01*
X70482Y83436D02*
X70736D01*
X70609Y83309D02*
Y83563D01*
X102867Y59611D02*
X103121D01*
X102994Y59484D02*
Y59738D01*
X101089Y59712D02*
X101343D01*
X101216Y59585D02*
Y59839D01*
X99616Y59814D02*
X99870D01*
X99743Y59687D02*
Y59941D01*
X98371Y59814D02*
X98625D01*
X98498Y59687D02*
Y59941D01*
X98676Y62100D02*
X98930D01*
X98803Y61973D02*
Y62227D01*
X101216Y62100D02*
X101470D01*
X101343Y61973D02*
Y62227D01*
X105026Y62100D02*
X105280D01*
X105153Y61973D02*
Y62227D01*
X45709Y33815D02*
X45861D01*
X45785Y33739D02*
Y33891D01*
X77949Y65275D02*
X78254D01*
X78102Y65122D02*
Y65427D01*
X85595Y20952D02*
X85849D01*
X85722Y20825D02*
Y21079D01*
X86738Y20952D02*
X86992D01*
X86865Y20825D02*
Y21079D01*
X85722Y37843D02*
X85976D01*
X85849Y37716D02*
Y37970D01*
X69113Y11049D02*
X69367D01*
X69240Y10922D02*
Y11176D01*
X87365Y14983D02*
X87619D01*
X87492Y14856D02*
Y15110D01*
X68351Y26873D02*
X68605D01*
X68478Y26746D02*
Y27000D01*
X67012Y71531D02*
X67266D01*
X67139Y71404D02*
Y71658D01*
X67825Y73530D02*
X68079D01*
X67952Y73403D02*
Y73657D01*
X43210Y29817D02*
X43362D01*
X43286Y29741D02*
Y29893D01*
X106677Y25908D02*
X106931D01*
X106804Y25781D02*
Y26035D01*
X23147Y32755D02*
X23299D01*
X23223Y32679D02*
Y32831D01*
X96344Y57406D02*
X96598D01*
X96471Y57279D02*
Y57533D01*
X103825Y56299D02*
X104079D01*
X103952Y56172D02*
Y56426D01*
X95996Y61630D02*
X96250D01*
X96123Y61503D02*
Y61757D01*
X103479Y56880D02*
X103733D01*
X103606Y56753D02*
Y57007D01*
X97914Y56741D02*
X98168D01*
X98041Y56614D02*
Y56868D01*
X100457Y56799D02*
X100711D01*
X100584Y56672D02*
Y56926D01*
X97066Y56385D02*
X97320D01*
X97193Y56258D02*
Y56512D01*
X61592Y86357D02*
X61846D01*
X61719Y86230D02*
Y86484D01*
X60472Y86588D02*
X60726D01*
X60599Y86461D02*
Y86715D01*
X59283Y86588D02*
X59537D01*
X59410Y86461D02*
Y86715D01*
X58597Y86588D02*
X58851D01*
X58724Y86461D02*
Y86715D01*
X57294Y86588D02*
X57548D01*
X57421Y86461D02*
Y86715D01*
X56438Y86588D02*
X56692D01*
X56565Y86461D02*
Y86715D01*
X60134Y64942D02*
X60388D01*
X60261Y64815D02*
Y65069D01*
X58613Y78206D02*
X58867D01*
X58740Y78079D02*
Y78333D01*
X57482Y68120D02*
X57736D01*
X57609Y67993D02*
Y68247D01*
X56304Y60741D02*
X56506D01*
X56405Y60640D02*
Y60843D01*
X53390Y60731D02*
X53593D01*
X53492Y60629D02*
Y60832D01*
X63774Y70662D02*
X64028D01*
X63901Y70535D02*
Y70789D01*
X60960Y74168D02*
X61214D01*
X61087Y74041D02*
Y74295D01*
X61010Y72372D02*
X61264D01*
X61137Y72245D02*
Y72499D01*
X63116Y74419D02*
X63370D01*
X63243Y74292D02*
Y74546D01*
X62354Y62562D02*
X62608D01*
X62481Y62435D02*
Y62689D01*
X26632Y54975D02*
X26834D01*
X26733Y54874D02*
Y55076D01*
X21005Y54975D02*
X21208D01*
X21107Y54874D02*
Y55076D01*
X22588Y57345D02*
X22791D01*
X22689Y57244D02*
Y57447D01*
X47478Y55940D02*
X47681D01*
X47579Y55838D02*
Y56041D01*
X50683Y59959D02*
X50885D01*
X50784Y59858D02*
Y60060D01*
X52304Y59941D02*
X52507D01*
X52405Y59839D02*
Y60042D01*
X49878Y60741D02*
X50081D01*
X49979Y60640D02*
Y60843D01*
X49135Y60751D02*
X49338D01*
X49237Y60649D02*
Y60852D01*
X45877Y62367D02*
X46080D01*
X45979Y62265D02*
Y62468D01*
X49904Y62341D02*
X50106D01*
X50005Y62240D02*
Y62442D01*
X45877Y63167D02*
X46080D01*
X45979Y63066D02*
Y63268D01*
X51496Y62367D02*
X51699D01*
X51597Y62265D02*
Y62468D01*
X50703Y62341D02*
X50906D01*
X50805Y62240D02*
Y62442D01*
X45877Y63967D02*
X46080D01*
X45979Y63865D02*
Y64068D01*
X39354Y64523D02*
X39608D01*
X39481Y64396D02*
Y64650D01*
X31640Y65872D02*
X31894D01*
X31767Y65745D02*
Y65999D01*
X17272Y53975D02*
X17526D01*
X17399Y53848D02*
Y54102D01*
X17272Y56316D02*
X17526D01*
X17399Y56189D02*
Y56443D01*
X17272Y55366D02*
X17526D01*
X17399Y55239D02*
Y55493D01*
X22809Y62636D02*
X23063D01*
X22936Y62509D02*
Y62763D01*
X26367Y62712D02*
X26621D01*
X26494Y62585D02*
Y62839D01*
X23708Y62661D02*
X23962D01*
X23835Y62534D02*
Y62788D01*
X33901Y59283D02*
X34155D01*
X34028Y59156D02*
Y59410D01*
X33965Y64541D02*
X34167D01*
X34066Y64439D02*
Y64642D01*
X33883Y58003D02*
X34137D01*
X34010Y57876D02*
Y58130D01*
X39298Y68166D02*
X39552D01*
X39425Y68039D02*
Y68293D01*
X39298Y70147D02*
X39552D01*
X39425Y70020D02*
Y70274D01*
X39298Y69192D02*
X39552D01*
X39425Y69065D02*
Y69319D01*
X37061Y59309D02*
X37315D01*
X37188Y59182D02*
Y59436D01*
X33965Y67289D02*
X34167D01*
X34066Y67187D02*
Y67390D01*
X33965Y65524D02*
X34167D01*
X34066Y65422D02*
Y65625D01*
X39298Y65521D02*
X39552D01*
X39425Y65394D02*
Y65648D01*
X33965Y66372D02*
X34167D01*
X34066Y66271D02*
Y66473D01*
X42212Y59306D02*
X42466D01*
X42339Y59179D02*
Y59433D01*
X49133Y62349D02*
X49336D01*
X49235Y62247D02*
Y62450D01*
X53103Y62316D02*
X53306D01*
X53205Y62214D02*
Y62417D01*
X50677Y60741D02*
X50880D01*
X50779Y60640D02*
Y60843D01*
X52304Y60741D02*
X52507D01*
X52405Y60640D02*
Y60843D01*
X52322Y59146D02*
X52525D01*
X52423Y59044D02*
Y59247D01*
X17637Y72702D02*
X17891D01*
X17764Y72575D02*
Y72829D01*
X25803Y57348D02*
X26006D01*
X25905Y57246D02*
Y57449D01*
X31417Y55471D02*
X31671D01*
X31544Y55344D02*
Y55598D01*
X106007Y23169D02*
X106261D01*
X106134Y23042D02*
Y23296D01*
X97393Y27061D02*
X97596D01*
X97495Y26959D02*
Y27162D01*
X100736Y43319D02*
X100990D01*
X100863Y43192D02*
Y43446D01*
X93726Y47447D02*
X93980D01*
X93853Y47320D02*
Y47574D01*
X97149Y19177D02*
X97403D01*
X97276Y19050D02*
Y19304D01*
X96019Y35161D02*
X96273D01*
X96146Y35034D02*
Y35288D01*
X97993Y37665D02*
X98247D01*
X98120Y37538D02*
Y37792D01*
X99796Y37670D02*
X100050D01*
X99923Y37543D02*
Y37797D01*
X98907Y37670D02*
X99161D01*
X99034Y37543D02*
Y37797D01*
X99514Y19598D02*
X99768D01*
X99641Y19471D02*
Y19725D01*
X100403Y19596D02*
X100657D01*
X100530Y19469D02*
Y19723D01*
X103248Y19428D02*
X103502D01*
X103375Y19301D02*
Y19555D01*
X94797Y37533D02*
X95051D01*
X94924Y37406D02*
Y37660D01*
X93535Y46357D02*
X93789D01*
X93662Y46230D02*
Y46484D01*
X102174Y38013D02*
X102428D01*
X102301Y37886D02*
Y38140D01*
X104645Y19428D02*
X104899D01*
X104772Y19301D02*
Y19555D01*
X93850Y37589D02*
X94104D01*
X93977Y37462D02*
Y37716D01*
X105844Y37950D02*
X106098D01*
X105971Y37823D02*
Y38077D01*
X109705Y49022D02*
X109959D01*
X109832Y48895D02*
Y49149D01*
X102301Y47919D02*
X102555D01*
X102428Y47792D02*
Y48046D01*
X102336Y50977D02*
X102590D01*
X102463Y50850D02*
Y51104D01*
X99451Y47929D02*
X99705D01*
X99578Y47802D02*
Y48056D01*
X99466Y50977D02*
X99720D01*
X99593Y50850D02*
Y51104D01*
X101018Y49461D02*
X101272D01*
X101145Y49334D02*
Y49588D01*
X102585Y23154D02*
X102788D01*
X102687Y23052D02*
Y23255D01*
X101924Y28986D02*
X102127D01*
X102026Y28885D02*
Y29087D01*
X101924Y28336D02*
X102127D01*
X102026Y28235D02*
Y28437D01*
X101934Y23154D02*
X102137D01*
X102036Y23052D02*
Y23255D01*
X100634Y28996D02*
X100837D01*
X100736Y28894D02*
Y29097D01*
X100634Y27703D02*
X100837D01*
X100736Y27602D02*
Y27804D01*
X100634Y27056D02*
X100837D01*
X100736Y26954D02*
Y27157D01*
X100634Y26405D02*
X100837D01*
X100736Y26304D02*
Y26507D01*
X100634Y29646D02*
X100837D01*
X100736Y29544D02*
Y29747D01*
X99984Y28996D02*
X100187D01*
X100086Y28894D02*
Y29097D01*
X99984Y27703D02*
X100187D01*
X100086Y27602D02*
Y27804D01*
X99984Y27056D02*
X100187D01*
X100086Y26954D02*
Y27157D01*
X99984Y26405D02*
X100187D01*
X100086Y26304D02*
Y26507D01*
X99984Y29646D02*
X100187D01*
X100086Y29544D02*
Y29747D01*
X99333Y28996D02*
X99536D01*
X99435Y28894D02*
Y29097D01*
X99333Y27703D02*
X99536D01*
X99435Y27602D02*
Y27804D01*
X99333Y27056D02*
X99536D01*
X99435Y26954D02*
Y27157D01*
X99333Y26405D02*
X99536D01*
X99435Y26304D02*
Y26507D01*
X99333Y30944D02*
X99536D01*
X99435Y30843D02*
Y31046D01*
X99333Y29646D02*
X99536D01*
X99435Y29544D02*
Y29747D01*
X98043Y28996D02*
X98246D01*
X98145Y28894D02*
Y29097D01*
X98043Y27703D02*
X98246D01*
X98145Y27602D02*
Y27804D01*
X98043Y27056D02*
X98246D01*
X98145Y26954D02*
Y27157D01*
X98043Y26405D02*
X98246D01*
X98145Y26304D02*
Y26507D01*
X98043Y23804D02*
X98246D01*
X98145Y23702D02*
Y23905D01*
X98043Y30944D02*
X98246D01*
X98145Y30843D02*
Y31046D01*
X98043Y29646D02*
X98246D01*
X98145Y29544D02*
Y29747D01*
X97393Y28996D02*
X97596D01*
X97495Y28894D02*
Y29097D01*
X97393Y27703D02*
X97596D01*
X97495Y27602D02*
Y27804D01*
X97393Y26405D02*
X97596D01*
X97495Y26304D02*
Y26507D01*
X97393Y23804D02*
X97596D01*
X97495Y23702D02*
Y23905D01*
X97393Y30944D02*
X97596D01*
X97495Y30843D02*
Y31046D01*
X97393Y29646D02*
X97596D01*
X97495Y29544D02*
Y29747D01*
X96092Y28996D02*
X96295D01*
X96194Y28894D02*
Y29097D01*
X96092Y27703D02*
X96295D01*
X96194Y27602D02*
Y27804D01*
X96092Y27056D02*
X96295D01*
X96194Y26954D02*
Y27157D01*
X96092Y25755D02*
X96295D01*
X96194Y25653D02*
Y25856D01*
X96006Y19050D02*
X96260D01*
X96133Y18923D02*
Y19177D01*
X100888Y37665D02*
X101142D01*
X101015Y37538D02*
Y37792D01*
X94158Y49479D02*
X94412D01*
X94285Y49352D02*
Y49606D01*
X97731Y40944D02*
X97985D01*
X97858Y40817D02*
Y41071D01*
X96753Y50665D02*
X97007D01*
X96880Y50538D02*
Y50792D01*
X68973Y27635D02*
X69227D01*
X69100Y27508D02*
Y27762D01*
X68322Y27635D02*
X68576D01*
X68449Y27508D02*
Y27762D01*
X92196Y21988D02*
X92450D01*
X92323Y21861D02*
Y22115D01*
X90738Y30784D02*
X90992D01*
X90865Y30657D02*
Y30911D01*
X90738Y31752D02*
X90992D01*
X90865Y31625D02*
Y31879D01*
X90738Y32689D02*
X90992D01*
X90865Y32562D02*
Y32816D01*
X90738Y23291D02*
X90992D01*
X90865Y23164D02*
Y23418D01*
X71892Y45958D02*
X72146D01*
X72019Y45831D02*
Y46085D01*
X90738Y24384D02*
X90992D01*
X90865Y24257D02*
Y24511D01*
X25831Y46149D02*
X26034D01*
X25933Y46048D02*
Y46250D01*
X46210Y31315D02*
X46362D01*
X46286Y31239D02*
Y31391D01*
X29969Y21968D02*
X30223D01*
X30096Y21841D02*
Y22095D01*
X30604Y20698D02*
X30858D01*
X30731Y20571D02*
Y20825D01*
X29182Y18920D02*
X29436D01*
X29309Y18793D02*
Y19047D01*
X30985Y21968D02*
X31239D01*
X31112Y21841D02*
Y22095D01*
X31493Y20698D02*
X31747D01*
X31620Y20571D02*
Y20825D01*
X31493Y19809D02*
X31747D01*
X31620Y19682D02*
Y19936D01*
X31673Y45704D02*
X31927D01*
X31800Y45577D02*
Y45831D01*
X31673Y47990D02*
X31927D01*
X31800Y47863D02*
Y48117D01*
X31673Y46771D02*
X31927D01*
X31800Y46644D02*
Y46898D01*
X28503Y48133D02*
X28706D01*
X28605Y48032D02*
Y48234D01*
X28428Y50363D02*
X28631D01*
X28529Y50261D02*
Y50464D01*
X24148Y31935D02*
X24300D01*
X24224Y31859D02*
Y32011D01*
X22305Y34521D02*
X22610D01*
X22458Y34368D02*
Y34673D01*
X18568Y32923D02*
X18770D01*
X18669Y32821D02*
Y33024D01*
X31010Y27683D02*
X31213D01*
X31112Y27581D02*
Y27784D01*
X30810Y31325D02*
X31013D01*
X30911Y31224D02*
Y31427D01*
X18568Y33685D02*
X18770D01*
X18669Y33583D02*
Y33786D01*
X52075Y22771D02*
X52329D01*
X52202Y22644D02*
Y22898D01*
X51173Y22771D02*
X51427D01*
X51300Y22644D02*
Y22898D01*
X37510Y31597D02*
X37764D01*
X37637Y31470D02*
Y31724D01*
X17272Y45963D02*
X17526D01*
X17399Y45836D02*
Y46090D01*
X23982Y42161D02*
X24236D01*
X24109Y42034D02*
Y42288D01*
X17272Y48402D02*
X17526D01*
X17399Y48275D02*
Y48529D01*
X17272Y51231D02*
X17526D01*
X17399Y51104D02*
Y51358D01*
X39050Y45897D02*
X39253D01*
X39151Y45796D02*
Y45999D01*
X39050Y44856D02*
X39253D01*
X39151Y44754D02*
Y44957D01*
X39032Y46990D02*
X39234D01*
X39133Y46889D02*
Y47091D01*
X33913Y46946D02*
X34116D01*
X34015Y46845D02*
Y47048D01*
X33906Y48031D02*
X34109D01*
X34008Y47929D02*
Y48132D01*
X33902Y45897D02*
X34104D01*
X34003Y45796D02*
Y45999D01*
X33907Y44856D02*
X34110D01*
X34008Y44754D02*
Y44957D01*
X31442Y48836D02*
X31696D01*
X31569Y48709D02*
Y48963D01*
X31010Y28742D02*
X31213D01*
X31112Y28640D02*
Y28843D01*
X18163Y31877D02*
X18366D01*
X18265Y31776D02*
Y31978D01*
X18086Y34671D02*
X18289D01*
X18188Y34570D02*
Y34772D01*
X18320Y30607D02*
X18523D01*
X18422Y30506D02*
Y30708D01*
X31010Y32346D02*
X31213D01*
X31112Y32244D02*
Y32447D01*
X27312Y25598D02*
X27515D01*
X27414Y25496D02*
Y25699D01*
X18220Y29324D02*
X18422D01*
X18321Y29223D02*
Y29426D01*
X24772Y25529D02*
X24975D01*
X24874Y25428D02*
Y25631D01*
X26042Y25613D02*
X26245D01*
X26144Y25511D02*
Y25714D01*
X22750Y38826D02*
X22953D01*
X22852Y38724D02*
Y38927D01*
X21480Y38826D02*
X21683D01*
X21582Y38724D02*
Y38927D01*
X43484Y21910D02*
X43738D01*
X43611Y21783D02*
Y22037D01*
X24968Y33756D02*
X25120D01*
X25044Y33680D02*
Y33832D01*
X23647Y32755D02*
X23799D01*
X23723Y32679D02*
Y32831D01*
X26467Y32755D02*
X26619D01*
X26543Y32679D02*
Y32831D01*
X27276Y31597D02*
X27581D01*
X27429Y31445D02*
Y31750D01*
X25097Y30233D02*
X25249D01*
X25173Y30157D02*
Y30309D01*
X25608Y30243D02*
X25760D01*
X25684Y30167D02*
Y30319D01*
X26756Y29916D02*
X27010D01*
X26883Y29789D02*
Y30043D01*
X50924Y42542D02*
X51178D01*
X51051Y42415D02*
Y42669D01*
X45209Y29316D02*
X45361D01*
X45285Y29240D02*
Y29392D01*
X44211Y29316D02*
X44363D01*
X44287Y29240D02*
Y29392D01*
X44711Y29814D02*
X44863D01*
X44787Y29738D02*
Y29890D01*
X44711Y31816D02*
X44863D01*
X44787Y31740D02*
Y31892D01*
X46891Y32316D02*
X47043D01*
X46967Y32240D02*
Y32392D01*
X44711Y32814D02*
X44863D01*
X44787Y32738D02*
Y32890D01*
X44211Y34815D02*
X44363D01*
X44287Y34739D02*
Y34891D01*
X45209Y36136D02*
X45361D01*
X45285Y36060D02*
Y36212D01*
X20858Y49761D02*
X21061D01*
X20960Y49659D02*
Y49862D01*
X22599Y46967D02*
X22801D01*
X22700Y46865D02*
Y47068D01*
X25831Y46946D02*
X26034D01*
X25933Y46845D02*
Y47048D01*
X45867Y22649D02*
X46121D01*
X45994Y22522D02*
Y22776D01*
X55823Y9704D02*
X56077D01*
X55950Y9577D02*
Y9831D01*
X26987Y42227D02*
X27241D01*
X27114Y42100D02*
Y42354D01*
X28018Y42227D02*
X28272D01*
X28145Y42100D02*
Y42354D01*
X20853Y42161D02*
X21107D01*
X20980Y42034D02*
Y42288D01*
X19862Y42161D02*
X20116D01*
X19989Y42034D02*
Y42288D01*
X18821Y42161D02*
X19075D01*
X18948Y42034D02*
Y42288D01*
X17272Y44985D02*
X17526D01*
X17399Y44858D02*
Y45112D01*
X17272Y47487D02*
X17526D01*
X17399Y47360D02*
Y47614D01*
X25933Y42217D02*
X26187D01*
X26060Y42090D02*
Y42344D01*
X17272Y49293D02*
X17526D01*
X17399Y49166D02*
Y49420D01*
X30840Y50398D02*
X31094D01*
X30967Y50271D02*
Y50525D01*
X17272Y50292D02*
X17526D01*
X17399Y50165D02*
Y50419D01*
X31010Y42227D02*
X31264D01*
X31137Y42100D02*
Y42354D01*
X29024Y42227D02*
X29278D01*
X29151Y42100D02*
Y42354D01*
X30015Y42227D02*
X30269D01*
X30142Y42100D02*
Y42354D01*
X27206Y35976D02*
X27409D01*
X27307Y35875D02*
Y36078D01*
X24086Y36065D02*
X24289D01*
X24188Y35963D02*
Y36166D01*
X23682Y5781D02*
X23936D01*
X23809Y5654D02*
Y5908D01*
X4724Y40970D02*
X4978D01*
X4851Y40843D02*
Y41097D01*
X4590Y42471D02*
X4844D01*
X4717Y42344D02*
Y42598D01*
X10130Y40665D02*
X10384D01*
X10257Y40538D02*
Y40792D01*
X24444Y4371D02*
X24698D01*
X24571Y4244D02*
Y4498D01*
X31595Y6782D02*
X31849D01*
X31722Y6655D02*
Y6909D01*
X96139Y56385D02*
X96393D01*
X96266Y56258D02*
Y56512D01*
X63296Y35811D02*
X63550D01*
X63423Y35684D02*
Y35938D01*
X106677Y30604D02*
X106931D01*
X106804Y30477D02*
Y30731D01*
X106006Y28953D02*
X106260D01*
X106133Y28826D02*
Y29080D01*
X105895Y19428D02*
X106149D01*
X106022Y19301D02*
Y19555D01*
X102438Y19476D02*
X102692D01*
X102565Y19349D02*
Y19603D01*
X39237Y36576D02*
X39491D01*
X39364Y36449D02*
Y36703D01*
X106525Y47035D02*
X106779D01*
X106652Y46908D02*
Y47162D01*
X54114Y79730D02*
X54368D01*
X54241Y79603D02*
Y79857D01*
X89913Y35245D02*
X90167D01*
X90040Y35118D02*
Y35372D01*
X87119Y37843D02*
X87373D01*
X87246Y37716D02*
Y37970D01*
X87119Y38771D02*
X87373D01*
X87246Y38644D02*
Y38898D01*
X88183Y35255D02*
X88437D01*
X88310Y35128D02*
Y35382D01*
X84764Y35176D02*
X85018D01*
X84891Y35049D02*
Y35303D01*
X88516Y17142D02*
X88770D01*
X88643Y17015D02*
Y17269D01*
X85722Y38771D02*
X85976D01*
X85849Y38644D02*
Y38898D01*
X54653Y42542D02*
X54907D01*
X54780Y42415D02*
Y42669D01*
X113281Y78483D02*
X113535D01*
X113408Y78356D02*
Y78610D01*
X90802Y86484D02*
X91056D01*
X90929Y86357D02*
Y86611D01*
X77949Y66545D02*
X78254D01*
X78102Y66392D02*
Y66697D01*
X20952Y83563D02*
X21206D01*
X21079Y83436D02*
Y83690D01*
X84259Y33271D02*
X84513D01*
X84386Y33144D02*
Y33398D01*
X22529Y42161D02*
X22783D01*
X22656Y42034D02*
Y42288D01*
X12491Y73197D02*
X12745D01*
X12618Y73070D02*
Y73324D01*
X86611Y68585D02*
X86865D01*
X86738Y68458D02*
Y68712D01*
X82801Y77848D02*
X83055D01*
X82928Y77721D02*
Y77975D01*
X82862Y82245D02*
X83116D01*
X82989Y82118D02*
Y82372D01*
X88389Y86865D02*
X88643D01*
X88516Y86738D02*
Y86992D01*
X86103Y86865D02*
X86357D01*
X86230Y86738D02*
Y86992D01*
X84391Y58359D02*
X84645D01*
X84518Y58232D02*
Y58486D01*
X83436Y65402D02*
X83690D01*
X83563Y65275D02*
Y65529D01*
X83436Y66418D02*
X83690D01*
X83563Y66291D02*
Y66545D01*
X83677Y67183D02*
X83931D01*
X83804Y67056D02*
Y67310D01*
X86357Y76451D02*
X86611D01*
X86484Y76324D02*
Y76578D01*
X89913Y50665D02*
X90167D01*
X90040Y50538D02*
Y50792D01*
X10566Y77114D02*
X10820D01*
X10693Y76987D02*
Y77241D01*
X24468Y31437D02*
X24620D01*
X24544Y31361D02*
Y31513D01*
X44831Y73817D02*
X45085D01*
X44958Y73690D02*
Y73944D01*
X46936Y73812D02*
X47190D01*
X47063Y73685D02*
Y73939D01*
X49072Y73812D02*
X49326D01*
X49199Y73685D02*
Y73939D01*
X48011Y73812D02*
X48265D01*
X48138Y73685D02*
Y73939D01*
X59531Y70989D02*
X59734D01*
X59633Y70888D02*
Y71091D01*
X58902Y70967D02*
X59105D01*
X59004Y70865D02*
Y71068D01*
X55503Y63167D02*
X55706D01*
X55605Y63066D02*
Y63268D01*
X59992Y70660D02*
X60195D01*
X60093Y70558D02*
Y70761D01*
X55503Y60741D02*
X55706D01*
X55605Y60640D02*
Y60843D01*
X54772Y60751D02*
X54975D01*
X54874Y60649D02*
Y60852D01*
X59131Y53086D02*
X59385D01*
X59258Y52959D02*
Y53213D01*
X55481Y59936D02*
X55684D01*
X55582Y59834D02*
Y60037D01*
X62306Y52047D02*
X62560D01*
X62433Y51920D02*
Y52174D01*
X58098Y70076D02*
X58300D01*
X58199Y69975D02*
Y70178D01*
X61285Y52047D02*
X61539D01*
X61412Y51920D02*
Y52174D01*
X59192Y52047D02*
X59446D01*
X59319Y51920D02*
Y52174D01*
X39283Y67292D02*
X39537D01*
X39410Y67165D02*
Y67419D01*
X42672Y73787D02*
X42926D01*
X42799Y73660D02*
Y73914D01*
X39293Y63550D02*
X39547D01*
X39420Y63423D02*
Y63677D01*
X45869Y73817D02*
X46123D01*
X45996Y73690D02*
Y73944D01*
X43746Y73797D02*
X44000D01*
X43873Y73670D02*
Y73924D01*
X49093Y73101D02*
X49347D01*
X49220Y72974D02*
Y73228D01*
X56029Y70736D02*
X56232D01*
X56131Y70634D02*
Y70837D01*
X58082Y70807D02*
X58284D01*
X58183Y70706D02*
Y70909D01*
X40043Y70782D02*
X40297D01*
X40170Y70655D02*
Y70909D01*
X45877Y66367D02*
X46080D01*
X45979Y66265D02*
Y66468D01*
X39309Y61407D02*
X39563D01*
X39436Y61280D02*
Y61534D01*
X42252Y61391D02*
X42506D01*
X42379Y61264D02*
Y61518D01*
X39306Y62481D02*
X39560D01*
X39433Y62354D02*
Y62608D01*
X42321Y62478D02*
X42575D01*
X42448Y62351D02*
Y62605D01*
X42219Y60317D02*
X42473D01*
X42346Y60190D02*
Y60444D01*
X39278Y60309D02*
X39532D01*
X39405Y60182D02*
Y60436D01*
X47478Y56741D02*
X47681D01*
X47579Y56640D02*
Y56843D01*
X95442Y26405D02*
X95645D01*
X95544Y26304D02*
Y26507D01*
X93088Y25397D02*
X93342D01*
X93215Y25270D02*
Y25524D01*
X96092Y26405D02*
X96295D01*
X96194Y26304D02*
Y26507D01*
X93096Y24384D02*
X93350D01*
X93223Y24257D02*
Y24511D01*
X101396Y22059D02*
X101650D01*
X101523Y21932D02*
Y22186D01*
X102585Y24455D02*
X102788D01*
X102687Y24353D02*
Y24556D01*
X84836Y63870D02*
X85090D01*
X84963Y63743D02*
Y63997D01*
X85255Y55267D02*
X85509D01*
X85382Y55140D02*
Y55394D01*
X83055Y69593D02*
X83309D01*
X83182Y69466D02*
Y69720D01*
X94109Y48437D02*
X94363D01*
X94236Y48310D02*
Y48564D01*
X44711Y32316D02*
X44863D01*
X44787Y32240D02*
Y32392D01*
X44899Y24942D02*
X45153D01*
X45026Y24815D02*
Y25069D01*
X48760Y25107D02*
X49014D01*
X48887Y24980D02*
Y25234D01*
X44711Y30314D02*
X44863D01*
X44787Y30238D02*
Y30390D01*
X49903Y25064D02*
X50157D01*
X50030Y24937D02*
Y25191D01*
X45209Y30634D02*
X45361D01*
X45285Y30558D02*
Y30710D01*
X47343Y24963D02*
X47597D01*
X47470Y24836D02*
Y25090D01*
X44711Y31315D02*
X44863D01*
X44787Y31239D02*
Y31391D01*
X45209Y35316D02*
X45361D01*
X45285Y35240D02*
Y35392D01*
X43558Y37564D02*
X43812D01*
X43685Y37437D02*
Y37691D01*
X44711Y35316D02*
X44863D01*
X44787Y35240D02*
Y35392D01*
X44574Y36700D02*
X44828D01*
X44701Y36573D02*
Y36827D01*
X44211Y35636D02*
X44363D01*
X44287Y35560D02*
Y35712D01*
X45082Y40002D02*
X45336D01*
X45209Y39875D02*
Y40129D01*
X44161Y40034D02*
X44415D01*
X44288Y39907D02*
Y40161D01*
X43391Y35636D02*
X43543D01*
X43467Y35560D02*
Y35712D01*
X42890Y35636D02*
X43042D01*
X42966Y35560D02*
Y35712D01*
X40383Y40002D02*
X40637D01*
X40510Y39875D02*
Y40129D01*
X28376Y33474D02*
X28579D01*
X28478Y33372D02*
Y33575D01*
X26467Y33756D02*
X26619D01*
X26543Y33680D02*
Y33832D01*
X24968Y31935D02*
X25120D01*
X25044Y31859D02*
Y32011D01*
X28189Y30012D02*
X28391D01*
X28290Y29910D02*
Y30113D01*
X25966Y33256D02*
X26118D01*
X26042Y33180D02*
Y33332D01*
X28170Y34607D02*
X28373D01*
X28272Y34506D02*
Y34708D01*
X25966Y30937D02*
X26118D01*
X26042Y30861D02*
Y31013D01*
X27475Y30187D02*
X27627D01*
X27551Y30111D02*
Y30263D01*
X114180Y65021D02*
X114434D01*
X114307Y64894D02*
Y65148D01*
X103098Y71244D02*
X103352D01*
X103225Y71117D02*
Y71371D01*
X107312Y70609D02*
X107566D01*
X107439Y70482D02*
Y70736D01*
X114170Y66799D02*
X114424D01*
X114297Y66672D02*
Y66926D01*
X93215Y71244D02*
X93469D01*
X93342Y71117D02*
Y71371D01*
X96771Y71244D02*
X97025D01*
X96898Y71117D02*
Y71371D01*
X114170Y65910D02*
X114424D01*
X114297Y65783D02*
Y66037D01*
X107312Y71498D02*
X107566D01*
X107439Y71371D02*
Y71625D01*
X114170Y67688D02*
X114424D01*
X114297Y67561D02*
Y67815D01*
X93324Y72405D02*
X93578D01*
X93451Y72278D02*
Y72532D01*
X101924Y29636D02*
X102127D01*
X102026Y29534D02*
Y29737D01*
X102740Y35049D02*
X102994D01*
X102867Y34922D02*
Y35176D01*
X97393Y31595D02*
X97596D01*
X97495Y31494D02*
Y31697D01*
X93799Y35148D02*
X94053D01*
X93926Y35021D02*
Y35275D01*
X99975Y32235D02*
X100177D01*
X100076Y32133D02*
Y32336D01*
X101470Y35176D02*
X101724D01*
X101597Y35049D02*
Y35303D01*
X85770Y46880D02*
X86024D01*
X85897Y46753D02*
Y47007D01*
X86657Y55288D02*
X86911D01*
X86784Y55161D02*
Y55415D01*
X87373Y77975D02*
X87627D01*
X87500Y77848D02*
Y78102D01*
X90323Y56639D02*
X90577D01*
X90450Y56512D02*
Y56766D01*
X88262Y76197D02*
X88516D01*
X88389Y76070D02*
Y76324D01*
X116141Y76070D02*
X116395D01*
X116268Y75943D02*
Y76197D01*
X92580Y76070D02*
X92834D01*
X92707Y75943D02*
Y76197D01*
X114094Y78483D02*
X114348D01*
X114221Y78356D02*
Y78610D01*
X89913Y47622D02*
X90167D01*
X90040Y47495D02*
Y47749D01*
X84833Y52575D02*
X85087D01*
X84960Y52448D02*
Y52702D01*
X86357Y52575D02*
X86611D01*
X86484Y52448D02*
Y52702D01*
X87754Y52575D02*
X88008D01*
X87881Y52448D02*
Y52702D01*
X84833Y51178D02*
X85087D01*
X84960Y51051D02*
Y51305D01*
X87754Y51178D02*
X88008D01*
X87881Y51051D02*
Y51305D01*
X86230Y49781D02*
X86484D01*
X86357Y49654D02*
Y49908D01*
X87754Y49781D02*
X88008D01*
X87881Y49654D02*
Y49908D01*
X86332Y51196D02*
X86586D01*
X86459Y51069D02*
Y51323D01*
X88262Y43939D02*
X88516D01*
X88389Y43812D02*
Y44066D01*
X85770Y43954D02*
X86024D01*
X85897Y43827D02*
Y44081D01*
X89151Y43939D02*
X89405D01*
X89278Y43812D02*
Y44066D01*
X90167Y43939D02*
X90421D01*
X90294Y43812D02*
Y44066D01*
X90776Y82801D02*
X91081D01*
X90929Y82648D02*
Y82953D01*
X111414Y82890D02*
X111668D01*
X111541Y82763D02*
Y83017D01*
X42890Y34815D02*
X43042D01*
X42966Y34739D02*
Y34891D01*
X23647Y33756D02*
X23799D01*
X23723Y33680D02*
Y33832D01*
X22130Y36075D02*
X22333D01*
X22232Y35973D02*
Y36176D01*
X19203Y36362D02*
X19405D01*
X19304Y36260D02*
Y36463D01*
X23147Y33756D02*
X23299D01*
X23223Y33680D02*
Y33832D01*
X23502Y28534D02*
X23705D01*
X23604Y28432D02*
Y28635D01*
X23647Y31935D02*
X23799D01*
X23723Y31859D02*
Y32011D01*
X25151Y36065D02*
X25405D01*
X25278Y35938D02*
Y36192D01*
X26040Y36068D02*
X26294D01*
X26167Y35941D02*
Y36195D01*
X23947Y23436D02*
X24201D01*
X24074Y23309D02*
Y23563D01*
X24148Y30937D02*
X24300D01*
X24224Y30861D02*
Y31013D01*
X26042Y28526D02*
X26245D01*
X26144Y28424D02*
Y28627D01*
X24460Y28575D02*
X24663D01*
X24561Y28474D02*
Y28676D01*
X26823Y28498D02*
X27025D01*
X26924Y28397D02*
Y28600D01*
X24148Y32755D02*
X24300D01*
X24224Y32679D02*
Y32831D01*
X96771Y43431D02*
X97025D01*
X96898Y43304D02*
Y43558D01*
X103378Y51813D02*
X103632D01*
X103505Y51686D02*
Y51940D01*
X58138Y73124D02*
X58392D01*
X58265Y72997D02*
Y73251D01*
X105788Y51211D02*
X106042D01*
X105915Y51084D02*
Y51338D01*
X105801Y50276D02*
X106055D01*
X105928Y50149D02*
Y50403D01*
X45772Y49707D02*
X45975D01*
X45874Y49606D02*
Y49809D01*
X105001Y50210D02*
X105255D01*
X105128Y50083D02*
Y50337D01*
X55133Y73177D02*
X55387D01*
X55260Y73050D02*
Y73304D01*
X106550Y48765D02*
X106804D01*
X106677Y48638D02*
Y48892D01*
X104231Y49710D02*
X104485D01*
X104358Y49583D02*
Y49837D01*
X55483Y63931D02*
X55686D01*
X55585Y63830D02*
Y64033D01*
X107693Y49326D02*
X107947D01*
X107820Y49199D02*
Y49453D01*
X95283Y43400D02*
X95537D01*
X95410Y43273D02*
Y43527D01*
X97731Y43467D02*
X97985D01*
X97858Y43340D02*
Y43594D01*
X98747Y43467D02*
X99001D01*
X98874Y43340D02*
Y43594D01*
X55516Y67980D02*
X55719D01*
X55618Y67879D02*
Y68082D01*
X99763Y43467D02*
X100017D01*
X99890Y43340D02*
Y43594D01*
X55470Y67134D02*
X55673D01*
X55572Y67033D02*
Y67235D01*
X69847Y53388D02*
X70101D01*
X69974Y53261D02*
Y53515D01*
X101795Y43497D02*
X102049D01*
X101922Y43370D02*
Y43624D01*
X106677Y54734D02*
X106931D01*
X106804Y54607D02*
Y54861D01*
X94358Y40891D02*
X94612D01*
X94485Y40764D02*
Y41018D01*
X106220Y44002D02*
X106474D01*
X106347Y43875D02*
Y44129D01*
X109090Y43939D02*
X109344D01*
X109217Y43812D02*
Y44066D01*
X57294Y76578D02*
X57548D01*
X57421Y76451D02*
Y76705D01*
X102811Y43467D02*
X103065D01*
X102938Y43340D02*
Y43594D01*
X55618Y76446D02*
X55872D01*
X55745Y76319D02*
Y76573D01*
X103827Y43446D02*
X104081D01*
X103954Y43319D02*
Y43573D01*
X20904Y25146D02*
X21107D01*
X21005Y25045D02*
Y25247D01*
X105785Y57150D02*
X106039D01*
X105912Y57023D02*
Y57277D01*
X96092Y32895D02*
X96295D01*
X96194Y32794D02*
Y32996D01*
X96263Y40891D02*
X96517D01*
X96390Y40764D02*
Y41018D01*
X116964Y50690D02*
X117218D01*
X117091Y50563D02*
Y50817D01*
X67221Y56552D02*
X67475D01*
X67348Y56425D02*
Y56679D01*
X116205Y47726D02*
X116459D01*
X116332Y47599D02*
Y47853D01*
X53112Y69039D02*
X53314D01*
X53213Y68938D02*
Y69140D01*
X74063Y46022D02*
X74317D01*
X74190Y45895D02*
Y46149D01*
X69212Y52448D02*
X69466D01*
X69339Y52321D02*
Y52575D01*
X46677Y67167D02*
X46880D01*
X46779Y67066D02*
Y67268D01*
X46661Y63982D02*
X46864D01*
X46763Y63880D02*
Y64083D01*
X53180Y69796D02*
X53383D01*
X53281Y69694D02*
Y69897D01*
X53145Y70586D02*
X53347D01*
X53246Y70484D02*
Y70687D01*
X54763Y64706D02*
X54965D01*
X54864Y64605D02*
Y64807D01*
X74080Y45410D02*
X74334D01*
X74207Y45283D02*
Y45537D01*
X46677Y62367D02*
X46880D01*
X46779Y62265D02*
Y62468D01*
X46677Y63167D02*
X46880D01*
X46779Y63066D02*
Y63268D01*
X47478Y63207D02*
X47681D01*
X47579Y63105D02*
Y63308D01*
X57401Y37462D02*
X57655D01*
X57528Y37335D02*
Y37589D01*
X56639Y37462D02*
X56893D01*
X56766Y37335D02*
Y37589D01*
X56639Y36827D02*
X56893D01*
X56766Y36700D02*
Y36954D01*
X71879Y47343D02*
X72133D01*
X72006Y47216D02*
Y47470D01*
X74063Y46708D02*
X74317D01*
X74190Y46581D02*
Y46835D01*
X69212Y51432D02*
X69466D01*
X69339Y51305D02*
Y51559D01*
X56296Y59959D02*
X56499D01*
X56398Y59858D02*
Y60060D01*
X68526Y53337D02*
X68780D01*
X68653Y53210D02*
Y53464D01*
X68196Y51432D02*
X68450D01*
X68323Y51305D02*
Y51559D01*
X50045Y45481D02*
X50351D01*
X50198Y45328D02*
Y45634D01*
X50071Y42542D02*
X50325D01*
X50198Y42415D02*
Y42669D01*
X65148Y45615D02*
X65402D01*
X65275Y45488D02*
Y45742D01*
X113535Y54102D02*
X113789D01*
X113662Y53975D02*
Y54229D01*
X31010Y34607D02*
X31213D01*
X31112Y34506D02*
Y34708D01*
X109725Y56642D02*
X109979D01*
X109852Y56515D02*
Y56769D01*
X43060Y66769D02*
X43314D01*
X43187Y66642D02*
Y66896D01*
X31064Y35902D02*
X31267D01*
X31165Y35800D02*
Y36003D01*
X100634Y31595D02*
X100837D01*
X100736Y31494D02*
Y31697D01*
X4668Y39598D02*
X4973D01*
X4820Y39446D02*
Y39750D01*
X56258Y33906D02*
X56512D01*
X56385Y33779D02*
Y34033D01*
X66421Y49781D02*
X66675D01*
X66548Y49654D02*
Y49908D01*
X34160Y36573D02*
X34414D01*
X34287Y36446D02*
Y36700D01*
X8908Y43370D02*
X9162D01*
X9035Y43243D02*
Y43497D01*
X104317Y48712D02*
X104571D01*
X104444Y48585D02*
Y48839D01*
X57957Y40408D02*
X58211D01*
X58084Y40281D02*
Y40535D01*
X56525Y46860D02*
X56779D01*
X56652Y46733D02*
Y46987D01*
X78113Y24732D02*
X78418D01*
X78266Y24579D02*
Y24885D01*
X78113Y25527D02*
X78418D01*
X78266Y25374D02*
Y25680D01*
X91789Y82195D02*
X92043D01*
X91916Y82068D02*
Y82322D01*
X109852Y78737D02*
X110106D01*
X109979Y78610D02*
Y78864D01*
X52247Y45496D02*
X52501D01*
X52374Y45369D02*
Y45623D01*
X25646Y33756D02*
X25798D01*
X25722Y33680D02*
Y33832D01*
X52374Y29839D02*
X52628D01*
X52501Y29712D02*
Y29966D01*
X52108Y40764D02*
X52362D01*
X52235Y40637D02*
Y40891D01*
X14351Y63418D02*
X14605D01*
X14478Y63291D02*
Y63545D01*
X51612Y34485D02*
X51866D01*
X51739Y34358D02*
Y34612D01*
X37566Y40454D02*
X37820D01*
X37693Y40327D02*
Y40581D01*
X14351Y61894D02*
X14605D01*
X14478Y61767D02*
Y62021D01*
X113281Y43942D02*
X113535D01*
X113408Y43815D02*
Y44069D01*
X45877Y67167D02*
X46080D01*
X45979Y67066D02*
Y67268D01*
X14351Y58846D02*
X14605D01*
X14478Y58719D02*
Y58973D01*
X51483Y33601D02*
X51737D01*
X51610Y33474D02*
Y33728D01*
X109725Y41402D02*
X109979D01*
X109852Y41275D02*
Y41529D01*
X113154Y38862D02*
X113408D01*
X113281Y38735D02*
Y38989D01*
X112900Y36322D02*
X113154D01*
X113027Y36195D02*
Y36449D01*
X109852Y33782D02*
X110106D01*
X109979Y33655D02*
Y33909D01*
X109725Y29718D02*
X109979D01*
X109852Y29591D02*
Y29845D01*
X109979Y27178D02*
X110233D01*
X110106Y27051D02*
Y27305D01*
X110233Y24638D02*
X110487D01*
X110360Y24511D02*
Y24765D01*
X59674Y68605D02*
X59877D01*
X59776Y68503D02*
Y68706D01*
X109852Y17018D02*
X110106D01*
X109979Y16891D02*
Y17145D01*
X89913Y51813D02*
X90167D01*
X90040Y51686D02*
Y51940D01*
X88254Y58420D02*
X88508D01*
X88381Y58293D02*
Y58547D01*
X86890Y58468D02*
X87144D01*
X87017Y58341D02*
Y58595D01*
X84419Y55270D02*
X84673D01*
X84546Y55143D02*
Y55397D01*
X84376Y43903D02*
X84630D01*
X84503Y43776D02*
Y44030D01*
X65402Y74165D02*
X65656D01*
X65529Y74038D02*
Y74292D01*
X66037Y74165D02*
X66291D01*
X66164Y74038D02*
Y74292D01*
X85471Y15036D02*
X85725D01*
X85598Y14909D02*
Y15163D01*
X84764Y15036D02*
X85018D01*
X84891Y14909D02*
Y15163D01*
X84759Y14376D02*
X85013D01*
X84886Y14249D02*
Y14503D01*
X85478Y14376D02*
X85732D01*
X85605Y14249D02*
Y14503D01*
X84099Y14351D02*
X84353D01*
X84226Y14224D02*
Y14478D01*
X84074Y15011D02*
X84328D01*
X84201Y14884D02*
Y15138D01*
X106525Y24635D02*
X106779D01*
X106652Y24508D02*
Y24762D01*
X60068Y82801D02*
X60322D01*
X60195Y82674D02*
Y82928D01*
X59179Y82801D02*
X59433D01*
X59306Y82674D02*
Y82928D01*
X58290Y82801D02*
X58544D01*
X58417Y82674D02*
Y82928D01*
X57401Y82801D02*
X57655D01*
X57528Y82674D02*
Y82928D01*
X70713Y73530D02*
X70967D01*
X70840Y73403D02*
Y73657D01*
X30490Y78153D02*
X30744D01*
X30617Y78026D02*
Y78280D01*
X33782Y72532D02*
X34036D01*
X33909Y72405D02*
Y72659D01*
X33842Y71155D02*
X34096D01*
X33969Y71028D02*
Y71282D01*
X30581Y65834D02*
X30835D01*
X30708Y65707D02*
Y65961D01*
X27431Y57373D02*
X27634D01*
X27533Y57272D02*
Y57474D01*
X25151Y60614D02*
X25405D01*
X25278Y60487D02*
Y60741D01*
X24358Y60645D02*
X24612D01*
X24485Y60518D02*
Y60772D01*
X21844Y60749D02*
X22098D01*
X21971Y60622D02*
Y60876D01*
X18991Y57058D02*
X19245D01*
X19118Y56931D02*
Y57185D01*
X63268Y53388D02*
X63522D01*
X63395Y53261D02*
Y53515D01*
X31417Y54571D02*
X31671D01*
X31544Y54444D02*
Y54698D01*
X23551Y54561D02*
X23753D01*
X23652Y54460D02*
Y54662D01*
X19017Y54650D02*
X19271D01*
X19144Y54523D02*
Y54777D01*
X18991Y51973D02*
X19245D01*
X19118Y51846D02*
Y52100D01*
X125056Y49908D02*
X125310D01*
X125183Y49781D02*
Y50035D01*
X125056Y47622D02*
X125310D01*
X125183Y47495D02*
Y47749D01*
X106550Y48051D02*
X106804D01*
X106677Y47924D02*
Y48178D01*
X31442Y49733D02*
X31696D01*
X31569Y49606D02*
Y49860D01*
X27431Y46946D02*
X27634D01*
X27533Y46845D02*
Y47048D01*
X19555Y48402D02*
X19809D01*
X19682Y48275D02*
Y48529D01*
X107058Y44884D02*
X107312D01*
X107185Y44757D02*
Y45011D01*
X100330Y45618D02*
X100584D01*
X100457Y45491D02*
Y45745D01*
X52067Y42415D02*
X52321D01*
X52194Y42288D02*
Y42542D01*
X44828Y44701D02*
X45082D01*
X44955Y44574D02*
Y44828D01*
X42415Y44701D02*
X42669D01*
X42542Y44574D02*
Y44828D01*
X41399Y44701D02*
X41653D01*
X41526Y44574D02*
Y44828D01*
X39875Y44701D02*
X40129D01*
X40002Y44574D02*
Y44828D01*
X23238Y43812D02*
X23492D01*
X23365Y43685D02*
Y43939D01*
X21688Y43782D02*
X21993D01*
X21841Y43629D02*
Y43935D01*
X103827Y40909D02*
X104081D01*
X103954Y40782D02*
Y41036D01*
X101795Y40944D02*
X102049D01*
X101922Y40817D02*
Y41071D01*
X98747Y40944D02*
X99001D01*
X98874Y40817D02*
Y41071D01*
X99763Y40944D02*
X100017D01*
X99890Y40817D02*
Y41071D01*
X63624Y40764D02*
X63878D01*
X63751Y40637D02*
Y40891D01*
Y45844D02*
X64005D01*
X63878Y45717D02*
Y45971D01*
X62862Y45844D02*
X63116D01*
X62989Y45717D02*
Y45971D01*
X45209Y34815D02*
X45361D01*
X45285Y34739D02*
Y34891D01*
X45209Y33815D02*
X45361D01*
X45285Y33739D02*
Y33891D01*
X44711Y33314D02*
X44863D01*
X44787Y33238D02*
Y33390D01*
X36372Y36593D02*
X36626D01*
X36499Y36466D02*
Y36720D01*
X30810Y33474D02*
X31013D01*
X30911Y33372D02*
Y33575D01*
X20850Y32763D02*
X21053D01*
X20952Y32661D02*
Y32864D01*
X46710Y31315D02*
X46862D01*
X46786Y31239D02*
Y31391D01*
X44711Y29316D02*
X44863D01*
X44787Y29240D02*
Y29392D01*
X47211Y31816D02*
X47363D01*
X47287Y31740D02*
Y31892D01*
X43391Y29316D02*
X43543D01*
X43467Y29240D02*
Y29392D01*
X44211Y29814D02*
X44363D01*
X44287Y29738D02*
Y29890D01*
X44211Y30314D02*
X44363D01*
X44287Y30238D02*
Y30390D01*
X31010Y30012D02*
X31213D01*
X31112Y29910D02*
Y30113D01*
X28090Y27696D02*
X28293D01*
X28192Y27594D02*
Y27797D01*
X28089Y28742D02*
X28292D01*
X28191Y28640D02*
Y28843D01*
X26467Y30937D02*
X26619D01*
X26543Y30861D02*
Y31013D01*
X26467Y31833D02*
X26619D01*
X26543Y31757D02*
Y31909D01*
X21104Y31493D02*
X21307D01*
X21206Y31391D02*
Y31594D01*
X84299Y26032D02*
X84604D01*
X84452Y25879D02*
Y26184D01*
X52075Y25064D02*
X52329D01*
X52202Y24937D02*
Y25191D01*
X51173Y25064D02*
X51427D01*
X51300Y24937D02*
Y25191D01*
X47343Y22666D02*
X47597D01*
X47470Y22539D02*
Y22793D01*
X43484Y25039D02*
X43738D01*
X43611Y24912D02*
Y25166D01*
X82521Y18412D02*
X82826D01*
X82674Y18259D02*
Y18564D01*
X81378Y19047D02*
X81683D01*
X81531Y18894D02*
Y19199D01*
X48760Y20365D02*
X49014D01*
X48887Y20238D02*
Y20492D01*
X38732Y20952D02*
X38986D01*
X38859Y20825D02*
Y21079D01*
X39367Y20952D02*
X39621D01*
X39494Y20825D02*
Y21079D01*
X39367Y20190D02*
X39621D01*
X39494Y20063D02*
Y20317D01*
X38732Y19555D02*
X38986D01*
X38859Y19428D02*
Y19682D01*
X39367Y19555D02*
X39621D01*
X39494Y19428D02*
Y19682D01*
X20993Y6721D02*
X21247D01*
X21120Y6594D02*
Y6848D01*
X52981Y40764D02*
X53235D01*
X53108Y40637D02*
Y40891D01*
X90268Y37970D02*
X90573D01*
X90421Y37817D02*
Y38122D01*
X91030Y37970D02*
X91335D01*
X91183Y37817D02*
Y38122D01*
X98907Y35163D02*
X99161D01*
X99034Y35036D02*
Y35290D01*
X99796Y35163D02*
X100050D01*
X99923Y35036D02*
Y35290D01*
X97993Y35161D02*
X98247D01*
X98120Y35034D02*
Y35288D01*
X95018Y35151D02*
X95272D01*
X95145Y35024D02*
Y35278D01*
X93235Y32689D02*
X93489D01*
X93362Y32562D02*
Y32816D01*
X104554Y29552D02*
X104808D01*
X104681Y29425D02*
Y29679D01*
X104554Y30441D02*
X104808D01*
X104681Y30314D02*
Y30568D01*
X102574Y29636D02*
X102777D01*
X102676Y29534D02*
Y29737D01*
X102574Y28336D02*
X102777D01*
X102676Y28235D02*
Y28437D01*
X102574Y28986D02*
X102777D01*
X102676Y28885D02*
Y29087D01*
X98043Y31595D02*
X98246D01*
X98145Y31494D02*
Y31697D01*
X99333Y31595D02*
X99536D01*
X99435Y31494D02*
Y31697D01*
X99984Y30944D02*
X100187D01*
X100086Y30843D02*
Y31046D01*
X99984Y31595D02*
X100187D01*
X100086Y31494D02*
Y31697D01*
X95442Y27703D02*
X95645D01*
X95544Y27602D02*
Y27804D01*
X95442Y28996D02*
X95645D01*
X95544Y28894D02*
Y29097D01*
X93235Y29801D02*
X93489D01*
X93362Y29674D02*
Y29928D01*
X93235Y31752D02*
X93489D01*
X93362Y31625D02*
Y31879D01*
X93235Y30784D02*
X93489D01*
X93362Y30657D02*
Y30911D01*
X93235Y27863D02*
X93489D01*
X93362Y27736D02*
Y27990D01*
X93235Y28829D02*
X93489D01*
X93362Y28702D02*
Y28956D01*
X103235Y23154D02*
X103438D01*
X103337Y23052D02*
Y23255D01*
X103885Y23154D02*
X104088D01*
X103987Y23052D02*
Y23255D01*
X98043Y24455D02*
X98246D01*
X98145Y24353D02*
Y24556D01*
X100634Y25105D02*
X100837D01*
X100736Y25003D02*
Y25206D01*
X95442Y23154D02*
X95645D01*
X95544Y23052D02*
Y23255D01*
X95442Y25755D02*
X95645D01*
X95544Y25653D02*
Y25856D01*
X95442Y27056D02*
X95645D01*
X95544Y26954D02*
Y27157D01*
X97393Y24455D02*
X97596D01*
X97495Y24353D02*
Y24556D01*
X93235Y26822D02*
X93489D01*
X93362Y26695D02*
Y26949D01*
X93235Y23291D02*
X93489D01*
X93362Y23164D02*
Y23418D01*
X104498Y22400D02*
X104752D01*
X104625Y22273D02*
Y22527D01*
X103388Y22024D02*
X103642D01*
X103515Y21897D02*
Y22151D01*
X100403Y22024D02*
X100657D01*
X100530Y21897D02*
Y22151D01*
X99514Y22029D02*
X99768D01*
X99641Y21902D02*
Y22156D01*
X95247Y19047D02*
X95501D01*
X95374Y18920D02*
Y19174D01*
X93091Y21996D02*
X93345D01*
X93218Y21869D02*
Y22123D01*
X21231Y35001D02*
X21434D01*
X21333Y34899D02*
Y35102D01*
X20850Y33906D02*
X21053D01*
X20952Y33804D02*
Y34007D01*
X28376Y30861D02*
X28579D01*
X28478Y30760D02*
Y30962D01*
X23147Y31935D02*
X23299D01*
X23223Y31859D02*
Y32011D01*
X28572Y24381D02*
X28826D01*
X28699Y24254D02*
Y24508D01*
X29207Y25270D02*
X29461D01*
X29334Y25143D02*
Y25397D01*
X29207Y24381D02*
X29461D01*
X29334Y24254D02*
Y24508D01*
X28572Y25270D02*
X28826D01*
X28699Y25143D02*
Y25397D01*
X28953Y26159D02*
X29207D01*
X29080Y26032D02*
Y26286D01*
X25645Y31434D02*
X25797D01*
X25721Y31358D02*
Y31510D01*
X42037Y8947D02*
X42291D01*
X42164Y8820D02*
Y9074D01*
X45880Y8943D02*
X46134D01*
X46007Y8816D02*
Y9070D01*
X50240Y10610D02*
X50494D01*
X50367Y10483D02*
Y10737D01*
X41198Y10686D02*
X41452D01*
X41325Y10559D02*
Y10813D01*
X51079Y8871D02*
X51333D01*
X51206Y8744D02*
Y8998D01*
X43525Y19586D02*
X43779D01*
X43652Y19459D02*
Y19713D01*
X45259Y18868D02*
X45513D01*
X45386Y18741D02*
Y18995D01*
X54192Y18858D02*
X54446D01*
X54319Y18731D02*
Y18985D01*
X52458Y19576D02*
X52712D01*
X52585Y19449D02*
Y19703D01*
X42070Y18788D02*
X42324D01*
X42197Y18661D02*
Y18915D01*
X37716Y37462D02*
X37970D01*
X37843Y37335D02*
Y37589D01*
X39726Y49016D02*
X39980D01*
X39853Y48889D02*
Y49143D01*
X39721Y49886D02*
X39975D01*
X39848Y49759D02*
Y50013D01*
X40081Y52045D02*
X40335D01*
X40208Y51918D02*
Y52172D01*
X50110Y17183D02*
X50364D01*
X50237Y17056D02*
Y17310D01*
X109398Y15773D02*
X109652D01*
X109525Y15646D02*
Y15900D01*
X106189Y13987D02*
X106443D01*
X106316Y13860D02*
Y14114D01*
X38315Y4001D02*
X38569D01*
X38442Y3874D02*
Y4128D01*
X104546Y17424D02*
X104800D01*
X104673Y17297D02*
Y17551D01*
X105994Y18542D02*
X106248D01*
X106121Y18415D02*
Y18669D01*
X22885Y28575D02*
X23089D01*
X22987Y28473D02*
Y28677D01*
X26035Y29947D02*
X26238D01*
X26137Y29845D02*
Y30048D01*
X47015Y18110D02*
X47269D01*
X47142Y17983D02*
Y18237D01*
X55956Y18161D02*
X56210D01*
X56083Y18034D02*
Y18288D01*
X47343Y20213D02*
X47597D01*
X47470Y20086D02*
Y20340D01*
X36243Y37925D02*
X36497D01*
X36370Y37798D02*
Y38052D01*
X59271Y35357D02*
X59576D01*
X59423Y35204D02*
Y35509D01*
X60341Y35331D02*
X60646D01*
X60493Y35179D02*
Y35484D01*
X51214Y36195D02*
X51468D01*
X51341Y36068D02*
Y36322D01*
X53569Y32914D02*
X53823D01*
X53696Y32787D02*
Y33041D01*
X53488Y33909D02*
X53742D01*
X53615Y33782D02*
Y34036D01*
X47059Y39294D02*
X47313D01*
X47186Y39167D02*
Y39421D01*
X61519Y34493D02*
X61773D01*
X61646Y34366D02*
Y34620D01*
X61544Y33785D02*
X61798D01*
X61671Y33658D02*
Y33912D01*
X66319Y40592D02*
X66573D01*
X66446Y40465D02*
Y40719D01*
X66073Y41664D02*
X66327D01*
X66200Y41537D02*
Y41791D01*
X57845Y37008D02*
X58099D01*
X57972Y36881D02*
Y37135D01*
X59296Y38243D02*
X59550D01*
X59423Y38116D02*
Y38370D01*
X59306Y38884D02*
X59560D01*
X59433Y38757D02*
Y39011D01*
X59919Y38891D02*
X60173D01*
X60046Y38764D02*
Y39018D01*
X58064Y38252D02*
X58318D01*
X58191Y38125D02*
Y38379D01*
X66726Y31852D02*
X66980D01*
X66853Y31725D02*
Y31979D01*
X53489Y26848D02*
X53743D01*
X53616Y26721D02*
Y26975D01*
X70110Y31113D02*
X70364D01*
X70237Y30986D02*
Y31240D01*
X70050Y30349D02*
X70304D01*
X70177Y30222D02*
Y30476D01*
X62586Y32515D02*
X62840D01*
X62713Y32388D02*
Y32642D01*
X63525Y31906D02*
X63779D01*
X63652Y31779D02*
Y32033D01*
X68988Y26875D02*
X69242D01*
X69115Y26748D02*
Y27002D01*
X70942Y28169D02*
X71196D01*
X71069Y28042D02*
Y28296D01*
X70282Y28169D02*
X70536D01*
X70409Y28042D02*
Y28296D01*
X69974Y36175D02*
X70228D01*
X70101Y36048D02*
Y36302D01*
X62862Y40764D02*
X63116D01*
X62989Y40637D02*
Y40891D01*
X64047Y52390D02*
X64301D01*
X64174Y52263D02*
Y52517D01*
X63021Y52076D02*
X63275D01*
X63148Y51949D02*
Y52203D01*
X84926Y21923D02*
X85180D01*
X85053Y21796D02*
Y22050D01*
X107895Y33438D02*
X108149D01*
X108022Y33311D02*
Y33565D01*
X106992Y34274D02*
X107246D01*
X107119Y34147D02*
Y34401D01*
X106007Y35469D02*
X106261D01*
X106134Y35342D02*
Y35596D01*
X47549Y5437D02*
X47803D01*
X47676Y5310D02*
Y5564D01*
X57053Y4492D02*
X57307D01*
X57180Y4365D02*
Y4619D01*
X68936Y83363D02*
X69190D01*
X69063Y83236D02*
Y83490D01*
X67894Y81763D02*
X68148D01*
X68021Y81636D02*
Y81890D01*
X68428Y79822D02*
X68682D01*
X68555Y79695D02*
Y79949D01*
X68707Y81280D02*
X68961D01*
X68834Y81153D02*
Y81407D01*
X64961Y83947D02*
X65215D01*
X65088Y83820D02*
Y84074D01*
X64795Y82017D02*
X65049D01*
X64922Y81890D02*
Y82144D01*
X65634Y81559D02*
X65888D01*
X65761Y81432D02*
Y81686D01*
X63906Y78867D02*
X64160D01*
X64033Y78740D02*
Y78994D01*
X26967Y33756D02*
X27119D01*
X27043Y33680D02*
Y33832D01*
X47375Y49786D02*
X47578D01*
X47477Y49685D02*
Y49888D01*
X46608Y49761D02*
X46811D01*
X46710Y49659D02*
Y49862D01*
X45008Y49720D02*
X45211D01*
X45110Y49619D02*
Y49821D01*
X56296Y62362D02*
X56499D01*
X56398Y62260D02*
Y62463D01*
X58192Y54737D02*
X58394D01*
X58293Y54636D02*
Y54838D01*
X57084Y59949D02*
X57287D01*
X57185Y59847D02*
Y60050D01*
X54666Y57541D02*
X54868D01*
X54767Y57439D02*
Y57642D01*
X55503Y59141D02*
X55706D01*
X55605Y59039D02*
Y59242D01*
X54704Y58341D02*
X54907D01*
X54805Y58240D02*
Y58442D01*
X48700Y61117D02*
X48902D01*
X48801Y61015D02*
Y61218D01*
X56236Y57582D02*
X56439D01*
X56337Y57480D02*
Y57683D01*
X57058Y59123D02*
X57261D01*
X57160Y59022D02*
Y59225D01*
X56304Y59141D02*
X56506D01*
X56405Y59039D02*
Y59242D01*
X55503Y57541D02*
X55706D01*
X55605Y57439D02*
Y57642D01*
X53903Y58366D02*
X54106D01*
X54005Y58264D02*
Y58467D01*
X53922Y57584D02*
X54124D01*
X54023Y57482D02*
Y57685D01*
X53895Y56771D02*
X54098D01*
X53997Y56670D02*
Y56873D01*
X53087Y55950D02*
X53290D01*
X53188Y55848D02*
Y56051D01*
X55499Y55931D02*
X55702D01*
X55601Y55829D02*
Y56032D01*
X48448Y62372D02*
X48651D01*
X48549Y62271D02*
Y62473D01*
X47475Y60784D02*
X47677D01*
X47576Y60682D02*
Y60885D01*
X46720Y59959D02*
X46923D01*
X46822Y59858D02*
Y60060D01*
X46644Y60774D02*
X46847D01*
X46746Y60673D02*
Y60876D01*
X47467Y59931D02*
X47670D01*
X47569Y59830D02*
Y60033D01*
X44624Y52171D02*
X44827D01*
X44726Y52069D02*
Y52272D01*
X49878Y59941D02*
X50081D01*
X49979Y59839D02*
Y60042D01*
X48719Y60126D02*
X48922D01*
X48821Y60024D02*
Y60227D01*
X49886Y55118D02*
X50089D01*
X49987Y55017D02*
Y55219D01*
X50521Y52654D02*
X50775D01*
X50648Y52527D02*
Y52781D01*
X49077Y56741D02*
X49280D01*
X49179Y56640D02*
Y56843D01*
X58569Y57523D02*
X58772D01*
X58671Y57421D02*
Y57624D01*
X54559Y55016D02*
X54762D01*
X54661Y54915D02*
Y55118D01*
X49565Y59001D02*
X49768D01*
X49667Y58899D02*
Y59102D01*
X50572Y58979D02*
X50774D01*
X50673Y58877D02*
Y59080D01*
X49882Y57546D02*
X50085D01*
X49984Y57445D02*
Y57647D01*
X50597Y55169D02*
X50800D01*
X50698Y55067D02*
Y55270D01*
X49877Y56741D02*
X50080D01*
X49979Y56640D02*
Y56843D01*
X49835Y55956D02*
X50038D01*
X49936Y55855D02*
Y56058D01*
X49077Y55940D02*
X49280D01*
X49179Y55838D02*
Y56041D01*
X48277Y55940D02*
X48480D01*
X48379Y55838D02*
Y56041D01*
X44276Y60741D02*
X44479D01*
X44378Y60640D02*
Y60843D01*
X45921Y59921D02*
X46123D01*
X46022Y59819D02*
Y60022D01*
X46698Y55961D02*
X46900D01*
X46799Y55860D02*
Y56062D01*
X46735Y58369D02*
X46938D01*
X46837Y58267D02*
Y58470D01*
X46644Y56761D02*
X46847D01*
X46746Y56659D02*
Y56862D01*
X48277Y55140D02*
X48480D01*
X48379Y55038D02*
Y55241D01*
X45078Y56741D02*
X45280D01*
X45179Y56640D02*
Y56843D01*
X49105Y52092D02*
X49308D01*
X49207Y51990D02*
Y52193D01*
X53928Y55915D02*
X54131D01*
X54030Y55814D02*
Y56017D01*
X53099Y56748D02*
X53302D01*
X53200Y56646D02*
Y56849D01*
X52247Y57599D02*
X52450D01*
X52349Y57498D02*
Y57701D01*
X50692Y57551D02*
X50895D01*
X50794Y57450D02*
Y57653D01*
X52375Y55169D02*
X52578D01*
X52476Y55067D02*
Y55270D01*
X52324Y55974D02*
X52527D01*
X52426Y55873D02*
Y56075D01*
X43629Y56372D02*
X43832D01*
X43731Y56271D02*
Y56473D01*
X45836Y51943D02*
X46039D01*
X45938Y51842D02*
Y52044D01*
X44104Y54754D02*
X44307D01*
X44206Y54653D02*
Y54855D01*
X44298Y53670D02*
X44501D01*
X44399Y53569D02*
Y53772D01*
X47478Y55140D02*
X47681D01*
X47579Y55038D02*
Y55241D01*
X45845Y58320D02*
X46048D01*
X45946Y58218D02*
Y58421D01*
X47472Y58374D02*
X47675D01*
X47574Y58273D02*
Y58475D01*
X47478Y57541D02*
X47681D01*
X47579Y57439D02*
Y57642D01*
X49077Y57541D02*
X49280D01*
X49179Y57439D02*
Y57642D01*
X46685Y57523D02*
X46888D01*
X46786Y57421D02*
Y57624D01*
X45877Y56741D02*
X46080D01*
X45979Y56640D02*
Y56843D01*
X46644Y59174D02*
X46847D01*
X46746Y59072D02*
Y59275D01*
X45877Y59141D02*
X46080D01*
X45979Y59039D02*
Y59242D01*
X44234Y59923D02*
X44488D01*
X44361Y59796D02*
Y60050D01*
X45078Y60741D02*
X45280D01*
X45179Y60640D02*
Y60843D01*
X45078Y59166D02*
X45280D01*
X45179Y59065D02*
Y59267D01*
X45078Y59966D02*
X45280D01*
X45179Y59864D02*
Y60067D01*
X56296Y64762D02*
X56499D01*
X56398Y64660D02*
Y64863D01*
X56283Y63931D02*
X56486D01*
X56385Y63830D02*
Y64033D01*
X56322Y63187D02*
X56525D01*
X56423Y63086D02*
Y63289D01*
X57084Y63931D02*
X57287D01*
X57185Y63830D02*
Y64033D01*
X57108Y64770D02*
X57311D01*
X57210Y64669D02*
Y64871D01*
X48277Y64759D02*
X48480D01*
X48379Y64658D02*
Y64861D01*
X47478Y65567D02*
X47681D01*
X47579Y65466D02*
Y65669D01*
X46677Y65567D02*
X46880D01*
X46779Y65466D02*
Y65669D01*
X46677Y64767D02*
X46880D01*
X46779Y64665D02*
Y64868D01*
X55775Y69085D02*
X55978D01*
X55877Y68983D02*
Y69186D01*
X55394Y70736D02*
X55597D01*
X55496Y70634D02*
Y70837D01*
X55267Y69085D02*
X55470D01*
X55369Y68983D02*
Y69186D01*
X55394Y69974D02*
X55597D01*
X55496Y69872D02*
Y70075D01*
X51447Y70675D02*
X51701D01*
X51574Y70548D02*
Y70802D01*
X55525Y66396D02*
X55727D01*
X55626Y66294D02*
Y66497D01*
X55468Y64729D02*
X55671D01*
X55570Y64627D02*
Y64830D01*
X55515Y65572D02*
X55718D01*
X55616Y65470D02*
Y65673D01*
X53841Y62303D02*
X54043D01*
X53942Y62201D02*
Y62404D01*
X53924Y63985D02*
X54127D01*
X54025Y63883D02*
Y64086D01*
X52277Y63954D02*
X52480D01*
X52379Y63852D02*
Y64055D01*
X56308Y65534D02*
X56511D01*
X56410Y65433D02*
Y65635D01*
X51496Y64746D02*
X51700D01*
X51598Y64644D02*
Y64848D01*
X53103Y66367D02*
X53306D01*
X53205Y66265D02*
Y66468D01*
X54704Y66367D02*
X54907D01*
X54805Y66265D02*
Y66468D01*
X53975Y64735D02*
X54178D01*
X54077Y64633D02*
Y64836D01*
X54666Y63980D02*
X54868D01*
X54767Y63879D02*
Y64082D01*
X85595Y18920D02*
X85849D01*
X85722Y18793D02*
Y19047D01*
X86865Y18158D02*
X87119D01*
X86992Y18031D02*
Y18285D01*
X86865Y18920D02*
X87119D01*
X86992Y18793D02*
Y19047D01*
X83801Y29426D02*
X84106D01*
X83954Y29274D02*
Y29579D01*
X86413Y28666D02*
X86718D01*
X86565Y28514D02*
Y28819D01*
X88133Y28762D02*
X88438D01*
X88285Y28610D02*
Y28915D01*
X69897Y8458D02*
X70202D01*
X70049Y8306D02*
Y8610D01*
X67439Y836D02*
X67744D01*
X67591Y684D02*
Y989D01*
X66139Y6200D02*
X66444D01*
X66291Y6048D02*
Y6353D01*
X56413Y7061D02*
X56717D01*
X56565Y6909D02*
Y7214D01*
X57607Y6985D02*
X57912D01*
X57760Y6833D02*
Y7137D01*
X69215Y3912D02*
X69520D01*
X69367Y3759D02*
Y4064D01*
X62547Y8433D02*
X62852D01*
X62699Y8280D02*
Y8585D01*
X61671Y6274D02*
X61976D01*
X61824Y6121D02*
Y6426D01*
X60935Y3401D02*
X61239D01*
X61087Y3249D02*
Y3553D01*
X59741Y3401D02*
X60046D01*
X59893Y3249D02*
Y3553D01*
X65329Y10414D02*
X65532D01*
X65430Y10312D02*
Y10516D01*
X75426Y13233D02*
X75731D01*
X75579Y13081D02*
Y13386D01*
X71755Y10629D02*
X72060D01*
X71907Y10476D02*
Y10781D01*
X70891Y4186D02*
X71196D01*
X71044Y4034D02*
Y4338D01*
Y5817D02*
X71349D01*
X71196Y5664D02*
Y5969D01*
X81244Y14922D02*
X81549D01*
X81396Y14770D02*
Y15074D01*
X74440Y11455D02*
X74643D01*
X74541Y11354D02*
Y11557D01*
X76640Y11455D02*
X76843D01*
X76741Y11354D02*
Y11557D01*
X72466Y15647D02*
X72669D01*
X72567Y15545D02*
Y15748D01*
X63576Y10795D02*
X63779D01*
X63678Y10693D02*
Y10897D01*
X67573Y11005D02*
X67777D01*
X67675Y10903D02*
Y11107D01*
X68056Y11005D02*
X68259D01*
X68158Y10903D02*
Y11107D01*
X45060Y58268D02*
X45263D01*
X45161Y58166D02*
Y58369D01*
X45102Y57541D02*
X45305D01*
X45204Y57439D02*
Y57642D01*
X102996Y17170D02*
X103300D01*
X103148Y17018D02*
Y17323D01*
X104927Y13760D02*
X105232D01*
X105080Y13608D02*
Y13913D01*
X97434Y10338D02*
X97739D01*
X97587Y10185D02*
Y10490D01*
X99187Y10363D02*
X99492D01*
X99339Y10211D02*
Y10516D01*
X98129Y10413D02*
X98332D01*
X98231Y10311D02*
Y10514D01*
X104367Y31885D02*
X104621D01*
X104494Y31758D02*
Y32012D01*
X98612Y10413D02*
X98815D01*
X98713Y10311D02*
Y10514D01*
X104367Y32619D02*
X104621D01*
X104494Y32492D02*
Y32746D01*
X93708Y7068D02*
X94013D01*
X93860Y6916D02*
Y7221D01*
X93717Y6195D02*
X94022D01*
X93870Y6042D02*
Y6347D01*
X94639Y6158D02*
X94944D01*
X94791Y6005D02*
Y6310D01*
X91415Y10470D02*
X91719D01*
X91567Y10318D02*
Y10623D01*
X92304Y10470D02*
X92608D01*
X92456Y10318D02*
Y10623D01*
X91477Y16092D02*
X91782D01*
X91629Y15940D02*
Y16244D01*
X100048Y13363D02*
X100353D01*
X100201Y13210D02*
Y13515D01*
X93624Y15621D02*
X93828D01*
X93726Y15519D02*
Y15723D01*
X92710Y15977D02*
X93015D01*
X92862Y15824D02*
Y16129D01*
X97561Y15963D02*
X97866D01*
X97714Y15810D02*
Y16115D01*
X101434Y13679D02*
X101739D01*
X101586Y13527D02*
Y13831D01*
X96190Y9296D02*
X96495D01*
X96342Y9144D02*
Y9449D01*
X94691Y9271D02*
X94996D01*
X94844Y9119D02*
Y9423D01*
X97629Y973D02*
X97934D01*
X97782Y821D02*
Y1126D01*
X99629Y973D02*
X99934D01*
X99782Y821D02*
Y1126D01*
X99929Y6667D02*
X100234D01*
X100082Y6515D02*
Y6819D01*
X73457Y15189D02*
X73762D01*
X73609Y15037D02*
Y15342D01*
X38793Y78559D02*
X38997D01*
X38895Y78458D02*
Y78661D01*
X49098Y77495D02*
X49352D01*
X49225Y77368D02*
Y77622D01*
X40538Y78511D02*
X40792D01*
X40665Y78384D02*
Y78638D01*
X40919Y79121D02*
X41224D01*
X41072Y78969D02*
Y79273D01*
X47851Y79443D02*
X48105D01*
X47978Y79316D02*
Y79570D01*
X46677Y79299D02*
X46931D01*
X46804Y79172D02*
Y79426D01*
X35049Y52194D02*
X35303D01*
X35176Y52067D02*
Y52321D01*
X35903Y55714D02*
X36157D01*
X36030Y55587D02*
Y55841D01*
X50648Y55905D02*
X50851D01*
X50749Y55804D02*
Y56007D01*
X56207Y52120D02*
X56461D01*
X56334Y51993D02*
Y52247D01*
X55714Y52578D02*
X55968D01*
X55841Y52451D02*
Y52705D01*
X55232Y52984D02*
X55486D01*
X55359Y52857D02*
Y53111D01*
X55549Y53980D02*
X55752D01*
X55651Y53879D02*
Y54082D01*
X54813Y53543D02*
X55067D01*
X54940Y53416D02*
Y53670D01*
X52858Y53111D02*
X53060D01*
X52959Y53010D02*
Y53213D01*
X52807Y53772D02*
X53010D01*
X52908Y53670D02*
Y53873D01*
X54732Y55994D02*
X54934D01*
X54833Y55893D02*
Y56096D01*
X53823Y55143D02*
X54026D01*
X53924Y55042D02*
Y55245D01*
X51447Y74955D02*
X51701D01*
X51574Y74828D02*
Y75082D01*
X51714Y78308D02*
X51968D01*
X51841Y78181D02*
Y78435D01*
X54150Y77823D02*
X54404D01*
X54277Y77696D02*
Y77950D01*
X42647Y65075D02*
X42901D01*
X42774Y64948D02*
Y65202D01*
X47625Y77445D02*
X47879D01*
X47752Y77318D02*
Y77572D01*
X46719Y76002D02*
X46973D01*
X46846Y75875D02*
Y76129D01*
X39253Y80062D02*
X39557D01*
X39405Y79910D02*
Y80214D01*
X36069Y58544D02*
X36272D01*
X36170Y58442D02*
Y58645D01*
X36703Y58576D02*
X36957D01*
X36830Y58449D02*
Y58703D01*
X21315Y78384D02*
X21569D01*
X21442Y78257D02*
Y78511D01*
X31396Y78122D02*
X31650D01*
X31523Y77995D02*
Y78249D01*
X16466Y83563D02*
X16720D01*
X16593Y83436D02*
Y83690D01*
X17628Y80921D02*
X17831D01*
X17729Y80820D02*
Y81023D01*
X33195Y80668D02*
X33500D01*
X33347Y80515D02*
Y80820D01*
X36525Y82858D02*
X36830D01*
X36678Y82705D02*
Y83010D01*
X37259Y85138D02*
X37513D01*
X37386Y85011D02*
Y85265D01*
X48760Y79730D02*
X49014D01*
X48887Y79603D02*
Y79857D01*
X45923Y83427D02*
X46177D01*
X46050Y83300D02*
Y83554D01*
X38565Y53722D02*
X38819D01*
X38692Y53595D02*
Y53849D01*
X40434Y53899D02*
X40688D01*
X40561Y53772D02*
Y54026D01*
X39870Y55609D02*
X40124D01*
X39997Y55482D02*
Y55736D01*
X42409Y66774D02*
X42663D01*
X42536Y66647D02*
Y66901D01*
X50038Y83433D02*
X50292D01*
X50165Y83306D02*
Y83560D01*
X67793Y59004D02*
X68047D01*
X67920Y58877D02*
Y59131D01*
X65535Y58480D02*
X65789D01*
X65662Y58353D02*
Y58607D01*
X17809Y83541D02*
X18113D01*
X17961Y83388D02*
Y83693D01*
X47496Y64747D02*
X47699D01*
X47597Y64645D02*
Y64848D01*
X48437Y68041D02*
X48640D01*
X48539Y67940D02*
Y68143D01*
X48288Y65557D02*
X48491D01*
X48389Y65455D02*
Y65658D01*
X50677Y63967D02*
X50880D01*
X50779Y63865D02*
Y64068D01*
X49123Y63855D02*
X49326D01*
X49225Y63753D02*
Y63956D01*
X49878Y63962D02*
X50081D01*
X49979Y63861D02*
Y64063D01*
X50677Y64767D02*
X50880D01*
X50779Y64665D02*
Y64868D01*
X50677Y65567D02*
X50880D01*
X50779Y65466D02*
Y65669D01*
X49878Y64764D02*
X50081D01*
X49979Y64662D02*
Y64865D01*
X49878Y65567D02*
X50081D01*
X49979Y65466D02*
Y65669D01*
X50677Y66367D02*
X50880D01*
X50779Y66265D02*
Y66468D01*
X49878Y66367D02*
X50081D01*
X49979Y66265D02*
Y66468D01*
X49057Y66388D02*
X49260D01*
X49159Y66287D02*
Y66489D01*
X48336Y67147D02*
X48539D01*
X48437Y67045D02*
Y67248D01*
X47478Y67167D02*
X47681D01*
X47579Y67066D02*
Y67268D01*
X52219Y69771D02*
X52422D01*
X52321Y69669D02*
Y69872D01*
X44916Y68140D02*
X45119D01*
X45018Y68039D02*
Y68242D01*
X46677Y67967D02*
X46880D01*
X46779Y67865D02*
Y68068D01*
X45877Y55940D02*
X46080D01*
X45979Y55838D02*
Y56041D01*
X49403Y53569D02*
X49606D01*
X49505Y53467D02*
Y53670D01*
X46990Y52832D02*
X47193D01*
X47092Y52731D02*
Y52933D01*
X45822Y55194D02*
X46025D01*
X45923Y55093D02*
Y55296D01*
X83525Y24364D02*
X83830D01*
X83678Y24212D02*
Y24516D01*
X66596Y61871D02*
X66850D01*
X66723Y61744D02*
Y61998D01*
X67797Y61447D02*
X68051D01*
X67924Y61320D02*
Y61574D01*
X69113Y66573D02*
X69367D01*
X69240Y66446D02*
Y66700D01*
X62050Y60450D02*
X62304D01*
X62177Y60323D02*
Y60577D01*
X71884Y46586D02*
X72138D01*
X72011Y46459D02*
Y46713D01*
X76575Y34336D02*
X76829D01*
X76702Y34209D02*
Y34463D01*
X73685Y54114D02*
X73939D01*
X73812Y53987D02*
Y54241D01*
X83280Y50546D02*
X83534D01*
X83407Y50419D02*
Y50673D01*
X77876Y46304D02*
X78130D01*
X78003Y46177D02*
Y46431D01*
X59182Y60554D02*
X59385D01*
X59284Y60452D02*
Y60655D01*
X69698Y15926D02*
X69901D01*
X69799Y15824D02*
Y16027D01*
X55503Y62367D02*
X55706D01*
X55605Y62265D02*
Y62468D01*
X77927Y21895D02*
X78181D01*
X78054Y21768D02*
Y22022D01*
X57121Y63187D02*
X57324D01*
X57223Y63086D02*
Y63289D01*
X59179Y12696D02*
X59382D01*
X59281Y12594D02*
Y12798D01*
X71278Y17828D02*
X71583D01*
X71430Y17675D02*
Y17980D01*
X81700Y21873D02*
X81954D01*
X81827Y21746D02*
Y22000D01*
X77897Y28118D02*
X78151D01*
X78024Y27991D02*
Y28245D01*
X78113Y26323D02*
X78418D01*
X78266Y26170D02*
Y26475D01*
X81254Y25730D02*
X81560D01*
X81407Y25578D02*
Y25883D01*
X4720Y43561D02*
X4974D01*
X4847Y43434D02*
Y43688D01*
X101397Y19598D02*
X101651D01*
X101524Y19471D02*
Y19725D01*
X69647Y66243D02*
X69901D01*
X69774Y66116D02*
Y66370D01*
X69012Y59093D02*
X69266D01*
X69139Y58966D02*
Y59220D01*
X79483Y20038D02*
X79737D01*
X79610Y19911D02*
Y20165D01*
X80264Y20015D02*
X80518D01*
X80391Y19888D02*
Y20142D01*
X58117Y64889D02*
X58320D01*
X58219Y64787D02*
Y64990D01*
X58979Y65684D02*
X59182D01*
X59080Y65583D02*
Y65786D01*
X58968Y66352D02*
X59171D01*
X59070Y66251D02*
Y66454D01*
X36147Y44856D02*
X36350D01*
X36248Y44754D02*
Y44957D01*
X26822Y71028D02*
X27076D01*
X26949Y70901D02*
Y71155D01*
X30067Y72136D02*
X30321D01*
X30194Y72009D02*
Y72263D01*
X24897Y42217D02*
X25151D01*
X25024Y42090D02*
Y42344D01*
X37617Y42316D02*
X37871D01*
X37744Y42189D02*
Y42443D01*
X77165Y37287D02*
X77419D01*
X77292Y37160D02*
Y37414D01*
X76175Y38379D02*
X76429D01*
X76302Y38252D02*
Y38506D01*
X82016Y25730D02*
X82322D01*
X82169Y25578D02*
Y25883D01*
X84125Y26975D02*
X84430D01*
X84277Y26822D02*
Y27127D01*
X68272Y42542D02*
X68526D01*
X68399Y42415D02*
Y42669D01*
X68272Y41272D02*
X68526D01*
X68399Y41145D02*
Y41399D01*
X68272Y41907D02*
X68526D01*
X68399Y41780D02*
Y42034D01*
X78867Y21514D02*
X79121D01*
X78994Y21387D02*
Y21641D01*
X77927Y21209D02*
X78181D01*
X78054Y21082D02*
Y21336D01*
X78113Y23938D02*
X78418D01*
X78266Y23786D02*
Y24091D01*
X77826Y45695D02*
X78080D01*
X77953Y45568D02*
Y45822D01*
X74422Y59949D02*
X74676D01*
X74549Y59822D02*
Y60076D01*
X63505Y64960D02*
X63759D01*
X63632Y64833D02*
Y65087D01*
X59207Y63170D02*
X59411D01*
X59309Y63068D02*
Y63271D01*
X59055Y30349D02*
X59309D01*
X59182Y30222D02*
Y30476D01*
X61189Y22962D02*
X61443D01*
X61316Y22835D02*
Y23089D01*
X63602Y18339D02*
X63856D01*
X63729Y18212D02*
Y18466D01*
X66751Y18868D02*
X67005D01*
X66878Y18741D02*
Y18995D01*
X67576Y18872D02*
X67830D01*
X67703Y18745D02*
Y18999D01*
X80157Y18974D02*
X80361D01*
X80259Y18872D02*
Y19075D01*
X79787Y18644D02*
X79990D01*
X79889Y18542D02*
Y18745D01*
X73025Y17805D02*
X73279D01*
X73152Y17678D02*
Y17932D01*
X72161Y17805D02*
X72365D01*
X72263Y17704D02*
Y17907D01*
X65989Y18923D02*
X66243D01*
X66116Y18796D02*
Y19050D01*
X65782Y16459D02*
X66036D01*
X65909Y16332D02*
Y16586D01*
M02*
