M48
;Layer_Color=9474304
;FILE_FORMAT=4:3
METRIC,LZ
;TYPE=PLATED
T5F00S00C0.600
T6F00S00C0.650
T8F00S00C0.700
%
G90
G05
T05
G00X0063416Y0002686
M15
G01Y0001986
M16
G00X0071766Y0001986
M15
G01Y0002686
M16
G00X0095282Y000212
M15
G01Y000282
M16
G00X0102282Y000212
M15
G01Y000282
M16
G00X0107788Y0002081
M15
G01Y0002781
M16
G00X0114788Y0002081
M15
G01Y0002781
M16
T06
G00X0065366Y0005236
M15
G01Y0005436
M16
G00X0069816Y0005236
M15
G01Y0005436
M16
T08
G00X0093146Y0083061
M15
G01Y0084561
M16
G00X0109226Y0083061
M15
G01Y0084561
M16
M17
M30
