M48
;Layer_Color=9474304
;FILE_FORMAT=4:3
METRIC,LZ
;TYPE=PLATED
T1F00S00C0.152
T2F00S00C0.203
T3F00S00C0.254
T4F00S00C0.305
T7F00S00C0.700
T9F00S00C0.900
T10F00S00C1.000
T11F00S00C3.500
%
T01
X0023725Y0031257
X0023723Y0031935
X0023223
Y0032755
X0023723
X0024224
Y0031935
X0024544Y0031437
X0024224Y0030937
X0025173Y0030233
X0025684Y0030243
X0026042Y0030937
X0026543
Y0031833
Y0032755
Y0033256
Y0033756
X0027043
X0025722
X0025044
X0024546Y0033436
X0023723Y0033756
X0023223
X0025224Y0032755
X0026042
Y0033256
X0025722Y0031935
X0025721Y0031434
X0025044Y0031935
X0027551Y0030187
X0043286Y0029817
X0043467Y0029316
X0044287
Y0029814
Y0030314
X0044787
Y0029814
Y0029316
X0045285
Y0030634
X0044787Y0031315
Y0031816
Y0032316
Y0032814
Y0033314
X0045285Y0033815
X0045785
X0045285Y0034815
Y0035316
X0044787
X0044287Y0035636
X0043467
X0042966
Y0034815
X0044287
X0045285Y0036136
X0046967Y0032316
X0047287Y0031816
X0046786Y0031315
X0046286
T02
X0059281Y0012696
X0063678Y0010795
X006543Y0010414
X0067675Y0011005
X0068158
X0069799Y0015926
X0072567Y0015647
X0072263Y0017805
X0076276Y0015549
X0076741Y0011455
X0074541
X0093726Y0015621
X0098231Y0010413
X0098713
X0098145Y0023804
X0097495
Y0024455
X0098145
Y0026405
X0097495
Y0027061
Y0027703
X0098145
Y0027056
X0099435
Y0027703
X0100086
Y0027056
X0100736
Y0027703
Y0028996
Y0029646
X0100086
Y0028996
X0099435
Y0029646
X0098145
Y0028996
X0097495
Y0029646
Y0030944
X0098145
Y0031595
X0097495
X0099435
Y0030944
X0100086
Y0031595
X0100076Y0032235
X0100736Y0031595
X0102026Y0030286
Y0029636
Y0028986
Y0028336
X0102676
Y0028986
Y0029636
X0103345Y0025755
X0103337Y0025105
X0102687Y0024455
Y0023154
X0103337
X0103987
X0102036
X0101386Y0023804
X0100736Y0025105
Y0026405
X0100086
X0099435
X0096194
X0095544
Y0025755
X0096194
Y0027056
Y0027703
X0095544
Y0027056
Y0028996
X0096194
X0095539Y0029657
X0096194Y0030944
Y0032895
X0094246
Y0032245
X009404Y0027863
X0095544Y0023154
X0080259Y0018974
X0079889Y0018644
X0065932Y0036988
X0064569Y0036459
X006444Y0035763
X0057169Y0053058
X0057147Y0053591
X0055651Y005398
X0056385Y0055161
X0056342Y0056635
X0055605Y0056713
X0055601Y0055931
X0054833Y0055994
X0054823Y0056736
X0054767Y0057541
X0054023Y0057584
X0053997Y0056771
X00532Y0056748
X0053188Y005595
X005403Y0055915
X0053924Y0055143
X0054661Y0055016
X0052908Y0053772
X0052959Y0053111
X0058293Y0054737
X0058671Y0057523
X0059052Y0057154
X0056337Y0057582
X0055605Y0057541
X0052349Y0057599
X0052426Y0056769
Y0055974
X0052476Y0055169
X0050698
X0049987Y0055118
X0049936Y0055956
X0049179Y005594
X0048379
X0047579
Y005514
X0048379
Y0056741
Y0057541
X0047579
Y0056741
X0046746Y0056761
X0045979Y0056741
X0045179
X0045161Y0055956
X0045979Y005594
X0045923Y0055194
X0046799Y0055961
X0046786Y0057523
X0045204Y0057541
X0043731Y0056372
X0044206Y0054754
X0044399Y005367
X0045644Y0053289
X0045938Y0051943
X0044726Y0052171
X004511Y004972
X0045874Y0049707
X004671Y0049761
X0047477Y0049786
X0047092Y0052832
X0048127Y0052806
X0048026Y0053652
X004746Y0053721
X0047765Y0054132
X0049505Y0053569
X0049207Y0052092
X0049179Y0056741
X0049979
X0049984Y0057546
X0049179Y0057541
X0050794Y0057551
X0050749Y0055905
X0039133Y004699
X0039151Y0045897
Y0044856
X0036911
X0036248Y0044856
X0036243Y0045897
X0036911
X0036896Y004699
X0036256Y0046946
X0036281Y0048031
X0034008
X0034015Y0046946
X0034003Y0045897
X0034008Y0044856
X0033906Y0042288
X0031165Y0035902
X0031112Y0034607
X0030911Y0033474
X0031112Y0032346
X0030911Y0031325
X0031112Y0030012
Y0028742
Y0027683
X0028192Y0027696
X0028191Y0028742
X002829Y0030012
X0028478Y0030861
Y0033474
X0028272Y0034607
X0027307Y0035976
X0024188Y0036065
X0022232Y0036075
X0021333Y0035001
X0020952Y0033906
Y0032763
X0021206Y0031493
X0018265Y0031877
X0018422Y0030607
X0018321Y0029324
X0018669Y0032923
Y0033685
X0018188Y0034671
X0019304Y0036362
X0021582Y0038826
X0022852
X00227Y0046967
X0025933Y0046946
Y0046149
X0027533Y0046946
X0028605Y0048133
X0028529Y0050363
X0029062Y0050358
X0029621Y0050383
X0029819Y0053258
X0030825Y0053233
X002855Y0052756
X0027533Y0053375
X0026733
X0026705Y0052575
X0025709Y0053035
X0025214Y0053543
X002446Y0053484
X0023652Y0054561
X0023881Y0055717
X002449Y0055692
X0025933Y0055775
X0026733
Y0056573
X0027533
Y0057373
X0026733
X0025905Y0057348
X0026733Y0054975
X0027533
X0028296Y0056439
X0022689Y0057345
X0021107Y0057373
Y0054975
X0021907
Y0055775
Y0052575
X0022705
X00227Y0053355
X0021107Y0053375
Y0052575
Y0051775
X0021907
Y0050947
X0022705
X0023576Y0051018
X0024188Y0051638
X0025862Y0050129
X002096Y0049761
X0020594Y0051155
X0014348Y0052299
X0014364Y0054198
X0022987Y0028575
X0023604Y0028534
X0024561Y0028575
X0026144Y0028526
X0026924Y0028498
X0026137Y0029947
X0026144Y0025613
X0027414Y0025598
X0024874Y0025529
X0021005Y0025146
X0022936Y0020523
X0022936Y0019573
X0027284Y0020523
X0041707Y0033506
X000864Y0040259
X0011175Y0052299
X0021907Y0058173
X002749Y0058145
X0027513Y0060553
X0036299Y0059278
X003617Y0058544
X0036306Y0064541
Y0065524
Y0066372
X0036319Y0067289
X0034066
Y0066372
Y0065524
Y0064541
X0044149Y0063715
X0045979Y0063967
X0046763Y0063982
X0046779Y0064767
Y0065567
Y0066367
X0045979
Y0067167
X0046779
Y0067967
X0047579Y0067167
X0048437Y0067147
X0048539Y0068041
X0049581Y0068047
X0049979Y0066367
Y0065567
X0050779
Y0066367
Y0064767
Y0063967
X0049979Y0063962
Y0064764
X0048379Y0064759
X0047597Y0064747
X0047599Y0063954
X0047579Y0063207
Y0062367
X0046779
X0045979
Y0063167
X0046779
X0048402Y0063962
X0049225Y0063855
X0049235Y0062349
X0048549Y0062372
X0050005Y0062341
X0050805
X0051597Y0062367
X0052379Y0063954
X0051598Y0064746
X0051671Y0065634
X0052566Y006555
X0052451Y0066446
X0049159Y0066388
X0048389Y0065557
X0047579Y0065567
X0047576Y0060784
X0046746Y0060774
X0045979Y0060741
X0045179
Y0059966
Y0059166
X0045979Y0059141
X0046746Y0059174
X0047579Y0059166
X0047569Y0059931
X0046822Y0059959
X0046022Y0059921
X0045946Y005832
X0045161Y0058268
X0046837Y0058369
X0047574Y0058374
X0048671Y0058996
X0049667Y0059001
X0050673Y0058979
X0050784Y0059959
X0050779Y0060741
X0049979
X0049237Y0060751
X0048801Y0061117
X0048821Y0060126
X0049979Y0059941
X0052405
Y0060741
X0052423Y0059146
X0044378Y0060741
X0045018Y006814
X0052321Y0069771
X0038895Y0078559
X0017729Y0080921
X0053246Y0070586
X0053281Y0069796
X0053213Y0069039
X0055369Y0069085
X0055877
X0056131Y0069974
X0055496
Y0070736
X0056131
X0058183Y0070807
X0058199Y0070076
X0059004Y0070967
X0059633Y0070989
X0060093Y007066
X0059776Y0068605
X0059741Y006744
X0059732Y006685
X005907Y0066352
X005908Y0065684
X0058219Y0064889
X005721Y006477
X0056398Y0064762
X005641Y0065534
X0055616Y0065572
X0055626Y0066396
X0055572Y0067134
X0055618Y006798
X0054805Y0066367
X0053205
X0054077Y0064735
X0054025Y0063985
X0054767Y006398
X0054864Y0064706
X005557Y0064729
X0055585Y0063931
X0055605Y0063167
Y0062367
X0056398Y0062362
X0056423Y0063187
X0056385Y0063931
X0057185
X0057223Y0063187
X0059309Y006317
X0059334Y0062408
X0060068Y0061612
X0059284Y0060554
X0058163Y0060195
X0057185Y0059949
X0056398Y0059959
X0056405Y0060741
X0055605
X0054874Y0060751
X0054833Y0059913
X0055582Y0059936
X0055605Y0059141
X0055615Y0058369
X0056385Y0058346
X0056405Y0059141
X005716Y0059123
X0057165Y0058308
X0054805Y0058341
X0054823Y0059121
X0054005Y0058366
X0053195Y0058359
X0053797Y0060096
X0053492Y0060731
X0053205Y0062316
X0053942Y0062303
X0054805Y0062367
X0054823Y0063111
T03
X0020422Y0004039
X002112Y0006721
X0023809Y0005781
X0024571Y0004371
X0031722Y0006782
X0038442Y0004001
X0042164Y0008947
X0041325Y0010686
X0046007Y0008943
X0047676Y0005437
X0051206Y0008871
X0050367Y001061
X0050237Y0017183
X0047142Y001811
X0056083Y0018161
X0057379Y001303
X005595Y0009704
X005718Y0004492
X0066523Y0010961
X006924Y0011049
X0065909Y0016459
X0063729Y0018339
X0073152Y0017805
X0084201Y0015011
X0084226Y0014351
X0084886Y0014376
X0084891Y0015036
X0085598
X0085605Y0014376
X0087492Y0014983
X0088643Y0017142
X0086992Y0018158
X0104673Y0017424
X0106316Y0013987
X0109525Y0015773
X0109979Y0017018
X0112166Y0007772
X0113055Y0006401
X0112288Y000092
X0110288Y0000982
X0110106Y0022098
X011036Y0024638
X0110106Y0027178
X0109852Y0029718
X0106804Y0030604
X0104681Y0030441
Y0029552
X0106133Y0028953
X0106804Y0025908
X0106652Y0024635
X0106134Y0023169
X0104625Y00224
X0103515Y0022024
X0101523Y0022059
X010053Y0022024
X0099641Y0022029
Y0019598
X010053Y0019596
X0101524Y0019598
X0102565Y0019476
X0103375Y0019428
X0104772
X0106022
X0106121Y0018542
X0097276Y0019177
X0096133Y001905
X0095374Y0019047
X0093218Y0021996
X0093362Y0023291
X0093223Y0024384
X0093215Y0025397
X0093362Y0026822
Y0027863
Y0028829
Y0029801
Y0030784
Y0031752
Y0032689
X0093926Y0035148
X0095145Y0035151
X0096146Y0035161
X009812
X0099034Y0035163
X0099923
X0101597Y0035176
X0102867Y0035049
X0102301Y0038013
X0101015Y0037665
X0099923Y003767
X0099034
X009812Y0037665
X0094924Y0037533
X0093977Y0037589
X0094485Y0040891
X009639
X0097858Y0040944
X0098874
X009989
X0101922
X0103954Y0040909
Y0043446
X0102938Y0043467
X0101922Y0043497
X0100863Y0043319
X009989Y0043467
X0098874
X0097858
X0096898Y0043431
X009541Y00434
X0093662Y0046357
X0093853Y0047447
X0094236Y0048437
X0094285Y0049479
X0096672Y0049606
X009688Y0050665
X0099593Y0050977
X0102463
X0103505Y0051813
X0103952Y0054226
Y0056299
X0103606Y005688
X0105912Y005715
X0106804Y0054734
X0105915Y0051211
X0105928Y0050276
X0105128Y005021
X0104358Y004971
X0104444Y0048712
X0106677Y0048765
Y0048051
X0106652Y0047035
X0107185Y0044884
X0106347Y0044002
X0109217Y0043939
X0109852Y0041402
X0113281Y0038862
X0113027Y0036322
X0109979Y0033782
X0108022Y0033438
X0107119Y0034274
X0106134Y0035469
X0105971Y003795
X0104494Y0032619
Y0031885
X0100457Y0045618
X0099578Y0047929
X0102428Y0047919
X0101145Y0049461
X010782Y0049326
X0109832Y0049022
X0115595Y0049657
X0117091Y005069
X0119659Y0049629
X0116332Y0047726
X0116668Y0046482
X0120498Y0044983
X0123725Y0044712
X0124385Y00475
X0125183Y0047622
Y0049908
X0113662Y0054102
X0109852Y0056642
X0100584Y0056799
X0098041Y0056741
X0097193Y0056385
X0096266
X0096471Y0057406
X0094158Y0057023
X0093414Y0056582
X0093396Y0054322
X0096263Y0054226
X0093294Y0051079
X0113408Y0043942
X0090294Y0043939
X0089278
X0088389
X0085897Y0043954
X0084503Y0043903
X0083668Y0043866
X0085897Y004688
X0086357Y0049781
X0084988Y0049759
X008496Y0051178
Y0052575
X0086484
X0087881
Y0051178
Y0049781
X0086459Y0051196
X0083407Y0050546
X0084546Y005527
X0085382Y0055267
X0086784Y0055288
X0088604Y0055332
X0090729Y0055059
X0091491Y0055867
X009045Y0056639
X00905Y0057887
X0092278Y0054322
X009004Y0051813
Y0050665
Y0047622
X0087246Y0038771
Y0037843
X0085849
Y0038771
X0084891Y0035176
X0084386Y0033271
X008831Y0035255
X009004Y0035245
X0090865Y0032689
Y0031752
Y0030784
Y0028829
Y0027863
Y0026822
Y0024384
Y0023291
X0092323Y0021988
X0086865Y0020952
X0085722
X0085053Y0021923
X0081827Y0021873
X0080874Y0021742
X0080802Y002098
X0080391Y0020015
X007961Y0020038
X0078994Y0021514
X0078054Y0021209
Y0021895
X0078024Y0028118
X0071069Y0028169
X0070409
X00691Y0027635
X0068449Y0027635
X0068478Y0026873
X0069115Y0026875
X0070177Y0030349
X0070237Y0031113
X0070263Y0031874
X0066853Y0031852
X0063652Y0031906
X0062713Y0032515
X0061671Y0033785
X0061646Y0034493
X0063423Y0035811
X006604Y0038405
X0066446Y0040592
X00662Y0041664
X0068399Y0041907
Y0042542
Y0041272
X0071018Y0041649
X0070965Y0042542
X0072019Y0045958
X0072011Y0046586
X0072006Y0047343
X007419Y0046708
Y0046022
X0074207Y004541
X0077953Y0045695
X0078003Y0046304
X0076302Y0038379
X0077292Y0037287
X0076702Y0034336
X0072883Y0036421
X0070101Y0036175
X0063751Y0040764
X0062989
X0060046Y0038891
X0059433Y0038884
X0059423Y0038243
X0058191Y0038252
X0057528Y0037462
X0056766
Y0036827
X0057972Y0037008
X0058084Y0040408
X0057045Y0040434
X0056766Y0041907
Y0042542
X005575
Y0041907
X0054767Y0041877
X005478Y0042542
X0053108Y0040764
X0053615Y0033909
X0053696Y0032914
X0056385Y0033906
X0059182Y0030349
X0057274Y0027302
X0056512
X0053616Y0026848
X0053823Y0025984
X0055093Y0022784
X0053518Y0021666
X0054319Y0018858
X0056744Y0019863
X0061316Y0022962
X0066116Y0018923
X0066878Y0018868
X0067703Y0018872
X0085722Y001892
X0086992
X0073838Y0053453
X0073812Y0054114
X0069974Y0053388
X0069314Y0053365
X0068653Y0053337
X0069339Y0052448
Y0051432
X0068323
X0067434Y0049809
X0066548Y0049781
X0065631
X0064174Y005239
X0063148Y0052076
X0062433Y0052047
X0061412
X0059319
X0059258Y0053086
X0056334Y005212
X0055841Y0052578
X0055359Y0052984
X005494Y0053543
X005448Y0049682
X0056652Y004686
X0062989Y0045844
X0063878
X0065275Y0045615
X0063395Y0053388
X0063602Y0054792
Y0057262
X0067348Y0056552
X0067815Y0054861
X0050648Y0052654
X0049273Y0049682
X0048285
X0052374Y0045496
X0052194Y0042415
X0051051Y0042542
X0050198
X0052235Y0040764
X0051341Y0036195
X0051739Y0034485
X005161Y0033601
X0051633Y0032809
X0052702Y003289
X0052501Y0029839
X0052552Y0028623
X0050348Y0028898
X005003Y0025064
X0048887Y0025107
X004747Y0024963
Y0022666
X0045994Y0022649
X0043611Y002191
X0043652Y0019586
X0042197Y0018788
X0045386Y0018868
X004747Y0020213
X0048887Y0020365
X0052585Y0019576
X0052202Y0022771
X00513
Y0025064
X0052202
X0045026Y0024942
X0043611Y0025039
X0039494Y0020952
X0038859
X0039494Y002019
Y0019555
X0038859
X003162Y0019809
Y0020698
X0030731
X0031112Y0021968
X0030096
X0029334Y0024381
X0028699
Y002527
X0029334
X002908Y0026159
X0026883Y0029916
X0026167Y0036068
X0025278Y0036065
X0025024Y0042217
X0024109Y0042161
X0022656
X002098
X0019989
X0018948
X0017399Y0044985
Y0045963
Y0047487
Y0048402
Y0049293
Y0050292
Y0051231
X0019118Y0051973
X0019144Y005465
X0017399Y0053975
Y0055366
Y0056316
X0019118Y0057058
X0014478Y0057322
X0019682Y0048402
X0019682Y0045963
X0023365Y0043812
X002606Y0042217
X0027114Y0042227
X0028145
X0029151
X0030142
X0031137
X00318Y0045704
Y0046771
Y004799
X0031569Y0048836
Y0049733
X0030967Y0050398
X0031544Y0054571
Y0055471
X0035176Y0054815
Y005321
Y0052194
X003603Y0055714
X0039997Y0055609
X0040561Y0053899
X0040183Y0053188
X0040208Y0052045
X0040665Y0051594
X0039848Y0049886
X0039853Y0049016
X0039928Y0048107
X004065Y0048155
X0038608Y0048768
X0038595Y0049403
X0038692Y0053722
X003401Y0058003
X0040002Y0044701
X0041526
X0042542
Y0042288
X0041526
X004051
X0039469Y0042329
X0038455Y0042336
X0037744Y0042316
X0037693Y0040454
X0037843Y0037462
X003637Y0037925
X0036499Y0036593
X0034287Y0036573
X0035027Y003358
X0036083Y0033706
X0037015Y003363
X003871Y0033985
X003937Y003523
X0039364Y0036576
X004051Y0040002
X0044288Y0040034
X0045209Y0040002
X0044929Y0042262
X0044193Y0042288
X0043558
X0044955Y0044701
X0047186Y0039294
X0044701Y00367
X0043685Y0037564
X0037637Y0031597
X0036593Y0031202
X0036525Y0030379
X0029309Y001892
X0024074Y0023436
X0016459Y0030012
X0015519Y0030353
X0014884Y0031394
X0013868Y0031953
X0014529Y0035804
X0013912Y0039809
X0011575Y0039784
Y0041455
X0011575Y00429
X0010903Y0044409
X0009035Y004337
X0010257Y0040665
X0010268Y0035824
X0012548Y003495
X0006655Y0028905
Y0026365
X0006629Y0023825
X0004851Y004097
X0004717Y0042471
X0004847Y0043561
X0004876Y007272
X0005613Y0075006
X0006375Y007498
X0005638Y0075801
X0008163Y0075244
X0010693Y0077114
X0012618Y0073197
X0014221Y0072514
Y0071902
X0016491Y0071092
X0017764Y0072702
X0017668Y0078308
X0014881Y0077594
X0014196Y0077543
X0013281Y0077594
X0021442Y0078384
X0021079Y0083563
X0016593
X0015772Y0068401
X0014475Y0068069
X0014478Y0064942
Y0063418
Y0061894
Y006037
Y0058846
X0015821Y0066189
X0022936Y0062636
X0023835Y0062661
X0024485Y0060645
X0025278Y0060614
X0026494Y0062712
X0021971Y0060749
X0034028Y0059283
X0037188Y0059309
X0037213Y0060309
X0037203Y0061396
X0037218Y0062481
X0037188Y0063543
X0037084Y0064523
Y0065521
Y0066367
X0037188Y0067292
X0037084Y0068166
Y0069192
Y0070147
X0039425
X0040132Y0070055
X004017Y0070782
X0040134Y0069182
X0039425Y0069192
Y0068166
X004017Y0068132
X003941Y0067292
X0039425Y0065521
X0039481Y0064523
X0040132Y0064551
Y006356
X003942Y006355
X0039433Y0062481
X0040167Y0062478
X0039436Y0061407
X0039405Y0060309
X0040139Y0060317
X0042346
X0042339Y0059306
X0042379Y0061391
X0042448Y0062478
X0042774Y0065075
X0042694Y0066116
X0042536Y0066774
X0043187Y0066769
X0043873Y0073025
Y0073797
X0042799Y0073787
X0041783Y0073126
X0044932Y0073025
X0044958Y0073817
X0045996
X0045981Y0073025
X004704Y0073177
X0047063Y0073812
X0048138
X0049199
X004922Y0073101
X0049204Y0076014
X0049225Y007672
X0049225Y0077495
X0047752Y0077445
Y0078079
X0047978Y0079443
X0048887Y007973
X0049911Y0078854
X0051841Y0078308
X0052156Y0076179
X0051574Y0074955
Y0070675
X0047574Y0076022
X0046846Y0076002
X0045974Y0076022
X0044963Y0076004
X0043873
X0042799Y0075971
X0040792Y0075844
X0040665Y0078511
X0038074Y0078994
X0036167Y0074648
X0033476Y007493
X003195Y0074775
X0031523Y0078122
X0030617Y0078153
X0030194Y0072136
X0032204Y0070507
X0032255Y0069847
X0032839Y0070431
X0033969Y0071155
X0033909Y0072532
X0026949Y0071028
X0026921Y0075283
X0030708Y0065834
X0031767Y0065872
X003683Y0058576
X0044361Y0059923
X0046804Y0079299
X004605Y0083427
X0050165Y0083433
X0037386Y0085138
X0034239Y00845
X0033348Y0085137
X0056565Y0086588
X0057421
X0058724
X005941
X0060599
X0061719Y0086357
X0062481
X0065088Y0083947
X0064922Y0082017
X0065761Y0081559
X0068021Y0081763
X0068834Y008128
X0068555Y0079822
X0069063Y0083363
X0070609Y0083436
X007084Y007353
X0067952
X0066164Y0074165
X0065529
X0063243Y0074419
X0061087Y0074168
X0061137Y0072372
X0058265Y0073124
X005526Y0073177
X0055745Y0076446
X005575Y0077086
Y0077721
X005608Y0078686
X0057401Y0078737
Y0078102
Y0077492
X0057421Y0076578
X005874Y0078206
X0054277Y0077823
X0054241Y007973
X0057528Y0082801
X0058417
X0059306
X0060195
X0064033Y0078867
X0063901Y0070662
X0067139Y0071531
X0071892Y0071191
X0069774Y0066243
X006924Y0066573
X0065783Y0067028
X0063632Y006496
X0060261Y0064942
X0062481Y0062562
X0062177Y006045
X0060322Y0060276
X0059281Y0059385
X0065662Y005848
X006792Y0059004
X0069139Y0059093
X0067924Y0061447
X0066723Y0061871
X0074549Y0059949
X0081966Y0059686
X0084518Y0058359
X0087017Y0058468
X0088381Y005842
X0084963Y006387
X0083563Y0065402
Y0066418
X0083804Y0067183
X0083182Y0069593
X0086738Y0068585
X0088773Y0070104
X0088389Y0076197
X0086484Y0076451
X00875Y0077975
X0082928Y0077848
X0082989Y0082245
X008119Y008533
X008623Y0086865
X0088516
X0090929Y0086484
X0091916Y0082195
X0057609Y006812
X0093342Y0071244
X0093451Y0072405
X0092707Y007607
X0096898Y0071244
X0103225
X0107439Y0071498
Y0070609
X0114297Y0067688
Y0066799
Y006591
X0114307Y0065021
X0105153Y00621
X0104495Y006212
X0101955
X0101343Y00621
X0101216Y0059712
X0101587Y0059156
X0102575Y0059151
X0102994Y0059611
X0100584Y0059055
X0099621Y0059174
X0099743Y0059814
X0098498
X0098635Y0059176
X0098041Y0060924
X0098145Y006212
X0098803Y00621
X0096123Y006163
X0095605Y006212
X0093662Y0061465
X009365Y0058141
X0096517Y0058293
X0105915Y0058249
Y0060967
X0109979Y0078737
X0113408Y0078483
X0114221
X0116268Y007607
X0111541Y008289
T04
X0059893Y0003401
X0061087Y0003401
X0061824Y0006274
X0062699Y0008433
X0066291Y00062
X0071196Y0005817
X0071044Y0004186
X0069367Y0003912
X0067591Y0000836
X0070049Y0008458
X0071907Y0010629
X0073609Y0015189
X0075579Y0013233
X0081396Y0014922
X0081912Y0018412
X0082674
X0091629Y0016092
X0091567Y001047
X007143Y0017828
X005776Y0006985
X0056565Y0007061
X009386Y0007068
X009387Y0006195
X0094791Y0006158
X0094844Y0009271
X0096342Y0009296
X0097587Y0010338
X0099339Y0010363
X0100201Y0013363
X0101586Y0013679
X010508Y001376
X0103148Y001717
X0097714Y0015963
X0092862Y0015977
X0092456Y001047
X0100082Y0006667
X0099782Y0000973
X0097782
X0108941Y0006538
X0083055Y0019047
X0082293
X0081531
X0081407Y002573
X0082169
X0084452Y0026032
X0084277Y0026975
X0083954Y0029426
X0086565Y0028666
X0088285Y0028762
X0083678Y0024364
X0078266Y0024732
Y0023938
Y0025527
Y0026323
X0090421Y003797
X0091183
X0060493Y0035331
X0059423Y0035357
X0050198Y0045481
X0021841Y0043782
X0022458Y0034521
X0027429Y0031597
X0011506Y002761
X000482Y0039598
X0017961Y0083541
X0033347Y0080668
X0036678Y0082858
X0039405Y0080062
X0041072Y0079121
X0078102Y0066545
Y0065275
X0089202Y0073736
X0090929Y0082801
T07
X0094126Y0078491
X0096416
X0097616Y0077411
X0099656
X0101696
X0103736
X0102716Y0076311
X0100676
X0098636
X0104756
X0105956Y0078491
X0108246
T09
X0096282Y000517
X0101282
X0108788Y0005131
X0113788
X0009618Y0054878
X0007618
Y0056878
X0009618
Y0058878
X0007618
Y0060878
Y0062878
Y0064878
Y0066878
Y0068878
Y0070878
Y0072878
X0009618
Y0070878
Y0068878
Y0066878
Y0064878
Y0062878
Y0060878
T10
X000381Y00127
X000635
Y001778
X000381
X004064Y000508
Y000254
X004445
Y000508
X00508
Y000254
X005461
Y000508
X00762
Y000254
X007874
X008128
Y000508
X008382
X008636
X00889
Y000254
X008636
X008382
X007874Y000508
X012065Y002286
X012319
X0123215Y0028785
Y0031325
Y0033865
Y0036405
X0010236Y0050276
X0007696
X0012827Y0081102
Y0083642
T11
X000508Y000508
X012192
X000508Y0082918
X012192
M30
