G04 Layer_Physical_Order=6*
G04 Layer_Color=16711680*
%FSLAX43Y43*%
%MOMM*%
G71*
G01*
G75*
%ADD10C,0.254*%
%ADD12R,0.700X0.510*%
%ADD13R,0.510X0.560*%
%ADD14R,0.510X0.700*%
%ADD15R,0.640X0.890*%
%ADD27R,0.640X1.000*%
%ADD34R,1.000X1.000*%
%ADD55C,0.300*%
%ADD56R,0.800X0.800*%
%ADD88C,0.127*%
%ADD89C,0.508*%
%ADD90C,0.254*%
%ADD91C,0.130*%
%ADD95C,0.381*%
%ADD97C,0.762*%
%ADD98C,0.102*%
%ADD101C,0.155*%
%ADD104C,0.457*%
%ADD107C,0.142*%
%ADD111C,1.500*%
%ADD112O,1.200X1.900*%
%ADD113C,1.850*%
%ADD114R,1.850X1.850*%
%ADD115C,7.000*%
%ADD116C,1.700*%
%ADD117R,1.700X1.700*%
%ADD118R,1.850X1.850*%
%ADD119R,1.600X1.600*%
%ADD120C,1.600*%
%ADD121C,0.500*%
%ADD122O,1.050X1.250*%
%ADD123O,0.850X2.425*%
G04:AMPARAMS|DCode=124|XSize=1.9mm|YSize=1.375mm|CornerRadius=0.344mm|HoleSize=0mm|Usage=FLASHONLY|Rotation=90.000|XOffset=0mm|YOffset=0mm|HoleType=Round|Shape=RoundedRectangle|*
%AMROUNDEDRECTD124*
21,1,1.900,0.688,0,0,90.0*
21,1,1.212,1.375,0,0,90.0*
1,1,0.688,0.344,0.606*
1,1,0.688,0.344,-0.606*
1,1,0.688,-0.344,-0.606*
1,1,0.688,-0.344,0.606*
%
%ADD124ROUNDEDRECTD124*%
%ADD125O,1.300X2.800*%
%ADD126C,1.000*%
%ADD127C,0.610*%
%ADD128C,0.508*%
%ADD129C,0.381*%
%ADD130C,0.406*%
%ADD131C,0.406*%
%ADD132C,0.305*%
%ADD133C,0.457*%
%ADD134C,0.900*%
%ADD135R,0.550X0.800*%
%ADD136R,0.500X2.000*%
%ADD137R,2.300X0.350*%
%ADD138R,0.350X1.300*%
%ADD139R,0.950X0.400*%
%ADD140R,2.160X1.520*%
G36*
X22678Y5970D02*
X22178Y6470D01*
X21678Y5970D01*
Y7320D01*
X22678D01*
Y5970D01*
D02*
G37*
G36*
Y1777D02*
X21678D01*
Y3127D01*
X22178Y2627D01*
X22678Y3127D01*
Y1777D01*
D02*
G37*
G36*
X29470Y6782D02*
X29970Y6282D01*
X28620D01*
Y7282D01*
X29970D01*
X29470Y6782D01*
D02*
G37*
G36*
X40003Y41250D02*
X39503Y40750D01*
X38703D01*
Y41750D01*
X39503D01*
X40003Y41250D01*
D02*
G37*
G36*
X31020Y6282D02*
X30220D01*
X29720Y6782D01*
X30220Y7282D01*
X31020D01*
Y6282D01*
D02*
G37*
G36*
X22678Y3377D02*
X22178Y2877D01*
X21678Y3377D01*
Y4177D01*
X22678D01*
Y3377D01*
D02*
G37*
G36*
X85369Y7620D02*
Y5726D01*
X85330Y5675D01*
X85211Y5388D01*
X85171Y5080D01*
X85211Y4772D01*
X85330Y4485D01*
X85369Y4434D01*
Y3886D01*
X85014Y3531D01*
X84466D01*
X84415Y3570D01*
X84128Y3689D01*
X83820Y3729D01*
X83512Y3689D01*
X83225Y3570D01*
X83174Y3531D01*
X81926D01*
X81875Y3570D01*
X81588Y3689D01*
X81280Y3729D01*
X80972Y3689D01*
X80685Y3570D01*
X80634Y3531D01*
X79386D01*
X79335Y3570D01*
X79048Y3689D01*
X78740Y3729D01*
X78432Y3689D01*
X78145Y3570D01*
X78094Y3531D01*
X76846D01*
X76795Y3570D01*
X76508Y3689D01*
X76200Y3729D01*
X75892Y3689D01*
X75605Y3570D01*
X75554Y3531D01*
X72029D01*
X71923Y3552D01*
X71235D01*
X71129Y3531D01*
X68755D01*
X68235Y4050D01*
Y6158D01*
X68478Y6401D01*
X71704D01*
X73406Y8103D01*
X84887D01*
X85369Y7620D01*
D02*
G37*
G36*
X31044Y2855D02*
X29694D01*
X30194Y3355D01*
X29694Y3855D01*
X31044D01*
Y2855D01*
D02*
G37*
G36*
X29944Y3355D02*
X29444Y2855D01*
X28644D01*
Y3855D01*
X29444D01*
X29944Y3355D01*
D02*
G37*
G36*
X22678Y5720D02*
Y4920D01*
X21678D01*
Y5720D01*
X22178Y6220D01*
X22678Y5720D01*
D02*
G37*
G36*
X41103Y40750D02*
X39753D01*
X40253Y41250D01*
X39753Y41750D01*
X41103D01*
Y40750D01*
D02*
G37*
G36*
X42400Y64238D02*
Y63438D01*
X41400D01*
Y64238D01*
X41900Y64738D01*
X42400Y64238D01*
D02*
G37*
G36*
X90325Y58259D02*
X90207Y58180D01*
X90117Y58045D01*
X90086Y57887D01*
X90117Y57728D01*
X90197Y57610D01*
X90195Y57594D01*
X90195Y57563D01*
X90198Y57532D01*
X90203Y57501D01*
X90212Y57471D01*
X90222Y57442D01*
X90235Y57414D01*
X90251Y57387D01*
X90269Y57362D01*
X90289Y57338D01*
X90311Y57316D01*
X90335Y57296D01*
X90360Y57278D01*
X90387Y57263D01*
X90415Y57250D01*
X90445Y57239D01*
X90475Y57231D01*
X90504Y57226D01*
X90548Y57220D01*
Y57097D01*
X90548Y57088D01*
X90546Y57079D01*
X90544Y57071D01*
X90542Y57062D01*
X90538Y57054D01*
X90534Y57046D01*
X90529Y57039D01*
X90529Y57038D01*
X90450Y57053D01*
X90292Y57022D01*
X90157Y56932D01*
X90067Y56798D01*
X90036Y56639D01*
X90067Y56480D01*
X90157Y56346D01*
X90292Y56256D01*
X90450Y56225D01*
X90529Y56240D01*
X90530Y56238D01*
X90535Y56231D01*
X90539Y56223D01*
X90542Y56215D01*
X90545Y56206D01*
X90547Y56197D01*
X90548Y56189D01*
X90548Y56181D01*
Y55427D01*
X90436Y55352D01*
X90346Y55218D01*
X90314Y55059D01*
X90346Y54901D01*
X90436Y54766D01*
X90548Y54691D01*
Y51813D01*
X90294Y51559D01*
X89913D01*
X88770Y52702D01*
Y53083D01*
X88389Y53464D01*
X84833D01*
X84452Y53083D01*
Y44955D01*
X84833Y44574D01*
Y43812D01*
X84579Y43558D01*
X83217D01*
X83286Y43661D01*
X83325Y43754D01*
Y43754D01*
X83364Y43949D01*
Y44051D01*
X83325Y44246D01*
X83286Y44339D01*
X83176Y44504D01*
X83140Y44540D01*
X83104Y44576D01*
X82939Y44686D01*
X82846Y44725D01*
X82846D01*
X82801Y44734D01*
Y46606D01*
X82166Y47241D01*
Y57909D01*
X82991Y58734D01*
X84150D01*
X84159Y58734D01*
X84168Y58733D01*
X84177Y58731D01*
X84185Y58728D01*
X84193Y58725D01*
X84201Y58721D01*
X84209Y58716D01*
X84216Y58711D01*
X84222Y58705D01*
X84228Y58698D01*
X84234Y58691D01*
X84239Y58683D01*
X84243Y58675D01*
X84246Y58667D01*
X84246Y58666D01*
X84225Y58652D01*
X84135Y58518D01*
X84104Y58359D01*
X84135Y58200D01*
X84225Y58066D01*
X84359Y57976D01*
X84518Y57945D01*
X84677Y57976D01*
X84811Y58066D01*
X84901Y58200D01*
X84932Y58359D01*
X84901Y58518D01*
X84811Y58652D01*
X84790Y58666D01*
X84792Y58673D01*
X84796Y58681D01*
X84801Y58689D01*
X84806Y58696D01*
X84812Y58702D01*
X84818Y58709D01*
X84825Y58714D01*
X84832Y58719D01*
X84840Y58724D01*
X84848Y58727D01*
X84857Y58730D01*
X84865Y58732D01*
X84874Y58734D01*
X84883Y58734D01*
X84886Y58734D01*
X89849D01*
X90325Y58259D01*
D02*
G37*
G36*
X42400Y64488D02*
X41900Y64988D01*
X41400Y64488D01*
Y65838D01*
X42400D01*
Y64488D01*
D02*
G37*
G36*
X28942Y72036D02*
X28442Y71536D01*
X27942Y72036D01*
Y72836D01*
X28942D01*
Y72036D01*
D02*
G37*
G36*
Y70436D02*
X27942D01*
Y71786D01*
X28442Y71286D01*
X28942Y71786D01*
Y70436D01*
D02*
G37*
G36*
X88388Y52829D02*
Y52544D01*
X88389Y52544D01*
Y52321D01*
X89532Y51178D01*
X89755D01*
X89755Y51177D01*
X90040D01*
X90147Y51071D01*
X90137Y51060D01*
X90040Y51079D01*
X89881Y51048D01*
X89747Y50958D01*
X89657Y50823D01*
X89626Y50665D01*
X89657Y50506D01*
X89747Y50372D01*
X89881Y50282D01*
X90040Y50251D01*
X90199Y50282D01*
X90333Y50372D01*
X90423Y50506D01*
X90454Y50665D01*
X90452Y50677D01*
X90456Y50679D01*
X90465Y50682D01*
X90474Y50683D01*
X90482Y50685D01*
X90491Y50685D01*
X90500Y50685D01*
X90509Y50683D01*
X90518Y50681D01*
X90526Y50679D01*
X90534Y50675D01*
X90542Y50671D01*
X90550Y50666D01*
X90557Y50661D01*
X90563Y50655D01*
X90675Y50543D01*
Y43812D01*
X90421Y43558D01*
X85468D01*
X85214Y43811D01*
Y44732D01*
X84833Y45113D01*
Y52925D01*
X84991Y53082D01*
X88135D01*
X88388Y52829D01*
D02*
G37*
G36*
X31044Y1331D02*
X29694D01*
X30194Y1831D01*
X29694Y2331D01*
X31044D01*
Y1331D01*
D02*
G37*
G36*
X29944Y1831D02*
X29444Y1331D01*
X28644D01*
Y2331D01*
X29444D01*
X29944Y1831D01*
D02*
G37*
G36*
X25890D02*
X25390Y1331D01*
X24590D01*
Y2331D01*
X25390D01*
X25890Y1831D01*
D02*
G37*
G36*
X26990Y1331D02*
X25640D01*
X26140Y1831D01*
X25640Y2331D01*
X26990D01*
Y1331D01*
D02*
G37*
%LPC*%
G36*
X76200Y6269D02*
X75892Y6229D01*
X75605Y6110D01*
X75359Y5921D01*
X75170Y5675D01*
X75051Y5388D01*
X75011Y5080D01*
X75051Y4772D01*
X75170Y4485D01*
X75359Y4239D01*
X75605Y4050D01*
X75892Y3931D01*
X76200Y3891D01*
X76508Y3931D01*
X76795Y4050D01*
X77041Y4239D01*
X77230Y4485D01*
X77349Y4772D01*
X77389Y5080D01*
X77349Y5388D01*
X77230Y5675D01*
X77041Y5921D01*
X76795Y6110D01*
X76508Y6229D01*
X76200Y6269D01*
D02*
G37*
G36*
X78740D02*
X78432Y6229D01*
X78145Y6110D01*
X77899Y5921D01*
X77710Y5675D01*
X77591Y5388D01*
X77551Y5080D01*
X77591Y4772D01*
X77710Y4485D01*
X77899Y4239D01*
X78145Y4050D01*
X78432Y3931D01*
X78740Y3891D01*
X79048Y3931D01*
X79335Y4050D01*
X79581Y4239D01*
X79770Y4485D01*
X79889Y4772D01*
X79929Y5080D01*
X79889Y5388D01*
X79770Y5675D01*
X79581Y5921D01*
X79335Y6110D01*
X79048Y6229D01*
X78740Y6269D01*
D02*
G37*
G36*
X84074Y6133D02*
Y5334D01*
X84873D01*
X84870Y5361D01*
X84761Y5623D01*
X84588Y5848D01*
X84363Y6021D01*
X84101Y6130D01*
X84074Y6133D01*
D02*
G37*
G36*
X83566Y4826D02*
X82767D01*
X82770Y4799D01*
X82879Y4537D01*
X83052Y4312D01*
X83277Y4139D01*
X83539Y4030D01*
X83566Y4027D01*
Y4826D01*
D02*
G37*
G36*
X81280Y6269D02*
X80972Y6229D01*
X80685Y6110D01*
X80439Y5921D01*
X80250Y5675D01*
X80131Y5388D01*
X80091Y5080D01*
X80131Y4772D01*
X80250Y4485D01*
X80439Y4239D01*
X80685Y4050D01*
X80972Y3931D01*
X81280Y3891D01*
X81588Y3931D01*
X81875Y4050D01*
X82121Y4239D01*
X82310Y4485D01*
X82429Y4772D01*
X82469Y5080D01*
X82429Y5388D01*
X82310Y5675D01*
X82121Y5921D01*
X81875Y6110D01*
X81588Y6229D01*
X81280Y6269D01*
D02*
G37*
G36*
X84873Y4826D02*
X84074D01*
Y4027D01*
X84101Y4030D01*
X84363Y4139D01*
X84588Y4312D01*
X84761Y4537D01*
X84870Y4799D01*
X84873Y4826D01*
D02*
G37*
G36*
X83566Y6133D02*
X83539Y6130D01*
X83277Y6021D01*
X83052Y5848D01*
X82879Y5623D01*
X82770Y5361D01*
X82767Y5334D01*
X83566D01*
Y6133D01*
D02*
G37*
G36*
X69816Y6222D02*
X69613Y6195D01*
X69424Y6116D01*
X69261Y5992D01*
X69136Y5829D01*
X69057Y5639D01*
X69031Y5436D01*
Y5236D01*
X69057Y5033D01*
X69136Y4843D01*
X69261Y4680D01*
X69424Y4555D01*
X69613Y4477D01*
X69816Y4450D01*
X70020Y4477D01*
X70209Y4555D01*
X70372Y4680D01*
X70497Y4843D01*
X70575Y5033D01*
X70602Y5236D01*
Y5436D01*
X70575Y5639D01*
X70497Y5829D01*
X70372Y5992D01*
X70209Y6116D01*
X70020Y6195D01*
X69816Y6222D01*
D02*
G37*
G36*
X85382Y55681D02*
X85223Y55650D01*
X85089Y55560D01*
X84999Y55425D01*
X84967Y55267D01*
X84999Y55108D01*
X85089Y54974D01*
X85223Y54884D01*
X85382Y54852D01*
X85540Y54884D01*
X85675Y54974D01*
X85765Y55108D01*
X85796Y55267D01*
X85765Y55425D01*
X85675Y55560D01*
X85540Y55650D01*
X85382Y55681D01*
D02*
G37*
G36*
X88604Y55746D02*
X88445Y55715D01*
X88311Y55625D01*
X88221Y55490D01*
X88189Y55332D01*
X88221Y55173D01*
X88311Y55039D01*
X88445Y54949D01*
X88604Y54918D01*
X88762Y54949D01*
X88897Y55039D01*
X88986Y55173D01*
X89018Y55332D01*
X88986Y55490D01*
X88897Y55625D01*
X88762Y55715D01*
X88604Y55746D01*
D02*
G37*
G36*
X86784Y55703D02*
X86626Y55671D01*
X86491Y55581D01*
X86401Y55447D01*
X86370Y55288D01*
X86401Y55130D01*
X86491Y54995D01*
X86626Y54905D01*
X86784Y54874D01*
X86943Y54905D01*
X87077Y54995D01*
X87167Y55130D01*
X87199Y55288D01*
X87167Y55447D01*
X87077Y55581D01*
X86943Y55671D01*
X86784Y55703D01*
D02*
G37*
G36*
X85897Y47294D02*
X85738Y47263D01*
X85604Y47173D01*
X85514Y47039D01*
X85483Y46880D01*
X85514Y46721D01*
X85604Y46587D01*
X85738Y46497D01*
X85897Y46466D01*
X86056Y46497D01*
X86190Y46587D01*
X86280Y46721D01*
X86311Y46880D01*
X86280Y47039D01*
X86190Y47173D01*
X86056Y47263D01*
X85897Y47294D01*
D02*
G37*
%LPD*%
D10*
X29220Y6782D02*
D03*
X30320D02*
D03*
X30444Y3355D02*
D03*
X29344D02*
D03*
X30444Y1831D02*
D03*
X29344D02*
D03*
X22178Y6720D02*
D03*
Y5620D02*
D03*
Y2377D02*
D03*
Y3477D02*
D03*
X26390Y1831D02*
D03*
X25290D02*
D03*
X41900Y65238D02*
D03*
Y64138D02*
D03*
X39403Y41250D02*
D03*
X40503D02*
D03*
X28442Y72136D02*
D03*
Y71036D02*
D03*
D12*
X5370Y34003D02*
D03*
Y33103D02*
D03*
X4264Y34003D02*
D03*
Y33103D02*
D03*
X3158Y34003D02*
D03*
Y33103D02*
D03*
X2053Y34003D02*
D03*
Y33103D02*
D03*
X2815Y40709D02*
D03*
Y39809D02*
D03*
X7582Y34003D02*
D03*
Y33103D02*
D03*
X6476Y34003D02*
D03*
Y33103D02*
D03*
X46859Y78403D02*
D03*
Y77503D02*
D03*
X48514Y78403D02*
D03*
Y77503D02*
D03*
D13*
X18820Y81043D02*
D03*
X19720D02*
D03*
X37494Y82649D02*
D03*
X38394D02*
D03*
X24699Y6822D02*
D03*
X23799D02*
D03*
X44533Y62982D02*
D03*
X45433D02*
D03*
D14*
X120677Y50690D02*
D03*
X121577D02*
D03*
X18820Y79773D02*
D03*
X19720D02*
D03*
X19703Y82067D02*
D03*
X18803D02*
D03*
Y83134D02*
D03*
X19703D02*
D03*
X26926Y6766D02*
D03*
X26026D02*
D03*
D15*
X44615Y64838D02*
D03*
X46015D02*
D03*
D27*
X121908Y46532D02*
D03*
X120508D02*
D03*
X120488Y48404D02*
D03*
X121888D02*
D03*
D34*
X97616Y77411D02*
D03*
D55*
X43739Y64536D02*
D03*
D56*
X123506Y46482D02*
D03*
X125006D02*
D03*
X125184Y48425D02*
D03*
X123684D02*
D03*
Y50695D02*
D03*
X125184D02*
D03*
D88*
X81150Y43434D02*
Y49210D01*
X73708Y62328D02*
Y63846D01*
X74089Y62609D02*
X75108Y61590D01*
X74089Y62609D02*
Y64004D01*
X69367Y10211D02*
X70166Y11009D01*
X58199Y69499D02*
X58572Y69127D01*
Y67584D02*
Y69127D01*
X57981Y66993D02*
X58572Y67584D01*
X57769Y69030D02*
X58084Y68715D01*
Y67634D02*
Y68715D01*
X57600Y67151D02*
X58084Y67634D01*
X57885Y63882D02*
X58602Y64599D01*
X47040Y73177D02*
Y73206D01*
X46532Y73714D02*
X47040Y73206D01*
X41427Y51387D02*
Y53699D01*
X41043Y51003D02*
X41427Y51387D01*
X48402Y75712D02*
Y76235D01*
X32969Y78054D02*
X45013D01*
X33477Y77670D02*
X44682D01*
X31856Y76049D02*
X33477Y77670D01*
X31571Y76656D02*
X32969Y78054D01*
X54647Y75844D02*
X62760D01*
X58260Y58572D02*
X60096Y56735D01*
X58417Y58953D02*
X60479Y56891D01*
X58577Y59334D02*
X60860Y57051D01*
X60891Y57814D02*
X61018Y57941D01*
X60637Y57814D02*
X60891D01*
X60510Y57941D02*
X60637Y57814D01*
X60510Y57941D02*
Y58910D01*
X60096Y54386D02*
Y56735D01*
X60479Y54744D02*
Y56891D01*
X60860Y54903D02*
Y57051D01*
X56007Y56200D02*
X56868Y55339D01*
X53996Y56776D02*
X54432Y56339D01*
Y55832D02*
Y56339D01*
X60785Y62763D02*
X61189Y62360D01*
X58240Y59334D02*
X58577D01*
X58395Y57279D02*
X59690Y55983D01*
X43164Y63078D02*
X44010Y62231D01*
X41877Y63078D02*
X43164D01*
X44010Y62231D02*
X45459D01*
X43922Y61719D02*
X45432D01*
X43162Y62478D02*
X43922Y61719D01*
X42448Y62478D02*
X43162D01*
X43160Y61851D02*
X43737Y61274D01*
X41976Y61851D02*
X43160D01*
X43737Y61274D02*
X45247D01*
X45459Y62231D02*
X45844Y61846D01*
X45432Y61719D02*
X45686Y61465D01*
X40002Y64132D02*
X40306D01*
X39420Y63550D02*
X40002Y64132D01*
X39588Y63014D02*
X40132Y63560D01*
X39606Y65077D02*
X40132Y64551D01*
X44327Y67820D02*
X45775Y66367D01*
X25265Y31437D02*
X25722D01*
X104443Y48717D02*
X104602Y48558D01*
X121909Y48425D02*
X123685D01*
X121584Y50695D02*
X123685D01*
X59004Y67266D02*
Y70970D01*
X55604Y63172D02*
X55607D01*
X22179Y3477D02*
Y5621D01*
X57769Y70399D02*
X58182Y70812D01*
X50779Y55905D02*
Y55940D01*
X50749Y55931D02*
X50770D01*
X41682Y33531D02*
X42966Y34815D01*
X59631Y69865D02*
Y70994D01*
X56422Y63191D02*
X56653Y62960D01*
X58199Y69499D02*
Y70080D01*
X56385Y63941D02*
X56395D01*
X56384Y63936D02*
X56385D01*
X56130Y70741D02*
X56537Y70334D01*
X26975Y4821D02*
Y4821D01*
X60092Y70664D02*
X60432Y70325D01*
X55579Y55971D02*
X55815Y55734D01*
X24107Y1831D02*
X25291D01*
X25622Y3921D02*
Y3922D01*
X78997Y43185D02*
Y44002D01*
X48006Y64392D02*
X48378Y64764D01*
X104898Y36738D02*
X106173Y35463D01*
X27792Y3355D02*
X29347D01*
X26975Y3921D02*
Y3922D01*
X29347Y1831D02*
Y3355D01*
X53199Y56749D02*
X53199Y56750D01*
X74189Y46712D02*
X74901D01*
X69338Y51087D02*
Y51437D01*
X65476Y49632D02*
X65630Y49786D01*
X65479Y49632D02*
X65631Y49784D01*
X51632Y32527D02*
Y32814D01*
X11272Y41758D02*
X11575Y41455D01*
X2083Y41758D02*
X11272D01*
X965Y40640D02*
X2083Y41758D01*
X965Y38481D02*
Y40640D01*
Y38481D02*
X2053Y37394D01*
Y34003D02*
Y37394D01*
X43228Y52550D02*
X45502D01*
X42796Y49464D02*
X43027Y49695D01*
Y52349D01*
X43228Y52550D01*
X44028Y53328D02*
X44040D01*
X42603D02*
X44028D01*
X42189Y52914D02*
X42603Y53328D01*
X42189Y50985D02*
Y52914D01*
X42570Y50828D02*
Y52756D01*
X42761Y52947D01*
X44548D01*
X45502Y52550D02*
X45540Y52588D01*
X41732Y49989D02*
X42570Y50828D01*
X41163Y50543D02*
X41808Y51189D01*
X40840Y50543D02*
X41163D01*
X40742Y50444D02*
X40840Y50543D01*
X40742Y49453D02*
Y50444D01*
X39726Y51003D02*
X41043D01*
X39606Y50884D02*
X39726Y51003D01*
X39606Y50513D02*
Y50884D01*
Y50513D02*
X39700Y50419D01*
X40183D01*
X40361Y50241D01*
Y48819D02*
Y50241D01*
X41351Y50147D02*
X42189Y50985D01*
X41732Y49764D02*
Y49989D01*
Y49764D02*
X42288Y49208D01*
Y47495D02*
Y49208D01*
X41351Y49601D02*
Y50147D01*
Y49601D02*
X41663Y49289D01*
X41669D01*
X43396Y54013D02*
X43409D01*
X43119Y54381D02*
X43119D01*
X60468Y39726D02*
X60528Y39665D01*
Y36894D02*
Y39665D01*
X59433Y38887D02*
Y39621D01*
X59538Y39726D02*
X60468D01*
X59433Y39621D02*
X59538Y39726D01*
X57400Y44000D02*
Y45040D01*
X57783Y45422D02*
X58115Y45755D01*
X57400Y45040D02*
X57783Y45423D01*
X67941Y67077D02*
Y67350D01*
X67640Y66777D02*
X67941Y67077D01*
X67060Y66819D02*
X67412Y67171D01*
X66586Y66993D02*
X67031Y67437D01*
X67412Y67171D02*
Y67277D01*
X67252Y67437D02*
X67412Y67277D01*
X67031Y67437D02*
X67252D01*
X66430Y66993D02*
X66586D01*
X66294Y67129D02*
X66430Y66993D01*
X66294Y67129D02*
Y67285D01*
X66453Y67443D01*
X66465D01*
X66726Y67704D01*
Y67975D01*
X66506Y68195D02*
X66726Y67975D01*
X66218Y68195D02*
X66506D01*
X65409Y67386D02*
X66218Y68195D01*
X54820Y46384D02*
X55440D01*
X54657Y46221D02*
X54820Y46384D01*
X53924Y63522D02*
X54172D01*
X54356Y63339D01*
Y63094D02*
Y63339D01*
X54077Y62814D02*
X54356Y63094D01*
X48801Y63736D02*
Y64186D01*
X48463Y63094D02*
X48743Y62814D01*
X48463Y63094D02*
Y63398D01*
X48801Y63736D01*
X64849Y64262D02*
X65891D01*
X64310Y63722D02*
X64849Y64262D01*
X64310Y61823D02*
Y63722D01*
X64128Y61641D02*
X64310Y61823D01*
X63665Y61641D02*
X64128D01*
X63500Y61806D02*
X63665Y61641D01*
X63500Y61806D02*
Y63449D01*
X62919Y64030D02*
X63500Y63449D01*
X62408Y64030D02*
X62919D01*
X62809Y61641D02*
X64151Y60300D01*
X61103Y63386D02*
X61309Y63180D01*
X62809Y61641D02*
Y61977D01*
X63119Y62287D01*
Y62916D01*
X62411Y63624D02*
X63119Y62916D01*
X61901Y63624D02*
X62411D01*
X61457Y63180D02*
X61901Y63624D01*
X61309Y63180D02*
X61457D01*
X64691Y71138D02*
Y71275D01*
X73301Y50738D02*
Y61375D01*
X64691Y71138D02*
X68322Y67507D01*
X61109Y74857D02*
X64691Y71275D01*
X57861Y74857D02*
X61109D01*
X60855Y73714D02*
X61643D01*
X63271Y72085D01*
Y72063D02*
Y72085D01*
Y72063D02*
X63950Y71384D01*
Y71340D02*
Y71384D01*
Y71340D02*
X67941Y67350D01*
X63506Y69498D02*
X64265Y70256D01*
X64495D02*
X64701Y70051D01*
X64265Y70256D02*
X64495D01*
X63311Y69498D02*
X63506D01*
X65100Y67763D02*
X65735Y68398D01*
Y68558D01*
X65100Y67501D02*
Y67763D01*
X72920Y50896D02*
Y61217D01*
X51598Y66606D02*
Y66958D01*
Y66606D02*
X52090Y66114D01*
Y65238D02*
Y66114D01*
X51598Y64746D02*
X52090Y65238D01*
X52730Y67589D02*
X53188Y67131D01*
X51892Y67259D02*
X52451Y66700D01*
X53188Y66384D02*
Y67131D01*
Y66384D02*
X53205Y66367D01*
X52451Y66446D02*
Y66700D01*
X54229Y68418D02*
X54331Y68316D01*
X54229Y68418D02*
Y68436D01*
X54102Y68563D02*
X54229Y68436D01*
X54102Y68563D02*
Y71109D01*
X57499Y71222D02*
X58061Y71784D01*
X56916Y71222D02*
X57499D01*
X56608Y71530D02*
X56916Y71222D01*
X55062Y71530D02*
X56608D01*
X63957Y65758D02*
X64269Y65446D01*
X63689Y65758D02*
X63957D01*
X62689Y64759D02*
X63689Y65758D01*
X62451Y64759D02*
X62689D01*
X62255Y64954D02*
X62451Y64759D01*
X62255Y64954D02*
Y65269D01*
X62382Y66191D02*
X62838Y66647D01*
X62155Y66191D02*
X62382D01*
X61998Y66348D02*
X62155Y66191D01*
X61998Y66348D02*
Y66452D01*
X62504Y66958D01*
Y67211D01*
X61448Y64990D02*
X62408Y64030D01*
X60997Y64948D02*
X61067Y65018D01*
X60884Y70409D02*
X61067Y70227D01*
X61597Y64059D02*
Y64167D01*
X60464Y63696D02*
X61136Y64368D01*
X61396D02*
X61597Y64167D01*
X61136Y64368D02*
X61396D01*
X61103Y63565D02*
X61597Y64059D01*
X67060Y64643D02*
X69174Y62528D01*
X65073Y64643D02*
X67060D01*
X69828Y67726D02*
X73708Y63846D01*
X69355Y67726D02*
X69828D01*
X69986Y68107D02*
X74089Y64004D01*
X69533Y68107D02*
X69986D01*
X64691Y72949D02*
X69533Y68107D01*
X64005Y73076D02*
X69355Y67726D01*
X65612Y68682D02*
X65735Y68558D01*
X65487Y68682D02*
X65612D01*
X64772Y67967D02*
X65487Y68682D01*
X65215Y67386D02*
X65409D01*
X65100Y67501D02*
X65215Y67386D01*
X64574Y67967D02*
X64772D01*
X64430Y68110D02*
X64574Y67967D01*
X64430Y68110D02*
Y68290D01*
X65158Y69018D01*
Y69198D01*
X65004Y69353D02*
X65158Y69198D01*
X64824Y69353D02*
X65004D01*
X64071Y68599D02*
X64824Y69353D01*
X63891Y68599D02*
X64071D01*
X63711Y68778D02*
X63891Y68599D01*
X63711Y68778D02*
Y68958D01*
X64701Y69948D01*
Y70051D01*
X62935Y71602D02*
Y71861D01*
X63205Y71331D02*
X63210D01*
X62935Y71602D02*
X63205Y71331D01*
X62408Y71130D02*
Y71377D01*
Y71130D02*
X62665Y70873D01*
X62686D01*
X62791Y70768D01*
X41669Y49289D02*
X41907Y49050D01*
Y47705D02*
Y49050D01*
X40742Y49453D02*
X41526Y48669D01*
Y47863D02*
Y48669D01*
X40777Y47114D02*
X41526Y47863D01*
X40361Y48819D02*
X40426Y48754D01*
X40902D01*
X41145Y48511D01*
Y48021D02*
Y48511D01*
X40619Y47495D02*
X41145Y48021D01*
X39065Y68679D02*
X42212D01*
X38935Y68809D02*
X39065Y68679D01*
X38430Y68809D02*
X38935D01*
X38275Y68964D02*
X38430Y68809D01*
X38275Y68964D02*
Y69095D01*
X27129Y56969D02*
X27749D01*
X26733Y56573D02*
X27129Y56969D01*
X27533Y56573D02*
X27909D01*
X28303Y56966D02*
X28442D01*
X27909Y56573D02*
X28303Y56966D01*
X28355Y55956D02*
X30020Y57621D01*
X28245Y55005D02*
Y55499D01*
X28169Y55575D02*
X28245Y55499D01*
X27940Y55575D02*
X28169D01*
X27803Y55438D02*
X27940Y55575D01*
X28245Y55005D02*
X28335Y54915D01*
X27498Y55956D02*
X28355D01*
X26911Y55369D02*
X27498Y55956D01*
X28767Y55829D02*
X28942D01*
X28651Y55714D02*
X28767Y55829D01*
X28651Y54950D02*
Y55714D01*
X30020Y57621D02*
Y65982D01*
X30251Y57074D02*
X30401Y57223D01*
X30251Y55082D02*
Y57074D01*
X29359Y56410D02*
X29489Y56540D01*
X29359Y54959D02*
Y56410D01*
X29315Y54915D02*
X29359Y54959D01*
X28616Y54915D02*
X28651Y54950D01*
X28335Y54915D02*
X28616D01*
X29489Y56540D02*
X29709D01*
X28942Y55829D02*
X29062Y55709D01*
Y54961D02*
Y55709D01*
Y54961D02*
X29108Y54915D01*
X39088Y43550D02*
Y44193D01*
X38692Y43154D02*
X39088Y43550D01*
X38277Y43154D02*
X38692D01*
X59230Y42037D02*
X59800Y42607D01*
X58442Y42037D02*
X59230D01*
X57338Y40932D02*
X58442Y42037D01*
X67962Y36364D02*
X67996Y36398D01*
X67683Y35763D02*
X67903Y35983D01*
X64440Y35763D02*
X67683D01*
X61646Y34496D02*
X68312D01*
X68998Y35182D01*
X67745Y36364D02*
X67962D01*
X67728Y36347D02*
X67745Y36364D01*
X67586Y36347D02*
X67728D01*
X68998Y35182D02*
X72927D01*
X53503Y24054D02*
X53732Y23825D01*
X42799Y24054D02*
X53503D01*
X39548Y27305D02*
X42799Y24054D01*
X39548Y27305D02*
Y32309D01*
X38710Y33147D02*
X39548Y32309D01*
X38710Y33147D02*
Y33985D01*
X53345Y23673D02*
X54234Y22784D01*
X42641Y23673D02*
X53345D01*
X54234Y22784D02*
X55093D01*
X39116Y27198D02*
X42641Y23673D01*
X39116Y27198D02*
Y31989D01*
X37476Y33630D02*
X39116Y31989D01*
X37015Y33630D02*
X37476D01*
X53188Y23292D02*
X54407Y22073D01*
X42484Y23292D02*
X53188D01*
X38735Y27040D02*
X42484Y23292D01*
X38735Y27040D02*
Y31832D01*
X37623Y32944D02*
X38735Y31832D01*
X36845Y32944D02*
X37623D01*
X38333Y26903D02*
Y31694D01*
X37516Y32512D02*
X38333Y31694D01*
X36094Y32512D02*
X37516D01*
X42402Y22835D02*
X44334D01*
X38333Y26903D02*
X42402Y22835D01*
X12878Y36398D02*
Y42240D01*
X12218Y42900D02*
X12878Y42240D01*
X11575Y42900D02*
X12218D01*
X67800Y37674D02*
X67996Y37478D01*
Y36398D02*
Y37478D01*
X64569Y36459D02*
X66751D01*
X67492Y36441D02*
Y36930D01*
X66751Y36459D02*
X66954Y36662D01*
Y36937D01*
X67082Y37065D01*
X67358D01*
X67492Y36930D01*
Y36441D02*
X67586Y36347D01*
X62730Y35563D02*
Y35794D01*
X63856Y36919D01*
X63195Y38053D02*
Y39932D01*
X63856Y36919D02*
Y37393D01*
X63195Y38053D02*
X63856Y37393D01*
X56814Y70719D02*
X57535D01*
X58219Y71403D01*
X63703Y38395D02*
X66030D01*
X66040Y38405D01*
X64440Y35734D02*
Y35763D01*
X50770Y55931D02*
X50779Y55940D01*
X79799Y44000D02*
X79799Y44000D01*
X73400Y43164D02*
X74168Y42396D01*
X73397Y43167D02*
X73400Y43164D01*
X80599Y44000D02*
X80599Y44000D01*
X79000Y42266D02*
Y43182D01*
Y41907D02*
Y42266D01*
X94697Y55623D02*
X104385D01*
X93396Y54322D02*
X94697Y55623D01*
X58496Y41507D02*
X58642Y41653D01*
X58496Y41351D02*
Y41507D01*
Y41351D02*
X58701Y41146D01*
X59481Y41653D02*
X60600Y42772D01*
X57528Y40538D02*
X57836Y40846D01*
X58525D01*
X58701Y41023D01*
Y41146D01*
X58642Y41653D02*
X59481D01*
X63210Y71331D02*
X63449Y71092D01*
X62410Y67844D02*
X65032Y65222D01*
X66251Y65024D02*
X67263D01*
X65032Y65222D02*
X65430D01*
X65543Y65336D01*
X65939D01*
X66251Y65024D01*
X54657Y45352D02*
X55000Y45009D01*
Y44000D02*
Y45009D01*
X60236Y64186D02*
X60997Y64948D01*
X59614Y63564D02*
X60236Y64186D01*
X60274Y48489D02*
X67818D01*
X60071Y48285D02*
X60274Y48489D01*
X60071Y47843D02*
Y48285D01*
X59983Y47755D02*
X60071Y47843D01*
X58731Y45374D02*
X64218D01*
X65046Y46203D01*
X65476Y49632D02*
X65479D01*
X65197Y50310D02*
X66022D01*
X64900Y50013D02*
X65197Y50310D01*
X73400Y43164D02*
Y44000D01*
X72006Y47343D02*
X72317D01*
X73400Y46259D01*
Y44000D02*
Y46259D01*
X79000Y42266D02*
X79000Y42266D01*
X94236Y48437D02*
X94358Y48315D01*
X98933Y47447D02*
Y47701D01*
X95936Y47246D02*
X98732D01*
X98933Y47447D01*
X98755Y47879D02*
X98933Y47701D01*
X95352Y47879D02*
X98755D01*
X95047Y47574D02*
X95352Y47879D01*
X95047Y44120D02*
Y47574D01*
X99009Y45060D02*
X99187Y45237D01*
X95757Y45060D02*
X99009D01*
X95605Y44907D02*
X95757Y45060D01*
X99187Y45237D02*
Y45491D01*
X95783Y47093D02*
X95936Y47246D01*
X95783Y46880D02*
Y47093D01*
Y46880D02*
X95955Y46708D01*
X99035D01*
X99187Y46555D01*
Y46304D02*
Y46555D01*
X99035Y46152D02*
X99187Y46304D01*
X95860Y46152D02*
X99035D01*
X95755Y46048D02*
X95860Y46152D01*
X95755Y45801D02*
Y46048D01*
Y45801D02*
X95912Y45644D01*
X99035D01*
X99187Y45491D01*
X95717Y44399D02*
X99060D01*
X95605Y44511D02*
X95717Y44399D01*
X95605Y44511D02*
Y44907D01*
X99060Y44399D02*
X99695Y45034D01*
X95228Y43939D02*
X96390D01*
X95047Y44120D02*
X95228Y43939D01*
X96390D02*
X96898Y43431D01*
X99695Y45034D02*
X101957D01*
X103124Y46201D01*
Y50800D01*
X103505Y51181D01*
Y51813D01*
X27559Y30937D02*
X27915Y30582D01*
X26543Y30937D02*
X27559D01*
X27915Y29018D02*
X28191Y28742D01*
X27915Y29018D02*
Y30582D01*
X26543Y30937D02*
Y31833D01*
X28016Y26393D02*
X29159Y27536D01*
X24859Y32334D02*
X28550D01*
X29159Y27536D02*
Y31725D01*
X28550Y32334D02*
X29159Y31725D01*
X24544Y31437D02*
Y32019D01*
X10868Y35176D02*
X12421Y36728D01*
X10903Y42741D02*
Y44409D01*
X12421Y36728D02*
Y41551D01*
X11811Y42161D02*
X12421Y41551D01*
X11484Y42161D02*
X11811D01*
X10903Y42741D02*
X11484Y42161D01*
X7582Y34003D02*
X10482D01*
X12878Y36398D01*
X6476Y34695D02*
X6957Y35176D01*
X10868D01*
X11575Y39159D02*
Y39784D01*
X8966Y36551D02*
X11575Y39159D01*
X7417Y36551D02*
X8966D01*
X5370Y34504D02*
X7417Y36551D01*
X5370Y34003D02*
Y34504D01*
X6476Y34003D02*
Y34695D01*
X19076Y39446D02*
X28295D01*
X12115Y46406D02*
X19076Y39446D01*
X12115Y46406D02*
Y65633D01*
X19202Y39979D02*
X28435D01*
X12573Y46610D02*
X19202Y39979D01*
X12573Y46610D02*
Y69926D01*
X19330Y40665D02*
X28854D01*
X13505Y46490D02*
X19330Y40665D01*
X13505Y46490D02*
Y70511D01*
X7582Y30173D02*
Y33103D01*
X6476Y30405D02*
Y33103D01*
X3759Y29389D02*
Y30963D01*
X5370Y32573D01*
X3158Y31928D02*
Y33103D01*
X2815Y27794D02*
Y31584D01*
X3158Y31928D01*
X3302Y28577D02*
Y31129D01*
X4264Y32091D01*
X2053Y26016D02*
Y33103D01*
X17120Y28550D02*
X19177D01*
X6350Y17780D02*
X17120Y28550D01*
X10465Y20424D02*
X17854Y27813D01*
X10465Y16993D02*
Y20424D01*
X9119Y15646D02*
X10465Y16993D01*
X4496Y15646D02*
X9119D01*
X3810Y16332D02*
X4496Y15646D01*
X3810Y16332D02*
Y17780D01*
X11466Y19533D02*
X21626Y29693D01*
X4674Y14757D02*
X10871D01*
X11466Y15353D02*
Y19533D01*
X10871Y14757D02*
X11466Y15353D01*
X3810Y13894D02*
X4674Y14757D01*
X3810Y12700D02*
Y13894D01*
X12776Y19863D02*
X22047Y29134D01*
X12776Y14630D02*
Y19863D01*
X10846Y12700D02*
X12776Y14630D01*
X6350Y12700D02*
X10846D01*
X2053Y26016D02*
X4243Y23825D01*
X2815Y27794D02*
X4243Y26365D01*
X3302Y28577D02*
X4243Y27635D01*
X4264Y32091D02*
Y33103D01*
X5370Y32573D02*
Y33103D01*
X3759Y29389D02*
X4243Y28905D01*
X7582Y30173D02*
X7823Y29931D01*
Y25908D02*
Y29931D01*
X7010Y25095D02*
X7823Y25908D01*
X5513Y25095D02*
X7010D01*
X6476Y30405D02*
X7366Y29515D01*
Y28156D02*
Y29515D01*
X6845Y27635D02*
X7366Y28156D01*
X5513Y27635D02*
X6845D01*
X32382Y22761D02*
X42875Y12268D01*
X32001Y22330D02*
X42621Y11709D01*
X31620Y21796D02*
X42215Y11201D01*
X44334Y22835D02*
X45503Y21666D01*
X53518D01*
X35027Y33580D02*
X36094Y32512D01*
X48085Y19598D02*
X49992D01*
X50892Y20498D01*
X56109D01*
X56744Y19863D01*
X36083Y33706D02*
X36845Y32944D01*
X36525Y27632D02*
X43944Y20213D01*
X36525Y27632D02*
Y30379D01*
X50348Y27909D02*
X54042Y24216D01*
X51714Y27170D02*
X54170Y24714D01*
X51714Y27170D02*
Y29950D01*
X50348Y27909D02*
Y28898D01*
X47298Y34366D02*
X51714Y29950D01*
X39370Y35230D02*
X40462Y34138D01*
X44628Y34366D02*
X47298D01*
X42266Y32004D02*
X44628Y34366D01*
X40996Y32004D02*
X42266D01*
X40462Y32537D02*
X40996Y32004D01*
X40462Y32537D02*
Y34138D01*
X83246Y36319D02*
X102232D01*
X102687Y27503D02*
X103324Y28140D01*
X43944Y20213D02*
X47470D01*
X124385Y47102D02*
X125005Y46482D01*
X124385Y47102D02*
Y47500D01*
X37719Y44831D02*
Y49928D01*
X27203Y1831D02*
X28272Y762D01*
X26390Y1831D02*
X27203D01*
X123506Y46482D02*
X123507D01*
X122676D02*
X123506D01*
X82585Y34579D02*
X94320D01*
X95793Y33106D01*
Y31348D02*
Y33106D01*
Y31348D02*
X96194Y30944D01*
X78402Y32014D02*
X83127Y36738D01*
X83405Y35938D02*
X101556D01*
X102026Y35468D01*
Y30286D02*
Y35468D01*
X102232Y36319D02*
X103324Y35227D01*
Y28140D02*
Y35227D01*
X36347Y43459D02*
X37719Y44831D01*
X33906Y42288D02*
Y43177D01*
X34414Y43685D01*
Y48918D01*
X36454Y50957D01*
Y55041D01*
X37353Y55938D01*
X38773D01*
X94040Y27863D02*
Y30985D01*
X93761Y31264D02*
X94040Y30985D01*
X82953Y31264D02*
X93761D01*
X95402Y29794D02*
X95539Y29657D01*
X95402Y29794D02*
Y31186D01*
X95399Y31188D02*
X95402Y31186D01*
X95399Y31188D02*
Y32941D01*
X94142Y34198D02*
X95399Y32941D01*
X82966Y34198D02*
X94142D01*
X82357Y32293D02*
X88605D01*
X89608Y33296D01*
X93845D01*
X94246Y32895D01*
X83222Y33817D02*
X93964D01*
X94739Y33042D01*
Y32740D02*
Y33042D01*
X94246Y32245D02*
X94739Y32740D01*
X39614Y69702D02*
X40134Y69182D01*
X39241Y69702D02*
X39614D01*
X38980Y69963D02*
X39241Y69702D01*
X38980Y69963D02*
Y71058D01*
X39107Y71185D01*
X39316D01*
X39443Y71312D01*
Y71566D01*
X39316Y71693D02*
X39443Y71566D01*
X39107Y71693D02*
X39316D01*
X38980Y71820D02*
X39107Y71693D01*
X38980Y71820D02*
Y72158D01*
X39107Y72285D01*
X39594D01*
X39721Y72158D01*
Y71930D02*
Y72158D01*
Y71930D02*
X39848Y71803D01*
X40102D01*
X40229Y71930D01*
Y72158D01*
X40356Y72285D01*
X40764D01*
X40891Y72412D01*
Y72710D01*
X40764Y72837D02*
X40891Y72710D01*
X35989Y72837D02*
X40764D01*
X35862Y72964D02*
X35989Y72837D01*
X35862Y72964D02*
Y73218D01*
X35989Y73345D01*
X40764D01*
X40967Y73548D01*
Y73886D01*
X40789Y74063D02*
X40967Y73886D01*
X37995Y74063D02*
X40789D01*
X37688Y73756D02*
X37995Y74063D01*
X35763Y73756D02*
X37688D01*
X34922Y72915D02*
X35763Y73756D01*
X34922Y72204D02*
Y72915D01*
X34420Y71701D02*
X34922Y72204D01*
X33519Y71701D02*
X34420D01*
X33113Y72108D02*
X33519Y71701D01*
X31499Y72108D02*
X33113D01*
X25067Y65676D02*
X31499Y72108D01*
X25067Y61668D02*
Y65676D01*
Y61668D02*
X25245Y61490D01*
X26554D01*
X26808Y61744D01*
X28151D01*
X28801Y61095D01*
Y58560D02*
Y61095D01*
X27996Y57757D02*
X28801Y58560D01*
X27113Y57757D02*
X27996D01*
X26733Y57373D02*
X27113Y57757D01*
X42212Y68679D02*
X42356Y68534D01*
X38275Y69095D02*
X38599Y69420D01*
Y69674D01*
X38472Y69801D02*
X38599Y69674D01*
X38224Y69801D02*
X38472D01*
X38097Y69928D02*
X38224Y69801D01*
X38097Y69928D02*
Y70182D01*
X38224Y70309D01*
X38472D01*
X38599Y70436D01*
Y70690D01*
X38472Y70817D02*
X38599Y70690D01*
X38224Y70817D02*
X38472D01*
X38097Y70944D02*
X38224Y70817D01*
X38097Y70944D02*
Y71219D01*
X37919Y71397D02*
X38097Y71219D01*
X35786Y71397D02*
X37919D01*
X35659Y71524D02*
X35786Y71397D01*
X35659Y71524D02*
Y71778D01*
X35786Y71905D01*
X38427D01*
X38554Y72032D01*
Y72286D01*
X38408Y72432D02*
X38554Y72286D01*
X35690Y72432D02*
X38408D01*
X34414Y71157D02*
X35690Y72432D01*
X34414Y70863D02*
Y71157D01*
X34223Y70672D02*
X34414Y70863D01*
X33792Y70672D02*
X34223D01*
X33361Y71103D02*
X33792Y70672D01*
X33361Y71103D02*
Y71320D01*
X33031Y71650D02*
X33361Y71320D01*
X31580Y71650D02*
X33031D01*
X26464Y66534D02*
X31580Y71650D01*
X26464Y63243D02*
Y66534D01*
X26362Y63141D02*
X26464Y63243D01*
X26083Y63141D02*
X26362D01*
X25956Y63268D02*
X26083Y63141D01*
X25956Y63268D02*
Y65529D01*
X25829Y65656D02*
X25956Y65529D01*
X25586Y65656D02*
X25829D01*
X25448Y65518D02*
X25586Y65656D01*
X25448Y61998D02*
Y65518D01*
Y61998D02*
X25575Y61871D01*
X26396D01*
X26650Y62125D01*
X28309D01*
X29182Y61253D01*
Y58401D02*
Y61253D01*
X27749Y56969D02*
X29182Y58401D01*
X40132Y70055D02*
Y70148D01*
X39697Y70583D02*
X40132Y70148D01*
X39697Y70583D02*
Y71015D01*
X40053Y71371D01*
X42009D01*
X42237Y71600D01*
Y74165D01*
X41958Y74444D02*
X42237Y74165D01*
X39297Y74444D02*
X41958D01*
X39170Y74571D02*
X39297Y74444D01*
X37519D02*
X37646Y74571D01*
X37254Y74444D02*
X37519D01*
X37127Y74571D02*
X37254Y74444D01*
X37127Y74571D02*
Y75232D01*
X37000Y75359D02*
X37127Y75232D01*
X36746Y75359D02*
X37000D01*
X36619Y75232D02*
X36746Y75359D01*
X36619Y74292D02*
Y75232D01*
X36467Y74140D02*
X36619Y74292D01*
X35608Y74140D02*
X36467D01*
X34541Y73073D02*
X35608Y74140D01*
X34541Y72362D02*
Y73073D01*
X34262Y72082D02*
X34541Y72362D01*
X33677Y72082D02*
X34262D01*
X33271Y72489D02*
X33677Y72082D01*
X31341Y72489D02*
X33271D01*
X24686Y65834D02*
X31341Y72489D01*
X24686Y61363D02*
Y65834D01*
Y61363D02*
X24940Y61109D01*
X25702D01*
X25854Y60957D01*
Y60144D02*
Y60957D01*
Y60144D02*
X26007Y59992D01*
X26413D01*
X26565Y60144D01*
Y60963D01*
X26966Y61363D01*
X27993D01*
X28394Y60963D01*
Y58697D02*
Y60963D01*
X27842Y58145D02*
X28394Y58697D01*
X27490Y58145D02*
X27842D01*
X28442Y56966D02*
X29563Y58087D01*
Y62227D01*
X29283Y62506D02*
X29563Y62227D01*
X27150Y62506D02*
X29283D01*
X27023Y62633D02*
X27150Y62506D01*
X27023Y62633D02*
Y62985D01*
X27150Y63112D01*
X29385D01*
X29512Y63239D01*
Y63493D01*
X29385Y63620D02*
X29512Y63493D01*
X26972Y63620D02*
X29385D01*
X26845Y63747D02*
X26972Y63620D01*
X26845Y63747D02*
Y64001D01*
X26972Y64128D01*
X29385D01*
X29512Y64255D01*
Y64509D01*
X29385Y64636D02*
X29512Y64509D01*
X26972Y64636D02*
X29385D01*
X26845Y64763D02*
X26972Y64636D01*
X26845Y64763D02*
Y65017D01*
X26972Y65144D01*
X29385D01*
X29512Y65271D01*
Y65525D01*
X29385Y65652D02*
X29512Y65525D01*
X26972Y65652D02*
X29385D01*
X26845Y65779D02*
X26972Y65652D01*
X26845Y65779D02*
Y66342D01*
X31772Y71269D01*
X32763D01*
X32915Y71117D01*
Y70990D02*
Y71117D01*
Y70990D02*
X33627Y70279D01*
X34389D01*
X35125Y71015D01*
X37487D01*
X37716Y70787D01*
X44932Y73025D02*
Y73158D01*
X44424Y73666D02*
X44932Y73158D01*
X44424Y73666D02*
Y74490D01*
X43555Y75359D02*
X44424Y74490D01*
X42080Y75359D02*
X43555D01*
X41953Y75486D02*
X42080Y75359D01*
X41953Y75486D02*
Y75994D01*
X41826Y76121D02*
X41953Y75994D01*
X41572Y76121D02*
X41826D01*
X41445Y75994D02*
X41572Y76121D01*
X41445Y75486D02*
Y75994D01*
X41318Y75359D02*
X41445Y75486D01*
X40358Y75359D02*
X41318D01*
X40180Y75537D02*
X40358Y75359D01*
X33906Y73606D02*
X36421Y76121D01*
X32452Y73606D02*
X33906D01*
X23380Y65097D02*
X23507Y64970D01*
X23797D01*
X23924Y64843D01*
Y64589D02*
Y64843D01*
X23797Y64462D02*
X23924Y64589D01*
X22999Y64462D02*
X23797D01*
X22872Y64335D02*
X22999Y64462D01*
X22872Y64081D02*
Y64335D01*
Y64081D02*
X22999Y63954D01*
X23797D01*
X23924Y63827D01*
Y63573D02*
Y63827D01*
X23797Y63446D02*
X23924Y63573D01*
X23507Y63446D02*
X23797D01*
X23380Y63319D02*
X23507Y63446D01*
X23380Y61971D02*
Y63319D01*
Y61971D02*
X23525Y61826D01*
Y58460D02*
Y61826D01*
Y58460D02*
X23721Y58265D01*
X26235D01*
X27513Y59542D01*
Y60553D01*
X43332Y73566D02*
X43873Y73025D01*
X43332Y73566D02*
Y74724D01*
X43205Y74851D02*
X43332Y74724D01*
X39900Y74851D02*
X43205D01*
X39748Y75003D02*
X39900Y74851D01*
X34064Y73225D02*
X36579Y75740D01*
X32610Y73225D02*
X34064D01*
X23924Y61821D02*
X24305Y62202D01*
X23924Y59839D02*
Y61821D01*
Y59839D02*
X24178Y59585D01*
X26718D01*
X26972Y59839D01*
Y60830D01*
X27124Y60982D01*
X27835D01*
X27988Y60830D01*
Y59382D02*
Y60830D01*
X26412Y57807D02*
X27988Y59382D01*
X23721Y57807D02*
X26412D01*
X23594Y57680D02*
X23721Y57807D01*
X23594Y56842D02*
Y57680D01*
Y56842D02*
X23797Y56639D01*
X26083D01*
X26733Y55989D01*
Y55775D02*
Y55989D01*
X42799Y75971D02*
Y76321D01*
X42618Y76502D02*
X42799Y76321D01*
X33759Y74038D02*
X36224Y76502D01*
X33708Y73987D02*
X33759Y74038D01*
X22349Y64413D02*
X22476Y64540D01*
X21258Y64413D02*
X22349D01*
Y63905D02*
X22476Y63778D01*
Y63497D02*
Y63778D01*
X22374Y63395D02*
X22476Y63497D01*
X21104Y63395D02*
X22374D01*
X20985Y63276D02*
X21104Y63395D01*
X20985Y62978D02*
Y63276D01*
Y62978D02*
X21112Y62851D01*
X22364D01*
X22491Y62724D01*
Y62470D02*
Y62724D01*
X22364Y62343D02*
X22491Y62470D01*
X21112Y62343D02*
X22364D01*
X20985Y62216D02*
X21112Y62343D01*
X20985Y61922D02*
Y62216D01*
Y61922D02*
X21112Y61795D01*
X23017D01*
X23144Y61668D01*
Y56529D02*
Y61668D01*
Y56529D02*
X23492Y56182D01*
X24761D01*
X25170Y55775D01*
X25933D01*
X37188Y63543D02*
Y63832D01*
X38199Y64843D01*
Y66164D01*
X38097Y66266D02*
X38199Y66164D01*
X37792Y66266D02*
X38097D01*
X37640Y66113D02*
X37792Y66266D01*
X37640Y65250D02*
Y66113D01*
X37462Y65072D02*
X37640Y65250D01*
X35963Y65072D02*
X37462D01*
X35836Y65199D02*
X35963Y65072D01*
X35836Y65199D02*
Y66697D01*
X35684Y66850D02*
X35836Y66697D01*
X31747Y66850D02*
X35684D01*
X31595Y67002D02*
X31747Y66850D01*
X31595Y67002D02*
Y67307D01*
X31772Y67485D01*
X33550D01*
X33754Y67688D01*
X34439D01*
X34668Y67459D01*
X35709D01*
X35836Y67586D01*
Y67917D01*
X35709Y68044D02*
X35836Y67917D01*
X31747Y68044D02*
X35709D01*
X31620Y68171D02*
X31747Y68044D01*
X31620Y68171D02*
Y68399D01*
X31747Y68526D01*
X34109D01*
X34236Y68653D01*
Y68907D01*
X34135Y69009D02*
X34236Y68907D01*
X31341Y69009D02*
X34135D01*
X31163Y68831D02*
X31341Y69009D01*
X31163Y65631D02*
Y68831D01*
X30401Y64869D02*
X31163Y65631D01*
X45974Y76004D02*
Y76022D01*
X19410Y57470D02*
X21907Y54975D01*
X23797Y55801D02*
X23881Y55717D01*
X23111Y55801D02*
X23797D01*
X22788Y56124D02*
X23111Y55801D01*
X22788Y56124D02*
Y56127D01*
X22273Y56645D02*
X22788Y56127D01*
X22273Y56645D02*
Y57843D01*
X22382Y57952D01*
X22603D01*
X22730Y58079D01*
Y61186D01*
X22603Y61313D02*
X22730Y61186D01*
X21333Y61313D02*
X22603D01*
X21194Y61174D02*
X21333Y61313D01*
X21194Y60564D02*
Y61174D01*
X21052Y60422D02*
X21194Y60564D01*
X20751Y60422D02*
X21052D01*
X20604Y60568D02*
X20751Y60422D01*
X20604Y60568D02*
Y70112D01*
X32136Y74368D02*
X33550D01*
X33660Y74478D01*
X43295Y76883D02*
X43873Y76311D01*
Y76004D02*
Y76311D01*
X21511Y56169D02*
X21907Y55775D01*
X21511Y56169D02*
Y58671D01*
X21231Y58950D02*
X21511Y58671D01*
X20393Y58950D02*
X21231D01*
X20223Y59121D02*
X20393Y58950D01*
X20223Y59121D02*
Y59406D01*
X20350Y59533D01*
X22222D01*
X22349Y59660D01*
Y59914D01*
X22222Y60041D02*
X22349Y59914D01*
X20350Y60041D02*
X22222D01*
X20223Y60168D02*
X20350Y60041D01*
X44455Y75605D02*
X45491Y74569D01*
Y73678D02*
Y74569D01*
Y73678D02*
X45981Y73188D01*
Y73116D02*
Y73188D01*
Y73116D02*
X45981Y73025D01*
X21107Y56970D02*
Y57373D01*
X20975Y56842D02*
X21107Y56970D01*
X20698Y56842D02*
X20975D01*
X20571Y56969D02*
X20698Y56842D01*
X20571Y56969D02*
Y57342D01*
X20444Y57469D02*
X20571Y57342D01*
X19976Y57469D02*
X20444D01*
X19829Y57617D02*
X19976Y57469D01*
X19829Y57617D02*
Y57835D01*
X19956Y57962D01*
X20901D01*
X21028Y58089D01*
Y58318D01*
X20901Y58445D02*
X21028Y58318D01*
X19984Y58445D02*
X20901D01*
X19842Y58587D02*
X19984Y58445D01*
X45511Y75542D02*
X46532Y74523D01*
Y73714D02*
Y74523D01*
X40138Y60670D02*
X40139Y60317D01*
X39940Y60866D02*
X40138Y60670D01*
X39189Y60866D02*
X39940D01*
X38986Y61069D02*
X39189Y60866D01*
X38986Y61069D02*
Y62481D01*
X38808Y62659D02*
X38986Y62481D01*
X38529Y62659D02*
X38808D01*
X38402Y62532D02*
X38529Y62659D01*
X38402Y59790D02*
Y62532D01*
X38275Y59663D02*
X38402Y59790D01*
X37994Y59663D02*
X38275D01*
X37818Y59839D02*
X37994Y59663D01*
X37818Y59839D02*
Y61821D01*
X37665Y61973D02*
X37818Y61821D01*
X36878Y61973D02*
X37665D01*
X36751Y62100D02*
X36878Y61973D01*
X36751Y62100D02*
Y62456D01*
X36573Y62633D02*
X36751Y62456D01*
X35399Y62633D02*
X36573D01*
X35398Y62633D02*
X35399Y62633D01*
X33449Y62633D02*
X35398D01*
X33271Y62811D02*
X33449Y62633D01*
X33271Y62811D02*
Y64792D01*
X33019Y65044D02*
X33271Y64792D01*
X31674Y65044D02*
X33019D01*
X31520Y64890D02*
X31674Y65044D01*
X31520Y64615D02*
Y64890D01*
Y64615D02*
X31673Y64462D01*
X32763D01*
X32890Y64335D01*
Y64081D02*
Y64335D01*
X32763Y63954D02*
X32890Y64081D01*
X31341Y63954D02*
X32763D01*
X31163Y63776D02*
X31341Y63954D01*
X31163Y63522D02*
Y63776D01*
Y63522D02*
X31290Y63395D01*
X32763D01*
X32890Y63268D01*
Y63014D02*
Y63268D01*
X32763Y62887D02*
X32890Y63014D01*
X31290Y62887D02*
X32763D01*
X31163Y62760D02*
X31290Y62887D01*
X25214Y53967D02*
X25397Y54150D01*
X25214Y53543D02*
Y53967D01*
X31671Y59636D02*
X32509D01*
X31544Y59763D02*
X31671Y59636D01*
X31544Y59763D02*
Y60017D01*
X31671Y60144D01*
X35735D01*
X35862Y60271D01*
Y60525D01*
X35735Y60652D02*
X35862Y60525D01*
X31671Y60652D02*
X35735D01*
X31544Y60779D02*
X31671Y60652D01*
X31544Y60779D02*
Y61033D01*
X31671Y61160D01*
X35684D01*
X35811Y61287D01*
Y61541D01*
X35684Y61668D02*
X35811Y61541D01*
X31671Y61668D02*
X35684D01*
X31544Y61795D02*
X31671Y61668D01*
X31544Y61795D02*
Y62049D01*
X31747Y62252D01*
X35240D01*
X35241Y62252D01*
X36167D01*
X36370Y62049D01*
Y60551D02*
Y62049D01*
Y60551D02*
X36611Y60309D01*
X37213D01*
X24490Y55692D02*
X24812Y55369D01*
X26911D01*
X29893Y66109D02*
X30020Y65982D01*
X27632Y66109D02*
X29893D01*
X27505Y66236D02*
X27632Y66109D01*
X27505Y66236D02*
Y66463D01*
X27659Y66617D01*
X30651D01*
X30782Y66748D01*
Y67049D01*
X30655Y67176D02*
X30782Y67049D01*
X28674Y67176D02*
X30655D01*
X28547Y67303D02*
X28674Y67176D01*
X28547Y67303D02*
Y67505D01*
X28726Y67684D01*
X30574D01*
X30706Y67815D01*
Y68094D01*
X30579Y68221D02*
X30706Y68094D01*
X29944Y68221D02*
X30579D01*
X29817Y68348D02*
X29944Y68221D01*
X29817Y68348D02*
Y68775D01*
X30432Y69390D01*
X32560D01*
X33068Y69898D01*
X34592D01*
X35328Y70634D01*
X36456D01*
X36573Y70517D01*
Y70224D02*
Y70517D01*
X36446Y70097D02*
X36573Y70224D01*
X35405Y70097D02*
X36446D01*
X35278Y69970D02*
X35405Y70097D01*
X35278Y69716D02*
Y69970D01*
Y69716D02*
X35405Y69589D01*
X36446D01*
X36573Y69462D01*
Y69208D02*
Y69462D01*
X36446Y69081D02*
X36573Y69208D01*
X34795Y69081D02*
X36446D01*
X34668Y68954D02*
X34795Y69081D01*
X34668Y68700D02*
Y68954D01*
Y68700D02*
X34795Y68573D01*
X36446D01*
X36573Y68446D01*
Y68048D02*
Y68446D01*
Y68048D02*
X36743Y67878D01*
Y67108D02*
Y67878D01*
Y67108D02*
X37004Y66847D01*
X38734D01*
X38859Y66723D01*
Y65229D02*
Y66723D01*
Y65229D02*
X39011Y65077D01*
X39606D01*
X38961Y63014D02*
X39588D01*
X38808Y63166D02*
X38961Y63014D01*
X38808Y63166D02*
Y64234D01*
X38681Y64361D02*
X38808Y64234D01*
X38351Y64361D02*
X38681D01*
X38224Y64234D02*
X38351Y64361D01*
X38224Y63167D02*
Y64234D01*
X38071Y63014D02*
X38224Y63167D01*
X35430Y63141D02*
X35557Y63014D01*
X35430Y63141D02*
Y66342D01*
X35328Y66443D02*
X35430Y66342D01*
X35024Y66443D02*
X35328D01*
X34897Y66316D02*
X35024Y66443D01*
X34897Y63167D02*
Y66316D01*
X34744Y63014D02*
X34897Y63167D01*
X33804Y63014D02*
X34744D01*
X33673Y63146D02*
X33804Y63014D01*
X33673Y63146D02*
Y63395D01*
X33800Y63522D01*
X34338D01*
X34465Y63649D01*
Y63929D01*
X34363Y64030D02*
X34465Y63929D01*
X33855Y64030D02*
X34363D01*
X33673Y64213D02*
X33855Y64030D01*
X33673Y64213D02*
Y64838D01*
X33830Y64996D01*
X34363D01*
X34490Y65123D01*
Y65783D01*
X34338Y65935D02*
X34490Y65783D01*
X33779Y65935D02*
X34338D01*
X33652Y66062D02*
X33779Y65935D01*
X33652Y66062D02*
Y66342D01*
X33525Y66469D02*
X33652Y66342D01*
X32407Y66469D02*
X33525D01*
X32280Y66342D02*
X32407Y66469D01*
X32280Y66088D02*
Y66342D01*
Y66088D02*
X32407Y65961D01*
X33195D01*
X33322Y65834D01*
Y65552D02*
Y65834D01*
X33195Y65425D02*
X33322Y65552D01*
X32155Y65425D02*
X33195D01*
X32153Y65427D02*
X32155Y65425D01*
X31518Y65427D02*
X32153D01*
X30782Y64691D02*
X31518Y65427D01*
X26032Y54988D02*
X26489Y54531D01*
X23594Y54988D02*
X26032D01*
X23449Y55133D02*
X23594Y54988D01*
X23449Y55133D02*
Y55260D01*
X23322Y55387D02*
X23449Y55260D01*
X23068Y55387D02*
X23322D01*
X22941Y55260D02*
X23068Y55387D01*
X22941Y54226D02*
Y55260D01*
X22814Y54099D02*
X22941Y54226D01*
X22527Y54099D02*
X22814D01*
X22407Y54219D02*
X22527Y54099D01*
X22407Y54219D02*
Y55970D01*
X21892Y56488D02*
X22407Y55970D01*
X21892Y56488D02*
Y58158D01*
X21907Y58173D01*
X42034Y47241D02*
X42288Y47495D01*
X42034Y42796D02*
Y47241D01*
X41526Y42288D02*
X42034Y42796D01*
X44716Y49170D02*
X45488Y44867D01*
Y42821D02*
Y44867D01*
X44929Y42262D02*
X45488Y42821D01*
X44335Y42526D02*
X44335Y42526D01*
X44335Y42430D02*
Y42526D01*
X44193Y42288D02*
X44335Y42430D01*
X40002Y42542D02*
Y42796D01*
X40113Y42907D01*
X41526D01*
X41653Y43034D01*
Y44066D01*
X41526Y44193D02*
X41653Y44066D01*
X41272Y44193D02*
X41526D01*
X41145Y44066D02*
X41272Y44193D01*
X41145Y43542D02*
Y44066D01*
X41018Y43415D02*
X41145Y43542D01*
X40637Y43415D02*
X41018D01*
X40510Y43542D02*
X40637Y43415D01*
X40510Y43542D02*
Y43990D01*
X40866Y44345D01*
Y45438D01*
X41018Y45590D01*
X41484D01*
X41611Y45717D01*
Y45940D01*
X41484Y46067D02*
X41611Y45940D01*
X40510Y46067D02*
X41484D01*
X40383Y46194D02*
X40510Y46067D01*
X40383Y46194D02*
Y46448D01*
X40510Y46575D01*
X41484D01*
X41611Y46702D01*
Y47410D01*
X41907Y47705D01*
X42542Y42288D02*
X42923D01*
X43573Y42938D01*
Y43331D01*
X43446Y43458D02*
X43573Y43331D01*
X42542Y43458D02*
X43446D01*
X42415Y43585D02*
X42542Y43458D01*
X42415Y43585D02*
Y43839D01*
X42542Y43966D01*
X43446D01*
X43573Y44093D01*
Y44892D01*
X43446Y45019D02*
X43573Y44892D01*
X43050Y45019D02*
X43446D01*
X42923Y45146D02*
X43050Y45019D01*
X42923Y45146D02*
Y45400D01*
X43050Y45527D01*
X43446D01*
X43573Y45654D01*
Y45908D01*
X43446Y46035D02*
X43573Y45908D01*
X42542Y46035D02*
X43446D01*
X42415Y46162D02*
X42542Y46035D01*
X42415Y46162D02*
Y46416D01*
X42542Y46543D01*
X43446D01*
X43573Y46670D01*
X42669Y47178D02*
Y47432D01*
X42796Y47559D01*
X43446D01*
X43573Y47686D01*
X42796Y48067D02*
X43446D01*
X42669Y48194D02*
X42796Y48067D01*
X42669Y48194D02*
Y48448D01*
X42796Y48575D01*
X43446D01*
X43573Y48702D01*
X39469Y42329D02*
Y43508D01*
X40459Y44498D01*
Y45209D01*
X39925Y45743D02*
X40459Y45209D01*
X39925Y45743D02*
Y46784D01*
X40256Y47114D01*
X40777D01*
X39544Y47291D02*
X39748Y47495D01*
X40619D01*
X14196Y73606D02*
Y77543D01*
Y73606D02*
X15059Y72743D01*
Y66951D02*
Y72743D01*
Y66951D02*
X15821Y66189D01*
X16482Y71101D02*
Y83451D01*
Y71101D02*
X16491Y71092D01*
X14881Y77594D02*
X14884Y73578D01*
X15516Y72947D01*
Y68657D02*
Y72947D01*
Y68657D02*
X15772Y68401D01*
X10691Y73326D02*
X10693Y77114D01*
X10691Y73326D02*
X13505Y70511D01*
X28854Y40665D02*
X32382Y37137D01*
X24544Y32019D02*
X24859Y32334D01*
X28016Y15977D02*
Y26393D01*
X44958Y73671D02*
Y73817D01*
Y73671D02*
X45453Y73176D01*
X47249Y73812D02*
X47586Y73474D01*
X47063Y73812D02*
X47249D01*
X39410Y67292D02*
X39933Y66769D01*
X42799Y72628D02*
Y73787D01*
X45996Y73711D02*
X46489Y73219D01*
X45996Y73711D02*
Y73817D01*
X43873Y73678D02*
Y73797D01*
Y73678D02*
X44345Y73206D01*
Y71802D02*
Y73206D01*
X45775Y66367D02*
X45979D01*
X40170Y70782D02*
X40995Y69954D01*
X39436Y61407D02*
X40220D01*
X41826Y59796D01*
X43583D01*
X42379Y61391D02*
X43080D01*
X44130Y60342D01*
X45844Y61846D02*
X46278D01*
X40726Y61925D02*
X41877Y63078D01*
X39987Y61925D02*
X40726D01*
X39433Y62481D02*
X39987Y61925D01*
X45247Y61274D02*
X45580Y60944D01*
X41783Y60881D02*
X42346Y60317D01*
X39405Y60309D02*
X40960Y58755D01*
X94536Y25397D02*
X95544Y26405D01*
X93215Y25397D02*
X94536D01*
X96194Y26405D02*
X96644Y25955D01*
Y25651D02*
Y25955D01*
X95376Y24384D02*
X96644Y25651D01*
X93223Y24384D02*
X95376D01*
X45026Y24942D02*
Y26421D01*
X42796Y28651D02*
X45026Y26421D01*
X42796Y28651D02*
Y30325D01*
X44787Y32316D01*
X48887Y25107D02*
Y26215D01*
X44787Y30314D02*
X48887Y26215D01*
X50030Y25064D02*
Y25892D01*
X45285Y30634D02*
X50030Y25892D01*
X47470Y24963D02*
Y25326D01*
X43916Y28879D02*
X47470Y25326D01*
X43916Y28879D02*
Y30446D01*
X44787Y31315D01*
X45285Y35316D02*
X45768Y35799D01*
Y36471D01*
X44676Y37564D02*
X45768Y36471D01*
X43685Y37564D02*
X44676D01*
X44787Y35316D02*
Y36614D01*
X44701Y36700D02*
X44787Y36614D01*
X43177Y36746D02*
X44287Y35636D01*
X43177Y36746D02*
Y37843D01*
X45209Y39875D01*
Y40002D01*
X43467Y35636D02*
Y35775D01*
X42542Y36700D02*
X43467Y35775D01*
X42542Y36700D02*
Y38287D01*
X44288Y40034D01*
X42415Y35636D02*
X42966D01*
X40510Y37541D02*
X42415Y35636D01*
X40510Y37541D02*
Y40002D01*
X26975Y4821D02*
X27226D01*
X27659Y5255D01*
X28926D01*
X29220Y5546D01*
Y6782D01*
X26927Y6766D02*
X29205D01*
X29220Y6782D02*
X29221D01*
X27792Y34160D02*
X28478Y33474D01*
X26946Y34160D02*
X27792D01*
X26543Y33756D02*
X26946Y34160D01*
X26479Y34607D02*
X28272D01*
X121577Y50690D02*
X121584Y50695D01*
X121577Y50690D02*
X121577D01*
X121889Y48404D02*
X121909Y48425D01*
X125005Y46482D02*
X125006D01*
X122620Y46537D02*
X122676Y46482D01*
X121909Y46532D02*
X122620Y46537D01*
X107439Y70609D02*
X113027Y65021D01*
X114307D01*
X103225Y71244D02*
X106804D01*
X107439Y70609D01*
X96898Y71244D02*
X97678Y72024D01*
X107548D01*
X112773Y66799D01*
X114297D01*
X93342Y71244D02*
X96898D01*
X113027Y65910D02*
X114297D01*
X107439Y71498D02*
X113027Y65910D01*
X93451Y72405D02*
X107802D01*
X112519Y67688D01*
X114297D01*
X100076Y32235D02*
X101597Y33756D01*
Y35176D01*
X24683Y6807D02*
X24698Y6822D01*
X24683Y5453D02*
Y6807D01*
Y5453D02*
X25314Y4821D01*
X25622D01*
X25623Y4821D01*
X26026Y6766D02*
X26027D01*
X25970Y6822D02*
X26027Y6766D01*
X24698Y6822D02*
X25970D01*
X24698D02*
Y7272D01*
X24427Y7544D02*
X24698Y7272D01*
X23380Y7544D02*
X24427D01*
X23071Y7234D02*
X23380Y7544D01*
X23071Y5781D02*
Y7234D01*
X22913Y5621D02*
X23071Y5781D01*
X22179Y5621D02*
X22913D01*
X22179Y2377D02*
Y2378D01*
X19702Y84539D02*
X19877Y84714D01*
X24102Y1826D02*
X24107Y1831D01*
X25622Y3921D02*
X25623D01*
X25339Y3922D02*
X25622D01*
X24101Y2682D02*
X25339Y3922D01*
X24101Y2682D02*
X24102Y1826D01*
X27226Y3922D02*
X27792Y3355D01*
X26975Y3922D02*
X27226D01*
X29344Y1831D02*
X29347D01*
X104385Y55623D02*
X105912Y57150D01*
X117091Y50690D02*
X120677D01*
X116332Y47726D02*
X117010Y48404D01*
X120487D01*
X31112Y34607D02*
X32001Y33718D01*
X28435Y39979D02*
X31623Y36791D01*
Y35560D02*
Y36791D01*
X31112Y35049D02*
X31623Y35560D01*
X31112Y34607D02*
Y35049D01*
X31165Y35824D02*
Y35902D01*
X30477Y35135D02*
X31165Y35824D01*
X30477Y34668D02*
Y35135D01*
Y34668D02*
X31620Y33524D01*
X9619Y66878D02*
Y66880D01*
X10868D01*
X12115Y65633D01*
X28295Y39446D02*
X31165Y36576D01*
Y35902D02*
Y36576D01*
X40101Y56591D02*
X43289D01*
X39060Y55549D02*
X40101Y56591D01*
X37701Y55549D02*
X39060D01*
X36896Y54742D02*
X37701Y55549D01*
X36896Y50800D02*
Y54742D01*
X34795Y48699D02*
X36896Y50800D01*
X34795Y42161D02*
Y48699D01*
X34287Y41653D02*
X34795Y42161D01*
X34287Y36573D02*
Y41653D01*
X28016Y15977D02*
X30455Y13538D01*
X34089Y3355D02*
X35204Y4470D01*
Y6474D01*
X30455Y11224D02*
X35204Y6474D01*
X30443Y3355D02*
X34089D01*
X30455Y11224D02*
Y13538D01*
X37843Y37462D02*
Y37779D01*
X38110Y44458D02*
Y49666D01*
X37719Y49928D02*
X38379Y50589D01*
X38110Y49666D02*
X38760Y50317D01*
X38615Y44076D02*
Y47447D01*
X102687Y25755D02*
Y27503D01*
Y25755D02*
X103337Y25105D01*
X103345Y25755D02*
X106017D01*
X106502Y25270D01*
X30444Y1831D02*
X33525D01*
X39517Y7823D01*
X28272Y762D02*
X33579D01*
X39980Y7163D01*
X31620Y21796D02*
Y33524D01*
X32001Y22330D02*
Y33718D01*
X32382Y22761D02*
Y37137D01*
X24333Y30505D02*
X25265Y31437D01*
X25324Y30937D02*
X26042D01*
X24496Y30109D02*
X25324Y30937D01*
X19177Y28550D02*
X21133Y30505D01*
X24333D01*
X17854Y27813D02*
X19202D01*
X21498Y30109D01*
X24496D01*
X25883Y29693D02*
X26137Y29947D01*
X21626Y29693D02*
X25883D01*
X27551Y29684D02*
Y30187D01*
X27000Y29134D02*
X27551Y29684D01*
X22047Y29134D02*
X27000D01*
X22758Y26772D02*
X24561Y28575D01*
X14961Y4953D02*
X17537Y2377D01*
X22179D01*
X22758Y24917D02*
Y26772D01*
X19507Y21666D02*
X22758Y24917D01*
X17297Y21666D02*
X19507D01*
X14961Y19329D02*
X17297Y21666D01*
X14961Y4953D02*
Y19329D01*
X19609Y25146D02*
X21005D01*
X13919Y19456D02*
X19609Y25146D01*
X13919Y4470D02*
Y19456D01*
Y4470D02*
X17348Y1041D01*
X23317D01*
X24102Y1826D01*
X47470Y20213D02*
X48085Y19598D01*
X36347Y37948D02*
Y43459D01*
Y37948D02*
X36370Y37925D01*
X61189Y60358D02*
Y62360D01*
Y60358D02*
X61747Y59799D01*
X67814Y54866D02*
X67815Y54867D01*
X63306Y31560D02*
X63652Y31906D01*
X52599Y31560D02*
X63306D01*
X51632Y32527D02*
X52599Y31560D01*
X52551Y28628D02*
X53070Y29147D01*
X67535D01*
X69625Y31236D01*
Y31239D01*
X70233Y31847D01*
X67432Y49814D02*
X67434Y49812D01*
X67432Y49814D02*
X67433D01*
X56384Y55166D02*
X56385Y55165D01*
X56743Y52675D02*
X56890Y52530D01*
Y51478D02*
Y52530D01*
Y51478D02*
X57976Y50394D01*
X64742D01*
X65100Y50752D01*
X66494D01*
X67104Y50142D01*
X67104D01*
X67433Y49814D01*
X64005Y73076D02*
Y74600D01*
X62760Y75844D02*
X64005Y74600D01*
X59631Y70994D02*
X59632Y70994D01*
X59631Y69865D02*
X60218Y69278D01*
X57447Y62779D02*
X59207Y64537D01*
X56653Y62960D02*
X56835Y62779D01*
X56422Y63191D02*
Y63192D01*
X59003Y70971D02*
X59004Y70970D01*
X56397Y62366D02*
X56398Y62365D01*
X57647D02*
X59690Y64407D01*
X60432Y70323D02*
X60660Y70094D01*
X60432Y70323D02*
Y70325D01*
X64174Y52390D02*
Y53482D01*
X63805Y53851D02*
X64174Y53482D01*
X61912Y53851D02*
X63805D01*
X60860Y54903D02*
X61912Y53851D01*
X55604Y60746D02*
X55605Y60744D01*
X60479Y54744D02*
X63148Y52076D01*
X59257Y53091D02*
X59258Y53092D01*
X57159Y59128D02*
X57160Y59126D01*
X60096Y54386D02*
X62201Y52282D01*
X62431Y52052D01*
X62432D01*
X57421Y64356D02*
X57708Y64646D01*
X58198Y70081D02*
X58199Y70080D01*
X59690Y53974D02*
X61260Y52405D01*
X61412Y52050D02*
Y52253D01*
X61260Y52405D02*
X61412Y52253D01*
X58798Y52809D02*
X59103Y52505D01*
X59318Y52291D01*
Y52052D02*
Y52291D01*
X56537Y70332D02*
Y70334D01*
X57769Y69030D02*
Y70399D01*
X94358Y44427D02*
Y48315D01*
X92708Y42777D02*
X94358Y44427D01*
X81808Y42777D02*
X92708D01*
X81150Y43434D02*
X81808Y42777D01*
X45869Y41093D02*
X46675Y37102D01*
X48044Y34407D01*
X52165Y30287D01*
X53054D01*
X57242Y29874D01*
X64745D01*
X68040Y30414D01*
X70024Y32398D01*
X76149D01*
X80867Y35097D01*
X82922Y37151D01*
X85736Y38291D01*
X87511D01*
X90805Y38801D01*
X98984D01*
X103383Y41171D01*
X105776Y43564D01*
Y50129D01*
X105366Y43693D02*
Y49976D01*
X103263Y41590D02*
X105366Y43693D01*
X101161Y41590D02*
X103263D01*
X98875Y39303D02*
X101161Y41590D01*
X85598Y39303D02*
X98875D01*
X85236Y38941D02*
X85598Y39303D01*
X84887Y38941D02*
X85236D01*
X84525Y39303D02*
X84887Y38941D01*
X84315Y39303D02*
X84525D01*
X84104Y39091D02*
X84315Y39303D01*
X84104Y38912D02*
Y39091D01*
Y38912D02*
X84478Y38537D01*
Y38305D02*
Y38537D01*
X84289Y38116D02*
X84478Y38305D01*
X84057Y38116D02*
X84289D01*
X83682Y38491D02*
X84057Y38116D01*
X83503Y38491D02*
X83682D01*
X80333Y35321D02*
X83503Y38491D01*
X75982Y32779D02*
X80333Y35321D01*
X69866Y32779D02*
X75982D01*
X67884Y30798D02*
X69866Y32779D01*
X52213Y30798D02*
X67884D01*
X48374Y34636D02*
X52213Y30798D01*
X47169Y37034D02*
X48374Y34636D01*
X46301Y41160D02*
X47169Y37034D01*
X47477Y48697D02*
X48851Y47323D01*
Y42910D02*
Y47323D01*
X47803Y41862D02*
X48851Y42910D01*
X47803Y36732D02*
Y41862D01*
Y36732D02*
X48616Y35004D01*
X52441Y31179D01*
X64139D01*
X64266Y31306D01*
Y31829D01*
X64393Y31956D01*
X64647D01*
X64774Y31829D01*
Y31306D02*
Y31829D01*
Y31306D02*
X64901Y31179D01*
X65155D01*
X65282Y31306D01*
Y31829D01*
X65409Y31956D01*
X65663D01*
X65790Y31829D01*
Y31306D02*
Y31829D01*
Y31306D02*
X65917Y31179D01*
X67726D01*
X69741Y33193D01*
X75908D01*
X80128Y35656D01*
X84226Y39754D01*
X98476D01*
X98577Y39856D01*
Y40262D01*
X98476Y40364D02*
X98577Y40262D01*
X97307Y40364D02*
X98476D01*
X97130Y40542D02*
X97307Y40364D01*
X97130Y40542D02*
Y41456D01*
X97307Y41634D01*
X99771D01*
X100127Y41989D01*
X103123D01*
X104983Y43849D01*
Y49088D01*
X104846Y49225D02*
X104983Y49088D01*
X104846Y49225D02*
Y49226D01*
X58701Y51156D02*
X64310D01*
X65097Y51943D01*
X69651D01*
X69974Y52266D01*
X69973Y53393D02*
X69974Y53392D01*
X67347Y56557D02*
X67348Y56558D01*
X74997Y44002D02*
Y45549D01*
X74520Y46026D02*
X74997Y45549D01*
X68665Y52324D02*
X69212D01*
X68538Y52451D02*
X68665Y52324D01*
X68538Y52451D02*
Y52810D01*
X68411Y52937D02*
X68538Y52810D01*
X68157Y52937D02*
X68411D01*
X68030Y52810D02*
X68157Y52937D01*
X68030Y52451D02*
Y52810D01*
X67903Y52324D02*
X68030Y52451D01*
X67637Y52324D02*
X67903D01*
X67510Y52451D02*
X67637Y52324D01*
X67510Y52451D02*
Y53673D01*
X67383Y53800D02*
X67510Y53673D01*
X67129Y53800D02*
X67383D01*
X67002Y53673D02*
X67129Y53800D01*
X67002Y52451D02*
Y53673D01*
X66875Y52324D02*
X67002Y52451D01*
X66621Y52324D02*
X66875D01*
X66494Y52451D02*
X66621Y52324D01*
X66494Y52451D02*
Y53673D01*
X66367Y53800D02*
X66494Y53673D01*
X66113Y53800D02*
X66367D01*
X65986Y53673D02*
X66113Y53800D01*
X65986Y52451D02*
Y53673D01*
X65859Y52324D02*
X65986Y52451D01*
X65605Y52324D02*
X65859D01*
X65478Y52451D02*
X65605Y52324D01*
X65478Y52451D02*
Y53673D01*
X65351Y53800D02*
X65478Y53673D01*
X65097Y53800D02*
X65351D01*
X64970Y53673D02*
X65097Y53800D01*
X64970Y52451D02*
Y53673D01*
X64056Y51537D02*
X64970Y52451D01*
X59007Y51537D02*
X64056D01*
X58394Y52149D02*
X59007Y51537D01*
X78080Y39678D02*
X78359Y39957D01*
X75819Y39678D02*
X78080D01*
X74803Y38662D02*
X75819Y39678D01*
X74803Y37696D02*
Y38662D01*
X72693Y35589D02*
X74803Y37696D01*
X68833Y35589D02*
X72693D01*
X66677Y35029D02*
X68833Y35589D01*
X61746Y35029D02*
X66677D01*
X61214Y34852D02*
X61746Y35029D01*
X55093Y34852D02*
X61214D01*
X53750Y36195D02*
X55093Y34852D01*
X58200Y44843D02*
X58731Y45374D01*
X65046Y46203D02*
X68766D01*
X73301Y50738D01*
X54772Y74491D02*
X57861Y74857D01*
X52041Y71760D02*
X54772Y74491D01*
X51918Y69853D02*
X52041Y70744D01*
X51918Y69599D02*
Y69853D01*
X58200Y44003D02*
Y44843D01*
X58197Y44839D02*
X58200Y44843D01*
X58197Y44002D02*
Y44839D01*
X52799Y68900D02*
Y69855D01*
X54875Y74056D02*
X57602Y74400D01*
X59073D01*
X60309Y74260D01*
X68608Y46584D02*
X72920Y50896D01*
X62980Y46584D02*
X68608D01*
X62151Y45755D02*
X62980Y46584D01*
X58115Y45755D02*
X62151D01*
X52828Y70365D02*
X53280Y69913D01*
X55053Y73677D02*
X55891D01*
X56018Y73550D01*
Y73181D02*
Y73550D01*
Y73181D02*
X56145Y73054D01*
X56399D01*
X56526Y73181D01*
Y73750D01*
X56668Y73892D01*
X57627Y74019D01*
X59050D01*
X59207Y73862D01*
Y73511D02*
Y73862D01*
Y73511D02*
X59334Y73384D01*
X59639D01*
X59715Y73460D01*
Y73765D01*
X59861Y73910D01*
X60008D01*
X60134Y73896D01*
X60223Y73806D01*
Y73460D02*
Y73806D01*
Y73460D02*
X60350Y73333D01*
X72539Y51055D02*
Y61042D01*
X68449Y46965D02*
X72539Y51055D01*
X62777Y46965D02*
X68449D01*
X61948Y46136D02*
X62777Y46965D01*
X53280Y69801D02*
Y69913D01*
X53281Y69799D02*
Y69912D01*
X53280Y69913D02*
X53281Y69912D01*
X53245Y70590D02*
Y70714D01*
X53246Y70715D01*
Y71331D01*
X54588Y72673D01*
X57328D01*
X57455Y72800D01*
Y72979D01*
X57336Y73098D02*
X57455Y72979D01*
X57110Y73098D02*
X57336D01*
X56981Y73223D02*
X57110Y73098D01*
X56974Y73426D02*
X56981Y73223D01*
X56974Y73426D02*
X57090Y73564D01*
X57462Y73612D01*
X58649D01*
X58776Y73485D01*
Y73104D02*
Y73485D01*
Y73104D02*
X58928Y72952D01*
X61818Y71673D02*
X61998D01*
X62201Y71876D01*
X62380D01*
X62554Y71703D01*
Y71523D02*
Y71703D01*
X62408Y71377D02*
X62554Y71523D01*
X62791Y68281D02*
X63221Y68710D01*
X62791Y68047D02*
Y68281D01*
Y68047D02*
X62971Y67867D01*
X63151D01*
X63505Y68221D01*
X63685D01*
X63864Y68041D01*
Y67861D02*
Y68041D01*
X63511Y67508D02*
X63864Y67861D01*
X63511Y67328D02*
Y67508D01*
Y67328D02*
X63690Y67148D01*
X63870D01*
X64249Y67527D01*
X64429D01*
X64608Y67348D01*
Y67168D02*
Y67348D01*
X64230Y66789D02*
X64608Y67168D01*
X64230Y66609D02*
Y66789D01*
Y66609D02*
X64396Y66442D01*
X64576D01*
X65044Y66910D01*
X65224D01*
X65404Y66730D01*
Y66551D02*
Y66730D01*
X64948Y66095D02*
X65404Y66551D01*
X64948Y65890D02*
Y66095D01*
Y65890D02*
X65138Y65700D01*
X65316D01*
X66167Y66551D01*
X66492D01*
X66672Y66371D01*
Y66191D02*
Y66371D01*
X66245Y65764D02*
X66672Y66191D01*
X66245Y65584D02*
Y65764D01*
Y65584D02*
X66425Y65405D01*
X66604D01*
X67031Y65832D01*
X72158Y51213D02*
Y60884D01*
X68291Y47346D02*
X72158Y51213D01*
X62633Y47346D02*
X68291D01*
X62620Y47332D02*
X62633Y47346D01*
X62605Y47332D02*
X62620D01*
X61790Y46517D02*
X62605Y47332D01*
X53721Y71267D02*
X54746Y72292D01*
X57491D01*
X57745Y72546D01*
X67263Y65024D02*
X71752Y60534D01*
Y51345D02*
Y60534D01*
X68134Y47727D02*
X71752Y51345D01*
X62433Y47727D02*
X68134D01*
X61605Y46898D02*
X62433Y47727D01*
X57556Y46892D02*
X57602D01*
X60387Y47374D02*
X60514Y47501D01*
Y47933D01*
X60641Y48060D01*
X60895D01*
X61022Y47933D01*
Y47501D02*
Y47933D01*
Y47501D02*
X61149Y47374D01*
X61468D01*
X61595Y47501D01*
Y47933D01*
X61770Y48108D01*
X67976D01*
X71371Y51503D01*
Y59496D01*
X71095Y59772D02*
X71371Y59496D01*
X71095Y59772D02*
Y59973D01*
X71334Y60212D01*
Y60368D01*
X71151Y60551D02*
X71334Y60368D01*
X70971Y60551D02*
X71151D01*
X70757Y60338D02*
X70971Y60551D01*
X70577Y60338D02*
X70757D01*
X70398Y60517D02*
X70577Y60338D01*
X70398Y60517D02*
Y60697D01*
X70612Y60911D01*
Y61091D01*
X70432Y61270D02*
X70612Y61091D01*
X70252Y61270D02*
X70432D01*
X70038Y61056D02*
X70252Y61270D01*
X69858Y61056D02*
X70038D01*
X69679Y61236D02*
X69858Y61056D01*
X69679Y61236D02*
Y61416D01*
X69893Y61630D01*
Y61809D01*
X69713Y61989D02*
X69893Y61809D01*
X69533Y61989D02*
X69713D01*
X69319Y61775D02*
X69533Y61989D01*
X69140Y61775D02*
X69319D01*
X68960Y61955D02*
X69140Y61775D01*
X68960Y61955D02*
Y62135D01*
X69174Y62348D01*
Y62528D01*
X64808Y64907D02*
X65073Y64643D01*
X64650Y64907D02*
X64808D01*
X64491Y64748D02*
X64650Y64907D01*
X64287Y64748D02*
X64491D01*
X62255Y65269D02*
X63248Y66262D01*
Y66467D01*
X63069Y66647D02*
X63248Y66467D01*
X62838Y66647D02*
X63069D01*
X57649Y71911D02*
X57903Y72165D01*
X54904Y71911D02*
X57649D01*
X65891Y64262D02*
X66472Y63681D01*
X66675D01*
X66993Y63998D01*
X67145D01*
X67320Y63824D01*
Y63644D02*
Y63824D01*
X67017Y63341D02*
X67320Y63644D01*
X67017Y63161D02*
Y63341D01*
Y63161D02*
X67197Y62982D01*
X67376D01*
X67679Y63284D01*
X67859D01*
X68592Y62552D01*
Y62372D02*
Y62552D01*
X68364Y62144D02*
X68592Y62372D01*
X68364Y61964D02*
Y62144D01*
Y61964D02*
X70990Y59338D01*
Y51661D02*
Y59338D01*
X67818Y48489D02*
X70990Y51661D01*
X59459Y47755D02*
X59983D01*
X59332Y47882D02*
X59459Y47755D01*
X59332Y47882D02*
Y48362D01*
X59205Y48489D02*
X59332Y48362D01*
X58951Y48489D02*
X59205D01*
X54864Y64709D02*
X54866Y64711D01*
X61103Y63386D02*
Y63565D01*
X70584Y51794D02*
Y59205D01*
X67660Y48870D02*
X70584Y51794D01*
X57808Y48263D02*
X57935Y48136D01*
X57252Y48717D02*
X57404Y48870D01*
X52597Y44515D02*
X52600Y44518D01*
X52597Y44002D02*
Y44515D01*
X75413Y38357D02*
X76352Y39297D01*
X82169D01*
X82296Y39424D01*
Y39907D01*
X82169Y40034D02*
X82296Y39907D01*
X79070Y40034D02*
X82169D01*
X78943Y40161D02*
X79070Y40034D01*
X78943Y40161D02*
Y40770D01*
X79070Y40897D01*
X82093D01*
X82220Y41024D01*
Y41507D01*
X82093Y41634D02*
X82220Y41507D01*
X79273Y41634D02*
X82093D01*
X79000Y41907D02*
X79273Y41634D01*
X78997Y43185D02*
X79000Y43182D01*
X74197Y44002D02*
Y45405D01*
X69314Y53365D02*
Y53696D01*
X69469Y53851D01*
X70028D01*
X70203Y54026D01*
Y58121D01*
X70028Y58296D02*
X70203Y58121D01*
X69748Y58296D02*
X70028D01*
X69621Y58169D02*
X69748Y58296D01*
X69621Y54486D02*
Y58169D01*
X69494Y54359D02*
X69621Y54486D01*
X69063Y54359D02*
X69494D01*
X68936Y54486D02*
X69063Y54359D01*
X68936Y54486D02*
Y58169D01*
X68809Y58296D02*
X68936Y58169D01*
X68459Y58296D02*
X68809D01*
X68174Y54232D02*
X68301Y54359D01*
X67005Y54232D02*
X68174D01*
X66827Y54410D02*
X67005Y54232D01*
X64701Y58245D02*
X64955D01*
X64574Y58372D02*
X64701Y58245D01*
X64574Y58372D02*
Y58910D01*
X64447Y59037D02*
X64574Y58910D01*
X64193Y59037D02*
X64447D01*
X64066Y58910D02*
X64193Y59037D01*
X64066Y58372D02*
Y58910D01*
X63939Y58245D02*
X64066Y58372D01*
X63685Y58245D02*
X63939D01*
X63558Y58372D02*
X63685Y58245D01*
X63558Y58372D02*
Y58910D01*
X63431Y59037D02*
X63558Y58910D01*
X63177Y59037D02*
X63431D01*
X63050Y58910D02*
X63177Y59037D01*
X63050Y58372D02*
Y58910D01*
X62923Y58245D02*
X63050Y58372D01*
X62669Y58245D02*
X62923D01*
X62542Y58372D02*
X62669Y58245D01*
X62542Y58372D02*
Y58910D01*
X62415Y59037D02*
X62542Y58910D01*
X62161Y59037D02*
X62415D01*
X62034Y58910D02*
X62161Y59037D01*
X62034Y55528D02*
Y58910D01*
X61907Y55401D02*
X62034Y55528D01*
X61653Y55401D02*
X61907D01*
X61526Y55528D02*
X61653Y55401D01*
X61145Y59037D02*
X61399D01*
X61018Y58910D02*
X61145Y59037D01*
X61018Y57941D02*
Y58910D01*
X58162Y60200D02*
X58163Y60199D01*
X59423Y38243D02*
X59588Y38077D01*
Y36249D02*
Y38077D01*
Y36249D02*
X59833Y36005D01*
X61079D01*
X61206Y35878D01*
Y35563D02*
Y35878D01*
Y35563D02*
X61333Y35436D01*
X61587D01*
X61714Y35563D01*
Y35878D01*
X61841Y36005D01*
X62095D01*
X62222Y35878D01*
Y35563D02*
Y35878D01*
Y35563D02*
X62349Y35436D01*
X62603D01*
X62730Y35563D01*
X62544Y40583D02*
X63195Y39932D01*
X62544Y40583D02*
Y40958D01*
X64596Y43009D01*
X60046Y36564D02*
Y38891D01*
Y36564D02*
X60224Y36386D01*
X62672D01*
X62814Y36528D01*
Y39774D01*
X62164Y40425D02*
X62814Y39774D01*
X62164Y40425D02*
Y41116D01*
X63798Y42750D01*
X60528Y36894D02*
X60655Y36767D01*
X60985D01*
X61112Y36894D01*
Y39398D01*
X61240Y39526D01*
X61616D01*
X61773Y39368D01*
Y36894D02*
Y39368D01*
Y36894D02*
X61900Y36767D01*
X62306D01*
X62433Y36894D01*
Y39616D01*
X61996Y40053D02*
X62433Y39616D01*
X60249Y40053D02*
X61996D01*
X60122Y40180D02*
X60249Y40053D01*
X60122Y40180D02*
Y40465D01*
X60249Y40592D01*
X61646D01*
X61773Y40719D01*
Y41050D01*
X61646Y41177D02*
X61773Y41050D01*
X61265Y41177D02*
X61646D01*
X61138Y41304D02*
X61265Y41177D01*
X61138Y41304D02*
Y41597D01*
X61606Y42066D01*
X62560D01*
X62998Y42504D01*
X58420Y36478D02*
Y38027D01*
X58115Y36173D02*
X58420Y36478D01*
X55143Y36173D02*
X58115D01*
X54991Y36020D02*
X55143Y36173D01*
X54991Y35639D02*
Y36020D01*
Y35639D02*
X55118Y35512D01*
X58420D01*
X58979Y36071D01*
Y39976D02*
X61474Y42472D01*
X61945D01*
X62198Y42725D01*
X57972Y37011D02*
Y37789D01*
X57404Y38357D02*
X57972Y37789D01*
X50419Y38357D02*
X57404D01*
X50292Y38484D02*
X50419Y38357D01*
X50292Y38484D02*
Y39780D01*
X50454Y39942D01*
X50847D01*
X50974Y39815D01*
Y39094D02*
Y39815D01*
Y39094D02*
X51101Y38967D01*
X51355D01*
X51482Y39094D01*
Y39815D01*
X51609Y39942D01*
X51863D01*
X51990Y39815D01*
Y39094D02*
Y39815D01*
Y39094D02*
X52117Y38967D01*
X52371D01*
X52498Y39094D01*
Y39815D01*
X52625Y39942D01*
X52879D01*
X53006Y39815D01*
Y39094D02*
Y39815D01*
Y39094D02*
X53133Y38967D01*
X53387D01*
X53514Y39094D01*
Y39815D01*
X53641Y39942D01*
X53895D01*
X54022Y39815D01*
Y39094D02*
Y39815D01*
Y39094D02*
X54149Y38967D01*
X54403D01*
X54530Y39094D01*
Y39815D01*
X54657Y39942D01*
X54911D01*
X55038Y39815D01*
Y39094D02*
Y39815D01*
Y39094D02*
X55165Y38967D01*
X55419D01*
X55546Y39094D01*
Y39815D01*
X55673Y39942D01*
X56195D01*
X56586Y39551D01*
X58014D01*
X61400Y42938D01*
Y43309D01*
X61398Y43311D02*
X61400Y43309D01*
X57017Y37976D02*
X57528Y37465D01*
X50038Y37976D02*
X57017D01*
X49809Y38205D02*
X50038Y37976D01*
X49809Y38205D02*
Y40110D01*
X50022Y40323D01*
X56353D01*
X56744Y39932D01*
X57325D01*
X57528Y40135D01*
Y40538D01*
X60600Y42772D02*
Y43334D01*
X60598Y43336D02*
X60600Y43334D01*
X49403Y37773D02*
X49711Y37465D01*
X49403Y37773D02*
Y41050D01*
X49733Y41380D01*
X53873D01*
X54321Y40932D01*
X57338D01*
X59800Y42607D02*
Y43055D01*
X59798Y43057D02*
X59800Y43055D01*
X49022Y37189D02*
X49381Y36830D01*
X49022Y37189D02*
Y41431D01*
X49378Y41786D01*
X54061D01*
X54534Y41313D01*
X57090D01*
X58198Y42421D01*
X58801D01*
X59000Y42620D01*
Y43004D01*
X58998Y43006D02*
X59000Y43004D01*
X70508Y36652D02*
X71529Y37674D01*
X73651D01*
X74295Y38319D01*
Y39182D01*
X75172Y40059D01*
X77888D01*
X77978Y40149D01*
Y42269D01*
X77851Y42396D02*
X77978Y42269D01*
X74168Y42396D02*
X77851D01*
X75797Y44002D02*
Y45816D01*
X74901Y46712D02*
X75797Y45816D01*
X53199Y56750D02*
X53200Y56751D01*
X53199Y56750D02*
Y56753D01*
X53442Y51921D02*
X53696D01*
X53823Y51794D01*
Y47984D02*
Y51794D01*
X54957Y50143D02*
X55084Y50270D01*
X55338D01*
X55465Y50143D01*
Y48746D02*
Y50143D01*
Y48746D02*
X55592Y48619D01*
X67502Y49251D02*
X69338Y51087D01*
X72152Y46590D02*
X72597Y46146D01*
Y44002D02*
Y46146D01*
X68320Y51435D02*
X68322Y51437D01*
X65173Y51435D02*
X68320D01*
X64513Y50775D02*
X65173Y51435D01*
X58241Y50775D02*
X64513D01*
X57604Y51412D02*
X58241Y50775D01*
X57604Y51412D02*
Y53728D01*
X56868Y54465D02*
X57604Y53728D01*
X70996Y43231D02*
X71679Y42548D01*
X72603D01*
X72806Y42345D01*
Y41421D02*
Y42345D01*
Y41421D02*
X73000Y41227D01*
X73355D01*
X73508Y41380D01*
Y41862D01*
X73660Y42015D01*
X77470D01*
X77597Y41888D01*
Y40592D02*
Y41888D01*
X77470Y40465D02*
X77597Y40592D01*
X75040Y40465D02*
X77470D01*
X73914Y39340D02*
X75040Y40465D01*
X73914Y38477D02*
Y39340D01*
X73492Y38055D02*
X73914Y38477D01*
X71371Y38055D02*
X73492D01*
X70556Y37240D02*
X71371Y38055D01*
X69850Y37240D02*
X70556D01*
X69444Y36833D02*
X69850Y37240D01*
X68631Y36833D02*
X69444D01*
X68399Y37065D02*
X68631Y36833D01*
X70197Y42531D02*
Y43232D01*
X73838Y40846D02*
X74600Y41608D01*
X77089D01*
X77216Y41481D01*
Y41050D02*
Y41481D01*
X77089Y40923D02*
X77216Y41050D01*
X74905Y40923D02*
X77089D01*
X73533Y39551D02*
X74905Y40923D01*
X73533Y38713D02*
Y39551D01*
X73256Y38436D02*
X73533Y38713D01*
X70717Y38436D02*
X73256D01*
X70561Y38280D02*
X70717Y38436D01*
X70561Y37784D02*
Y38280D01*
X70434Y37657D02*
X70561Y37784D01*
X70104Y37657D02*
X70434D01*
X69977Y37784D02*
X70104Y37657D01*
X69977Y37784D02*
Y38309D01*
X69850Y38436D02*
X69977Y38309D01*
X69545Y38436D02*
X69850D01*
X69418Y38309D02*
X69545Y38436D01*
X69418Y37417D02*
Y38309D01*
X69317Y37316D02*
X69418Y37417D01*
X68971Y37316D02*
X69317D01*
X68844Y37443D02*
X68971Y37316D01*
X68844Y37443D02*
Y41466D01*
X68741Y41569D02*
X68844Y41466D01*
X68741Y41569D02*
Y41569D01*
X70196Y43233D02*
X70197Y43232D01*
X69396Y43440D02*
X69400Y43436D01*
Y42084D02*
Y43436D01*
Y42084D02*
X69774Y41710D01*
X70358D01*
X70485Y41583D01*
Y41202D02*
Y41583D01*
X70333Y41050D02*
X70485Y41202D01*
X69850Y41050D02*
X70333D01*
X69723Y40923D02*
X69850Y41050D01*
X69723Y40567D02*
Y40923D01*
Y40567D02*
X69850Y40440D01*
X71298D01*
X71425Y40567D01*
Y41278D01*
X71552Y41405D01*
X71907D01*
X72314Y40440D02*
X73304D01*
X73431Y40313D01*
Y40035D02*
Y40313D01*
X73279Y39882D02*
X73431Y40035D01*
X69774Y39882D02*
X73279D01*
X69647Y39755D02*
X69774Y39882D01*
X69647Y39501D02*
Y39755D01*
Y39501D02*
X69774Y39374D01*
X73000D01*
X73127Y39247D01*
Y38941D02*
Y39247D01*
X73002Y38817D02*
X73127Y38941D01*
X69391Y38817D02*
X73002D01*
X69225Y38982D02*
X69391Y38817D01*
X69225Y38982D02*
Y41644D01*
X68910Y41959D02*
X69225Y41644D01*
X68910Y41959D02*
Y42394D01*
X68758Y42547D02*
X68910Y42394D01*
X65275Y45618D02*
X65478Y45822D01*
X68933D01*
X71552Y48441D01*
X72711D01*
X72838Y48568D01*
Y49686D01*
X72965Y49813D01*
X73219D01*
X73346Y49686D01*
Y48543D02*
Y49686D01*
Y48543D02*
X73473Y48416D01*
X73736D01*
X73863Y48543D01*
Y52759D01*
X73990Y52886D01*
X74244D01*
X74371Y52759D01*
Y48543D02*
Y52759D01*
Y48543D02*
X74498Y48416D01*
X74752D01*
X74879Y48543D01*
Y52708D01*
X75006Y52835D01*
X75260D01*
X75387Y52708D01*
Y48568D02*
Y52708D01*
Y48568D02*
X75514Y48441D01*
X75842D01*
X75969Y48568D01*
Y52683D01*
X76096Y52810D01*
X76403D01*
X76530Y52682D01*
Y48044D02*
Y52682D01*
X76276Y47790D02*
X76530Y48044D01*
X71663Y47790D02*
X76276D01*
X69139Y45266D02*
X71663Y47790D01*
X68727Y45266D02*
X69139D01*
X68600Y45139D02*
X68727Y45266D01*
X68600Y44477D02*
Y45139D01*
X68596Y44473D02*
X68600Y44477D01*
X68596Y44002D02*
Y44473D01*
X66929Y37417D02*
X67419Y37907D01*
X64364Y37417D02*
X66929D01*
X64237Y37544D02*
X64364Y37417D01*
X64237Y37544D02*
Y37824D01*
X64364Y37951D01*
X66523D01*
X66777Y38205D01*
Y40262D01*
X66446Y40592D02*
X66777Y40262D01*
X66200Y41667D02*
X66598Y42065D01*
X65176Y41227D02*
X65303Y41100D01*
X65176Y41227D02*
Y41735D01*
X66200Y42759D02*
Y43999D01*
X65400Y42670D02*
Y43999D01*
X64196Y40738D02*
Y41466D01*
Y40738D02*
X64323Y40611D01*
X65710D01*
X65837Y40484D01*
Y40230D02*
Y40484D01*
X65710Y40103D02*
X65837Y40230D01*
X63703Y40103D02*
X65710D01*
X63576Y39976D02*
X63703Y40103D01*
X63576Y39684D02*
Y39976D01*
Y39684D02*
X63703Y39557D01*
X66040D01*
X66167Y39430D01*
Y39176D02*
Y39430D01*
X66040Y39049D02*
X66167Y39176D01*
X63703Y39049D02*
X66040D01*
X63576Y38922D02*
X63703Y39049D01*
X63576Y38522D02*
Y38922D01*
Y38522D02*
X63703Y38395D01*
X80599Y42715D02*
X80918Y42396D01*
X92866D01*
X93298Y42828D01*
X99060D01*
X99365Y43132D01*
Y43793D01*
X100051Y44479D01*
X102184D01*
X103505Y45799D01*
Y50500D01*
X105202Y52197D01*
X111754D01*
X79799Y42499D02*
X80283Y42015D01*
X93024D01*
X93430Y42421D01*
X99314D01*
X99644Y42751D01*
X101041D01*
X101448Y43158D01*
Y43844D01*
X101676Y44072D01*
X102389D01*
X103908Y45591D01*
Y50364D01*
X105360Y51816D01*
X114043D01*
X57076Y50013D02*
X64900D01*
X66022Y50310D02*
X66548Y49784D01*
X85192Y41608D02*
X93157D01*
X93588Y42040D01*
X99517D01*
X99847Y42370D01*
X102692D01*
X103403Y43082D01*
Y44296D01*
X104602Y45495D01*
Y48558D01*
X61671Y33785D02*
X68249D01*
X69240Y34776D01*
X58744Y81105D02*
X64691Y75159D01*
Y72949D02*
Y75159D01*
X68397Y32388D02*
X69664Y33655D01*
X63284Y32388D02*
X68397D01*
X62837Y31941D02*
X63284Y32388D01*
X52757Y31941D02*
X62837D01*
X52146Y32552D02*
X52757Y31941D01*
X52146Y32552D02*
Y33068D01*
X51951Y33263D02*
X52146Y33068D01*
X51951Y33263D02*
Y33266D01*
X51637Y33580D02*
X51951Y33266D01*
X51634Y33580D02*
X51637D01*
X58979Y36071D02*
Y39976D01*
X65303Y41100D02*
X66911D01*
X51341Y36195D02*
X53750D01*
X78200Y42806D02*
Y44000D01*
Y42806D02*
X78359Y42647D01*
Y39957D02*
Y42647D01*
X55391Y32515D02*
X62713D01*
X52852Y33376D02*
X54531D01*
X55391Y32515D01*
X64196Y41466D02*
X65400Y42670D01*
X67000Y42807D02*
Y44000D01*
X67000Y44000D01*
X46710Y48688D02*
X48384Y47014D01*
X47186Y39294D02*
Y42004D01*
X48384Y43202D01*
Y47014D01*
X65176Y41735D02*
X66200Y42759D01*
X53823Y25984D02*
X55987Y28148D01*
X68287D01*
X70177Y30038D01*
Y30349D01*
X70110Y31113D02*
X70237D01*
X53616Y26848D02*
X55420Y28651D01*
X67648D01*
X70110Y31113D01*
X72927Y35182D02*
X75413Y37668D01*
Y38357D01*
X70197Y42531D02*
X70615Y42113D01*
X72098D01*
X39088Y44193D02*
X39544Y44650D01*
Y47291D01*
X38125Y42665D02*
X38455Y42336D01*
X38125Y42665D02*
Y43002D01*
X38277Y43154D01*
X40256Y42288D02*
X40510D01*
X40002Y42542D02*
X40256Y42288D01*
X25709Y52146D02*
Y53035D01*
Y52146D02*
X26369Y51486D01*
X31785D01*
X31163Y58919D02*
X31220Y58861D01*
X32016D01*
X32073Y58804D01*
Y58538D02*
Y58804D01*
X32016Y58480D02*
X32073Y58538D01*
X31220Y58480D02*
X32016D01*
X31163Y58423D02*
X31220Y58480D01*
X31163Y58157D02*
Y58423D01*
Y58157D02*
X31220Y58099D01*
X32016D01*
X32073Y58042D01*
Y57776D02*
Y58042D01*
X32016Y57718D02*
X32073Y57776D01*
X31220Y57718D02*
X32016D01*
X31163Y57661D02*
X31220Y57718D01*
X31163Y57395D02*
Y57661D01*
Y57395D02*
X31220Y57337D01*
X32016D01*
X32073Y57280D01*
Y57014D02*
Y57280D01*
X32016Y56956D02*
X32073Y57014D01*
X31220Y56956D02*
X32016D01*
X31163Y56899D02*
X31220Y56956D01*
X31163Y58919D02*
Y62760D01*
Y56391D02*
X31191Y56363D01*
X31163Y56391D02*
Y56899D01*
X19842Y58587D02*
Y71666D01*
X24225Y76049D01*
X31856D01*
X32254Y75600D02*
X33943Y77289D01*
X30236Y75600D02*
X32254D01*
X34608Y75425D02*
X36065Y76883D01*
X33660Y74478D02*
X34608Y75425D01*
X24058Y73485D02*
Y73566D01*
Y73485D02*
X24296Y73247D01*
Y73166D02*
Y73247D01*
X24107Y72978D02*
X24296Y73166D01*
X24026Y72978D02*
X24107D01*
X23389Y73534D02*
X23470D01*
X23201Y73345D02*
X23389Y73534D01*
X23201Y73265D02*
Y73345D01*
X23757Y72628D02*
Y72708D01*
X23568Y72439D02*
X23757Y72628D01*
X23488Y72439D02*
X23568D01*
X22850Y72995D02*
X22931D01*
X22662Y72807D02*
X22850Y72995D01*
X23470Y73534D02*
X24026Y72978D01*
X23201Y73265D02*
X23757Y72708D01*
X22931Y72995D02*
X23209Y72717D01*
X23488Y72439D01*
X22804Y71695D02*
X22885D01*
X22106Y72311D02*
X22187D01*
X21918Y72123D02*
X22106Y72311D01*
X21918Y72042D02*
Y72123D01*
Y72042D02*
X22186Y71774D01*
Y71693D02*
Y71774D01*
X20604Y70112D02*
X22186Y71693D01*
X22187Y72311D02*
X22804Y71695D01*
X21104Y64049D02*
X21248Y63905D01*
X21104Y64049D02*
Y64259D01*
X21258Y64413D01*
X21248Y63905D02*
X22349D01*
X22476Y64540D02*
Y64872D01*
X22400Y64948D02*
X22476Y64872D01*
X21227Y64948D02*
X22400D01*
X21104Y65071D02*
X21227Y64948D01*
X21104Y65071D02*
Y65427D01*
X21229Y65552D01*
X22191D01*
X22476Y65837D01*
Y70406D01*
X23380Y65097D02*
Y69865D01*
X27533Y54975D02*
X27803Y55245D01*
Y55438D01*
X29108Y54915D02*
X29315D01*
X29709Y56540D02*
X29817Y56432D01*
X30401Y57223D02*
Y64869D01*
X29817Y55051D02*
X29918Y54950D01*
X30119D01*
X30251Y55082D01*
X29817Y55051D02*
Y56432D01*
X35557Y63014D02*
X38071D01*
X37716Y68462D02*
Y70787D01*
Y68462D02*
X37830Y68348D01*
X38814D01*
X38899Y68264D01*
Y68160D02*
Y68264D01*
X38834Y68094D02*
X38899Y68160D01*
X37188Y67292D02*
X38844D01*
X38938Y67386D02*
Y67658D01*
X38846Y67750D02*
X38938Y67658D01*
X38844Y67292D02*
X38938Y67386D01*
X37668Y67750D02*
X38846D01*
X37697Y68094D02*
X38834D01*
X37601Y67998D02*
X37697Y68094D01*
X37601Y67812D02*
Y67998D01*
Y67812D02*
X37656Y67757D01*
X83127Y36738D02*
X104898D01*
X57708Y64821D02*
X57715Y64828D01*
Y65144D01*
X57708Y64646D02*
Y64821D01*
X57715Y65144D02*
X57981Y65410D01*
X57210Y65178D02*
X57600Y65568D01*
Y67151D01*
X57981Y65410D02*
Y66993D01*
X69240Y34776D02*
X73892D01*
X74930Y33655D02*
X75611Y34336D01*
X69664Y33655D02*
X74930D01*
X69872Y36652D02*
X70508D01*
X69203Y35983D02*
X69872Y36652D01*
X67903Y35983D02*
X69203D01*
X71907Y41405D02*
X72044Y41269D01*
Y40710D02*
Y41269D01*
Y40710D02*
X72314Y40440D01*
X72098Y42113D02*
X72425Y41786D01*
Y41263D02*
Y41786D01*
Y41263D02*
X72842Y40846D01*
X73838D01*
X26042Y33256D02*
Y34170D01*
X26479Y34607D01*
X20223Y60168D02*
Y71122D01*
X31785Y51486D02*
X32590Y52291D01*
X31191Y56363D02*
X31928D01*
X32209Y56082D01*
Y54489D02*
Y56082D01*
X31869Y54150D02*
X32209Y54489D01*
X25397Y54150D02*
X31869D01*
X30665Y54531D02*
X30782Y54648D01*
X26489Y54531D02*
X30665D01*
X30782Y54648D02*
Y64691D01*
X32590Y52291D02*
Y59555D01*
X32509Y59636D02*
X32590Y59555D01*
X63449Y70894D02*
Y71092D01*
X63246Y70691D02*
X63449Y70894D01*
X60309Y74260D02*
X60855Y73714D01*
X60350Y73333D02*
X61462D01*
X62935Y71861D01*
X58928Y72952D02*
X61304D01*
X61841Y72415D01*
Y72235D02*
Y72415D01*
X61638Y72033D02*
X61841Y72235D01*
X61638Y71853D02*
Y72033D01*
Y71853D02*
X61818Y71673D01*
X61337Y70496D02*
Y70517D01*
Y70496D02*
X61448Y70384D01*
X63246Y70691D02*
X63500Y70437D01*
X63221Y68710D02*
Y68964D01*
X63500Y70183D02*
Y70437D01*
X63184Y69867D02*
X63500Y70183D01*
X63184Y69625D02*
Y69867D01*
Y69625D02*
X63311Y69498D01*
X62791Y69393D02*
Y70768D01*
Y69393D02*
X63221Y68964D01*
X60963Y71953D02*
X60979D01*
X58061Y71784D02*
X60055D01*
X60648Y71191D01*
X60663D01*
X61337Y70517D01*
X58219Y71403D02*
X59897D01*
X60880Y70420D02*
X60895D01*
X59897Y71403D02*
X60880Y70420D01*
X60371Y72546D02*
X60963Y71953D01*
X60979D02*
X62410Y70521D01*
X57745Y72546D02*
X60371D01*
X62410Y67844D02*
Y70521D01*
X57903Y72165D02*
X60213D01*
X60806Y71572D01*
X60821D01*
X61829Y70564D01*
Y67886D02*
Y70564D01*
Y67886D02*
X62504Y67211D01*
X55592Y48619D02*
X55905D01*
X55952Y48665D01*
Y49072D01*
X57404Y48870D02*
X57681D01*
X57808Y48743D01*
Y48263D02*
Y48743D01*
X53823Y47984D02*
X53950Y47857D01*
X58697Y47755D02*
X58824Y47882D01*
Y48362D01*
X58951Y48489D01*
X57935Y48136D02*
X58189D01*
X58316Y48263D01*
Y48743D01*
X58443Y48870D01*
X67660D01*
X56979Y49251D02*
X67502D01*
X56953Y49224D02*
X56979Y49251D01*
X56104Y49224D02*
X56953D01*
X55952Y49072D02*
X56104Y49224D01*
X43446Y48067D02*
X43573Y47940D01*
Y47686D02*
Y47940D01*
X42796Y49210D02*
Y49464D01*
Y49210D02*
X42923Y49083D01*
X43446D01*
X46710Y48688D02*
Y49761D01*
X43446Y49083D02*
X43573Y48956D01*
Y48702D02*
Y48956D01*
X44716Y49170D02*
Y50111D01*
X45529Y50924D01*
X44325Y50259D02*
X45371Y51305D01*
X42669Y47178D02*
X42796Y47051D01*
X43446D01*
X43573Y46924D01*
Y46670D02*
Y46924D01*
X44325Y44435D02*
X44335Y44425D01*
Y42526D02*
Y44425D01*
X44325Y44435D02*
Y50259D01*
X56919Y49632D02*
X65476D01*
X55605Y60741D02*
X55608Y60744D01*
X55605D02*
X55608D01*
X61399Y59037D02*
X61526Y58910D01*
Y55528D02*
Y58910D01*
X56868Y54465D02*
Y55339D01*
X59690Y53974D02*
Y55983D01*
X59258Y53092D02*
Y55877D01*
X58329Y56806D02*
X59258Y55877D01*
X58798Y52809D02*
Y55798D01*
X58301Y56295D02*
X58798Y55798D01*
X57971Y59065D02*
X58083Y58953D01*
X58417D01*
X56881Y55895D02*
Y56770D01*
X57683Y59876D02*
Y60931D01*
Y59876D02*
X57698D01*
X58240Y59334D01*
X57702Y58795D02*
X57925Y58572D01*
X58260D01*
X59994Y63225D02*
X60464Y63696D01*
X55608Y60744D02*
X56099Y61235D01*
X57379D01*
X57683Y60931D01*
X53315Y51794D02*
X53442Y51921D01*
X53315Y47092D02*
Y51794D01*
X53162Y46939D02*
X53315Y47092D01*
X54685Y55580D02*
X54964D01*
X48006Y62395D02*
X48474Y61926D01*
X46278Y61846D02*
X47167Y60957D01*
Y60332D02*
X47569Y59931D01*
X47167Y60332D02*
Y60957D01*
X54432Y55832D02*
X54685Y55580D01*
X51385Y50924D02*
X51968Y51507D01*
X54394Y54257D02*
X54674Y54537D01*
X54661Y55016D02*
X54674Y55004D01*
Y54537D02*
Y55004D01*
X54013Y54415D02*
X54292Y54695D01*
X54013Y52537D02*
X56919Y49632D01*
X46055Y61465D02*
X46746Y60774D01*
X45686Y61465D02*
X46055D01*
X45371Y51305D02*
X49399D01*
X45529Y50924D02*
X51385D01*
X49207Y52001D02*
Y52092D01*
X56881Y55895D02*
X57302Y55474D01*
Y54570D02*
Y55474D01*
Y54570D02*
X58013Y53859D01*
Y51845D02*
X58471Y51387D01*
X58013Y51845D02*
Y53859D01*
X58471Y51387D02*
X58701Y51156D01*
X58394Y52149D02*
Y53952D01*
X38773Y55938D02*
X39752Y56920D01*
X41783Y61658D02*
X41976Y61851D01*
X41783Y60881D02*
Y61658D01*
X45575Y56337D02*
X45979Y56741D01*
X40960Y58755D02*
X44983D01*
X45139Y56781D02*
X45179Y56741D01*
X43479Y56781D02*
X45139D01*
X43289Y56591D02*
X43479Y56781D01*
X56398Y62365D02*
X57647D01*
X56835Y62779D02*
X57447D01*
X57210Y64770D02*
Y65178D01*
X56405Y65915D02*
X56794Y66305D01*
X53384Y68103D02*
X53453Y68008D01*
X52799Y68900D02*
X53384Y68103D01*
X53453Y68008D02*
X53453Y68008D01*
X48006Y62395D02*
Y64392D01*
X48138Y73590D02*
Y73812D01*
X46489Y72885D02*
Y73219D01*
Y72885D02*
X47060Y72314D01*
X48207D01*
X55220Y71149D02*
X56385D01*
X56814Y70719D01*
X54839Y68380D02*
X55131D01*
X55321Y68570D01*
X54889Y69701D02*
X55016Y69574D01*
X54889Y69701D02*
Y70818D01*
X55220Y71149D01*
X54483Y70951D02*
X55062Y71530D01*
X54102Y71109D02*
X54904Y71911D01*
X52828Y70365D02*
Y71452D01*
X55053Y73677D01*
X52422Y71602D02*
X54875Y74056D01*
X52041Y70744D02*
Y71760D01*
X51656Y68124D02*
Y68783D01*
X52037Y68282D02*
Y68941D01*
Y68282D02*
X52311Y68008D01*
X52730Y67589D01*
X51257Y67893D02*
Y68643D01*
Y67893D02*
X51892Y67259D01*
X50475Y67543D02*
X50637Y67380D01*
X50637Y67380D02*
X51165Y66850D01*
X45453Y72143D02*
Y73176D01*
X46073Y71523D02*
X48459D01*
X45453Y72143D02*
X46073Y71523D01*
X45013Y71135D02*
X45039Y71109D01*
X47992D02*
X48819Y70282D01*
X49200Y69084D02*
Y70783D01*
X48459Y71523D02*
X49200Y70783D01*
X52422Y70232D02*
Y71602D01*
Y70232D02*
X52799Y69855D01*
X49200Y69084D02*
X49699Y68585D01*
X49199Y73812D02*
X51105Y71906D01*
Y69873D02*
Y71906D01*
Y69873D02*
X52037Y68941D01*
X49220Y73101D02*
X50520Y71801D01*
X50533D01*
X50724Y71610D01*
Y69715D02*
Y71610D01*
Y69715D02*
X51656Y68783D01*
X48138Y73590D02*
X50343Y71385D01*
Y69558D02*
Y71385D01*
Y69558D02*
X51257Y68643D01*
X47586Y73474D02*
X49962Y71098D01*
Y69400D02*
Y71098D01*
X48207Y72314D02*
X49581Y70940D01*
Y69242D02*
Y70940D01*
X48819Y68872D02*
Y70282D01*
Y68872D02*
X49159Y68532D01*
X45039Y71109D02*
X47992D01*
X44345Y71802D02*
X45013Y71135D01*
X44755Y70672D02*
X47181D01*
X48158Y69694D01*
X42799Y72628D02*
X44755Y70672D01*
X55232Y64338D02*
X55749D01*
X56882Y69987D02*
X57190Y69679D01*
X56880Y69987D02*
X56882D01*
X56537Y70332D02*
X56880Y69987D01*
X56906Y65534D02*
X57190Y65818D01*
Y69679D01*
X56581Y69574D02*
X56794Y69361D01*
X55016Y69574D02*
X56581D01*
X56794Y66305D02*
Y69361D01*
X55321Y68570D02*
X56144D01*
X56413Y68301D01*
Y66873D02*
Y68301D01*
X54864Y64706D02*
X55232Y64338D01*
X56395Y63941D02*
X56810Y64356D01*
X57421D01*
X55749Y64338D02*
X56018Y64607D01*
X56410Y65534D02*
X56906D01*
X56018Y64607D02*
Y65622D01*
X56029Y65633D01*
Y65692D01*
X56252Y65915D01*
X56405D01*
X52705Y47092D02*
X52857Y46939D01*
X53162D01*
X54657Y45352D02*
Y46221D01*
X55280Y46765D02*
X55282D01*
X55440Y46384D02*
X55742Y46685D01*
X56109D01*
X55282Y46765D02*
X55713Y47195D01*
Y47197D01*
X55890Y47374D01*
X54957Y48226D02*
Y50143D01*
X54588Y47857D02*
X54957Y48226D01*
X53950Y47857D02*
X54588D01*
X56600Y44000D02*
Y45272D01*
X54483Y68736D02*
X54839Y68380D01*
X54483Y68736D02*
Y70951D01*
X53721Y68405D02*
Y71267D01*
Y68405D02*
X53848Y68278D01*
X55702Y48136D02*
X56182D01*
X56333Y48287D01*
Y48722D01*
X56379Y48768D01*
X56820D01*
Y48212D02*
Y48768D01*
Y48212D02*
X56896Y48136D01*
X57099D01*
X57252Y48289D01*
Y48717D01*
X55909Y47755D02*
X58697D01*
X55890Y47374D02*
X60387D01*
X56109Y46685D02*
X56387Y46408D01*
X57602Y46892D02*
X57608Y46898D01*
X57766Y46517D02*
X61790D01*
X57608Y46898D02*
X61605D01*
X56600Y45272D02*
X57021Y45692D01*
X57513D01*
X57957Y46136D01*
X61948D01*
X56387Y46408D02*
X56694D01*
X56716Y46429D01*
X57094D01*
X57556Y46892D01*
X57448Y46199D02*
X57766Y46517D01*
X46301Y41160D02*
Y50041D01*
X46101Y50241D02*
X46301Y50041D01*
X45631Y50241D02*
X46101D01*
X45110Y49720D02*
X45631Y50241D01*
X45874Y45395D02*
Y49707D01*
Y45395D02*
X45880Y45390D01*
X45869Y49703D02*
X45874Y49707D01*
X45869Y41093D02*
Y49703D01*
X109852Y56645D02*
X113814D01*
X114043Y51816D02*
X114529Y52302D01*
Y55931D01*
X113814Y56645D02*
X114529Y55931D01*
X63729Y18331D02*
X65845Y20447D01*
X39517Y7823D02*
X54915D01*
X39980Y7163D02*
X55042D01*
X42215Y11201D02*
X63271D01*
X63678Y10795D01*
X71399Y12700D02*
X76987D01*
X79132Y14845D01*
X70575Y10860D02*
Y11876D01*
X71399Y12700D01*
X70956Y10682D02*
Y11673D01*
X71603Y12319D01*
X77145D01*
X79513Y14687D01*
Y14712D01*
X79578Y14777D01*
Y17526D01*
X64845Y11709D02*
X66343Y10211D01*
X69367D01*
X42621Y11709D02*
X64845D01*
X54915Y7823D02*
X56871Y9779D01*
X69494D01*
X70575Y10860D01*
X55042Y7163D02*
X57252Y9373D01*
X69647D01*
X70956Y10682D01*
X51738Y34490D02*
X52852Y33376D01*
X104927Y15621D02*
X107163Y17856D01*
X106832Y25270D02*
X107163Y24940D01*
Y17856D02*
Y24940D01*
X106502Y25270D02*
X106832D01*
X93726Y15621D02*
X94597Y16492D01*
X99865D01*
X100736Y15621D01*
X104927D01*
X19877Y84714D02*
X19890Y84701D01*
X37646Y74571D02*
Y75232D01*
X37773Y75359D01*
X38027D01*
X38154Y75232D01*
Y74571D02*
Y75232D01*
Y74571D02*
X38281Y74444D01*
X38535D01*
X38662Y74571D01*
Y75232D01*
X38789Y75359D01*
X39043D01*
X39170Y75232D01*
Y74571D02*
Y75232D01*
X36579Y75740D02*
X39621D01*
X39748Y75613D01*
Y75003D02*
Y75613D01*
X36421Y76121D02*
X40027D01*
X40180Y75968D01*
Y75537D02*
Y75968D01*
X36224Y76502D02*
X42618D01*
X36065Y76883D02*
X43295D01*
X33943Y77289D02*
X43899D01*
X19877Y84714D02*
X19878D01*
X57097Y81105D02*
X58744D01*
X56404Y59146D02*
X56407Y59143D01*
X79799Y42499D02*
Y44000D01*
X9619Y72880D02*
X12573Y69926D01*
X9619Y72877D02*
Y72880D01*
X80599Y42715D02*
Y44000D01*
X111754Y52197D02*
X113662Y54105D01*
X45511Y75542D02*
Y76199D01*
X45974Y76022D02*
Y76327D01*
X38379Y50589D02*
Y52669D01*
X39639Y53926D01*
X51968Y51507D02*
Y52695D01*
X54394D02*
Y54257D01*
Y52695D02*
X57076Y50013D01*
X54013Y52537D02*
Y54415D01*
X50749Y55905D02*
Y55931D01*
X53539Y54164D02*
Y54430D01*
Y54164D02*
X53632Y54072D01*
X52705Y47092D02*
Y51834D01*
X53632Y52761D01*
Y54072D01*
X55841Y52578D02*
Y53416D01*
X55645Y53612D02*
X55841Y53416D01*
X56333Y52125D02*
Y53876D01*
X55815Y54394D02*
Y55734D01*
Y54394D02*
X56333Y53876D01*
X55283Y53828D02*
X55498Y53612D01*
X55645D01*
X56743Y52675D02*
Y54005D01*
X56385Y54364D02*
Y55165D01*
Y54364D02*
X56743Y54005D01*
X55283Y53828D02*
Y55261D01*
X54964Y55580D02*
X55283Y55261D01*
X48402Y75712D02*
X48604Y75510D01*
X54313D02*
X54647Y75844D01*
X48604Y75510D02*
X54313D01*
X40306Y64132D02*
X40553Y64379D01*
X45437Y65938D02*
X45720D01*
X45288Y65537D02*
X46009D01*
X48196Y76441D02*
X48402Y76235D01*
X46422Y76441D02*
X48196D01*
X44280Y76217D02*
X44455Y76043D01*
X44251Y76937D02*
X44280Y76908D01*
X43899Y77289D02*
X44251Y76937D01*
X44280Y76217D02*
Y76908D01*
X44455Y75605D02*
Y76043D01*
X45173Y77128D02*
X45974Y76327D01*
X45173Y77128D02*
Y77894D01*
X45013Y78054D02*
X45173Y77894D01*
X44682Y77670D02*
X44792Y77560D01*
Y76918D02*
Y77560D01*
Y76918D02*
X45511Y76199D01*
X45554Y77309D02*
X46422Y76441D01*
X45554Y77309D02*
Y77736D01*
X45580Y77763D01*
Y78078D01*
X44969Y78689D02*
X45580Y78078D01*
X42393Y78511D02*
X42570Y78689D01*
X40665Y78511D02*
X42393D01*
X42570Y78689D02*
X44969D01*
X20814Y76656D02*
X31571D01*
X19410Y57470D02*
Y75252D01*
X20814Y76656D01*
X16482Y83451D02*
X16593Y83563D01*
X38420Y84068D02*
X39130Y84779D01*
X41065D01*
X38420Y83284D02*
Y84068D01*
X38394Y82649D02*
Y83258D01*
X38420Y83284D01*
X53423Y84779D02*
X57097Y81105D01*
X50565Y84779D02*
X53423D01*
X41065D02*
X50565D01*
X39168Y51597D02*
X40161Y52590D01*
X40178D01*
X39168Y48000D02*
Y51597D01*
X40178Y52590D02*
X40980Y53392D01*
Y53833D01*
X38760Y50317D02*
X38787Y50343D01*
Y52384D01*
X38615Y47447D02*
X39168Y48000D01*
X38787Y52384D02*
X40301Y53899D01*
X40561D01*
X43383Y54000D02*
X43396Y54013D01*
X41808Y51189D02*
Y53541D01*
X42267Y54000D01*
X43383D01*
X41427Y53699D02*
X42110Y54381D01*
X43119D01*
X40980Y53833D02*
X41909Y54762D01*
X41754Y55168D02*
X43332D01*
X40921Y54335D02*
X41754Y55168D01*
X39639Y53926D02*
X40048Y54335D01*
X40921D01*
X43997Y68150D02*
X44327Y67820D01*
X39933Y66769D02*
X40680D01*
X40553Y64379D02*
Y66068D01*
X42356Y68259D02*
Y68534D01*
X43127Y68150D02*
X43997D01*
X42799Y68478D02*
X43127Y68150D01*
X40995Y69954D02*
X42041Y69955D01*
X42798Y69198D01*
X42799Y68478D01*
X68301Y58138D02*
X68459Y58296D01*
X68301Y54359D02*
Y58138D01*
X67815Y54867D02*
Y58191D01*
X67348Y56558D02*
Y58640D01*
X66827Y54410D02*
Y57382D01*
X66218Y57991D02*
X66827Y57382D01*
X69489Y60300D02*
X70584Y59205D01*
X66569Y59418D02*
X67348Y58640D01*
X66218Y57991D02*
Y58626D01*
X64151Y60300D02*
X69489D01*
X60565Y59418D02*
X66569D01*
X65807Y59037D02*
X66218Y58626D01*
X65209Y59037D02*
X65807D01*
X64955Y58245D02*
X65060Y58350D01*
Y58888D01*
X65209Y59037D01*
X61747Y59799D02*
X68150D01*
X67815Y58191D02*
X68552Y58928D01*
Y59397D01*
X68150Y59799D02*
X68552Y59397D01*
X48409Y67589D02*
X48757D01*
X48393Y65557D02*
X48415D01*
X49124Y64848D01*
Y64508D02*
Y64848D01*
X48801Y64186D02*
X49124Y64508D01*
X44665Y56337D02*
X45575D01*
X48158Y67840D02*
X48409Y67589D01*
X48158Y67840D02*
Y69694D01*
X48389Y65557D02*
X48393D01*
X48743Y62814D02*
X54077D01*
X50779Y64767D02*
X51165Y65153D01*
Y66850D01*
X48757Y67589D02*
X49979Y66367D01*
X49075Y66471D02*
X49159Y66388D01*
X49962Y69400D02*
X50856Y68506D01*
Y67700D02*
Y68506D01*
Y67700D02*
X51598Y66958D01*
X49581Y69242D02*
X50475Y68348D01*
Y67543D02*
Y68348D01*
X43332Y55168D02*
X43626Y55460D01*
X43885D01*
X41909Y54762D02*
X43701D01*
X67060Y66522D02*
Y66819D01*
X67640Y66497D02*
Y66777D01*
X67031Y65832D02*
X67211D01*
X72158Y60884D01*
X67060Y66522D02*
X72539Y61042D01*
X67640Y66497D02*
X72920Y61217D01*
X68322Y66354D02*
X73301Y61375D01*
X68322Y66354D02*
Y67507D01*
X75611Y34336D02*
X76702D01*
X76907Y53453D02*
X81150Y49210D01*
X73838Y53453D02*
X76907D01*
X73812Y54114D02*
Y58725D01*
X78401Y32014D02*
X78402D01*
X77664Y31277D02*
X78401Y32014D01*
X77673Y30746D02*
X83246Y36319D01*
X77906Y30440D02*
X77906D01*
X83405Y35938D01*
X54042Y24216D02*
X69499D01*
X54170Y24714D02*
X69458D01*
X77769Y30302D02*
X77906Y30440D01*
X53732Y23825D02*
X69647D01*
X54407Y22073D02*
X68580D01*
X65845Y20447D02*
X67552D01*
X76021Y31277D02*
X77664D01*
X76029Y30746D02*
X77673D01*
X76124Y30302D02*
X77769D01*
X69458Y24714D02*
X76021Y31277D01*
X69499Y24216D02*
X76029Y30746D01*
X69647Y23825D02*
X76124Y30302D01*
X78386Y28981D02*
X83222Y33817D01*
X78639Y28575D02*
X82357Y32293D01*
X69444Y18378D02*
Y19205D01*
X77823Y27584D01*
X79273D01*
X82953Y31264D01*
X59526Y59894D02*
X59526D01*
X60510Y58910D01*
X59284Y60554D02*
X59430D01*
X60565Y59418D01*
X59349Y60071D02*
X59526Y59894D01*
X58287Y60071D02*
X59349D01*
X58163Y60195D02*
Y60199D01*
X58163Y60195D02*
X58163Y60195D01*
X58287Y60071D01*
X69799Y11376D02*
Y15926D01*
Y11376D02*
X70166Y11009D01*
X42875Y12268D02*
X58830D01*
X59258Y12696D01*
X68580Y22073D02*
X76305Y29798D01*
X67552Y20447D02*
X76493Y29388D01*
X67564Y19710D02*
X76835Y28981D01*
X76305Y29798D02*
X77804D01*
X82585Y34579D01*
X76493Y29388D02*
X78156D01*
X82966Y34198D01*
X76835Y28981D02*
X78386D01*
X77151Y28575D02*
X78639D01*
X77538Y28118D02*
X78024D01*
X43480Y67346D02*
X45288Y65537D01*
X40170Y68132D02*
X42229D01*
X42356Y68259D01*
X40680Y66769D02*
X41321Y67412D01*
X43648Y67727D02*
X45437Y65938D01*
X41321Y67412D02*
X41636Y67727D01*
X43648D01*
X40553Y66068D02*
X41831Y67346D01*
X43480D01*
X61448Y64990D02*
Y70384D01*
X61067Y65018D02*
Y70227D01*
X60660Y65997D02*
Y70094D01*
X60218Y66094D02*
Y69278D01*
X59207Y64537D02*
Y65083D01*
X58602Y66864D02*
X59004Y67266D01*
X58602Y64599D02*
Y66864D01*
X59690Y64407D02*
Y65027D01*
X60660Y65997D01*
X59207Y65083D02*
X60218Y66094D01*
X20223Y71122D02*
X23952Y74851D01*
X29486D01*
X30236Y75600D01*
X24058Y73566D02*
X24861Y74368D01*
X31764D01*
X22476Y70406D02*
X26057Y73987D01*
X31606D01*
X32294D02*
X33708D01*
X23380Y69865D02*
X27121Y73606D01*
X31448D01*
X31764Y74368D02*
X31777Y74355D01*
X32124D01*
X32136Y74368D01*
X31606Y73987D02*
X31619Y73974D01*
X32282D01*
X32294Y73987D01*
X31448Y73606D02*
X31461Y73593D01*
X32439D01*
X32452Y73606D01*
X31290Y73225D02*
X31303Y73212D01*
X32597D01*
X32610Y73225D01*
X24305Y62202D02*
Y69910D01*
X27620Y73225D01*
X31290D01*
X22885Y71695D02*
X23201Y72011D01*
Y72187D01*
X22662Y72726D02*
Y72807D01*
Y72726D02*
X23201Y72187D01*
X26957Y71036D02*
X28442D01*
X26949Y71028D02*
X26957Y71036D01*
X28442Y72136D02*
X30194D01*
X40510Y41256D02*
Y42288D01*
X40503Y41250D02*
X40510Y41256D01*
X36805Y38810D02*
X37843Y37779D01*
X36805Y38810D02*
Y43156D01*
X38110Y44458D01*
X37236Y40911D02*
X37693Y40454D01*
X37236Y40911D02*
Y42697D01*
X38615Y44076D01*
X38260Y41250D02*
X39403D01*
X37744Y41765D02*
X38260Y41250D01*
X37744Y41765D02*
Y42316D01*
X73892Y34776D02*
X76091Y36975D01*
X81963Y38379D02*
X85192Y41608D01*
X76091Y36975D02*
Y38017D01*
X76302Y38227D01*
Y38379D01*
X81963D01*
X66911Y41100D02*
X67038Y41228D01*
Y41937D01*
X66911Y42065D02*
X67038Y41937D01*
X66598Y42065D02*
X66911D01*
X67419Y37907D02*
Y42388D01*
X67000Y42807D02*
X67419Y42388D01*
X67800Y37674D02*
Y43997D01*
X74549Y59949D02*
Y61487D01*
X73812Y58725D02*
X74617Y59530D01*
X74723D01*
X75108Y59915D01*
X73708Y62328D02*
X74549Y61487D01*
X75108Y59915D02*
Y61590D01*
X64269Y65267D02*
Y65446D01*
X64110Y64926D02*
X64287Y64748D01*
X64110Y64926D02*
Y65107D01*
X64269Y65267D01*
X59792Y63225D02*
X59994D01*
X48474Y61926D02*
X59601D01*
X60439Y62763D01*
X60785D01*
X59614Y63422D02*
Y63564D01*
Y63422D02*
X59703Y63333D01*
Y63314D02*
Y63333D01*
Y63314D02*
X59792Y63225D01*
X66878Y18868D02*
X67382Y18364D01*
X79132Y14845D02*
Y17805D01*
X79889Y18562D02*
Y18644D01*
X79132Y17805D02*
X79889Y18562D01*
X79578Y17526D02*
X80439Y18387D01*
Y18794D01*
X80259Y18974D02*
X80439Y18794D01*
X66116Y18923D02*
X66904Y19710D01*
X67564D01*
X67703Y18872D02*
Y19127D01*
X77151Y28575D01*
X67382Y18364D02*
X68047D01*
X68428Y18745D01*
Y19008D01*
X77538Y28118D01*
X65909Y16459D02*
X67524D01*
X69444Y18378D01*
X105776Y50129D02*
X105925Y50279D01*
X105927Y50281D01*
X105127Y50215D02*
X105130Y50212D01*
X105366Y49976D01*
X47477Y48697D02*
Y49786D01*
Y49789D01*
X104357Y49714D02*
X104360Y49712D01*
X104846Y49226D01*
X69974Y52266D02*
Y53388D01*
Y53392D01*
X74189Y46026D02*
X74190D01*
X74520D01*
X69212Y52324D02*
X69337Y52450D01*
X69339Y52451D01*
X48388Y65562D02*
X48391Y65559D01*
X48393Y65557D01*
X54863Y64711D02*
X54864D01*
X54866D01*
X74197Y45405D02*
X74205Y45413D01*
X74206Y45415D01*
X64596Y43009D02*
Y44000D01*
Y44002D01*
X63798Y42750D02*
Y44000D01*
Y44002D01*
X62998Y42504D02*
Y44000D01*
Y44002D01*
X58191Y38256D02*
X58193Y38254D01*
X58420Y38027D01*
X62198Y42725D02*
Y44000D01*
Y44002D01*
X61398Y43311D02*
Y44000D01*
Y44002D01*
X60598Y43336D02*
Y44000D01*
Y44002D01*
X49711Y37465D02*
X56766D01*
X56766D01*
X59798Y43057D02*
Y44000D01*
Y44002D01*
X49381Y36830D02*
X56766D01*
X56766D01*
X58998Y43006D02*
Y44000D01*
Y44002D01*
X72010Y46590D02*
X72011D01*
X72152D01*
X68399Y37065D02*
Y41272D01*
Y41276D01*
X70996Y43231D02*
Y44000D01*
Y44002D01*
X68398Y41912D02*
X68401Y41909D01*
X68741Y41569D01*
X70196Y43233D02*
Y44000D01*
Y44002D01*
X70197Y43232D02*
Y44000D01*
X70199Y44001D01*
X70200Y44003D01*
X68398Y42547D02*
X68399D01*
X68758D01*
X69396Y43440D02*
Y44000D01*
Y44002D01*
X67796D02*
X67799Y43999D01*
X67800Y43997D01*
X66198Y44002D02*
X66200Y44000D01*
X66200Y43999D01*
X65398Y44002D02*
X65400Y44000D01*
X65400Y43999D01*
X0Y5080D02*
G03*
X5080Y-0I5080J0D01*
G01*
X121920D02*
G03*
X127000Y5080I0J5080D01*
G01*
X127000Y82920D02*
G03*
X121920Y88000I-5080J0D01*
G01*
X5080Y88000D02*
G03*
X0Y82920I-0J-5080D01*
G01*
X109060Y80620D02*
G03*
X108192Y81610I-929J61D01*
G01*
X108161Y79781D02*
G03*
X109060Y80620I30J869D01*
G01*
X94186Y81611D02*
G03*
X93287Y80772I-30J-869D01*
G01*
Y80772D02*
G03*
X94155Y79781I929J-61D01*
G01*
X15900Y-0D02*
X121920D01*
X5080D02*
X15900D01*
X127000Y5080D02*
Y82920D01*
X108192Y88000D02*
X121920D01*
X94155Y79781D02*
X108160D01*
X94186Y81611D02*
Y88000D01*
X108192Y81610D02*
Y88005D01*
X5080Y88000D02*
X94186D01*
X0Y5080D02*
Y82920D01*
D89*
X2815Y40708D02*
X4590D01*
X125183Y49908D02*
Y50695D01*
Y47622D02*
Y48425D01*
X41107Y18491D02*
Y20736D01*
X39202Y22641D02*
X41107Y20736D01*
X35379Y36199D02*
Y48404D01*
X37165Y22641D02*
X39202D01*
X34214Y25592D02*
X37165Y22641D01*
X34214Y25592D02*
Y35034D01*
X35379Y36199D01*
X120498Y44983D02*
Y46523D01*
X120507Y46532D01*
X30320Y6782D02*
X31722D01*
X30320D02*
X30320D01*
X35379Y48404D02*
X37698Y50723D01*
Y53776D01*
X23796Y5791D02*
X23809Y5781D01*
X23796Y5791D02*
Y6822D01*
X23799D01*
X4590Y40708D02*
X4851Y40970D01*
X2815Y40708D02*
Y40709D01*
X110995Y76070D02*
X116268D01*
X108455Y73530D02*
X110995Y76070D01*
X95247Y73530D02*
X108455D01*
X92707Y76070D02*
X95247Y73530D01*
X4610Y39809D02*
X4820Y39598D01*
X2815Y39809D02*
X4610D01*
X2815Y39809D02*
Y39809D01*
X109979Y77975D02*
Y78737D01*
X107312Y75308D02*
X109979Y77975D01*
X96009Y75308D02*
X107312D01*
X91916Y79401D02*
X96009Y75308D01*
X91916Y79401D02*
Y82195D01*
X83954Y28361D02*
Y29426D01*
X82851Y27258D02*
X83954Y28361D01*
X20827Y80279D02*
X22269D01*
X20322Y79773D02*
X20827Y80279D01*
X19720Y79773D02*
X20322D01*
X37698Y53776D02*
X38676Y54754D01*
X39659D01*
X41900Y65238D02*
Y66289D01*
X19720Y78956D02*
Y79773D01*
Y78956D02*
X20292Y78384D01*
X21442D01*
X41550Y55869D02*
X42875D01*
X40596Y54915D02*
X41550Y55869D01*
X39659Y54754D02*
X39820Y54915D01*
X40596D01*
X42487Y66726D02*
X42536Y66774D01*
X50165Y83433D02*
X50565Y83033D01*
Y80279D02*
Y83033D01*
X32958Y80279D02*
X33347Y80668D01*
X75057Y20581D02*
X77161Y22686D01*
X81335D01*
X73584Y15217D02*
X74450D01*
X75057Y15824D01*
Y20581D01*
X73355Y15469D02*
X73584Y15240D01*
X73355Y15469D02*
Y16408D01*
X72720Y17043D02*
X73355Y16408D01*
X41900Y66289D02*
X42283Y66672D01*
X42320D01*
X42373Y66726D01*
X42487D01*
X81335Y22686D02*
X82851Y24202D01*
Y27258D01*
X68917Y17043D02*
X72720D01*
X41107Y18491D02*
X43978Y15620D01*
X67493D01*
X68917Y17043D01*
D90*
X72598Y36706D02*
X72883Y36421D01*
X5513Y28905D02*
X6655D01*
X42875Y55869D02*
X42926Y55920D01*
X102026Y29636D02*
X102613Y30223D01*
Y34795D01*
X102867Y35049D01*
X97495Y31595D02*
Y32420D01*
X96136Y33779D02*
X97495Y32420D01*
X95755Y33779D02*
X96136D01*
X94385Y35148D02*
X95755Y33779D01*
X93926Y35148D02*
X94385D01*
X104038Y18061D02*
Y21500D01*
X103515Y22024D02*
X104038Y21500D01*
X71584Y36706D02*
X72598D01*
X70101Y36175D02*
X71053D01*
X71584Y36706D01*
X42926Y55920D02*
X43982D01*
X69193Y4086D02*
X69367Y3912D01*
X59893Y3401D02*
X60578Y4086D01*
X69193D01*
X103148Y17170D02*
X104038Y18061D01*
X99302Y15963D02*
X101586Y13679D01*
X97714Y15963D02*
X99302D01*
X95668D02*
X97714D01*
X91567Y11862D02*
X95668Y15963D01*
X91567Y10470D02*
Y11862D01*
X18820Y79773D02*
Y81043D01*
X19720Y84200D02*
X19878Y84358D01*
Y84486D01*
X20170Y84779D01*
X22269D01*
X31769D01*
X18803Y83134D02*
Y83284D01*
X18628Y83459D02*
X18803Y83284D01*
X18628Y83459D02*
Y84358D01*
X19720Y81043D02*
Y84200D01*
X17961Y83541D02*
X18367Y83134D01*
X18803D01*
X43982Y55920D02*
X44399Y56337D01*
X44665D01*
D91*
X95605Y62120D02*
X97418D01*
X97548Y62250D01*
Y62511D01*
X97350Y62710D02*
X97548Y62511D01*
X95024Y62710D02*
X97350D01*
X94841Y62526D02*
X95024Y62710D01*
X94841Y61617D02*
Y62526D01*
Y61617D02*
X95126Y61332D01*
X95430D01*
X95613Y61149D01*
Y60844D02*
Y61149D01*
Y60844D02*
X95797Y60661D01*
X96101D01*
X96285Y60478D01*
Y60173D02*
Y60478D01*
Y60173D02*
X96468Y59990D01*
X96772D01*
X96956Y59807D01*
Y59502D02*
Y59807D01*
Y59502D02*
X97139Y59319D01*
X97444D01*
X97627Y59136D01*
Y58831D02*
Y59136D01*
Y58831D02*
X98117Y58341D01*
X101718D01*
X101888Y58510D01*
Y58667D01*
X101889Y58851D01*
X101587Y59156D02*
X101889Y58851D01*
X97929Y62336D02*
X98145Y62120D01*
X97929Y62336D02*
Y62669D01*
X97508Y63091D02*
X97929Y62669D01*
X94866Y63091D02*
X97508D01*
X94460Y62684D02*
X94866Y63091D01*
X94460Y61459D02*
Y62684D01*
Y61459D02*
X97959Y57960D01*
X101876D01*
X102269Y58352D01*
Y58666D01*
X102270Y58849D01*
X102575Y59151D01*
X101955Y62120D02*
X102905D01*
X103035Y61990D01*
Y61643D02*
Y61990D01*
X102857Y61465D02*
X103035Y61643D01*
X100173Y61465D02*
X102857D01*
X98938Y60236D02*
X100173Y61465D01*
X98938Y59479D02*
Y60236D01*
X98635Y59176D02*
X98938Y59479D01*
X99319Y59476D02*
X99621Y59174D01*
X99319Y59476D02*
Y60078D01*
X100330Y61084D01*
X103015D01*
X103416Y61485D01*
Y61990D01*
X103545Y62120D01*
X104495D01*
D95*
X49911Y78854D02*
Y79625D01*
X50319Y80033D01*
X51797Y42801D02*
Y44002D01*
X92123Y20190D02*
X98256D01*
X98803Y20737D01*
Y22222D01*
X5513Y23825D02*
X6629D01*
X5513Y26365D02*
X6655D01*
X100736Y30703D02*
Y31595D01*
Y30703D02*
X101343Y30096D01*
Y24762D02*
Y30096D01*
X98803Y22222D02*
X101343Y24762D01*
X22179Y6720D02*
Y6721D01*
X21120D02*
X22179D01*
X21094Y6693D02*
X21120Y6721D01*
X82423Y16129D02*
X83363Y17069D01*
X83693Y16281D02*
X89332D01*
X83127Y15715D02*
X83693Y16281D01*
X76597Y44002D02*
X76597D01*
X50196D02*
X50197D01*
X52178Y42420D02*
X52193D01*
X51797Y42801D02*
X52178Y42420D01*
X51797Y44002D02*
X51797D01*
X85605Y14376D02*
X85960Y14021D01*
X56565Y7061D02*
X57352Y7849D01*
X87122Y17069D02*
X88290Y18237D01*
X90170D01*
X83363Y17069D02*
X87122D01*
X90170Y18237D02*
X92123Y20190D01*
X89332Y16281D02*
X91415Y18364D01*
X100533D01*
X57352Y7849D02*
X70714D01*
X73228Y10363D01*
X71145Y7010D02*
X73695Y9559D01*
X57785Y7010D02*
X71145D01*
X85960Y14021D02*
X88402D01*
X91500Y17120D01*
X100330D01*
X101148Y16302D01*
X105835Y24635D02*
X106652D01*
X101148Y16302D02*
X104826D01*
X105435Y16911D01*
Y24235D01*
X105835Y24635D01*
X73228Y10363D02*
X81226D01*
X82423Y11560D01*
Y16129D01*
X50197Y44002D02*
Y45486D01*
Y42547D02*
Y44002D01*
X41065Y80279D02*
X41072Y80271D01*
Y79121D02*
Y80271D01*
X44149Y63366D02*
X44533Y62982D01*
X44149Y63366D02*
Y63715D01*
X44615Y64181D02*
Y64838D01*
X44149Y63715D02*
X44615Y64181D01*
X44041Y64838D02*
X44615D01*
X43739Y64536D02*
X44041Y64838D01*
X46015Y64003D02*
Y64838D01*
X45979Y63967D02*
X46015Y64003D01*
X45433Y62982D02*
X45793D01*
X45979Y63167D01*
X48514Y77396D02*
Y77503D01*
X48001Y76883D02*
X48514Y77396D01*
X47190Y76883D02*
X48001D01*
X46859Y77214D02*
X47190Y76883D01*
X46859Y77214D02*
Y77503D01*
X46243D02*
X46859D01*
X46050Y77696D02*
X46243Y77503D01*
X39622Y80279D02*
X41065D01*
X39405Y80062D02*
X39622Y80279D01*
X36678Y83576D02*
X37170Y84068D01*
X36678Y82858D02*
Y83576D01*
X36887Y82649D02*
X37494D01*
X36678Y82858D02*
X36887Y82649D01*
X46050Y77696D02*
Y83427D01*
X77400Y44000D02*
Y45193D01*
X76597Y44002D02*
Y45458D01*
X77497Y46358D01*
X77550Y46304D01*
X78003D01*
X100533Y18364D02*
X101498Y19329D01*
Y19586D01*
X73695Y9559D02*
X81518D01*
X83127Y11168D01*
Y15715D01*
X77902Y45695D02*
X77953D01*
X77400Y45193D02*
X77902Y45695D01*
D97*
X11506Y27610D02*
Y32106D01*
X12979Y33579D01*
X14859D01*
X16180Y34900D01*
Y40843D01*
X10058Y46965D02*
X16180Y40843D01*
X111541Y78140D02*
Y82890D01*
X107820Y74419D02*
X111541Y78140D01*
X95628Y74419D02*
X107820D01*
X90929Y79118D02*
X95628Y74419D01*
X90929Y79118D02*
Y82801D01*
X6870Y62877D02*
X7617D01*
X3807Y59814D02*
X6870Y62877D01*
X3807Y54125D02*
Y59814D01*
X65529Y74165D02*
X66164D01*
X3426Y67068D02*
X7617Y62877D01*
X3426Y67068D02*
Y76451D01*
X4696Y77721D01*
X6728D01*
X10157Y81150D01*
Y85214D01*
X54226Y85468D02*
X59004D01*
X65529Y78943D01*
X86360Y5080D02*
Y9243D01*
X92862Y15745D01*
Y15977D01*
X7617Y62877D02*
X9619Y64879D01*
X65529Y74165D02*
Y78943D01*
X52796Y86898D02*
X54226Y85468D01*
X10157Y85214D02*
X11841Y86898D01*
X52796D01*
X3807Y54125D02*
X5410Y52522D01*
X7315Y46965D02*
X10058D01*
X5410Y48870D02*
Y52522D01*
Y48870D02*
X7315Y46965D01*
D98*
X44973Y54383D02*
X46129D01*
X44825Y54739D02*
X45981D01*
X45341Y54028D02*
X46276D01*
X45488Y53672D02*
X46423D01*
X44759Y52943D02*
X45488Y53672D01*
X46169Y52695D02*
X46452D01*
X45655Y52181D02*
X46169Y52695D01*
X47559Y54709D02*
X48944D01*
X47142Y54894D02*
X47241D01*
X46995Y55250D02*
X47094D01*
X46848Y55605D02*
X46946D01*
X47217Y55876D01*
X47094Y55250D02*
X47430Y55586D01*
X47241Y54894D02*
X47449Y55103D01*
X47791Y55585D02*
X48006Y55799D01*
X47432Y55585D02*
X47791D01*
X47430Y55586D02*
X47432Y55585D01*
X47430Y55586D02*
X47430D01*
X48006Y55799D02*
Y56091D01*
X47217Y56080D02*
X47432Y56295D01*
X47217Y55876D02*
Y56080D01*
X47522Y55140D02*
X47579D01*
X47485Y55103D02*
X47522Y55140D01*
X47449Y55103D02*
X47485D01*
X48347Y53188D02*
X49534Y54375D01*
X45371Y52181D02*
X45655D01*
X44006Y50815D02*
X45371Y52181D01*
X44006Y50496D02*
Y50815D01*
X46074Y53122D02*
X46376D01*
X45540Y52588D02*
X46074Y53122D01*
X46505Y55961D02*
X46799D01*
X49159Y67832D02*
Y68532D01*
X58316Y57376D02*
Y57977D01*
X58089Y58204D02*
X58316Y57977D01*
X57960Y57192D02*
Y57513D01*
X57520Y57953D02*
X57960Y57513D01*
X57604Y57009D02*
Y57366D01*
X57373Y57597D02*
X57604Y57366D01*
X57249Y56048D02*
Y57113D01*
X57120Y57242D02*
X57249Y57113D01*
X56723Y57242D02*
X57120D01*
X58316Y57376D02*
X58395Y57297D01*
X56532Y58701D02*
X56810Y58423D01*
Y58161D02*
Y58423D01*
Y58161D02*
X57018Y57953D01*
X56477Y57990D02*
X56871Y57597D01*
X56238Y57990D02*
X56477D01*
X56383Y57582D02*
X56723Y57242D01*
X56337Y57582D02*
X56383D01*
X56539Y56923D02*
X56576Y56886D01*
X56539Y56923D02*
X56539D01*
X56539D02*
Y56923D01*
X56236Y57226D02*
X56539Y56923D01*
X56190Y57226D02*
X56236D01*
X55800Y57113D02*
X55999Y56914D01*
Y56208D02*
Y56914D01*
Y56208D02*
X56007Y56200D01*
X55410Y56713D02*
X55605D01*
X51282Y57157D02*
Y58115D01*
Y57157D02*
X51357Y57082D01*
X50735Y56492D02*
Y57493D01*
X50343Y56100D02*
X50735Y56492D01*
X50380Y56640D02*
Y58014D01*
X50052Y56312D02*
X50380Y56640D01*
X49629Y56893D02*
Y58114D01*
X49623Y56888D02*
X49629Y56893D01*
X49623Y56649D02*
Y56888D01*
X49270Y56295D02*
X49623Y56649D01*
X48801Y56661D02*
Y57701D01*
X48447Y56306D02*
X48801Y56661D01*
X52068Y56926D02*
X52146Y57004D01*
X52068Y55810D02*
Y56926D01*
X47094Y59522D02*
X49800D01*
X47574Y58374D02*
X48127D01*
X48297Y58204D01*
X48298D01*
X48801Y57701D01*
X47943Y57977D02*
X48379Y57541D01*
X55605Y58921D02*
X56030Y58496D01*
Y58199D02*
Y58496D01*
Y58199D02*
X56238Y57990D01*
X55615Y58369D02*
X55674Y58310D01*
X54378Y58903D02*
Y60812D01*
Y58903D02*
X54534Y58747D01*
X55019D02*
X55194Y58572D01*
Y57432D02*
Y58572D01*
X54304Y58003D02*
X54767Y57541D01*
X53048Y58003D02*
X54304D01*
X52883Y58671D02*
X53195Y58359D01*
X52349Y57599D02*
X52349D01*
X8640Y39450D02*
Y40259D01*
X6426Y37236D02*
X8640Y39450D01*
X3886Y37236D02*
X6426D01*
X3158Y36509D02*
X3886Y37236D01*
X3158Y34003D02*
Y36509D01*
X48824Y55539D02*
Y56087D01*
Y55539D02*
X49098Y55265D01*
Y54864D02*
Y55265D01*
X48944Y54709D02*
X49098Y54864D01*
X44028Y53328D02*
X44040Y53315D01*
X44628D01*
X44548Y52943D02*
X44759D01*
X44628Y53315D02*
X45341Y54028D01*
X43396Y54013D02*
X43409Y54026D01*
X44615D01*
X43119Y54381D02*
X44467D01*
X43119Y54381D02*
X43119Y54381D01*
X53195Y63182D02*
X53314Y63301D01*
X49225Y63334D02*
X49377Y63182D01*
X56868Y46061D02*
X57310D01*
X57448Y46199D01*
X55698Y45711D02*
X55755Y45768D01*
X55550Y45745D02*
X55583Y45711D01*
X55698D01*
X55755Y46009D02*
X55931Y46185D01*
X55755Y45768D02*
Y46009D01*
X56044Y46185D02*
X56194Y46035D01*
X55931Y46185D02*
X56044D01*
X56233Y45593D02*
X56401D01*
X56194Y45632D02*
X56233Y45593D01*
X56194Y45632D02*
Y46035D01*
X55550Y45745D02*
Y45917D01*
X55464Y46003D02*
X55550Y45917D01*
X55157Y46003D02*
X55464D01*
X55084Y45930D02*
X55157Y46003D01*
X55084Y45554D02*
Y45930D01*
Y45554D02*
X55324Y45314D01*
X55615D01*
X55800Y45128D01*
Y44000D02*
Y45128D01*
X53669Y63777D02*
Y65118D01*
Y63777D02*
X53924Y63522D01*
X53400Y44000D02*
Y45193D01*
X53445Y45237D01*
X53844Y46530D02*
X54447Y47133D01*
X53217Y46122D02*
X53731D01*
X53844Y46235D01*
Y46530D01*
X52600Y44000D02*
Y45122D01*
X52814Y45336D02*
Y45666D01*
X52600Y45122D02*
X52814Y45336D01*
X53188Y45593D02*
Y45796D01*
Y45593D02*
X53238Y45542D01*
X53797D01*
X53826Y45513D01*
X53844D01*
Y45266D02*
Y45513D01*
X53816Y45237D02*
X53844Y45266D01*
X53445Y45237D02*
X53816D01*
X53099Y45885D02*
X53188Y45796D01*
X53099Y46003D02*
X53217Y46122D01*
X53099Y45885D02*
Y46003D01*
X52579Y45902D02*
X52814Y45666D01*
X52273Y46342D02*
X52459Y46528D01*
X52273Y45968D02*
Y46342D01*
Y45968D02*
X52339Y45902D01*
X52579D01*
X51918Y50759D02*
X52337Y51178D01*
X51918Y45821D02*
Y50759D01*
Y45821D02*
X52242Y45496D01*
X52374D01*
X52459Y46528D02*
X53340D01*
X52819Y65803D02*
Y66937D01*
X52566Y65550D02*
X52819Y65803D01*
X52958Y65428D02*
X53721Y66191D01*
X52958Y63809D02*
Y65428D01*
X53314Y65265D02*
X53692Y65643D01*
X53314Y63301D02*
Y65265D01*
X53669Y65118D02*
X54432Y65880D01*
X51656Y68101D02*
X52819Y66937D01*
X54331Y68316D02*
X54766Y67881D01*
X43558Y42288D02*
X43957Y42687D01*
X56632Y60332D02*
X56766Y60198D01*
X55293Y60332D02*
X56632D01*
X54874Y60751D02*
X55293Y60332D01*
X55605Y63167D02*
X56005Y63567D01*
X56766Y59769D02*
Y60198D01*
X55582Y59936D02*
X55973Y59545D01*
X57392Y59123D02*
X57711Y58804D01*
X57960Y57192D02*
X58338Y56815D01*
X58395Y57279D02*
Y57297D01*
X56766Y59769D02*
X56998Y59538D01*
X57501D01*
X57531Y59508D01*
X57545D01*
X57980Y59074D01*
X57772Y58204D02*
X58089D01*
X56765Y56886D02*
X56881Y56770D01*
X56893Y56758D01*
X55605Y58921D02*
Y59141D01*
X54534Y58747D02*
X55019D01*
X55982Y57435D02*
Y57744D01*
X54938Y57185D02*
X55410Y56713D01*
X51838Y58671D02*
X52883D01*
X55674Y58051D02*
Y58310D01*
Y58051D02*
X55982Y57744D01*
X57160Y59123D02*
X57392D01*
X56595Y59141D02*
X56981Y58755D01*
X57257D01*
X56405Y59141D02*
X56595D01*
X55973Y59055D02*
Y59545D01*
Y59055D02*
X56328Y58701D01*
X56532D01*
X55194Y57432D02*
X55512Y57113D01*
X57257Y58755D02*
X57333Y58679D01*
Y58643D02*
Y58679D01*
Y58643D02*
X57772Y58204D01*
X57018Y57953D02*
X57520D01*
X56871Y57597D02*
X57373D01*
X56576Y56886D02*
X56765D01*
X52900Y57648D02*
X53217D01*
X53680Y57185D02*
X54938D01*
X53217Y57648D02*
X53680Y57185D01*
X47576Y60784D02*
X48311Y61519D01*
X57604Y57009D02*
X58310Y56304D01*
X55512Y57113D02*
X55800D01*
X55982Y57435D02*
X56190Y57226D01*
X54030Y55638D02*
X54292Y55376D01*
X50949Y51305D02*
X51600Y51956D01*
X51282Y58115D02*
X51838Y58671D01*
X51993Y57746D02*
X52202Y57954D01*
X51638Y57968D02*
X51980Y58310D01*
X53539Y54430D02*
Y54462D01*
X53566Y54489D01*
X51600Y51956D02*
Y52848D01*
X50969Y52092D02*
X51244Y52368D01*
Y52995D01*
X50140Y58254D02*
Y59182D01*
Y58254D02*
X50380Y58014D01*
X49800Y59522D02*
X50140Y59182D01*
X49183Y58560D02*
X49629Y58114D01*
X49032Y56295D02*
X49270D01*
X48824Y56087D02*
X49032Y56295D01*
X47707D02*
X47947Y56535D01*
X47432Y56295D02*
X47707D01*
X47947Y56535D02*
Y57173D01*
X48221Y56306D02*
X48447D01*
X48006Y56091D02*
X48221Y56306D01*
X47579Y59166D02*
X47838D01*
X47153Y57168D02*
X47579Y56741D01*
X47192Y58197D02*
X47412Y57977D01*
X47943D01*
X49056Y52492D02*
X49910D01*
X48508Y51943D02*
X49056Y52492D01*
X49399Y51305D02*
X50949D01*
X49207Y52092D02*
X50969D01*
X54030Y55638D02*
Y55915D01*
X51001Y55368D02*
X51054Y55316D01*
X51001Y55368D02*
Y55653D01*
X53200Y56748D02*
X53566Y56382D01*
X51980Y58310D02*
X52420D01*
X52426Y58315D01*
X52736D01*
X53048Y58003D01*
X52202Y57954D02*
X52594D01*
X52900Y57648D01*
X51993Y57452D02*
X52146Y57299D01*
X51993Y57452D02*
Y57746D01*
X51638Y57304D02*
X51713Y57229D01*
X51638Y57304D02*
Y57968D01*
X49534Y56057D02*
X49789Y56312D01*
X50052D01*
X52349Y57599D02*
X52781Y57167D01*
X52146Y57004D02*
Y57299D01*
X50735Y57493D02*
X50794Y57551D01*
X50343Y53427D02*
Y56100D01*
X48909Y52847D02*
X49763D01*
X48360Y52299D02*
X48909Y52847D01*
X47625Y52299D02*
X48360D01*
X49763Y52847D02*
X50343Y53427D01*
X43885Y55460D02*
X43903D01*
X43917Y55474D01*
X45938Y51943D02*
X48508D01*
X44467Y54381D02*
X44825Y54739D01*
X44615Y54026D02*
X44973Y54383D01*
X43957Y42687D02*
Y50447D01*
X44006Y50496D01*
X49534Y54375D02*
Y56057D01*
X57249Y56048D02*
X57671Y55626D01*
Y54857D02*
Y55626D01*
Y54857D02*
X58381Y54146D01*
Y53859D02*
Y54146D01*
X48444Y58560D02*
X49183D01*
X47838Y59166D02*
X48444Y58560D01*
X47579Y57541D02*
X47947Y57173D01*
X45580Y60637D02*
X45888Y60330D01*
X45580Y60637D02*
Y60944D01*
X45888Y60330D02*
X46232D01*
X46390Y60172D01*
X45372Y60342D02*
X45667Y60048D01*
X47153Y57168D02*
Y57659D01*
X45578Y58167D02*
Y58459D01*
X45933Y58333D02*
X45946Y58320D01*
X46693Y58724D02*
X46984D01*
X45578Y58167D02*
X45794Y57952D01*
X46860D01*
X47153Y57659D01*
X47192Y58197D02*
Y58516D01*
X46984Y58724D02*
X47192Y58516D01*
X46746Y59174D02*
X46749D01*
X46746D02*
X47094Y59522D01*
X46390Y59027D02*
X46693Y58724D01*
X46390Y59027D02*
Y60172D01*
X45933Y58333D02*
Y58683D01*
X44130Y60342D02*
X45372D01*
X44983Y58755D02*
X45282D01*
X45578Y58459D01*
X45667Y59684D02*
Y60048D01*
X45979Y59141D02*
Y59372D01*
X45667Y59684D02*
X45979Y59372D01*
X45534Y59082D02*
X45933Y58683D01*
X45534Y59082D02*
Y59313D01*
X43583Y59796D02*
X43862Y59517D01*
X45027D02*
X45032Y59521D01*
X45326D01*
X45534Y59313D01*
X43862Y59517D02*
X45027D01*
X39982Y57150D02*
X46357D01*
X39752Y56920D02*
X39982Y57150D01*
X46357D02*
X46746Y56761D01*
X57570Y63567D02*
X57885Y63882D01*
X56005Y63567D02*
X57570D01*
X46763Y63982D02*
X47193Y64412D01*
X47142Y65377D02*
Y65633D01*
X48857Y66641D02*
X49110Y66388D01*
X45720Y65938D02*
X46944D01*
X51918Y69599D02*
X52405Y69111D01*
Y68522D02*
Y69111D01*
X51656Y68101D02*
Y68124D01*
X55755Y65938D02*
X56413Y66597D01*
Y66873D01*
X55070Y67564D02*
X55931D01*
X56045Y67450D01*
Y66967D02*
Y67450D01*
X55831Y66753D02*
X56045Y66967D01*
X55374Y66753D02*
X55831D01*
X55194Y66573D02*
X55374Y66753D01*
X55194Y66155D02*
Y66573D01*
X48311Y61519D02*
X53671D01*
X54378Y60812D01*
X54762Y66980D02*
Y67351D01*
X54432Y66650D02*
X54762Y66980D01*
X53454Y68008D02*
X54077Y67385D01*
X54889Y65583D02*
Y65851D01*
X55194Y66155D01*
X54432Y65880D02*
Y66650D01*
X52405Y68522D02*
X53721Y67207D01*
X54494Y64936D02*
X54641Y65083D01*
X53721Y66191D02*
Y67207D01*
X54077Y66044D02*
Y67385D01*
X54051Y64996D02*
X54494Y65439D01*
X54746D01*
X54889Y65583D01*
X54641Y65083D02*
X55101D01*
X55245Y65227D01*
Y65703D01*
X55480Y65938D01*
X55755D01*
X54051Y64709D02*
X54077Y64735D01*
X54025Y63985D02*
X54494Y64453D01*
Y64936D01*
X53692Y65643D02*
Y65659D01*
X54077Y66044D01*
X52748Y63599D02*
X52958Y63809D01*
X51682Y63599D02*
X52748D01*
X54300Y47488D02*
X54982D01*
X53340Y46528D02*
X54300Y47488D01*
X54982D02*
X54989Y47495D01*
Y47497D01*
X54200Y46382D02*
X54582Y46765D01*
X55280D01*
X54200Y44000D02*
Y46382D01*
X53842Y68272D02*
X54762Y67351D01*
X54447Y47133D02*
X55130D01*
X55344Y47348D01*
Y47349D01*
X55750Y47755D01*
X54989Y47497D02*
X55628Y48136D01*
X55702D01*
X55750Y47755D02*
X55909D01*
X56401Y45593D02*
X56868Y46061D01*
X54766Y67869D02*
Y67881D01*
Y67869D02*
X55070Y67564D01*
X18144Y82067D02*
X18803D01*
X48514Y78403D02*
Y78907D01*
X47978Y79443D02*
X48514Y78907D01*
X46859Y78403D02*
Y79244D01*
X46804Y79299D02*
X46859Y79244D01*
X50749Y55905D02*
X51001Y55653D01*
X51357Y55516D02*
X51409Y55463D01*
X51357Y55516D02*
Y57082D01*
X51713Y55663D02*
X51765Y55611D01*
X51713Y55663D02*
Y57229D01*
X52068Y55810D02*
X52121Y55758D01*
X52781Y54402D02*
Y54971D01*
X52832Y55022D01*
Y55316D01*
X52781Y55367D02*
X52832Y55316D01*
X52781Y55367D02*
Y57167D01*
X53566Y54489D02*
Y56382D01*
X52337Y51178D02*
Y53957D01*
X52781Y54402D01*
X51968Y52695D02*
X51981Y52708D01*
Y54105D01*
X52121Y54244D01*
Y55758D01*
X51600Y52848D02*
X51625Y52873D01*
Y54252D01*
X51765Y54391D01*
Y55611D01*
X51244Y52995D02*
X51270Y53020D01*
Y54399D01*
X51409Y54539D01*
Y55463D01*
X49910Y52492D02*
X50914Y53496D01*
Y54547D01*
X51054Y54686D01*
Y55316D01*
X54292Y54695D02*
Y55376D01*
X46632Y65212D02*
X46978D01*
X46009Y65537D02*
X46306D01*
X46632Y65212D01*
X46978D02*
X47142Y65377D01*
X41933Y63985D02*
X42473D01*
X42774Y64285D01*
Y65075D01*
X17729Y81652D02*
X18144Y82067D01*
X17729Y80921D02*
Y81652D01*
X50107Y67387D02*
X50779Y66715D01*
X47450Y65102D02*
X47729D01*
X48006Y65380D01*
X49492Y64659D02*
Y65001D01*
Y64659D02*
X49790Y64361D01*
X47193Y64412D02*
Y64846D01*
X47450Y65102D01*
X48006Y65380D02*
Y65761D01*
X48563Y65930D02*
X49492Y65001D01*
X48710Y66285D02*
X49429Y65567D01*
X49377Y63182D02*
X53195D01*
X49790Y64361D02*
X50920D01*
X51682Y63599D01*
X49225Y63334D02*
Y63855D01*
X50365Y65981D02*
X50779Y65567D01*
X49429D02*
X49979D01*
X50365Y65981D02*
Y66626D01*
X49159Y67832D02*
X50365Y66626D01*
X50779Y66367D02*
Y66715D01*
X49110Y66388D02*
X49159D01*
X48006Y65761D02*
X48175Y65930D01*
X48563D01*
X47142Y65633D02*
X47795Y66285D01*
X48710D01*
X46944Y65938D02*
X47648Y66641D01*
X48857D01*
X50107Y67387D02*
Y68195D01*
X49708Y68594D02*
X50107Y68195D01*
X46094Y55550D02*
X46505Y55961D01*
X45944Y55905D02*
X45979Y55940D01*
X47092Y52832D02*
X47625Y52299D01*
X46452Y52695D02*
X46944Y53188D01*
X48347D01*
X46376Y53122D02*
X47386Y54132D01*
X47765D01*
X46423Y53672D02*
X47290Y54539D01*
X47388D01*
X47559Y54709D01*
X46276Y54028D02*
X47142Y54894D01*
X46129Y54383D02*
X46995Y55250D01*
X45981Y54739D02*
X46848Y55605D01*
X45760Y55550D02*
X46094D01*
X45328Y55118D02*
X45760Y55550D01*
X43917Y55474D02*
X45181D01*
X45613Y55905D01*
X45944D01*
X44064Y55118D02*
X45328D01*
X43701Y54762D02*
X43708D01*
X44064Y55118D01*
X54051Y64709D02*
Y64735D01*
Y64996D01*
X45804Y-27345D02*
X45658Y-27200D01*
X45441Y-27128D01*
X45151D01*
X44933Y-27200D01*
X44788Y-27345D01*
Y-27490D01*
X44860Y-27635D01*
X44933Y-27708D01*
X45078Y-27781D01*
X45513Y-27926D01*
X45658Y-27998D01*
X45731Y-28071D01*
X45804Y-28216D01*
Y-28434D01*
X45658Y-28579D01*
X45441Y-28651D01*
X45151D01*
X44933Y-28579D01*
X44788Y-28434D01*
X47088Y-27128D02*
X46145D01*
Y-28651D01*
X47088D01*
X46145Y-27853D02*
X46725D01*
X48430Y-27490D02*
X48358Y-27345D01*
X48212Y-27200D01*
X48067Y-27128D01*
X47777D01*
X47632Y-27200D01*
X47487Y-27345D01*
X47414Y-27490D01*
X47342Y-27708D01*
Y-28071D01*
X47414Y-28288D01*
X47487Y-28434D01*
X47632Y-28579D01*
X47777Y-28651D01*
X48067D01*
X48212Y-28579D01*
X48358Y-28434D01*
X48430Y-28288D01*
X49294Y-27128D02*
X49148Y-27200D01*
X49003Y-27345D01*
X48931Y-27490D01*
X48858Y-27708D01*
Y-28071D01*
X48931Y-28288D01*
X49003Y-28434D01*
X49148Y-28579D01*
X49294Y-28651D01*
X49584D01*
X49729Y-28579D01*
X49874Y-28434D01*
X49947Y-28288D01*
X50019Y-28071D01*
Y-27708D01*
X49947Y-27490D01*
X49874Y-27345D01*
X49729Y-27200D01*
X49584Y-27128D01*
X49294D01*
X50375D02*
Y-28651D01*
Y-27128D02*
X51390Y-28651D01*
Y-27128D02*
Y-28651D01*
X51811Y-27128D02*
Y-28651D01*
Y-27128D02*
X52319D01*
X52537Y-27200D01*
X52682Y-27345D01*
X52754Y-27490D01*
X52827Y-27708D01*
Y-28071D01*
X52754Y-28288D01*
X52682Y-28434D01*
X52537Y-28579D01*
X52319Y-28651D01*
X51811D01*
X54329D02*
X53748Y-27128D01*
X53168Y-28651D01*
X53386Y-28143D02*
X54111D01*
X54684Y-27128D02*
Y-28651D01*
Y-27128D02*
X55337D01*
X55555Y-27200D01*
X55628Y-27273D01*
X55700Y-27418D01*
Y-27563D01*
X55628Y-27708D01*
X55555Y-27781D01*
X55337Y-27853D01*
X54684D01*
X55192D02*
X55700Y-28651D01*
X56041Y-27128D02*
X56622Y-27853D01*
Y-28651D01*
X57202Y-27128D02*
X56622Y-27853D01*
X59611Y-27345D02*
X59466Y-27200D01*
X59248Y-27128D01*
X58958D01*
X58740Y-27200D01*
X58595Y-27345D01*
Y-27490D01*
X58668Y-27635D01*
X58740Y-27708D01*
X58885Y-27781D01*
X59321Y-27926D01*
X59466Y-27998D01*
X59538Y-28071D01*
X59611Y-28216D01*
Y-28434D01*
X59466Y-28579D01*
X59248Y-28651D01*
X58958D01*
X58740Y-28579D01*
X58595Y-28434D01*
X59952Y-27128D02*
Y-28651D01*
X60271Y-27128D02*
Y-28651D01*
Y-27128D02*
X60779D01*
X60997Y-27200D01*
X61142Y-27345D01*
X61214Y-27490D01*
X61287Y-27708D01*
Y-28071D01*
X61214Y-28288D01*
X61142Y-28434D01*
X60997Y-28579D01*
X60779Y-28651D01*
X60271D01*
X62571Y-27128D02*
X61628D01*
Y-28651D01*
X62571D01*
X61628Y-27853D02*
X62208D01*
X44788Y-27128D02*
Y-28651D01*
Y-27128D02*
X45731D01*
X44788Y-27853D02*
X45368D01*
X47066Y-28651D02*
X46486Y-27128D01*
X45905Y-28651D01*
X46123Y-28143D02*
X46848D01*
X47422Y-27128D02*
Y-28651D01*
Y-27128D02*
X48075D01*
X48292Y-27200D01*
X48365Y-27273D01*
X48437Y-27418D01*
Y-27563D01*
X48365Y-27708D01*
X48292Y-27781D01*
X48075Y-27853D01*
X47422D02*
X48075D01*
X48292Y-27926D01*
X48365Y-27998D01*
X48437Y-28143D01*
Y-28361D01*
X48365Y-28506D01*
X48292Y-28579D01*
X48075Y-28651D01*
X47422D01*
X49976Y-27128D02*
Y-28651D01*
Y-27128D02*
X50483D01*
X50701Y-27200D01*
X50846Y-27345D01*
X50919Y-27490D01*
X50991Y-27708D01*
Y-28071D01*
X50919Y-28288D01*
X50846Y-28434D01*
X50701Y-28579D01*
X50483Y-28651D01*
X49976D01*
X52493D02*
X51913Y-27128D01*
X51332Y-28651D01*
X51550Y-28143D02*
X52276D01*
X52849Y-27128D02*
Y-28651D01*
Y-27128D02*
X53502D01*
X53719Y-27200D01*
X53792Y-27273D01*
X53865Y-27418D01*
Y-27563D01*
X53792Y-27708D01*
X53719Y-27781D01*
X53502Y-27853D01*
X52849D01*
X53357D02*
X53865Y-28651D01*
X54206Y-27128D02*
X54568Y-28651D01*
X54931Y-27128D02*
X54568Y-28651D01*
X54931Y-27128D02*
X55294Y-28651D01*
X55657Y-27128D02*
X55294Y-28651D01*
X55961Y-27128D02*
Y-28651D01*
X56281Y-27128D02*
Y-28651D01*
Y-27128D02*
X57296Y-28651D01*
Y-27128D02*
Y-28651D01*
X58806Y-27490D02*
X58733Y-27345D01*
X58588Y-27200D01*
X58443Y-27128D01*
X58153D01*
X58007Y-27200D01*
X57862Y-27345D01*
X57790Y-27490D01*
X57717Y-27708D01*
Y-28071D01*
X57790Y-28288D01*
X57862Y-28434D01*
X58007Y-28579D01*
X58153Y-28651D01*
X58443D01*
X58588Y-28579D01*
X58733Y-28434D01*
X58806Y-28288D01*
Y-28071D01*
X58443D02*
X58806D01*
X61657Y-27708D02*
X61584Y-27781D01*
X61657Y-27853D01*
X61730Y-27781D01*
Y-27708D01*
X61657Y-27635D01*
X61584D01*
X61512Y-27708D01*
X61439Y-27853D01*
X61294Y-28216D01*
X61149Y-28434D01*
X61004Y-28579D01*
X60859Y-28651D01*
X60641D01*
X60424Y-28579D01*
X60351Y-28434D01*
Y-28216D01*
X60424Y-28071D01*
X60859Y-27781D01*
X61004Y-27635D01*
X61077Y-27490D01*
Y-27345D01*
X61004Y-27200D01*
X60859Y-27128D01*
X60714Y-27200D01*
X60641Y-27345D01*
Y-27490D01*
X60714Y-27708D01*
X60859Y-27926D01*
X61222Y-28434D01*
X61367Y-28579D01*
X61584Y-28651D01*
X61657D01*
X61730Y-28579D01*
Y-28506D01*
X60641Y-28651D02*
X60496Y-28579D01*
X60424Y-28434D01*
Y-28216D01*
X60496Y-28071D01*
X60641Y-27926D01*
Y-27490D02*
X60714Y-27635D01*
X61294Y-28434D01*
X61439Y-28579D01*
X61584Y-28651D01*
X63304Y-27128D02*
Y-28651D01*
Y-27128D02*
X63812D01*
X64030Y-27200D01*
X64175Y-27345D01*
X64247Y-27490D01*
X64320Y-27708D01*
Y-28071D01*
X64247Y-28288D01*
X64175Y-28434D01*
X64030Y-28579D01*
X63812Y-28651D01*
X63304D01*
X64661Y-27128D02*
Y-28651D01*
Y-27128D02*
X65314D01*
X65532Y-27200D01*
X65604Y-27273D01*
X65677Y-27418D01*
Y-27563D01*
X65604Y-27708D01*
X65532Y-27781D01*
X65314Y-27853D01*
X64661D01*
X65169D02*
X65677Y-28651D01*
X66018Y-27128D02*
Y-28651D01*
X66337Y-27128D02*
Y-28651D01*
X67208D01*
X67374Y-27128D02*
Y-28651D01*
X68245D01*
X69609Y-27128D02*
Y-28651D01*
X70480D01*
X71590Y-27128D02*
X70647D01*
Y-28651D01*
X71590D01*
X70647Y-27853D02*
X71227D01*
X72932Y-27490D02*
X72860Y-27345D01*
X72715Y-27200D01*
X72569Y-27128D01*
X72279D01*
X72134Y-27200D01*
X71989Y-27345D01*
X71916Y-27490D01*
X71844Y-27708D01*
Y-28071D01*
X71916Y-28288D01*
X71989Y-28434D01*
X72134Y-28579D01*
X72279Y-28651D01*
X72569D01*
X72715Y-28579D01*
X72860Y-28434D01*
X72932Y-28288D01*
Y-28071D01*
X72569D02*
X72932D01*
X74224Y-27128D02*
X73280D01*
Y-28651D01*
X74224D01*
X73280Y-27853D02*
X73861D01*
X74478Y-27128D02*
Y-28651D01*
Y-27128D02*
X75493Y-28651D01*
Y-27128D02*
Y-28651D01*
X75914Y-27128D02*
Y-28651D01*
Y-27128D02*
X76422D01*
X76640Y-27200D01*
X76785Y-27345D01*
X76857Y-27490D01*
X76930Y-27708D01*
Y-28071D01*
X76857Y-28288D01*
X76785Y-28434D01*
X76640Y-28579D01*
X76422Y-28651D01*
X75914D01*
D101*
X38651Y57414D02*
X39001Y57764D01*
X36315Y57414D02*
X38651D01*
X38329Y57861D02*
X38735Y58268D01*
X36223Y57861D02*
X38329D01*
X35791Y56890D02*
X36315Y57414D01*
X33398Y54498D02*
X35791Y56890D01*
X33017Y23969D02*
Y54656D01*
X35633Y57271D01*
X36223Y57861D01*
X43019Y13967D02*
X67183D01*
X33017Y23969D02*
X43019Y13967D01*
X38735Y58268D02*
X45161D01*
X67183Y13967D02*
X67726Y13424D01*
X33398Y49994D02*
X33576Y50171D01*
X33398Y24127D02*
Y49994D01*
Y51634D02*
Y51944D01*
X33576Y50171D02*
Y50481D01*
X33398Y50659D02*
Y50969D01*
Y50659D02*
X33576Y50481D01*
X33398Y24127D02*
X43177Y14348D01*
X33398Y50969D02*
X33576Y51147D01*
Y51457D01*
X33398Y51634D02*
X33576Y51457D01*
X33398Y51944D02*
X33576Y52122D01*
Y52432D01*
X33398Y53585D02*
Y54498D01*
Y52610D02*
X33576Y52432D01*
X33398Y52610D02*
Y52920D01*
X33576Y53097D01*
Y53407D01*
X33398Y53585D02*
X33576Y53407D01*
X39001Y57764D02*
X44980D01*
X43177Y14348D02*
X67341D01*
X44980Y57764D02*
X45204Y57541D01*
X67341Y14348D02*
X68107Y13582D01*
X67726Y11005D02*
Y13424D01*
X68107Y11005D02*
Y13582D01*
X98281Y10464D02*
Y11582D01*
X98231Y10413D02*
X98281Y10464D01*
Y11582D02*
X98792Y12093D01*
X102346Y12093D02*
X106874D01*
X98792Y12093D02*
X102346D01*
X104670Y32061D02*
X107418D01*
X106874Y12093D02*
X108331Y13550D01*
X107418Y32060D02*
X108108D01*
X104494Y31885D02*
X104670Y32061D01*
X108195Y14256D02*
Y14557D01*
X108331Y13550D02*
Y14120D01*
X108195Y14557D02*
X108331Y14694D01*
X108204Y15180D02*
Y15443D01*
X108195Y16033D02*
Y16323D01*
Y14256D02*
X108331Y14120D01*
Y14694D02*
Y15053D01*
X108204Y15180D02*
X108331Y15053D01*
X108195Y16033D02*
X108331Y15896D01*
X108204Y15443D02*
X108331Y15570D01*
Y15896D01*
X108195Y16323D02*
X108331Y16459D01*
Y29632D01*
X108204Y30607D02*
Y30885D01*
X108210Y29753D02*
Y30082D01*
X108331Y30203D01*
X108204Y30607D02*
X108331Y30480D01*
X108210Y29753D02*
X108331Y29632D01*
Y30203D02*
Y30480D01*
X108108Y32060D02*
X108331Y31836D01*
X108204Y30885D02*
X108331Y31012D01*
Y31836D01*
X98662Y10464D02*
X98713Y10413D01*
X98662Y10464D02*
Y11424D01*
X98950Y11712D01*
X107031D01*
X108712Y13392D01*
X108301Y32442D02*
X108712Y32031D01*
Y13392D02*
Y32031D01*
X104670Y32442D02*
X108301D01*
X104494Y32619D02*
X104670Y32442D01*
D104*
X50999Y42598D02*
Y44002D01*
X71797Y45741D02*
X72016Y45961D01*
X72018Y45963D01*
X49400Y42672D02*
Y44000D01*
X48412Y41685D02*
X49400Y42672D01*
X48412Y36935D02*
Y41685D01*
Y36935D02*
X50112Y35235D01*
X53897D01*
X56007Y33125D01*
X68361D01*
X69453Y34217D01*
X50997Y44002D02*
X50999D01*
Y42598D02*
X51050Y42547D01*
X71797Y44002D02*
Y45741D01*
X69453Y34217D02*
X74346D01*
X77292Y37163D01*
Y37287D01*
D107*
X57306Y-23209D02*
X57215Y-23027D01*
X56943Y-22937D01*
X56762D01*
X56490Y-23027D01*
X56308Y-23299D01*
X56218Y-23753D01*
Y-24206D01*
X56308Y-24569D01*
X56490Y-24750D01*
X56762Y-24841D01*
X56853D01*
X57125Y-24750D01*
X57306Y-24569D01*
X57397Y-24297D01*
Y-24206D01*
X57306Y-23934D01*
X57125Y-23753D01*
X56853Y-23662D01*
X56762D01*
X56490Y-23753D01*
X56308Y-23934D01*
X56218Y-24206D01*
X57306Y-23209D02*
X57215Y-23027D01*
X56943Y-22937D01*
X56762D01*
X56490Y-23027D01*
X56308Y-23299D01*
X56218Y-23753D01*
Y-24206D01*
X56308Y-24569D01*
X56490Y-24750D01*
X56762Y-24841D01*
X56853D01*
X57125Y-24750D01*
X57306Y-24569D01*
X57397Y-24297D01*
Y-24206D01*
X57306Y-23934D01*
X57125Y-23753D01*
X56853Y-23662D01*
X56762D01*
X56490Y-23753D01*
X56308Y-23934D01*
X56218Y-24206D01*
D111*
X108788Y5131D02*
D03*
X113788D02*
D03*
X96282Y5170D02*
D03*
X101282D02*
D03*
D112*
X107788Y2431D02*
D03*
X114788D02*
D03*
X95282Y2470D02*
D03*
X102282D02*
D03*
D113*
X120650Y22860D02*
D03*
X40640Y2540D02*
D03*
X50800D02*
D03*
X6350Y17780D02*
D03*
Y12700D02*
D03*
X12827Y83642D02*
D03*
X123215Y28785D02*
D03*
Y31325D02*
D03*
Y33865D02*
D03*
X10236Y50276D02*
D03*
X86360Y5080D02*
D03*
X83820D02*
D03*
X81280D02*
D03*
X83820Y2540D02*
D03*
X86360D02*
D03*
X88900D02*
D03*
X81280D02*
D03*
X78740D02*
D03*
X76200D02*
D03*
Y5080D02*
D03*
X78740D02*
D03*
D114*
X123190Y22860D02*
D03*
X3810Y17780D02*
D03*
Y12700D02*
D03*
X7696Y50276D02*
D03*
X88900Y5080D02*
D03*
D115*
X5080D02*
D03*
X121920D02*
D03*
Y82918D02*
D03*
X5080D02*
D03*
D116*
X7618Y54878D02*
D03*
X9618Y56878D02*
D03*
X7618D02*
D03*
Y58878D02*
D03*
Y60878D02*
D03*
Y62878D02*
D03*
Y64878D02*
D03*
Y66878D02*
D03*
Y68878D02*
D03*
Y70878D02*
D03*
Y72878D02*
D03*
X9618Y58878D02*
D03*
Y60878D02*
D03*
Y62878D02*
D03*
Y64878D02*
D03*
Y66878D02*
D03*
Y68878D02*
D03*
Y70878D02*
D03*
Y72878D02*
D03*
D117*
Y54878D02*
D03*
D118*
X40640Y5080D02*
D03*
X50800D02*
D03*
X12827Y81102D02*
D03*
X123215Y36405D02*
D03*
D119*
X44450Y2540D02*
D03*
X54610D02*
D03*
D120*
X44450Y5080D02*
D03*
X54610D02*
D03*
D121*
X18694Y5001D02*
D03*
Y12001D02*
D03*
X33020Y5001D02*
D03*
Y12001D02*
D03*
D122*
X65366Y5336D02*
D03*
X69816D02*
D03*
D123*
X69966Y1686D02*
D03*
X65216D02*
D03*
D124*
X71579Y2336D02*
D03*
X63604D02*
D03*
D125*
X109226Y83811D02*
D03*
X93146D02*
D03*
D126*
X108246Y78491D02*
D03*
X105956D02*
D03*
X94126D02*
D03*
X98636Y76311D02*
D03*
X99656Y77411D02*
D03*
X100676Y76311D02*
D03*
X101696Y77411D02*
D03*
X102716Y76311D02*
D03*
X103736Y77411D02*
D03*
X104756Y76311D02*
D03*
X96416Y78491D02*
D03*
D127*
X82293Y19047D02*
D03*
X83055D02*
D03*
X81912Y18412D02*
D03*
X78102Y65275D02*
D03*
X22458Y34521D02*
D03*
X27429Y31597D02*
D03*
X78102Y66545D02*
D03*
X90929Y82801D02*
D03*
X50198Y45481D02*
D03*
X78266Y24732D02*
D03*
Y25527D02*
D03*
X21841Y43782D02*
D03*
X84452Y26032D02*
D03*
X82674Y18412D02*
D03*
X81531Y19047D02*
D03*
X90421Y37970D02*
D03*
X91183D02*
D03*
X59423Y35357D02*
D03*
X60493Y35331D02*
D03*
X78266Y26323D02*
D03*
X81407Y25730D02*
D03*
X82169D02*
D03*
X84277Y26975D02*
D03*
X78266Y23938D02*
D03*
D128*
X80802Y20980D02*
D03*
X80874Y21742D02*
D03*
X72883Y36421D02*
D03*
X110106Y22098D02*
D03*
X73838Y53453D02*
D03*
X71892Y71191D02*
D03*
X81966Y59686D02*
D03*
X52156Y76179D02*
D03*
X47040Y73177D02*
D03*
X40665Y51594D02*
D03*
X49911Y78854D02*
D03*
X63602Y54792D02*
D03*
Y57262D02*
D03*
X49273Y49682D02*
D03*
X48285D02*
D03*
X59281Y59385D02*
D03*
X60322Y60276D02*
D03*
X40132Y63560D02*
D03*
Y64551D02*
D03*
X42694Y66116D02*
D03*
X110288Y982D02*
D03*
X112288Y920D02*
D03*
X66523Y10961D02*
D03*
X108941Y6538D02*
D03*
X113055Y6401D02*
D03*
X112166Y7772D02*
D03*
X90865Y28829D02*
D03*
Y26822D02*
D03*
Y27863D02*
D03*
X40183Y53188D02*
D03*
X19682Y45963D02*
D03*
X66040Y38405D02*
D03*
X90729Y55059D02*
D03*
X93662Y61465D02*
D03*
X93650Y58141D02*
D03*
X81190Y85330D02*
D03*
X65631Y49781D02*
D03*
X71018Y41649D02*
D03*
X70965Y42542D02*
D03*
X54480Y49682D02*
D03*
X69314Y53365D02*
D03*
X6629Y23825D02*
D03*
X6655Y26365D02*
D03*
Y28905D02*
D03*
X11506Y27610D02*
D03*
X57379Y13030D02*
D03*
X12548Y34950D02*
D03*
X14529Y35804D02*
D03*
X13868Y31953D02*
D03*
X14884Y31394D02*
D03*
X15519Y30353D02*
D03*
X16459Y30012D02*
D03*
X10268Y35824D02*
D03*
X53518Y21666D02*
D03*
X56744Y19863D02*
D03*
X36525Y30379D02*
D03*
X55093Y22784D02*
D03*
X50348Y28898D02*
D03*
X53823Y25984D02*
D03*
X35027Y33580D02*
D03*
X36593Y31202D02*
D03*
X36083Y33706D02*
D03*
X37015Y33630D02*
D03*
X38710Y33985D02*
D03*
X39370Y35230D02*
D03*
X13912Y39809D02*
D03*
X11575Y39784D02*
D03*
X96672Y49606D02*
D03*
X88773Y70104D02*
D03*
X89202Y73736D02*
D03*
X115595Y49657D02*
D03*
X119659Y49629D02*
D03*
X123725Y44712D02*
D03*
X124385Y47500D02*
D03*
X116668Y46482D02*
D03*
X120498Y44983D02*
D03*
X94158Y57023D02*
D03*
X93414Y56582D02*
D03*
X90500Y57887D02*
D03*
X91491Y55867D02*
D03*
X93294Y51079D02*
D03*
X93396Y54322D02*
D03*
X92278D02*
D03*
X84988Y49759D02*
D03*
X83668Y43866D02*
D03*
X88604Y55332D02*
D03*
X38608Y48768D02*
D03*
X38595Y49403D02*
D03*
X20422Y4039D02*
D03*
X35176Y54815D02*
D03*
X65783Y67028D02*
D03*
X98041Y60924D02*
D03*
X100584Y59055D02*
D03*
X105915Y58249D02*
D03*
Y60967D02*
D03*
X96517Y58293D02*
D03*
X96263Y54226D02*
D03*
X103952D02*
D03*
X101587Y59156D02*
D03*
X95605Y62120D02*
D03*
X102575Y59151D02*
D03*
X98145Y62120D02*
D03*
X67815Y54861D02*
D03*
X37084Y69192D02*
D03*
Y70147D02*
D03*
Y68166D02*
D03*
Y66367D02*
D03*
Y65521D02*
D03*
Y64523D02*
D03*
X35176Y53210D02*
D03*
X11575Y41455D02*
D03*
X10903Y44409D02*
D03*
X57045Y40434D02*
D03*
X11575Y42900D02*
D03*
X8163Y75244D02*
D03*
X17668Y78308D02*
D03*
X4876Y72720D02*
D03*
X6375Y74980D02*
D03*
X5613Y75006D02*
D03*
X14221Y71902D02*
D03*
X14475Y68069D02*
D03*
X14478Y64942D02*
D03*
X55750Y42542D02*
D03*
X14478Y60370D02*
D03*
X55750Y41907D02*
D03*
X14478Y57322D02*
D03*
X51633Y32809D02*
D03*
X52702Y32890D02*
D03*
X54767Y41877D02*
D03*
X5638Y75801D02*
D03*
X49225Y76720D02*
D03*
X40792Y75844D02*
D03*
X37203Y61396D02*
D03*
X41783Y73126D02*
D03*
X40134Y69182D02*
D03*
X40170Y68132D02*
D03*
X40132Y70055D02*
D03*
X37188Y67292D02*
D03*
X44932Y73025D02*
D03*
X43873D02*
D03*
X42799Y75971D02*
D03*
X37188Y63543D02*
D03*
X45974Y76022D02*
D03*
X43873Y76004D02*
D03*
X45981Y73025D02*
D03*
X40139Y60317D02*
D03*
X37213Y60309D02*
D03*
X37218Y62481D02*
D03*
X40167Y62478D02*
D03*
X47752Y78079D02*
D03*
X44963Y76004D02*
D03*
X47574Y76022D02*
D03*
X49204Y76014D02*
D03*
X39928Y48107D02*
D03*
X40650Y48155D02*
D03*
X41526Y42288D02*
D03*
X43558D02*
D03*
X44929Y42262D02*
D03*
X44193Y42288D02*
D03*
X40510D02*
D03*
X42542D02*
D03*
X39469Y42329D02*
D03*
X38455Y42336D02*
D03*
X56766Y41907D02*
D03*
Y42542D02*
D03*
X57274Y27302D02*
D03*
X52552Y28623D02*
D03*
X70263Y31874D02*
D03*
X56512Y27302D02*
D03*
X67434Y49809D02*
D03*
X98635Y59176D02*
D03*
X101955Y62120D02*
D03*
X99621Y59174D02*
D03*
X104495Y62120D02*
D03*
X57401Y78102D02*
D03*
X15821Y66189D02*
D03*
X14196Y77543D02*
D03*
X32255Y69847D02*
D03*
X31950Y74775D02*
D03*
X34239Y84500D02*
D03*
X55750Y77086D02*
D03*
X16491Y71092D02*
D03*
X33476Y74930D02*
D03*
X32204Y70507D02*
D03*
X55750Y77721D02*
D03*
X14881Y77594D02*
D03*
X15772Y68401D02*
D03*
X56080Y78686D02*
D03*
X26921Y75283D02*
D03*
X36167Y74648D02*
D03*
X32839Y70431D02*
D03*
X57401Y78737D02*
D03*
X13281Y77594D02*
D03*
X33348Y85137D02*
D03*
X57401Y77492D02*
D03*
X38074Y78994D02*
D03*
X14221Y72514D02*
D03*
X62481Y86357D02*
D03*
X70609Y83436D02*
D03*
X102994Y59611D02*
D03*
X101216Y59712D02*
D03*
X99743Y59814D02*
D03*
X98498D02*
D03*
X98803Y62100D02*
D03*
X101343D02*
D03*
X105153D02*
D03*
X85722Y20952D02*
D03*
X86865D02*
D03*
X85849Y37843D02*
D03*
X69240Y11049D02*
D03*
X87492Y14983D02*
D03*
X68478Y26873D02*
D03*
X67139Y71531D02*
D03*
X67952Y73530D02*
D03*
X106804Y25908D02*
D03*
X96471Y57406D02*
D03*
X103952Y56299D02*
D03*
X96123Y61630D02*
D03*
X103606Y56880D02*
D03*
X98041Y56741D02*
D03*
X100584Y56799D02*
D03*
X97193Y56385D02*
D03*
X61719Y86357D02*
D03*
X60599Y86588D02*
D03*
X59410D02*
D03*
X58724D02*
D03*
X57421D02*
D03*
X56565D02*
D03*
X60261Y64942D02*
D03*
X58740Y78206D02*
D03*
X57609Y68120D02*
D03*
X63901Y70662D02*
D03*
X61087Y74168D02*
D03*
X61137Y72372D02*
D03*
X63243Y74419D02*
D03*
X62481Y62562D02*
D03*
X39481Y64523D02*
D03*
X31767Y65872D02*
D03*
X17399Y53975D02*
D03*
Y56316D02*
D03*
Y55366D02*
D03*
X22936Y62636D02*
D03*
X26494Y62712D02*
D03*
X23835Y62661D02*
D03*
X34028Y59283D02*
D03*
X34010Y58003D02*
D03*
X39425Y68166D02*
D03*
Y70147D02*
D03*
Y69192D02*
D03*
X37188Y59309D02*
D03*
X39425Y65521D02*
D03*
X42339Y59306D02*
D03*
X17764Y72702D02*
D03*
X31544Y55471D02*
D03*
X106134Y23169D02*
D03*
X100863Y43319D02*
D03*
X93853Y47447D02*
D03*
X97276Y19177D02*
D03*
X96146Y35161D02*
D03*
X98120Y37665D02*
D03*
X99923Y37670D02*
D03*
X99034D02*
D03*
X99641Y19598D02*
D03*
X100530Y19596D02*
D03*
X103375Y19428D02*
D03*
X94924Y37533D02*
D03*
X93662Y46357D02*
D03*
X102301Y38013D02*
D03*
X104772Y19428D02*
D03*
X93977Y37589D02*
D03*
X105971Y37950D02*
D03*
X109832Y49022D02*
D03*
X102428Y47919D02*
D03*
X102463Y50977D02*
D03*
X99578Y47929D02*
D03*
X99593Y50977D02*
D03*
X101145Y49461D02*
D03*
X96133Y19050D02*
D03*
X101015Y37665D02*
D03*
X94285Y49479D02*
D03*
X97858Y40944D02*
D03*
X96880Y50665D02*
D03*
X69100Y27635D02*
D03*
X68449Y27635D02*
D03*
X92323Y21988D02*
D03*
X90865Y30784D02*
D03*
Y31752D02*
D03*
Y32689D02*
D03*
Y23291D02*
D03*
X72019Y45958D02*
D03*
X90865Y24384D02*
D03*
X30096Y21968D02*
D03*
X30731Y20698D02*
D03*
X29309Y18920D02*
D03*
X31112Y21968D02*
D03*
X31620Y20698D02*
D03*
Y19809D02*
D03*
X31800Y45704D02*
D03*
Y47990D02*
D03*
Y46771D02*
D03*
X52202Y22771D02*
D03*
X51300D02*
D03*
X37637Y31597D02*
D03*
X17399Y45963D02*
D03*
X24109Y42161D02*
D03*
X17399Y48402D02*
D03*
Y51231D02*
D03*
X31569Y48836D02*
D03*
X43611Y21910D02*
D03*
X26883Y29916D02*
D03*
X51051Y42542D02*
D03*
X45994Y22649D02*
D03*
X55950Y9704D02*
D03*
X27114Y42227D02*
D03*
X28145D02*
D03*
X20980Y42161D02*
D03*
X19989D02*
D03*
X18948D02*
D03*
X17399Y44985D02*
D03*
Y47487D02*
D03*
X26060Y42217D02*
D03*
X17399Y49293D02*
D03*
X30967Y50398D02*
D03*
X17399Y50292D02*
D03*
X31137Y42227D02*
D03*
X29151D02*
D03*
X30142D02*
D03*
X23809Y5781D02*
D03*
X4851Y40970D02*
D03*
X4717Y42471D02*
D03*
X10257Y40665D02*
D03*
X24571Y4371D02*
D03*
X31722Y6782D02*
D03*
X96266Y56385D02*
D03*
X63423Y35811D02*
D03*
X106804Y30604D02*
D03*
X106133Y28953D02*
D03*
X106022Y19428D02*
D03*
X102565Y19476D02*
D03*
X39364Y36576D02*
D03*
X106652Y47035D02*
D03*
X54241Y79730D02*
D03*
X90040Y35245D02*
D03*
X87246Y37843D02*
D03*
Y38771D02*
D03*
X88310Y35255D02*
D03*
X84891Y35176D02*
D03*
X88643Y17142D02*
D03*
X85849Y38771D02*
D03*
X54780Y42542D02*
D03*
X113408Y78483D02*
D03*
X90929Y86484D02*
D03*
X21079Y83563D02*
D03*
X84386Y33271D02*
D03*
X22656Y42161D02*
D03*
X12618Y73197D02*
D03*
X86738Y68585D02*
D03*
X82928Y77848D02*
D03*
X82989Y82245D02*
D03*
X88516Y86865D02*
D03*
X86230D02*
D03*
X84518Y58359D02*
D03*
X83563Y65402D02*
D03*
Y66418D02*
D03*
X83804Y67183D02*
D03*
X86484Y76451D02*
D03*
X90040Y50665D02*
D03*
X10693Y77114D02*
D03*
X44958Y73817D02*
D03*
X47063Y73812D02*
D03*
X49199D02*
D03*
X48138D02*
D03*
X59258Y53086D02*
D03*
X62433Y52047D02*
D03*
X61412D02*
D03*
X59319D02*
D03*
X39410Y67292D02*
D03*
X42799Y73787D02*
D03*
X39420Y63550D02*
D03*
X45996Y73817D02*
D03*
X43873Y73797D02*
D03*
X49220Y73101D02*
D03*
X40170Y70782D02*
D03*
X39436Y61407D02*
D03*
X42379Y61391D02*
D03*
X39433Y62481D02*
D03*
X42448Y62478D02*
D03*
X42346Y60317D02*
D03*
X39405Y60309D02*
D03*
X93215Y25397D02*
D03*
X93223Y24384D02*
D03*
X101523Y22059D02*
D03*
X84963Y63870D02*
D03*
X85382Y55267D02*
D03*
X83182Y69593D02*
D03*
X94236Y48437D02*
D03*
X45026Y24942D02*
D03*
X48887Y25107D02*
D03*
X50030Y25064D02*
D03*
X47470Y24963D02*
D03*
X43685Y37564D02*
D03*
X44701Y36700D02*
D03*
X45209Y40002D02*
D03*
X44288Y40034D02*
D03*
X40510Y40002D02*
D03*
X114307Y65021D02*
D03*
X103225Y71244D02*
D03*
X107439Y70609D02*
D03*
X114297Y66799D02*
D03*
X93342Y71244D02*
D03*
X96898D02*
D03*
X114297Y65910D02*
D03*
X107439Y71498D02*
D03*
X114297Y67688D02*
D03*
X93451Y72405D02*
D03*
X102867Y35049D02*
D03*
X93926Y35148D02*
D03*
X101597Y35176D02*
D03*
X85897Y46880D02*
D03*
X86784Y55288D02*
D03*
X87500Y77975D02*
D03*
X90450Y56639D02*
D03*
X88389Y76197D02*
D03*
X116268Y76070D02*
D03*
X92707D02*
D03*
X114221Y78483D02*
D03*
X90040Y47622D02*
D03*
X84960Y52575D02*
D03*
X86484D02*
D03*
X87881D02*
D03*
X84960Y51178D02*
D03*
X87881D02*
D03*
X86357Y49781D02*
D03*
X87881D02*
D03*
X86459Y51196D02*
D03*
X88389Y43939D02*
D03*
X85897Y43954D02*
D03*
X89278Y43939D02*
D03*
X90294D02*
D03*
X111541Y82890D02*
D03*
X25278Y36065D02*
D03*
X26167Y36068D02*
D03*
X24074Y23436D02*
D03*
X96898Y43431D02*
D03*
X103505Y51813D02*
D03*
X58265Y73124D02*
D03*
X105915Y51211D02*
D03*
X105928Y50276D02*
D03*
X105128Y50210D02*
D03*
X55260Y73177D02*
D03*
X106677Y48765D02*
D03*
X104358Y49710D02*
D03*
X107820Y49326D02*
D03*
X95410Y43400D02*
D03*
X97858Y43467D02*
D03*
X98874D02*
D03*
X99890D02*
D03*
X69974Y53388D02*
D03*
X101922Y43497D02*
D03*
X106804Y54734D02*
D03*
X94485Y40891D02*
D03*
X106347Y44002D02*
D03*
X109217Y43939D02*
D03*
X57421Y76578D02*
D03*
X102938Y43467D02*
D03*
X55745Y76446D02*
D03*
X103954Y43446D02*
D03*
X105912Y57150D02*
D03*
X96390Y40891D02*
D03*
X117091Y50690D02*
D03*
X67348Y56552D02*
D03*
X116332Y47726D02*
D03*
X74190Y46022D02*
D03*
X69339Y52448D02*
D03*
X74207Y45410D02*
D03*
X57528Y37462D02*
D03*
X56766D02*
D03*
Y36827D02*
D03*
X72006Y47343D02*
D03*
X74190Y46708D02*
D03*
X69339Y51432D02*
D03*
X68653Y53337D02*
D03*
X68323Y51432D02*
D03*
X50198Y42542D02*
D03*
X65275Y45615D02*
D03*
X113662Y54102D02*
D03*
X109852Y56642D02*
D03*
X43187Y66769D02*
D03*
X4820Y39598D02*
D03*
X56385Y33906D02*
D03*
X66548Y49781D02*
D03*
X34287Y36573D02*
D03*
X9035Y43370D02*
D03*
X104444Y48712D02*
D03*
X58084Y40408D02*
D03*
X56652Y46860D02*
D03*
X91916Y82195D02*
D03*
X109979Y78737D02*
D03*
X52374Y45496D02*
D03*
X52501Y29839D02*
D03*
X52235Y40764D02*
D03*
X14478Y63418D02*
D03*
X51739Y34485D02*
D03*
X37693Y40454D02*
D03*
X14478Y61894D02*
D03*
X113408Y43942D02*
D03*
X14478Y58846D02*
D03*
X51610Y33601D02*
D03*
X109852Y41402D02*
D03*
X113281Y38862D02*
D03*
X113027Y36322D02*
D03*
X109979Y33782D02*
D03*
X109852Y29718D02*
D03*
X110106Y27178D02*
D03*
X110360Y24638D02*
D03*
X109979Y17018D02*
D03*
X90040Y51813D02*
D03*
X88381Y58420D02*
D03*
X87017Y58468D02*
D03*
X84546Y55270D02*
D03*
X84503Y43903D02*
D03*
X65529Y74165D02*
D03*
X66164D02*
D03*
X85598Y15036D02*
D03*
X84891D02*
D03*
X84886Y14376D02*
D03*
X85605D02*
D03*
X84226Y14351D02*
D03*
X84201Y15011D02*
D03*
X106652Y24635D02*
D03*
X60195Y82801D02*
D03*
X59306D02*
D03*
X58417D02*
D03*
X57528D02*
D03*
X70840Y73530D02*
D03*
X30617Y78153D02*
D03*
X33909Y72532D02*
D03*
X33969Y71155D02*
D03*
X30708Y65834D02*
D03*
X25278Y60614D02*
D03*
X24485Y60645D02*
D03*
X21971Y60749D02*
D03*
X19118Y57058D02*
D03*
X63395Y53388D02*
D03*
X31544Y54571D02*
D03*
X19144Y54650D02*
D03*
X19118Y51973D02*
D03*
X125183Y49908D02*
D03*
Y47622D02*
D03*
X106677Y48051D02*
D03*
X31569Y49733D02*
D03*
X19682Y48402D02*
D03*
X107185Y44884D02*
D03*
X100457Y45618D02*
D03*
X52194Y42415D02*
D03*
X44955Y44701D02*
D03*
X42542D02*
D03*
X41526D02*
D03*
X40002D02*
D03*
X23365Y43812D02*
D03*
X103954Y40909D02*
D03*
X101922Y40944D02*
D03*
X98874D02*
D03*
X99890D02*
D03*
X63751Y40764D02*
D03*
X63878Y45844D02*
D03*
X62989D02*
D03*
X36499Y36593D02*
D03*
X52202Y25064D02*
D03*
X51300D02*
D03*
X47470Y22666D02*
D03*
X43611Y25039D02*
D03*
X48887Y20365D02*
D03*
X38859Y20952D02*
D03*
X39494D02*
D03*
Y20190D02*
D03*
X38859Y19555D02*
D03*
X39494D02*
D03*
X21120Y6721D02*
D03*
X53108Y40764D02*
D03*
X99034Y35163D02*
D03*
X99923D02*
D03*
X98120Y35161D02*
D03*
X95145Y35151D02*
D03*
X93362Y32689D02*
D03*
X104681Y29552D02*
D03*
Y30441D02*
D03*
X93362Y29801D02*
D03*
Y31752D02*
D03*
Y30784D02*
D03*
Y27863D02*
D03*
Y28829D02*
D03*
Y26822D02*
D03*
Y23291D02*
D03*
X104625Y22400D02*
D03*
X103515Y22024D02*
D03*
X100530D02*
D03*
X99641Y22029D02*
D03*
X95374Y19047D02*
D03*
X93218Y21996D02*
D03*
X28699Y24381D02*
D03*
X29334Y25270D02*
D03*
Y24381D02*
D03*
X28699Y25270D02*
D03*
X29080Y26159D02*
D03*
X42164Y8947D02*
D03*
X46007Y8943D02*
D03*
X50367Y10610D02*
D03*
X41325Y10686D02*
D03*
X51206Y8871D02*
D03*
X43652Y19586D02*
D03*
X45386Y18868D02*
D03*
X54319Y18858D02*
D03*
X52585Y19576D02*
D03*
X42197Y18788D02*
D03*
X37843Y37462D02*
D03*
X39853Y49016D02*
D03*
X39848Y49886D02*
D03*
X40208Y52045D02*
D03*
X50237Y17183D02*
D03*
X109525Y15773D02*
D03*
X106316Y13987D02*
D03*
X38442Y4001D02*
D03*
X104673Y17424D02*
D03*
X106121Y18542D02*
D03*
X47142Y18110D02*
D03*
X56083Y18161D02*
D03*
X47470Y20213D02*
D03*
X36370Y37925D02*
D03*
X51341Y36195D02*
D03*
X53696Y32914D02*
D03*
X53615Y33909D02*
D03*
X47186Y39294D02*
D03*
X61646Y34493D02*
D03*
X61671Y33785D02*
D03*
X66446Y40592D02*
D03*
X66200Y41664D02*
D03*
X57972Y37008D02*
D03*
X59423Y38243D02*
D03*
X59433Y38884D02*
D03*
X60046Y38891D02*
D03*
X58191Y38252D02*
D03*
X66853Y31852D02*
D03*
X53616Y26848D02*
D03*
X70237Y31113D02*
D03*
X70177Y30349D02*
D03*
X62713Y32515D02*
D03*
X63652Y31906D02*
D03*
X69115Y26875D02*
D03*
X71069Y28169D02*
D03*
X70409D02*
D03*
X70101Y36175D02*
D03*
X62989Y40764D02*
D03*
X64174Y52390D02*
D03*
X63148Y52076D02*
D03*
X85053Y21923D02*
D03*
X108022Y33438D02*
D03*
X107119Y34274D02*
D03*
X106134Y35469D02*
D03*
X47676Y5437D02*
D03*
X57180Y4492D02*
D03*
X69063Y83363D02*
D03*
X68021Y81763D02*
D03*
X68555Y79822D02*
D03*
X68834Y81280D02*
D03*
X65088Y83947D02*
D03*
X64922Y82017D02*
D03*
X65761Y81559D02*
D03*
X64033Y78867D02*
D03*
X50648Y52654D02*
D03*
X44361Y59923D02*
D03*
X51574Y70675D02*
D03*
X85722Y18920D02*
D03*
X86992Y18158D02*
D03*
Y18920D02*
D03*
X83954Y29426D02*
D03*
X86565Y28666D02*
D03*
X88285Y28762D02*
D03*
X70049Y8458D02*
D03*
X67591Y836D02*
D03*
X66291Y6200D02*
D03*
X56565Y7061D02*
D03*
X57760Y6985D02*
D03*
X69367Y3912D02*
D03*
X62699Y8433D02*
D03*
X61824Y6274D02*
D03*
X61087Y3401D02*
D03*
X59893Y3401D02*
D03*
X75579Y13233D02*
D03*
X71907Y10629D02*
D03*
X71044Y4186D02*
D03*
X71196Y5817D02*
D03*
X81396Y14922D02*
D03*
X103148Y17170D02*
D03*
X105080Y13760D02*
D03*
X97587Y10338D02*
D03*
X99339Y10363D02*
D03*
X104494Y31885D02*
D03*
Y32619D02*
D03*
X93860Y7068D02*
D03*
X93870Y6195D02*
D03*
X94791Y6158D02*
D03*
X91567Y10470D02*
D03*
X92456D02*
D03*
X91629Y16092D02*
D03*
X100201Y13363D02*
D03*
X92862Y15977D02*
D03*
X97714Y15963D02*
D03*
X101586Y13679D02*
D03*
X96342Y9296D02*
D03*
X94844Y9271D02*
D03*
X97782Y973D02*
D03*
X99782D02*
D03*
X100082Y6667D02*
D03*
X73609Y15189D02*
D03*
X49225Y77495D02*
D03*
X40665Y78511D02*
D03*
X41072Y79121D02*
D03*
X47978Y79443D02*
D03*
X46804Y79299D02*
D03*
X35176Y52194D02*
D03*
X36030Y55714D02*
D03*
X56334Y52120D02*
D03*
X55841Y52578D02*
D03*
X55359Y52984D02*
D03*
X54940Y53543D02*
D03*
X51574Y74955D02*
D03*
X51841Y78308D02*
D03*
X54277Y77823D02*
D03*
X42774Y65075D02*
D03*
X47752Y77445D02*
D03*
X46846Y76002D02*
D03*
X39405Y80062D02*
D03*
X36830Y58576D02*
D03*
X21442Y78384D02*
D03*
X31523Y78122D02*
D03*
X16593Y83563D02*
D03*
X33347Y80668D02*
D03*
X36678Y82858D02*
D03*
X37386Y85138D02*
D03*
X48887Y79730D02*
D03*
X46050Y83427D02*
D03*
X38692Y53722D02*
D03*
X40561Y53899D02*
D03*
X39997Y55609D02*
D03*
X42536Y66774D02*
D03*
X50165Y83433D02*
D03*
X67920Y59004D02*
D03*
X65662Y58480D02*
D03*
X17961Y83541D02*
D03*
X83678Y24364D02*
D03*
X66723Y61871D02*
D03*
X67924Y61447D02*
D03*
X69240Y66573D02*
D03*
X62177Y60450D02*
D03*
X72011Y46586D02*
D03*
X76702Y34336D02*
D03*
X73812Y54114D02*
D03*
X83407Y50546D02*
D03*
X78003Y46304D02*
D03*
X78054Y21895D02*
D03*
X71430Y17828D02*
D03*
X81827Y21873D02*
D03*
X78024Y28118D02*
D03*
X4847Y43561D02*
D03*
X101524Y19598D02*
D03*
X69774Y66243D02*
D03*
X69139Y59093D02*
D03*
X79610Y20038D02*
D03*
X80391Y20015D02*
D03*
X26949Y71028D02*
D03*
X30194Y72136D02*
D03*
X25024Y42217D02*
D03*
X37744Y42316D02*
D03*
X77292Y37287D02*
D03*
X76302Y38379D02*
D03*
X68399Y42542D02*
D03*
Y41272D02*
D03*
Y41907D02*
D03*
X78994Y21514D02*
D03*
X78054Y21209D02*
D03*
X77953Y45695D02*
D03*
X74549Y59949D02*
D03*
X63632Y64960D02*
D03*
X59182Y30349D02*
D03*
X61316Y22962D02*
D03*
X63729Y18339D02*
D03*
X66878Y18868D02*
D03*
X67703Y18872D02*
D03*
X73152Y17805D02*
D03*
X66116Y18923D02*
D03*
X65909Y16459D02*
D03*
D129*
X76276Y15549D02*
D03*
X47460Y53721D02*
D03*
X56342Y56635D02*
D03*
X59334Y62408D02*
D03*
X27284Y20523D02*
D03*
X22936Y20523D02*
D03*
X22936Y19573D02*
D03*
X11175Y52299D02*
D03*
X8640Y40259D02*
D03*
X14348Y52299D02*
D03*
X14364Y54198D02*
D03*
X52566Y65550D02*
D03*
X51671Y65634D02*
D03*
X65932Y36988D02*
D03*
X64569Y36459D02*
D03*
X64440Y35763D02*
D03*
X41707Y33506D02*
D03*
X22987Y28575D02*
D03*
X26137Y29947D02*
D03*
X54661Y55016D02*
D03*
X51598Y64746D02*
D03*
X65430Y10414D02*
D03*
X74541Y11455D02*
D03*
X76741D02*
D03*
X72567Y15647D02*
D03*
X63678Y10795D02*
D03*
X67675Y11005D02*
D03*
X68158D02*
D03*
X98231Y10413D02*
D03*
X98713D02*
D03*
X93726Y15621D02*
D03*
X38895Y78559D02*
D03*
X17729Y80921D02*
D03*
X69799Y15926D02*
D03*
X59281Y12696D02*
D03*
X80259Y18974D02*
D03*
X79889Y18644D02*
D03*
X72263Y17805D02*
D03*
D130*
X59741Y67440D02*
D03*
X59732Y66850D02*
D03*
D131*
X45979Y60741D02*
D03*
X49581Y68047D02*
D03*
X48026Y53652D02*
D03*
X45161Y55956D02*
D03*
X45644Y53289D02*
D03*
X47765Y54132D02*
D03*
X48127Y52806D02*
D03*
X59052Y57154D02*
D03*
X57165Y58308D02*
D03*
X55605Y56713D02*
D03*
X54823Y56736D02*
D03*
X52426Y56769D02*
D03*
X48379Y56741D02*
D03*
X48671Y58996D02*
D03*
X48379Y57541D02*
D03*
X55615Y58369D02*
D03*
X53797Y60096D02*
D03*
X54823Y59121D02*
D03*
X53195Y58359D02*
D03*
X56385Y58346D02*
D03*
X58163Y60195D02*
D03*
X60068Y61612D02*
D03*
X44149Y63715D02*
D03*
X52451Y66446D02*
D03*
X28296Y56439D02*
D03*
X26705Y52575D02*
D03*
X28550Y52756D02*
D03*
X36306Y66372D02*
D03*
X36319Y67289D02*
D03*
X54823Y63111D02*
D03*
X54805Y62367D02*
D03*
X48402Y63962D02*
D03*
X47599Y63954D02*
D03*
X47579Y62367D02*
D03*
X36306Y65524D02*
D03*
Y64541D02*
D03*
X54833Y59913D02*
D03*
X36299Y59278D02*
D03*
X36256Y46946D02*
D03*
X36896Y46990D02*
D03*
X36281Y48031D02*
D03*
X36243Y45897D02*
D03*
X36911Y44856D02*
D03*
Y45897D02*
D03*
X96194Y30944D02*
D03*
X101386Y23804D02*
D03*
X102026Y30286D02*
D03*
X103345Y25755D02*
D03*
X103337Y25105D02*
D03*
X56131Y69974D02*
D03*
X46779Y66367D02*
D03*
X33906Y42288D02*
D03*
X94040Y27863D02*
D03*
X95539Y29657D02*
D03*
X94246Y32895D02*
D03*
Y32245D02*
D03*
X22700Y53355D02*
D03*
X21107Y52575D02*
D03*
X21907D02*
D03*
X24188Y51638D02*
D03*
X29819Y53258D02*
D03*
X27533Y53375D02*
D03*
X30825Y53233D02*
D03*
X21107Y53375D02*
D03*
X26733Y57373D02*
D03*
Y56573D02*
D03*
X27490Y58145D02*
D03*
X27533Y56573D02*
D03*
X27513Y60553D02*
D03*
X26733Y55775D02*
D03*
X25933D02*
D03*
X27533Y54975D02*
D03*
X21907D02*
D03*
X23881Y55717D02*
D03*
X21907Y55775D02*
D03*
X21107Y57373D02*
D03*
X25214Y53543D02*
D03*
X25709Y53035D02*
D03*
X24490Y55692D02*
D03*
X21907Y58173D02*
D03*
Y51775D02*
D03*
X22705Y52575D02*
D03*
X21107Y51775D02*
D03*
X22705Y50947D02*
D03*
X26733Y53375D02*
D03*
X24460Y53484D02*
D03*
X29062Y50358D02*
D03*
X29621Y50383D02*
D03*
X25862Y50129D02*
D03*
X23576Y51018D02*
D03*
X20594Y51155D02*
D03*
X21907Y50947D02*
D03*
X47579Y59166D02*
D03*
X57147Y53591D02*
D03*
X57169Y53058D02*
D03*
X56385Y55161D02*
D03*
X56405Y60741D02*
D03*
X53492Y60731D02*
D03*
X26733Y54975D02*
D03*
X21107D02*
D03*
X22689Y57345D02*
D03*
X47579Y55940D02*
D03*
X50784Y59959D02*
D03*
X52405Y59941D02*
D03*
X49979Y60741D02*
D03*
X49237Y60751D02*
D03*
X45979Y62367D02*
D03*
X50005Y62341D02*
D03*
X45979Y63167D02*
D03*
X51597Y62367D02*
D03*
X50805Y62341D02*
D03*
X45979Y63967D02*
D03*
X34066Y64541D02*
D03*
Y67289D02*
D03*
Y65524D02*
D03*
Y66372D02*
D03*
X49235Y62349D02*
D03*
X53205Y62316D02*
D03*
X50779Y60741D02*
D03*
X52405D02*
D03*
X52423Y59146D02*
D03*
X25905Y57348D02*
D03*
X97495Y27061D02*
D03*
X102687Y23154D02*
D03*
X102026Y28986D02*
D03*
Y28336D02*
D03*
X102036Y23154D02*
D03*
X100736Y28996D02*
D03*
Y27703D02*
D03*
Y27056D02*
D03*
Y26405D02*
D03*
Y29646D02*
D03*
X100086Y28996D02*
D03*
Y27703D02*
D03*
Y27056D02*
D03*
Y26405D02*
D03*
Y29646D02*
D03*
X99435Y28996D02*
D03*
Y27703D02*
D03*
Y27056D02*
D03*
Y26405D02*
D03*
Y30944D02*
D03*
Y29646D02*
D03*
X98145Y28996D02*
D03*
Y27703D02*
D03*
Y27056D02*
D03*
Y26405D02*
D03*
Y23804D02*
D03*
Y30944D02*
D03*
Y29646D02*
D03*
X97495Y28996D02*
D03*
Y27703D02*
D03*
Y26405D02*
D03*
Y23804D02*
D03*
Y30944D02*
D03*
Y29646D02*
D03*
X96194Y28996D02*
D03*
Y27703D02*
D03*
Y27056D02*
D03*
Y25755D02*
D03*
X25933Y46149D02*
D03*
X28605Y48133D02*
D03*
X28529Y50363D02*
D03*
X18669Y32923D02*
D03*
X31112Y27683D02*
D03*
X30911Y31325D02*
D03*
X18669Y33685D02*
D03*
X39151Y45897D02*
D03*
Y44856D02*
D03*
X39133Y46990D02*
D03*
X34015Y46946D02*
D03*
X34008Y48031D02*
D03*
X34003Y45897D02*
D03*
X34008Y44856D02*
D03*
X31112Y28742D02*
D03*
X18265Y31877D02*
D03*
X18188Y34671D02*
D03*
X18422Y30607D02*
D03*
X31112Y32346D02*
D03*
X27414Y25598D02*
D03*
X18321Y29324D02*
D03*
X24874Y25529D02*
D03*
X26144Y25613D02*
D03*
X22852Y38826D02*
D03*
X21582D02*
D03*
X20960Y49761D02*
D03*
X22700Y46967D02*
D03*
X25933Y46946D02*
D03*
X27307Y35976D02*
D03*
X24188Y36065D02*
D03*
X59633Y70989D02*
D03*
X59004Y70967D02*
D03*
X55605Y63167D02*
D03*
X60093Y70660D02*
D03*
X55605Y60741D02*
D03*
X54874Y60751D02*
D03*
X55582Y59936D02*
D03*
X58199Y70076D02*
D03*
X56131Y70736D02*
D03*
X58183Y70807D02*
D03*
X45979Y66367D02*
D03*
X47579Y56741D02*
D03*
X95544Y26405D02*
D03*
X96194D02*
D03*
X102687Y24455D02*
D03*
X28478Y33474D02*
D03*
X28290Y30012D02*
D03*
X28272Y34607D02*
D03*
X102026Y29636D02*
D03*
X97495Y31595D02*
D03*
X100076Y32235D02*
D03*
X22232Y36075D02*
D03*
X19304Y36362D02*
D03*
X23604Y28534D02*
D03*
X26144Y28526D02*
D03*
X24561Y28575D02*
D03*
X26924Y28498D02*
D03*
X45874Y49707D02*
D03*
X55585Y63931D02*
D03*
X55618Y67980D02*
D03*
X55572Y67134D02*
D03*
X21005Y25146D02*
D03*
X96194Y32895D02*
D03*
X53213Y69039D02*
D03*
X46779Y67167D02*
D03*
X46763Y63982D02*
D03*
X53281Y69796D02*
D03*
X53246Y70586D02*
D03*
X54864Y64706D02*
D03*
X46779Y62367D02*
D03*
Y63167D02*
D03*
X47579Y63207D02*
D03*
X56398Y59959D02*
D03*
X31112Y34607D02*
D03*
X31165Y35902D02*
D03*
X100736Y31595D02*
D03*
X45979Y67167D02*
D03*
X59776Y68605D02*
D03*
X27533Y57373D02*
D03*
X23652Y54561D02*
D03*
X27533Y46946D02*
D03*
X30911Y33474D02*
D03*
X20952Y32763D02*
D03*
X31112Y30012D02*
D03*
X28192Y27696D02*
D03*
X28191Y28742D02*
D03*
X21206Y31493D02*
D03*
X102676Y29636D02*
D03*
Y28336D02*
D03*
Y28986D02*
D03*
X98145Y31595D02*
D03*
X99435D02*
D03*
X100086Y30944D02*
D03*
Y31595D02*
D03*
X95544Y27703D02*
D03*
Y28996D02*
D03*
X103337Y23154D02*
D03*
X103987D02*
D03*
X98145Y24455D02*
D03*
X100736Y25105D02*
D03*
X95544Y23154D02*
D03*
Y25755D02*
D03*
Y27056D02*
D03*
X97495Y24455D02*
D03*
X21333Y35001D02*
D03*
X20952Y33906D02*
D03*
X28478Y30861D02*
D03*
X47477Y49786D02*
D03*
X46710Y49761D02*
D03*
X45110Y49720D02*
D03*
X56398Y62362D02*
D03*
X58293Y54737D02*
D03*
X57185Y59949D02*
D03*
X54767Y57541D02*
D03*
X55605Y59141D02*
D03*
X54805Y58341D02*
D03*
X48801Y61117D02*
D03*
X56337Y57582D02*
D03*
X57160Y59123D02*
D03*
X56405Y59141D02*
D03*
X55605Y57541D02*
D03*
X54005Y58366D02*
D03*
X54023Y57584D02*
D03*
X53997Y56771D02*
D03*
X53188Y55950D02*
D03*
X55601Y55931D02*
D03*
X48549Y62372D02*
D03*
X47576Y60784D02*
D03*
X46822Y59959D02*
D03*
X46746Y60774D02*
D03*
X47569Y59931D02*
D03*
X44726Y52171D02*
D03*
X49979Y59941D02*
D03*
X48821Y60126D02*
D03*
X49987Y55118D02*
D03*
X49179Y56741D02*
D03*
X58671Y57523D02*
D03*
X49667Y59001D02*
D03*
X50673Y58979D02*
D03*
X49984Y57546D02*
D03*
X50698Y55169D02*
D03*
X49979Y56741D02*
D03*
X49936Y55956D02*
D03*
X49179Y55940D02*
D03*
X48379D02*
D03*
X44378Y60741D02*
D03*
X46022Y59921D02*
D03*
X46799Y55961D02*
D03*
X46837Y58369D02*
D03*
X46746Y56761D02*
D03*
X48379Y55140D02*
D03*
X45179Y56741D02*
D03*
X49207Y52092D02*
D03*
X54030Y55915D02*
D03*
X53200Y56748D02*
D03*
X52349Y57599D02*
D03*
X50794Y57551D02*
D03*
X52476Y55169D02*
D03*
X52426Y55974D02*
D03*
X43731Y56372D02*
D03*
X45938Y51943D02*
D03*
X44206Y54754D02*
D03*
X44399Y53670D02*
D03*
X47579Y55140D02*
D03*
X45946Y58320D02*
D03*
X47574Y58374D02*
D03*
X47579Y57541D02*
D03*
X49179D02*
D03*
X46786Y57523D02*
D03*
X45979Y56741D02*
D03*
X46746Y59174D02*
D03*
X45979Y59141D02*
D03*
X45179Y60741D02*
D03*
Y59166D02*
D03*
Y59966D02*
D03*
X56398Y64762D02*
D03*
X56385Y63931D02*
D03*
X56423Y63187D02*
D03*
X57185Y63931D02*
D03*
X57210Y64770D02*
D03*
X48379Y64759D02*
D03*
X47579Y65567D02*
D03*
X46779D02*
D03*
Y64767D02*
D03*
X55877Y69085D02*
D03*
X55496Y70736D02*
D03*
X55369Y69085D02*
D03*
X55496Y69974D02*
D03*
X55626Y66396D02*
D03*
X55570Y64729D02*
D03*
X55616Y65572D02*
D03*
X53942Y62303D02*
D03*
X54025Y63985D02*
D03*
X52379Y63954D02*
D03*
X56410Y65534D02*
D03*
X53205Y66367D02*
D03*
X54805D02*
D03*
X54077Y64735D02*
D03*
X54767Y63980D02*
D03*
X45161Y58268D02*
D03*
X45204Y57541D02*
D03*
X50749Y55905D02*
D03*
X55651Y53980D02*
D03*
X52959Y53111D02*
D03*
X52908Y53772D02*
D03*
X54833Y55994D02*
D03*
X53924Y55143D02*
D03*
X36170Y58544D02*
D03*
X47597Y64747D02*
D03*
X48539Y68041D02*
D03*
X48389Y65557D02*
D03*
X50779Y63967D02*
D03*
X49225Y63855D02*
D03*
X49979Y63962D02*
D03*
X50779Y64767D02*
D03*
Y65567D02*
D03*
X49979Y64764D02*
D03*
Y65567D02*
D03*
X50779Y66367D02*
D03*
X49979D02*
D03*
X49159Y66388D02*
D03*
X48437Y67147D02*
D03*
X47579Y67167D02*
D03*
X52321Y69771D02*
D03*
X45018Y68140D02*
D03*
X46779Y67967D02*
D03*
X45979Y55940D02*
D03*
X49505Y53569D02*
D03*
X47092Y52832D02*
D03*
X45923Y55194D02*
D03*
X59284Y60554D02*
D03*
X55605Y62367D02*
D03*
X57223Y63187D02*
D03*
X58219Y64889D02*
D03*
X59080Y65684D02*
D03*
X59070Y66352D02*
D03*
X36248Y44856D02*
D03*
D132*
X24546Y33436D02*
D03*
X23725Y31257D02*
D03*
X26543Y33256D02*
D03*
X25224Y32755D02*
D03*
X25722Y31935D02*
D03*
X26042Y32755D02*
D03*
X45785Y33815D02*
D03*
X43286Y29817D02*
D03*
X23223Y32755D02*
D03*
X46286Y31315D02*
D03*
X24224Y31935D02*
D03*
X25044Y33756D02*
D03*
X23723Y32755D02*
D03*
X26543D02*
D03*
X25173Y30233D02*
D03*
X25684Y30243D02*
D03*
X45285Y29316D02*
D03*
X44287D02*
D03*
X44787Y29814D02*
D03*
Y31816D02*
D03*
X46967Y32316D02*
D03*
X44787Y32814D02*
D03*
X44287Y34815D02*
D03*
X45285Y36136D02*
D03*
X24544Y31437D02*
D03*
X44787Y32316D02*
D03*
Y30314D02*
D03*
X45285Y30634D02*
D03*
X44787Y31315D02*
D03*
X45285Y35316D02*
D03*
X44787D02*
D03*
X44287Y35636D02*
D03*
X43467D02*
D03*
X42966D02*
D03*
X26543Y33756D02*
D03*
X25044Y31935D02*
D03*
X26042Y33256D02*
D03*
Y30937D02*
D03*
X27551Y30187D02*
D03*
X42966Y34815D02*
D03*
X23723Y33756D02*
D03*
X23223D02*
D03*
X23723Y31935D02*
D03*
X24224Y30937D02*
D03*
Y32755D02*
D03*
X25722Y33756D02*
D03*
X45285Y34815D02*
D03*
Y33815D02*
D03*
X44787Y33314D02*
D03*
X46786Y31315D02*
D03*
X44787Y29316D02*
D03*
X47287Y31816D02*
D03*
X43467Y29316D02*
D03*
X44287Y29814D02*
D03*
Y30314D02*
D03*
X26543Y30937D02*
D03*
Y31833D02*
D03*
X23223Y31935D02*
D03*
X25721Y31434D02*
D03*
X27043Y33756D02*
D03*
D133*
X59309Y63170D02*
D03*
D134*
X5513Y28905D02*
D03*
Y27635D02*
D03*
Y26365D02*
D03*
Y25095D02*
D03*
Y23825D02*
D03*
X4243D02*
D03*
Y25095D02*
D03*
Y26365D02*
D03*
Y27635D02*
D03*
Y28905D02*
D03*
D135*
X18628Y84358D02*
D03*
X19878D02*
D03*
X37170Y84068D02*
D03*
X38420D02*
D03*
D136*
X77400Y44000D02*
D03*
X78200D02*
D03*
X79000D02*
D03*
X79800D02*
D03*
X80600D02*
D03*
X73400D02*
D03*
X74200D02*
D03*
X75000D02*
D03*
X75800D02*
D03*
X76600D02*
D03*
X69400D02*
D03*
X70200D02*
D03*
X71000D02*
D03*
X71800D02*
D03*
X72600D02*
D03*
X65400D02*
D03*
X66200D02*
D03*
X67000D02*
D03*
X67800D02*
D03*
X68600D02*
D03*
X61400D02*
D03*
X62200D02*
D03*
X63000D02*
D03*
X63800D02*
D03*
X64600D02*
D03*
X57400D02*
D03*
X58200D02*
D03*
X59000D02*
D03*
X59800D02*
D03*
X60600D02*
D03*
X53400D02*
D03*
X54200D02*
D03*
X55000D02*
D03*
X55800D02*
D03*
X56600D02*
D03*
X52600D02*
D03*
X51800D02*
D03*
X51000D02*
D03*
X50200D02*
D03*
X49400D02*
D03*
D137*
X26299Y3146D02*
D03*
Y5596D02*
D03*
D138*
X28024Y4371D02*
D03*
X24574D02*
D03*
D139*
X26974Y3921D02*
D03*
Y4821D02*
D03*
X25624Y3921D02*
D03*
Y4821D02*
D03*
D140*
X31769Y84779D02*
D03*
Y80279D02*
D03*
X22269Y84779D02*
D03*
Y80279D02*
D03*
X41065D02*
D03*
Y84779D02*
D03*
X50565Y80279D02*
D03*
Y84779D02*
D03*
M02*
