G04 Layer_Color=16711935*
%FSLAX43Y43*%
%MOMM*%
G71*
G01*
G75*
%ADD61C,0.400*%
%ADD88C,0.127*%
%ADD98C,0.102*%
%ADD116C,1.700*%
%ADD117R,1.700X1.700*%
%ADD120C,1.600*%
%ADD126C,1.000*%
%ADD158R,0.800X0.610*%
%ADD159R,0.610X0.660*%
%ADD160R,0.610X0.800*%
%ADD161R,0.740X0.990*%
%ADD173R,0.740X1.100*%
%ADD180R,1.100X1.100*%
%ADD201R,0.900X0.900*%
%ADD232O,1.300X2.000*%
%ADD233C,0.100*%
%ADD234C,1.950*%
%ADD235R,1.950X1.950*%
%ADD236C,7.100*%
%ADD237C,1.800*%
%ADD238R,1.800X1.800*%
%ADD239R,1.950X1.950*%
%ADD240C,0.700*%
%ADD241O,1.150X1.350*%
%ADD242O,1.050X2.625*%
G04:AMPARAMS|DCode=243|XSize=2mm|YSize=1.475mm|CornerRadius=0.394mm|HoleSize=0mm|Usage=FLASHONLY|Rotation=90.000|XOffset=0mm|YOffset=0mm|HoleType=Round|Shape=RoundedRectangle|*
%AMROUNDEDRECTD243*
21,1,2.000,0.688,0,0,90.0*
21,1,1.212,1.475,0,0,90.0*
1,1,0.787,0.344,0.606*
1,1,0.787,0.344,-0.606*
1,1,0.787,-0.344,-0.606*
1,1,0.787,-0.344,0.606*
%
%ADD243ROUNDEDRECTD243*%
%ADD244O,1.400X2.900*%
%ADD245C,1.100*%
%ADD246R,0.650X0.900*%
%ADD247R,0.600X2.100*%
%ADD248R,2.400X0.450*%
%ADD249R,0.450X1.400*%
%ADD250R,1.050X0.500*%
%ADD251R,2.260X1.620*%
G36*
X30794Y2805D02*
X28894D01*
Y3905D01*
X30794D01*
Y2805D01*
D02*
G37*
G36*
X22729Y5170D02*
X21628D01*
Y7070D01*
X22729D01*
Y5170D01*
D02*
G37*
G36*
X30770Y6232D02*
X28870D01*
Y7332D01*
X30770D01*
Y6232D01*
D02*
G37*
G36*
X26740Y1281D02*
X24840D01*
Y2381D01*
X26740D01*
Y1281D01*
D02*
G37*
G36*
X30794D02*
X28894D01*
Y2381D01*
X30794D01*
Y1281D01*
D02*
G37*
G36*
X22729Y2027D02*
X21628D01*
Y3927D01*
X22729D01*
Y2027D01*
D02*
G37*
G36*
X42450Y64363D02*
X41900Y64913D01*
Y64913D01*
X41350Y64363D01*
Y65713D01*
X42450D01*
Y64363D01*
D02*
G37*
G36*
X28992Y70561D02*
X27892D01*
Y71911D01*
X28442Y71361D01*
Y71361D01*
X28992Y71911D01*
Y70561D01*
D02*
G37*
G36*
Y72011D02*
X28442Y71461D01*
X27892Y72011D01*
Y72711D01*
X28992D01*
Y72011D01*
D02*
G37*
G36*
X40078Y41250D02*
X39528Y40700D01*
X38828D01*
Y41800D01*
X39528D01*
X40078Y41250D01*
D02*
G37*
G36*
X40978Y40700D02*
X39628D01*
X40178Y41250D01*
X40178D01*
X39628Y41800D01*
X40978D01*
Y40700D01*
D02*
G37*
G36*
X42450Y64263D02*
Y63563D01*
X41350D01*
Y64263D01*
X41900Y64813D01*
X42450Y64263D01*
D02*
G37*
D61*
X43739Y64536D02*
D03*
D88*
X0Y5080D02*
G03*
X5080Y-0I5080J0D01*
G01*
X121920D02*
G03*
X127000Y5080I0J5080D01*
G01*
X127000Y82920D02*
G03*
X121920Y88000I-5080J0D01*
G01*
X5080Y88000D02*
G03*
X0Y82920I-0J-5080D01*
G01*
X109060Y80620D02*
G03*
X108192Y81610I-929J61D01*
G01*
X108161Y79781D02*
G03*
X109060Y80620I30J869D01*
G01*
X94186Y81611D02*
G03*
X93287Y80772I-30J-869D01*
G01*
Y80772D02*
G03*
X94155Y79781I929J-61D01*
G01*
X15900Y-0D02*
X121920D01*
X5080D02*
X15900D01*
X127000Y5080D02*
Y82920D01*
X108192Y88000D02*
X121920D01*
X94155Y79781D02*
X108160D01*
X94186Y81611D02*
Y88000D01*
X108192Y81610D02*
Y88005D01*
X5080Y88000D02*
X94186D01*
X0Y5080D02*
Y82920D01*
D98*
X45804Y-27345D02*
X45658Y-27200D01*
X45441Y-27128D01*
X45151D01*
X44933Y-27200D01*
X44788Y-27345D01*
Y-27490D01*
X44860Y-27635D01*
X44933Y-27708D01*
X45078Y-27781D01*
X45513Y-27926D01*
X45658Y-27998D01*
X45731Y-28071D01*
X45804Y-28216D01*
Y-28434D01*
X45658Y-28579D01*
X45441Y-28651D01*
X45151D01*
X44933Y-28579D01*
X44788Y-28434D01*
X46580Y-27128D02*
X46435Y-27200D01*
X46290Y-27345D01*
X46217Y-27490D01*
X46145Y-27708D01*
Y-28071D01*
X46217Y-28288D01*
X46290Y-28434D01*
X46435Y-28579D01*
X46580Y-28651D01*
X46870D01*
X47015Y-28579D01*
X47160Y-28434D01*
X47233Y-28288D01*
X47305Y-28071D01*
Y-27708D01*
X47233Y-27490D01*
X47160Y-27345D01*
X47015Y-27200D01*
X46870Y-27128D01*
X46580D01*
X47661D02*
Y-28651D01*
X48532D01*
X48699Y-27128D02*
Y-28651D01*
Y-27128D02*
X49206D01*
X49424Y-27200D01*
X49569Y-27345D01*
X49642Y-27490D01*
X49714Y-27708D01*
Y-28071D01*
X49642Y-28288D01*
X49569Y-28434D01*
X49424Y-28579D01*
X49206Y-28651D01*
X48699D01*
X50999Y-27128D02*
X50055D01*
Y-28651D01*
X50999D01*
X50055Y-27853D02*
X50636D01*
X51253Y-27128D02*
Y-28651D01*
Y-27128D02*
X51906D01*
X52123Y-27200D01*
X52196Y-27273D01*
X52268Y-27418D01*
Y-27563D01*
X52196Y-27708D01*
X52123Y-27781D01*
X51906Y-27853D01*
X51253D01*
X51760D02*
X52268Y-28651D01*
X53806Y-27128D02*
Y-28651D01*
Y-27128D02*
X54387Y-28651D01*
X54967Y-27128D02*
X54387Y-28651D01*
X54967Y-27128D02*
Y-28651D01*
X56564D02*
X55983Y-27128D01*
X55403Y-28651D01*
X55620Y-28143D02*
X56346D01*
X57935Y-27345D02*
X57790Y-27200D01*
X57572Y-27128D01*
X57282D01*
X57064Y-27200D01*
X56919Y-27345D01*
Y-27490D01*
X56992Y-27635D01*
X57064Y-27708D01*
X57209Y-27781D01*
X57645Y-27926D01*
X57790Y-27998D01*
X57862Y-28071D01*
X57935Y-28216D01*
Y-28434D01*
X57790Y-28579D01*
X57572Y-28651D01*
X57282D01*
X57064Y-28579D01*
X56919Y-28434D01*
X58276Y-27128D02*
Y-28651D01*
X59292Y-27128D02*
X58276Y-28143D01*
X58639Y-27781D02*
X59292Y-28651D01*
X61338Y-26837D02*
X61193Y-26982D01*
X61048Y-27200D01*
X60902Y-27490D01*
X60830Y-27853D01*
Y-28143D01*
X60902Y-28506D01*
X61048Y-28796D01*
X61193Y-29014D01*
X61338Y-29159D01*
X61193Y-26982D02*
X61048Y-27273D01*
X60975Y-27490D01*
X60902Y-27853D01*
Y-28143D01*
X60975Y-28506D01*
X61048Y-28724D01*
X61193Y-29014D01*
X62644Y-27345D02*
X62499Y-27200D01*
X62281Y-27128D01*
X61991D01*
X61773Y-27200D01*
X61628Y-27345D01*
Y-27490D01*
X61701Y-27635D01*
X61773Y-27708D01*
X61918Y-27781D01*
X62354Y-27926D01*
X62499Y-27998D01*
X62571Y-28071D01*
X62644Y-28216D01*
Y-28434D01*
X62499Y-28579D01*
X62281Y-28651D01*
X61991D01*
X61773Y-28579D01*
X61628Y-28434D01*
X63928Y-27128D02*
X62985D01*
Y-28651D01*
X63928D01*
X62985Y-27853D02*
X63565D01*
X65270Y-27490D02*
X65198Y-27345D01*
X65053Y-27200D01*
X64908Y-27128D01*
X64617D01*
X64472Y-27200D01*
X64327Y-27345D01*
X64255Y-27490D01*
X64182Y-27708D01*
Y-28071D01*
X64255Y-28288D01*
X64327Y-28434D01*
X64472Y-28579D01*
X64617Y-28651D01*
X64908D01*
X65053Y-28579D01*
X65198Y-28434D01*
X65270Y-28288D01*
X66134Y-27128D02*
X65989Y-27200D01*
X65844Y-27345D01*
X65771Y-27490D01*
X65698Y-27708D01*
Y-28071D01*
X65771Y-28288D01*
X65844Y-28434D01*
X65989Y-28579D01*
X66134Y-28651D01*
X66424D01*
X66569Y-28579D01*
X66714Y-28434D01*
X66787Y-28288D01*
X66859Y-28071D01*
Y-27708D01*
X66787Y-27490D01*
X66714Y-27345D01*
X66569Y-27200D01*
X66424Y-27128D01*
X66134D01*
X67215D02*
Y-28651D01*
Y-27128D02*
X68231Y-28651D01*
Y-27128D02*
Y-28651D01*
X68651Y-27128D02*
Y-28651D01*
Y-27128D02*
X69159D01*
X69377Y-27200D01*
X69522Y-27345D01*
X69595Y-27490D01*
X69667Y-27708D01*
Y-28071D01*
X69595Y-28288D01*
X69522Y-28434D01*
X69377Y-28579D01*
X69159Y-28651D01*
X68651D01*
X71169D02*
X70589Y-27128D01*
X70008Y-28651D01*
X70226Y-28143D02*
X70951D01*
X71525Y-27128D02*
Y-28651D01*
Y-27128D02*
X72178D01*
X72395Y-27200D01*
X72468Y-27273D01*
X72540Y-27418D01*
Y-27563D01*
X72468Y-27708D01*
X72395Y-27781D01*
X72178Y-27853D01*
X71525D01*
X72033D02*
X72540Y-28651D01*
X72881Y-27128D02*
X73462Y-27853D01*
Y-28651D01*
X74042Y-27128D02*
X73462Y-27853D01*
X74238Y-26837D02*
X74383Y-26982D01*
X74528Y-27200D01*
X74674Y-27490D01*
X74746Y-27853D01*
Y-28143D01*
X74674Y-28506D01*
X74528Y-28796D01*
X74383Y-29014D01*
X74238Y-29159D01*
X74383Y-26982D02*
X74528Y-27273D01*
X74601Y-27490D01*
X74674Y-27853D01*
Y-28143D01*
X74601Y-28506D01*
X74528Y-28724D01*
X74383Y-29014D01*
X45804Y-27345D02*
X45658Y-27200D01*
X45441Y-27128D01*
X45151D01*
X44933Y-27200D01*
X44788Y-27345D01*
Y-27490D01*
X44860Y-27635D01*
X44933Y-27708D01*
X45078Y-27781D01*
X45513Y-27926D01*
X45658Y-27998D01*
X45731Y-28071D01*
X45804Y-28216D01*
Y-28434D01*
X45658Y-28579D01*
X45441Y-28651D01*
X45151D01*
X44933Y-28579D01*
X44788Y-28434D01*
X46580Y-27128D02*
X46435Y-27200D01*
X46290Y-27345D01*
X46217Y-27490D01*
X46145Y-27708D01*
Y-28071D01*
X46217Y-28288D01*
X46290Y-28434D01*
X46435Y-28579D01*
X46580Y-28651D01*
X46870D01*
X47015Y-28579D01*
X47160Y-28434D01*
X47233Y-28288D01*
X47305Y-28071D01*
Y-27708D01*
X47233Y-27490D01*
X47160Y-27345D01*
X47015Y-27200D01*
X46870Y-27128D01*
X46580D01*
X47661D02*
Y-28651D01*
X48532D01*
X48699Y-27128D02*
Y-28651D01*
Y-27128D02*
X49206D01*
X49424Y-27200D01*
X49569Y-27345D01*
X49642Y-27490D01*
X49714Y-27708D01*
Y-28071D01*
X49642Y-28288D01*
X49569Y-28434D01*
X49424Y-28579D01*
X49206Y-28651D01*
X48699D01*
X50999Y-27128D02*
X50055D01*
Y-28651D01*
X50999D01*
X50055Y-27853D02*
X50636D01*
X51253Y-27128D02*
Y-28651D01*
Y-27128D02*
X51906D01*
X52123Y-27200D01*
X52196Y-27273D01*
X52268Y-27418D01*
Y-27563D01*
X52196Y-27708D01*
X52123Y-27781D01*
X51906Y-27853D01*
X51253D01*
X51760D02*
X52268Y-28651D01*
X53806Y-27128D02*
Y-28651D01*
Y-27128D02*
X54387Y-28651D01*
X54967Y-27128D02*
X54387Y-28651D01*
X54967Y-27128D02*
Y-28651D01*
X56564D02*
X55983Y-27128D01*
X55403Y-28651D01*
X55620Y-28143D02*
X56346D01*
X57935Y-27345D02*
X57790Y-27200D01*
X57572Y-27128D01*
X57282D01*
X57064Y-27200D01*
X56919Y-27345D01*
Y-27490D01*
X56992Y-27635D01*
X57064Y-27708D01*
X57209Y-27781D01*
X57645Y-27926D01*
X57790Y-27998D01*
X57862Y-28071D01*
X57935Y-28216D01*
Y-28434D01*
X57790Y-28579D01*
X57572Y-28651D01*
X57282D01*
X57064Y-28579D01*
X56919Y-28434D01*
X58276Y-27128D02*
Y-28651D01*
X59292Y-27128D02*
X58276Y-28143D01*
X58639Y-27781D02*
X59292Y-28651D01*
X61338Y-26837D02*
X61193Y-26982D01*
X61048Y-27200D01*
X60902Y-27490D01*
X60830Y-27853D01*
Y-28143D01*
X60902Y-28506D01*
X61048Y-28796D01*
X61193Y-29014D01*
X61338Y-29159D01*
X61193Y-26982D02*
X61048Y-27273D01*
X60975Y-27490D01*
X60902Y-27853D01*
Y-28143D01*
X60975Y-28506D01*
X61048Y-28724D01*
X61193Y-29014D01*
X62644Y-27345D02*
X62499Y-27200D01*
X62281Y-27128D01*
X61991D01*
X61773Y-27200D01*
X61628Y-27345D01*
Y-27490D01*
X61701Y-27635D01*
X61773Y-27708D01*
X61918Y-27781D01*
X62354Y-27926D01*
X62499Y-27998D01*
X62571Y-28071D01*
X62644Y-28216D01*
Y-28434D01*
X62499Y-28579D01*
X62281Y-28651D01*
X61991D01*
X61773Y-28579D01*
X61628Y-28434D01*
X63928Y-27128D02*
X62985D01*
Y-28651D01*
X63928D01*
X62985Y-27853D02*
X63565D01*
X65270Y-27490D02*
X65198Y-27345D01*
X65053Y-27200D01*
X64908Y-27128D01*
X64617D01*
X64472Y-27200D01*
X64327Y-27345D01*
X64255Y-27490D01*
X64182Y-27708D01*
Y-28071D01*
X64255Y-28288D01*
X64327Y-28434D01*
X64472Y-28579D01*
X64617Y-28651D01*
X64908D01*
X65053Y-28579D01*
X65198Y-28434D01*
X65270Y-28288D01*
X66134Y-27128D02*
X65989Y-27200D01*
X65844Y-27345D01*
X65771Y-27490D01*
X65698Y-27708D01*
Y-28071D01*
X65771Y-28288D01*
X65844Y-28434D01*
X65989Y-28579D01*
X66134Y-28651D01*
X66424D01*
X66569Y-28579D01*
X66714Y-28434D01*
X66787Y-28288D01*
X66859Y-28071D01*
Y-27708D01*
X66787Y-27490D01*
X66714Y-27345D01*
X66569Y-27200D01*
X66424Y-27128D01*
X66134D01*
X67215D02*
Y-28651D01*
Y-27128D02*
X68231Y-28651D01*
Y-27128D02*
Y-28651D01*
X68651Y-27128D02*
Y-28651D01*
Y-27128D02*
X69159D01*
X69377Y-27200D01*
X69522Y-27345D01*
X69595Y-27490D01*
X69667Y-27708D01*
Y-28071D01*
X69595Y-28288D01*
X69522Y-28434D01*
X69377Y-28579D01*
X69159Y-28651D01*
X68651D01*
X71169D02*
X70589Y-27128D01*
X70008Y-28651D01*
X70226Y-28143D02*
X70951D01*
X71525Y-27128D02*
Y-28651D01*
Y-27128D02*
X72178D01*
X72395Y-27200D01*
X72468Y-27273D01*
X72540Y-27418D01*
Y-27563D01*
X72468Y-27708D01*
X72395Y-27781D01*
X72178Y-27853D01*
X71525D01*
X72033D02*
X72540Y-28651D01*
X72881Y-27128D02*
X73462Y-27853D01*
Y-28651D01*
X74042Y-27128D02*
X73462Y-27853D01*
X74238Y-26837D02*
X74383Y-26982D01*
X74528Y-27200D01*
X74674Y-27490D01*
X74746Y-27853D01*
Y-28143D01*
X74674Y-28506D01*
X74528Y-28796D01*
X74383Y-29014D01*
X74238Y-29159D01*
X74383Y-26982D02*
X74528Y-27273D01*
X74601Y-27490D01*
X74674Y-27853D01*
Y-28143D01*
X74601Y-28506D01*
X74528Y-28724D01*
X74383Y-29014D01*
D116*
X44450Y5080D02*
D03*
X54610D02*
D03*
D117*
X44450Y2540D02*
D03*
X54610D02*
D03*
D120*
X108788Y5131D02*
D03*
X113788D02*
D03*
X96282Y5170D02*
D03*
X101282D02*
D03*
D126*
X5513Y28905D02*
D03*
Y27635D02*
D03*
Y26365D02*
D03*
Y25095D02*
D03*
Y23825D02*
D03*
X4243D02*
D03*
Y25095D02*
D03*
Y26365D02*
D03*
Y27635D02*
D03*
Y28905D02*
D03*
D158*
X5370Y34003D02*
D03*
Y33103D02*
D03*
X4264Y34003D02*
D03*
Y33103D02*
D03*
X3158Y34003D02*
D03*
Y33103D02*
D03*
X2053Y34003D02*
D03*
Y33103D02*
D03*
X2815Y40709D02*
D03*
Y39809D02*
D03*
X7582Y34003D02*
D03*
Y33103D02*
D03*
X6476Y34003D02*
D03*
Y33103D02*
D03*
X46859Y78403D02*
D03*
Y77503D02*
D03*
X48514Y78403D02*
D03*
Y77503D02*
D03*
D159*
X18820Y81043D02*
D03*
X19720D02*
D03*
X37494Y82649D02*
D03*
X38394D02*
D03*
X24699Y6822D02*
D03*
X23799D02*
D03*
X44533Y62982D02*
D03*
X45433D02*
D03*
D160*
X120677Y50690D02*
D03*
X121577D02*
D03*
X18820Y79773D02*
D03*
X19720D02*
D03*
X19703Y82067D02*
D03*
X18803D02*
D03*
Y83134D02*
D03*
X19703D02*
D03*
X26926Y6766D02*
D03*
X26026D02*
D03*
D161*
X44615Y64838D02*
D03*
X46015D02*
D03*
D173*
X121908Y46532D02*
D03*
X120508D02*
D03*
X120488Y48404D02*
D03*
X121888D02*
D03*
D180*
X97616Y77411D02*
D03*
D201*
X123506Y46482D02*
D03*
X125006D02*
D03*
X125184Y48425D02*
D03*
X123684D02*
D03*
Y50695D02*
D03*
X125184D02*
D03*
D232*
X107788Y2431D02*
D03*
X114788D02*
D03*
X95282Y2470D02*
D03*
X102282D02*
D03*
D233*
X4878Y30175D02*
D03*
X3863Y22555D02*
D03*
X5893D02*
D03*
X4847Y36084D02*
D03*
Y46974D02*
D03*
Y38354D02*
D03*
Y44704D02*
D03*
X82600Y44000D02*
D03*
X47400D02*
D03*
D234*
X120650Y22860D02*
D03*
X40640Y2540D02*
D03*
X50800D02*
D03*
X6350Y17780D02*
D03*
Y12700D02*
D03*
X12827Y83642D02*
D03*
X123215Y28785D02*
D03*
Y31325D02*
D03*
Y33865D02*
D03*
X10236Y50276D02*
D03*
X86360Y5080D02*
D03*
X83820D02*
D03*
X81280D02*
D03*
X83820Y2540D02*
D03*
X86360D02*
D03*
X88900D02*
D03*
X81280D02*
D03*
X78740D02*
D03*
X76200D02*
D03*
Y5080D02*
D03*
X78740D02*
D03*
D235*
X123190Y22860D02*
D03*
X3810Y17780D02*
D03*
Y12700D02*
D03*
X7696Y50276D02*
D03*
X88900Y5080D02*
D03*
D236*
X5080D02*
D03*
X121920D02*
D03*
Y82918D02*
D03*
X5080D02*
D03*
D237*
X7618Y54878D02*
D03*
X9618Y56878D02*
D03*
X7618D02*
D03*
Y58878D02*
D03*
Y60878D02*
D03*
Y62878D02*
D03*
Y64878D02*
D03*
Y66878D02*
D03*
Y68878D02*
D03*
Y70878D02*
D03*
Y72878D02*
D03*
X9618Y58878D02*
D03*
Y60878D02*
D03*
Y62878D02*
D03*
Y64878D02*
D03*
Y66878D02*
D03*
Y68878D02*
D03*
Y70878D02*
D03*
Y72878D02*
D03*
D238*
Y54878D02*
D03*
D239*
X40640Y5080D02*
D03*
X50800D02*
D03*
X12827Y81102D02*
D03*
X123215Y36405D02*
D03*
D240*
X18694Y5001D02*
D03*
Y12001D02*
D03*
X33020Y5001D02*
D03*
Y12001D02*
D03*
D241*
X65366Y5336D02*
D03*
X69816D02*
D03*
D242*
X69966Y1686D02*
D03*
X65216D02*
D03*
D243*
X71579Y2336D02*
D03*
X63604D02*
D03*
D244*
X109226Y83811D02*
D03*
X93146D02*
D03*
D245*
X108246Y78491D02*
D03*
X105956D02*
D03*
X94126D02*
D03*
X98636Y76311D02*
D03*
X99656Y77411D02*
D03*
X100676Y76311D02*
D03*
X101696Y77411D02*
D03*
X102716Y76311D02*
D03*
X103736Y77411D02*
D03*
X104756Y76311D02*
D03*
X96416Y78491D02*
D03*
D246*
X18628Y84358D02*
D03*
X19878D02*
D03*
X37170Y84068D02*
D03*
X38420D02*
D03*
D247*
X77400Y44000D02*
D03*
X78200D02*
D03*
X79000D02*
D03*
X79800D02*
D03*
X80600D02*
D03*
X73400D02*
D03*
X74200D02*
D03*
X75000D02*
D03*
X75800D02*
D03*
X76600D02*
D03*
X69400D02*
D03*
X70200D02*
D03*
X71000D02*
D03*
X71800D02*
D03*
X72600D02*
D03*
X65400D02*
D03*
X66200D02*
D03*
X67000D02*
D03*
X67800D02*
D03*
X68600D02*
D03*
X61400D02*
D03*
X62200D02*
D03*
X63000D02*
D03*
X63800D02*
D03*
X64600D02*
D03*
X57400D02*
D03*
X58200D02*
D03*
X59000D02*
D03*
X59800D02*
D03*
X60600D02*
D03*
X53400D02*
D03*
X54200D02*
D03*
X55000D02*
D03*
X55800D02*
D03*
X56600D02*
D03*
X52600D02*
D03*
X51800D02*
D03*
X51000D02*
D03*
X50200D02*
D03*
X49400D02*
D03*
D248*
X26299Y3146D02*
D03*
Y5596D02*
D03*
D249*
X28024Y4371D02*
D03*
X24574D02*
D03*
D250*
X26974Y3921D02*
D03*
Y4821D02*
D03*
X25624Y3921D02*
D03*
Y4821D02*
D03*
D251*
X31769Y84779D02*
D03*
Y80279D02*
D03*
X22269Y84779D02*
D03*
Y80279D02*
D03*
X41065D02*
D03*
Y84779D02*
D03*
X50565Y80279D02*
D03*
Y84779D02*
D03*
M02*
