G04 Layer_Color=8388736*
%FSLAX43Y43*%
%MOMM*%
G71*
G01*
G75*
%ADD61C,0.400*%
%ADD80R,1.900X3.600*%
%ADD88C,0.127*%
%ADD98C,0.102*%
%ADD116C,1.700*%
%ADD117R,1.700X1.700*%
%ADD120C,1.600*%
%ADD121C,0.500*%
%ADD155R,3.251X1.372*%
%ADD156R,1.270X1.270*%
%ADD157R,0.660X0.610*%
%ADD158R,0.800X0.610*%
%ADD159R,0.610X0.660*%
%ADD160R,0.610X0.800*%
%ADD161R,0.740X0.990*%
%ADD162R,0.990X0.740*%
%ADD163R,0.350X0.700*%
%ADD164R,0.900X0.650*%
%ADD165R,0.500X1.450*%
%ADD166R,1.600X2.000*%
%ADD167R,0.640X1.160*%
%ADD168R,1.400X0.700*%
%ADD169R,2.130X1.370*%
%ADD170R,2.600X2.250*%
%ADD171R,1.500X2.700*%
%ADD172R,2.700X1.500*%
%ADD173R,0.740X1.100*%
%ADD174R,0.700X1.400*%
%ADD175R,1.100X0.740*%
%ADD176R,0.950X1.400*%
%ADD177R,1.400X2.200*%
%ADD178R,1.900X0.900*%
%ADD179R,1.050X0.900*%
%ADD180R,1.100X1.100*%
%ADD181R,1.500X1.000*%
%ADD182R,2.170X1.300*%
%ADD183R,1.880X1.500*%
%ADD184R,1.400X0.950*%
%ADD185R,1.620X3.150*%
%ADD186R,1.740X1.500*%
%ADD187O,0.850X0.400*%
%ADD188O,0.400X0.850*%
%ADD189R,3.800X3.800*%
%ADD190R,3.600X3.600*%
%ADD191R,0.500X1.750*%
%ADD192R,1.160X0.640*%
%ADD193R,1.100X2.000*%
%ADD194R,1.600X1.750*%
%ADD195R,3.600X1.750*%
%ADD196R,1.500X1.880*%
%ADD197R,1.900X1.100*%
%ADD198C,0.330*%
%ADD199R,1.730X1.320*%
%ADD200R,1.620X0.710*%
%ADD201R,0.900X0.900*%
%ADD202R,0.900X0.900*%
%ADD203R,0.550X1.550*%
%ADD204R,2.200X0.900*%
%ADD205R,0.800X1.850*%
%ADD206R,2.200X1.400*%
%ADD207R,1.300X0.700*%
%ADD208C,0.350*%
%ADD209R,2.600X1.600*%
%ADD210R,2.100X2.600*%
%ADD211R,2.600X2.100*%
%ADD212R,2.890X0.840*%
%ADD213R,0.500X1.450*%
%ADD214R,3.000X2.000*%
%ADD215R,0.500X1.300*%
%ADD216R,2.513X1.116*%
%ADD217R,1.750X1.600*%
%ADD218R,1.750X3.600*%
%ADD219R,1.100X1.500*%
%ADD220R,0.600X0.550*%
%ADD221R,1.800X2.600*%
%ADD222R,0.850X1.480*%
%ADD223R,1.200X2.420*%
%ADD224R,0.700X0.500*%
%ADD225R,0.900X1.050*%
%ADD226R,1.800X3.200*%
%ADD227R,1.200X1.600*%
%ADD228R,1.600X2.000*%
%ADD229R,0.740X1.500*%
%ADD230R,0.600X1.050*%
%ADD231R,2.130X1.920*%
%ADD232O,1.300X2.000*%
%ADD233C,0.100*%
%ADD234C,1.950*%
%ADD235R,1.950X1.950*%
%ADD236C,7.100*%
%ADD237C,1.800*%
%ADD238R,1.800X1.800*%
%ADD239R,1.950X1.950*%
%ADD240C,0.700*%
%ADD241O,1.150X1.350*%
%ADD242O,1.050X2.625*%
G04:AMPARAMS|DCode=243|XSize=2mm|YSize=1.475mm|CornerRadius=0.394mm|HoleSize=0mm|Usage=FLASHONLY|Rotation=90.000|XOffset=0mm|YOffset=0mm|HoleType=Round|Shape=RoundedRectangle|*
%AMROUNDEDRECTD243*
21,1,2.000,0.688,0,0,90.0*
21,1,1.212,1.475,0,0,90.0*
1,1,0.787,0.344,0.606*
1,1,0.787,0.344,-0.606*
1,1,0.787,-0.344,-0.606*
1,1,0.787,-0.344,0.606*
%
%ADD243ROUNDEDRECTD243*%
%ADD244O,1.400X2.900*%
%ADD245C,1.100*%
G36*
X53395Y50325D02*
X52295D01*
Y52225D01*
X53395D01*
Y50325D01*
D02*
G37*
G36*
X54686Y50983D02*
X54136Y51533D01*
Y51533D01*
X53586Y50983D01*
Y52333D01*
X54686D01*
Y50983D01*
D02*
G37*
G36*
X52090Y50305D02*
X50990D01*
Y52205D01*
X52090D01*
Y50305D01*
D02*
G37*
G36*
X96163Y50115D02*
X94263D01*
Y51215D01*
X96163D01*
Y50115D01*
D02*
G37*
G36*
X54686Y50883D02*
Y50183D01*
X53586D01*
Y50883D01*
X54136Y51433D01*
X54686Y50883D01*
D02*
G37*
G36*
X96163Y51454D02*
X94263D01*
Y52554D01*
X96163D01*
Y51454D01*
D02*
G37*
G36*
X119015Y52941D02*
X117915D01*
Y54841D01*
X119015D01*
Y52941D01*
D02*
G37*
G36*
X13802Y53654D02*
X11902D01*
Y54754D01*
X13802D01*
Y53654D01*
D02*
G37*
G36*
X96164Y52787D02*
X94264D01*
Y53887D01*
X96164D01*
Y52787D01*
D02*
G37*
G36*
X13802Y51749D02*
X11902D01*
Y52849D01*
X13802D01*
Y51749D01*
D02*
G37*
G36*
X62487Y52635D02*
X60587D01*
Y53735D01*
X62487D01*
Y52635D01*
D02*
G37*
G36*
X119168Y45653D02*
X118068D01*
Y47553D01*
X119168D01*
Y45653D01*
D02*
G37*
G36*
X102282Y1470D02*
X101032D01*
Y3470D01*
X102282D01*
Y1470D01*
D02*
G37*
G36*
X69078Y11896D02*
X67178D01*
Y12996D01*
X69078D01*
Y11896D01*
D02*
G37*
G36*
X96532Y1470D02*
X95282D01*
Y3470D01*
X96532D01*
Y1470D01*
D02*
G37*
G36*
X109038Y1431D02*
X107788D01*
Y3431D01*
X109038D01*
Y1431D01*
D02*
G37*
G36*
X114788D02*
X113538D01*
Y3431D01*
X114788D01*
Y1431D01*
D02*
G37*
G36*
X69078Y13310D02*
X67178D01*
Y14410D01*
X69078D01*
Y13310D01*
D02*
G37*
G36*
X80608Y26505D02*
X79508D01*
Y28405D01*
X80608D01*
Y26505D01*
D02*
G37*
G36*
X82486D02*
X81386D01*
Y28405D01*
X82486D01*
Y26505D01*
D02*
G37*
G36*
X21555Y26100D02*
X20455D01*
Y28000D01*
X21555D01*
Y26100D01*
D02*
G37*
G36*
X69097Y14743D02*
X67197D01*
Y15843D01*
X69097D01*
Y14743D01*
D02*
G37*
G36*
Y16163D02*
X67197D01*
Y17263D01*
X69097D01*
Y16163D01*
D02*
G37*
G36*
X53610Y71668D02*
X52510D01*
Y73568D01*
X53610D01*
Y71668D01*
D02*
G37*
G36*
X52185Y71691D02*
X51085D01*
Y73591D01*
X52185D01*
Y71691D01*
D02*
G37*
G36*
X31665Y71059D02*
X30565D01*
Y72959D01*
X31665D01*
Y71059D01*
D02*
G37*
G36*
X13778Y64392D02*
X11878D01*
Y65492D01*
X13778D01*
Y64392D01*
D02*
G37*
G36*
X17736Y64522D02*
X15836D01*
Y65622D01*
X17736D01*
Y64522D01*
D02*
G37*
G36*
X58002Y73901D02*
X56902D01*
Y75801D01*
X58002D01*
Y73901D01*
D02*
G37*
G36*
X51502Y77868D02*
X50402D01*
Y79218D01*
X50952Y78668D01*
Y78668D01*
X51502Y79218D01*
Y77868D01*
D02*
G37*
G36*
Y79318D02*
X50952Y78768D01*
X50402Y79318D01*
Y80018D01*
X51502D01*
Y79318D01*
D02*
G37*
G36*
X53522Y78051D02*
X52422D01*
Y79951D01*
X53522D01*
Y78051D01*
D02*
G37*
G36*
X56168Y73911D02*
X55068D01*
Y75811D01*
X56168D01*
Y73911D01*
D02*
G37*
G36*
X17765Y75642D02*
X15865D01*
Y76742D01*
X17765D01*
Y75642D01*
D02*
G37*
G36*
X13778Y62868D02*
X11878D01*
Y63968D01*
X13778D01*
Y62868D01*
D02*
G37*
G36*
Y56772D02*
X11878D01*
Y57872D01*
X13778D01*
Y56772D01*
D02*
G37*
G36*
X105533Y56799D02*
X104433D01*
Y58699D01*
X105533D01*
Y56799D01*
D02*
G37*
G36*
X40346Y55965D02*
X38446D01*
Y57065D01*
X40346D01*
Y55965D01*
D02*
G37*
G36*
X41949Y54903D02*
X40849D01*
Y56803D01*
X41949D01*
Y54903D01*
D02*
G37*
G36*
X13777Y55228D02*
X11877D01*
Y56328D01*
X13777D01*
Y55228D01*
D02*
G37*
G36*
X40344Y57379D02*
X38444D01*
Y58479D01*
X40344D01*
Y57379D01*
D02*
G37*
G36*
X13778Y59820D02*
X11878D01*
Y60920D01*
X13778D01*
Y59820D01*
D02*
G37*
G36*
Y61344D02*
X11878D01*
Y62444D01*
X13778D01*
Y61344D01*
D02*
G37*
G36*
X67608Y59150D02*
X67058Y59700D01*
Y59700D01*
X66508Y59150D01*
Y60500D01*
X67608D01*
Y59150D01*
D02*
G37*
G36*
X13778Y58296D02*
X11878D01*
Y59396D01*
X13778D01*
Y58296D01*
D02*
G37*
G36*
X67608Y59050D02*
Y58350D01*
X66508D01*
Y59050D01*
X67058Y59600D01*
X67608Y59050D01*
D02*
G37*
D61*
X81150Y18412D02*
D03*
X11811Y73197D02*
D03*
X29845Y26009D02*
D03*
X44998Y24198D02*
D03*
X47193Y66756D02*
D03*
X48793D02*
D03*
X50393D02*
D03*
X51993D02*
D03*
X53593D02*
D03*
X54393D02*
D03*
X55193D02*
D03*
X55993D02*
D03*
X56793D02*
D03*
X57593D02*
D03*
X46393Y67556D02*
D03*
X47193D02*
D03*
X47993D02*
D03*
X48793D02*
D03*
X49593D02*
D03*
X50393D02*
D03*
X51193D02*
D03*
X52793D02*
D03*
X53593D02*
D03*
X54393D02*
D03*
X55193D02*
D03*
X55993D02*
D03*
X56793D02*
D03*
X57593D02*
D03*
X51993D02*
D03*
X52793Y66756D02*
D03*
X51193D02*
D03*
X49593D02*
D03*
X47993D02*
D03*
X46393D02*
D03*
X44793D02*
D03*
X45593Y67556D02*
D03*
X44793D02*
D03*
X45593Y66756D02*
D03*
Y65956D02*
D03*
X44793Y65156D02*
D03*
X45593D02*
D03*
Y64356D02*
D03*
X44793Y63556D02*
D03*
X45593D02*
D03*
Y62756D02*
D03*
X44793Y61956D02*
D03*
X45593D02*
D03*
Y61156D02*
D03*
X44793Y60356D02*
D03*
X45593Y59556D02*
D03*
X44793Y58756D02*
D03*
X45593D02*
D03*
X44793Y57956D02*
D03*
X45593D02*
D03*
X44793Y57156D02*
D03*
X45593D02*
D03*
X44793Y56356D02*
D03*
X45593D02*
D03*
X44793Y55556D02*
D03*
X45593D02*
D03*
X44793Y54756D02*
D03*
X45593D02*
D03*
X44793Y59556D02*
D03*
X45593Y60356D02*
D03*
X44793Y61156D02*
D03*
Y62756D02*
D03*
Y64356D02*
D03*
Y65956D02*
D03*
X46393D02*
D03*
X47993D02*
D03*
X49593D02*
D03*
X51193D02*
D03*
X52793D02*
D03*
X46393Y64356D02*
D03*
X51993Y65156D02*
D03*
X52793Y64356D02*
D03*
X46393Y62756D02*
D03*
X52793D02*
D03*
X51993Y61956D02*
D03*
X46393Y61156D02*
D03*
X52793D02*
D03*
X47193Y60356D02*
D03*
X50393D02*
D03*
X51993D02*
D03*
X46393Y59556D02*
D03*
X47993D02*
D03*
X49593D02*
D03*
X51193D02*
D03*
X52793D02*
D03*
X57593Y54756D02*
D03*
X56793D02*
D03*
X55993D02*
D03*
X55193D02*
D03*
X54393D02*
D03*
X53593D02*
D03*
X52793D02*
D03*
X51993D02*
D03*
X51193D02*
D03*
X50393D02*
D03*
X49593D02*
D03*
X48793D02*
D03*
X47993D02*
D03*
X47193D02*
D03*
X46393D02*
D03*
X57593Y55556D02*
D03*
X56793D02*
D03*
X55993D02*
D03*
X55193D02*
D03*
X54393D02*
D03*
X53593D02*
D03*
X52793D02*
D03*
X51993D02*
D03*
X51193D02*
D03*
X50393D02*
D03*
X49593D02*
D03*
X48793D02*
D03*
X47993D02*
D03*
X47193D02*
D03*
X46393D02*
D03*
X57593Y56356D02*
D03*
X56793D02*
D03*
X55993D02*
D03*
X55193D02*
D03*
X54393D02*
D03*
X53593D02*
D03*
X52793D02*
D03*
X51993D02*
D03*
X51193D02*
D03*
X50393D02*
D03*
X49593D02*
D03*
X48793D02*
D03*
X47993D02*
D03*
X47193D02*
D03*
X46393D02*
D03*
X57593Y57156D02*
D03*
X56793D02*
D03*
X55993D02*
D03*
X55193D02*
D03*
X54393D02*
D03*
X53593D02*
D03*
X52793D02*
D03*
X51993D02*
D03*
X51193D02*
D03*
X50393D02*
D03*
X49593D02*
D03*
X48793D02*
D03*
X47993D02*
D03*
X47193D02*
D03*
X46393D02*
D03*
X57593Y57956D02*
D03*
X56793D02*
D03*
X55993D02*
D03*
X55193D02*
D03*
X54393D02*
D03*
X53593D02*
D03*
X52793D02*
D03*
X51993D02*
D03*
X51193D02*
D03*
X50393D02*
D03*
X49593D02*
D03*
X48793D02*
D03*
X47993D02*
D03*
X47193D02*
D03*
X46393D02*
D03*
X57593Y58756D02*
D03*
X56793D02*
D03*
X55993D02*
D03*
X55193D02*
D03*
X54393D02*
D03*
X47993D02*
D03*
X47193D02*
D03*
X46393D02*
D03*
X57593Y59556D02*
D03*
X56793D02*
D03*
X55993D02*
D03*
X55193D02*
D03*
X54393D02*
D03*
X51993D02*
D03*
X50393D02*
D03*
X47193D02*
D03*
X57593Y60356D02*
D03*
X56793D02*
D03*
X55993D02*
D03*
X55193D02*
D03*
X54393D02*
D03*
X52793D02*
D03*
X51193D02*
D03*
X49593D02*
D03*
X47993D02*
D03*
X46393D02*
D03*
X57593Y61156D02*
D03*
X56793D02*
D03*
X55993D02*
D03*
X55193D02*
D03*
X54393D02*
D03*
X51993D02*
D03*
X51193D02*
D03*
X50393D02*
D03*
X49593D02*
D03*
X47993D02*
D03*
X47193D02*
D03*
X57593Y61956D02*
D03*
X56793D02*
D03*
X55993D02*
D03*
X55193D02*
D03*
X54393D02*
D03*
X52793D02*
D03*
X51193D02*
D03*
X50393D02*
D03*
X49593D02*
D03*
X47993D02*
D03*
X47193D02*
D03*
X46393D02*
D03*
X57593Y62756D02*
D03*
X56793D02*
D03*
X55993D02*
D03*
X55193D02*
D03*
X54393D02*
D03*
X51993D02*
D03*
X51193D02*
D03*
X50393D02*
D03*
X49593D02*
D03*
X47993D02*
D03*
X47193D02*
D03*
X57593Y63556D02*
D03*
X56793D02*
D03*
X55993D02*
D03*
X55193D02*
D03*
X54393D02*
D03*
X47993D02*
D03*
X47193D02*
D03*
X46393D02*
D03*
X57593Y64356D02*
D03*
X56793D02*
D03*
X55993D02*
D03*
X55193D02*
D03*
X54393D02*
D03*
X53593D02*
D03*
X51993D02*
D03*
X51193D02*
D03*
X50393D02*
D03*
X49593D02*
D03*
X48793D02*
D03*
X47993D02*
D03*
X47193D02*
D03*
X57593Y65156D02*
D03*
X56793D02*
D03*
X55993D02*
D03*
X55193D02*
D03*
X54393D02*
D03*
X53593D02*
D03*
X52793D02*
D03*
X51193D02*
D03*
X50393D02*
D03*
X49593D02*
D03*
X48793D02*
D03*
X47993D02*
D03*
X47193D02*
D03*
X46393D02*
D03*
X57593Y65956D02*
D03*
X56793D02*
D03*
X55993D02*
D03*
X55193D02*
D03*
X54393D02*
D03*
X53593D02*
D03*
X51993D02*
D03*
X50393D02*
D03*
X48793D02*
D03*
X47193D02*
D03*
X28956Y62601D02*
D03*
D80*
X74975Y36733D02*
D03*
D88*
X0Y5080D02*
G03*
X5080Y-0I5080J0D01*
G01*
X121920D02*
G03*
X127000Y5080I0J5080D01*
G01*
X127000Y82920D02*
G03*
X121920Y88000I-5080J0D01*
G01*
X5080Y88000D02*
G03*
X0Y82920I-0J-5080D01*
G01*
X109060Y80620D02*
G03*
X108192Y81610I-929J61D01*
G01*
X108161Y79781D02*
G03*
X109060Y80620I30J869D01*
G01*
X94186Y81611D02*
G03*
X93287Y80772I-30J-869D01*
G01*
Y80772D02*
G03*
X94155Y79781I929J-61D01*
G01*
X15900Y-0D02*
X121920D01*
X5080D02*
X15900D01*
X127000Y5080D02*
Y82920D01*
X108192Y88000D02*
X121920D01*
X94155Y79781D02*
X108160D01*
X94186Y81611D02*
Y88000D01*
X108192Y81610D02*
Y88005D01*
X5080Y88000D02*
X94186D01*
X0Y5080D02*
Y82920D01*
D98*
X45804Y-27345D02*
X45658Y-27200D01*
X45441Y-27128D01*
X45151D01*
X44933Y-27200D01*
X44788Y-27345D01*
Y-27490D01*
X44860Y-27635D01*
X44933Y-27708D01*
X45078Y-27781D01*
X45513Y-27926D01*
X45658Y-27998D01*
X45731Y-28071D01*
X45804Y-28216D01*
Y-28434D01*
X45658Y-28579D01*
X45441Y-28651D01*
X45151D01*
X44933Y-28579D01*
X44788Y-28434D01*
X46580Y-27128D02*
X46435Y-27200D01*
X46290Y-27345D01*
X46217Y-27490D01*
X46145Y-27708D01*
Y-28071D01*
X46217Y-28288D01*
X46290Y-28434D01*
X46435Y-28579D01*
X46580Y-28651D01*
X46870D01*
X47015Y-28579D01*
X47160Y-28434D01*
X47233Y-28288D01*
X47305Y-28071D01*
Y-27708D01*
X47233Y-27490D01*
X47160Y-27345D01*
X47015Y-27200D01*
X46870Y-27128D01*
X46580D01*
X47661D02*
Y-28651D01*
X48532D01*
X48699Y-27128D02*
Y-28651D01*
Y-27128D02*
X49206D01*
X49424Y-27200D01*
X49569Y-27345D01*
X49642Y-27490D01*
X49714Y-27708D01*
Y-28071D01*
X49642Y-28288D01*
X49569Y-28434D01*
X49424Y-28579D01*
X49206Y-28651D01*
X48699D01*
X50999Y-27128D02*
X50055D01*
Y-28651D01*
X50999D01*
X50055Y-27853D02*
X50636D01*
X51253Y-27128D02*
Y-28651D01*
Y-27128D02*
X51906D01*
X52123Y-27200D01*
X52196Y-27273D01*
X52268Y-27418D01*
Y-27563D01*
X52196Y-27708D01*
X52123Y-27781D01*
X51906Y-27853D01*
X51253D01*
X51760D02*
X52268Y-28651D01*
X53806Y-27128D02*
Y-28651D01*
Y-27128D02*
X54387Y-28651D01*
X54967Y-27128D02*
X54387Y-28651D01*
X54967Y-27128D02*
Y-28651D01*
X56564D02*
X55983Y-27128D01*
X55403Y-28651D01*
X55620Y-28143D02*
X56346D01*
X57935Y-27345D02*
X57790Y-27200D01*
X57572Y-27128D01*
X57282D01*
X57064Y-27200D01*
X56919Y-27345D01*
Y-27490D01*
X56992Y-27635D01*
X57064Y-27708D01*
X57209Y-27781D01*
X57645Y-27926D01*
X57790Y-27998D01*
X57862Y-28071D01*
X57935Y-28216D01*
Y-28434D01*
X57790Y-28579D01*
X57572Y-28651D01*
X57282D01*
X57064Y-28579D01*
X56919Y-28434D01*
X58276Y-27128D02*
Y-28651D01*
X59292Y-27128D02*
X58276Y-28143D01*
X58639Y-27781D02*
X59292Y-28651D01*
X61338Y-26837D02*
X61193Y-26982D01*
X61048Y-27200D01*
X60902Y-27490D01*
X60830Y-27853D01*
Y-28143D01*
X60902Y-28506D01*
X61048Y-28796D01*
X61193Y-29014D01*
X61338Y-29159D01*
X61193Y-26982D02*
X61048Y-27273D01*
X60975Y-27490D01*
X60902Y-27853D01*
Y-28143D01*
X60975Y-28506D01*
X61048Y-28724D01*
X61193Y-29014D01*
X61628Y-27926D02*
X62281D01*
X62499Y-27853D01*
X62571Y-27781D01*
X62644Y-27635D01*
Y-27418D01*
X62571Y-27273D01*
X62499Y-27200D01*
X62281Y-27128D01*
X61628D01*
Y-28651D01*
X62985Y-27128D02*
Y-28651D01*
Y-27128D02*
X63638D01*
X63855Y-27200D01*
X63928Y-27273D01*
X64001Y-27418D01*
Y-27563D01*
X63928Y-27708D01*
X63855Y-27781D01*
X63638Y-27853D01*
X62985D01*
X63493D02*
X64001Y-28651D01*
X64342Y-27128D02*
Y-28651D01*
X64661Y-27128D02*
Y-28651D01*
Y-27128D02*
X65241Y-28651D01*
X65822Y-27128D02*
X65241Y-28651D01*
X65822Y-27128D02*
Y-28651D01*
X67418D02*
X66838Y-27128D01*
X66257Y-28651D01*
X66475Y-28143D02*
X67200D01*
X67773Y-27128D02*
Y-28651D01*
Y-27128D02*
X68426D01*
X68644Y-27200D01*
X68717Y-27273D01*
X68789Y-27418D01*
Y-27563D01*
X68717Y-27708D01*
X68644Y-27781D01*
X68426Y-27853D01*
X67773D01*
X68281D02*
X68789Y-28651D01*
X69130Y-27128D02*
X69711Y-27853D01*
Y-28651D01*
X70291Y-27128D02*
X69711Y-27853D01*
X70487Y-26837D02*
X70632Y-26982D01*
X70777Y-27200D01*
X70922Y-27490D01*
X70995Y-27853D01*
Y-28143D01*
X70922Y-28506D01*
X70777Y-28796D01*
X70632Y-29014D01*
X70487Y-29159D01*
X70632Y-26982D02*
X70777Y-27273D01*
X70850Y-27490D01*
X70922Y-27853D01*
Y-28143D01*
X70850Y-28506D01*
X70777Y-28724D01*
X70632Y-29014D01*
X45804Y-27345D02*
X45658Y-27200D01*
X45441Y-27128D01*
X45151D01*
X44933Y-27200D01*
X44788Y-27345D01*
Y-27490D01*
X44860Y-27635D01*
X44933Y-27708D01*
X45078Y-27781D01*
X45513Y-27926D01*
X45658Y-27998D01*
X45731Y-28071D01*
X45804Y-28216D01*
Y-28434D01*
X45658Y-28579D01*
X45441Y-28651D01*
X45151D01*
X44933Y-28579D01*
X44788Y-28434D01*
X46580Y-27128D02*
X46435Y-27200D01*
X46290Y-27345D01*
X46217Y-27490D01*
X46145Y-27708D01*
Y-28071D01*
X46217Y-28288D01*
X46290Y-28434D01*
X46435Y-28579D01*
X46580Y-28651D01*
X46870D01*
X47015Y-28579D01*
X47160Y-28434D01*
X47233Y-28288D01*
X47305Y-28071D01*
Y-27708D01*
X47233Y-27490D01*
X47160Y-27345D01*
X47015Y-27200D01*
X46870Y-27128D01*
X46580D01*
X47661D02*
Y-28651D01*
X48532D01*
X48699Y-27128D02*
Y-28651D01*
Y-27128D02*
X49206D01*
X49424Y-27200D01*
X49569Y-27345D01*
X49642Y-27490D01*
X49714Y-27708D01*
Y-28071D01*
X49642Y-28288D01*
X49569Y-28434D01*
X49424Y-28579D01*
X49206Y-28651D01*
X48699D01*
X50999Y-27128D02*
X50055D01*
Y-28651D01*
X50999D01*
X50055Y-27853D02*
X50636D01*
X51253Y-27128D02*
Y-28651D01*
Y-27128D02*
X51906D01*
X52123Y-27200D01*
X52196Y-27273D01*
X52268Y-27418D01*
Y-27563D01*
X52196Y-27708D01*
X52123Y-27781D01*
X51906Y-27853D01*
X51253D01*
X51760D02*
X52268Y-28651D01*
X53806Y-27128D02*
Y-28651D01*
Y-27128D02*
X54387Y-28651D01*
X54967Y-27128D02*
X54387Y-28651D01*
X54967Y-27128D02*
Y-28651D01*
X56564D02*
X55983Y-27128D01*
X55403Y-28651D01*
X55620Y-28143D02*
X56346D01*
X57935Y-27345D02*
X57790Y-27200D01*
X57572Y-27128D01*
X57282D01*
X57064Y-27200D01*
X56919Y-27345D01*
Y-27490D01*
X56992Y-27635D01*
X57064Y-27708D01*
X57209Y-27781D01*
X57645Y-27926D01*
X57790Y-27998D01*
X57862Y-28071D01*
X57935Y-28216D01*
Y-28434D01*
X57790Y-28579D01*
X57572Y-28651D01*
X57282D01*
X57064Y-28579D01*
X56919Y-28434D01*
X58276Y-27128D02*
Y-28651D01*
X59292Y-27128D02*
X58276Y-28143D01*
X58639Y-27781D02*
X59292Y-28651D01*
X61338Y-26837D02*
X61193Y-26982D01*
X61048Y-27200D01*
X60902Y-27490D01*
X60830Y-27853D01*
Y-28143D01*
X60902Y-28506D01*
X61048Y-28796D01*
X61193Y-29014D01*
X61338Y-29159D01*
X61193Y-26982D02*
X61048Y-27273D01*
X60975Y-27490D01*
X60902Y-27853D01*
Y-28143D01*
X60975Y-28506D01*
X61048Y-28724D01*
X61193Y-29014D01*
X61628Y-27926D02*
X62281D01*
X62499Y-27853D01*
X62571Y-27781D01*
X62644Y-27635D01*
Y-27418D01*
X62571Y-27273D01*
X62499Y-27200D01*
X62281Y-27128D01*
X61628D01*
Y-28651D01*
X62985Y-27128D02*
Y-28651D01*
Y-27128D02*
X63638D01*
X63855Y-27200D01*
X63928Y-27273D01*
X64001Y-27418D01*
Y-27563D01*
X63928Y-27708D01*
X63855Y-27781D01*
X63638Y-27853D01*
X62985D01*
X63493D02*
X64001Y-28651D01*
X64342Y-27128D02*
Y-28651D01*
X64661Y-27128D02*
Y-28651D01*
Y-27128D02*
X65241Y-28651D01*
X65822Y-27128D02*
X65241Y-28651D01*
X65822Y-27128D02*
Y-28651D01*
X67418D02*
X66838Y-27128D01*
X66257Y-28651D01*
X66475Y-28143D02*
X67200D01*
X67773Y-27128D02*
Y-28651D01*
Y-27128D02*
X68426D01*
X68644Y-27200D01*
X68717Y-27273D01*
X68789Y-27418D01*
Y-27563D01*
X68717Y-27708D01*
X68644Y-27781D01*
X68426Y-27853D01*
X67773D01*
X68281D02*
X68789Y-28651D01*
X69130Y-27128D02*
X69711Y-27853D01*
Y-28651D01*
X70291Y-27128D02*
X69711Y-27853D01*
X70487Y-26837D02*
X70632Y-26982D01*
X70777Y-27200D01*
X70922Y-27490D01*
X70995Y-27853D01*
Y-28143D01*
X70922Y-28506D01*
X70777Y-28796D01*
X70632Y-29014D01*
X70487Y-29159D01*
X70632Y-26982D02*
X70777Y-27273D01*
X70850Y-27490D01*
X70922Y-27853D01*
Y-28143D01*
X70850Y-28506D01*
X70777Y-28724D01*
X70632Y-29014D01*
D116*
X44450Y5080D02*
D03*
X54610D02*
D03*
D117*
X44450Y2540D02*
D03*
X54610D02*
D03*
D120*
X108788Y5131D02*
D03*
X113788D02*
D03*
X96282Y5170D02*
D03*
X101282D02*
D03*
D121*
X21520Y57762D02*
D03*
X22320D02*
D03*
X23120D02*
D03*
X26320D02*
D03*
X27120D02*
D03*
X27920D02*
D03*
X21520Y56962D02*
D03*
X22320D02*
D03*
X23120D02*
D03*
X26320D02*
D03*
X27120D02*
D03*
X27920D02*
D03*
X21520Y56162D02*
D03*
X22320D02*
D03*
X23120D02*
D03*
X26320D02*
D03*
X27120D02*
D03*
X27920D02*
D03*
X21520Y55362D02*
D03*
X22320D02*
D03*
X23120D02*
D03*
X26320D02*
D03*
X27120D02*
D03*
X27920D02*
D03*
X21520Y54562D02*
D03*
X22320D02*
D03*
X23120D02*
D03*
X26320D02*
D03*
X27120D02*
D03*
X27920D02*
D03*
X21520Y53762D02*
D03*
X22320D02*
D03*
X23120D02*
D03*
X26320D02*
D03*
X27120D02*
D03*
X27920D02*
D03*
X21520Y52963D02*
D03*
X22320D02*
D03*
X23120D02*
D03*
X26320D02*
D03*
X27120D02*
D03*
X27920D02*
D03*
X21520Y52162D02*
D03*
X22320D02*
D03*
X23120D02*
D03*
X26320D02*
D03*
X27120D02*
D03*
X27920D02*
D03*
X21520Y51362D02*
D03*
X22320D02*
D03*
X23120D02*
D03*
X26320D02*
D03*
X27120D02*
D03*
X27920D02*
D03*
X21520Y50562D02*
D03*
X22320D02*
D03*
X23120D02*
D03*
X26320D02*
D03*
X27120D02*
D03*
X27920D02*
D03*
X21520Y49762D02*
D03*
X22320D02*
D03*
X23120D02*
D03*
X26320D02*
D03*
X27120D02*
D03*
X27920D02*
D03*
X21520Y48962D02*
D03*
X22320D02*
D03*
X23120D02*
D03*
X26320D02*
D03*
X27120D02*
D03*
X27920D02*
D03*
X21520Y48162D02*
D03*
X22320D02*
D03*
X23120D02*
D03*
X26320D02*
D03*
X27120D02*
D03*
X27920D02*
D03*
X21520Y47362D02*
D03*
X22320D02*
D03*
X23120D02*
D03*
X26320D02*
D03*
X27120D02*
D03*
X27920D02*
D03*
X21520Y46562D02*
D03*
X22320D02*
D03*
X23120D02*
D03*
X26320D02*
D03*
X27120D02*
D03*
X27920D02*
D03*
D155*
X78359Y83007D02*
D03*
Y80508D02*
D03*
Y78008D02*
D03*
Y75509D02*
D03*
X66929D02*
D03*
Y78008D02*
D03*
Y80508D02*
D03*
Y83007D02*
D03*
D156*
X90043Y54037D02*
D03*
Y52637D02*
D03*
D157*
X55192Y51326D02*
D03*
Y50426D02*
D03*
X60987Y65047D02*
D03*
Y64147D02*
D03*
Y65790D02*
D03*
Y66690D02*
D03*
X100530Y20403D02*
D03*
Y21303D02*
D03*
X99641Y20405D02*
D03*
Y21305D02*
D03*
X101036Y45042D02*
D03*
Y44142D02*
D03*
X99923Y36881D02*
D03*
Y35981D02*
D03*
X99034Y36881D02*
D03*
Y35981D02*
D03*
X98120Y36878D02*
D03*
Y35978D02*
D03*
X96146Y35973D02*
D03*
Y36873D02*
D03*
X94924Y36797D02*
D03*
Y35897D02*
D03*
X96266Y54820D02*
D03*
Y55720D02*
D03*
X97231Y57393D02*
D03*
Y58293D02*
D03*
X103952Y54795D02*
D03*
Y55695D02*
D03*
X62907Y54795D02*
D03*
Y55695D02*
D03*
Y57262D02*
D03*
Y56362D02*
D03*
X81785Y20248D02*
D03*
Y21148D02*
D03*
X103515Y20403D02*
D03*
Y21303D02*
D03*
X22763Y61648D02*
D03*
Y60748D02*
D03*
X23779Y61648D02*
D03*
Y60748D02*
D03*
X26065Y61648D02*
D03*
Y60748D02*
D03*
X42164Y9786D02*
D03*
Y10686D02*
D03*
X51206Y9710D02*
D03*
Y10610D02*
D03*
X30058Y55471D02*
D03*
Y54571D02*
D03*
X30866Y55471D02*
D03*
Y54571D02*
D03*
X30756Y48820D02*
D03*
Y49720D02*
D03*
X22656Y42882D02*
D03*
Y43782D02*
D03*
X24109Y42918D02*
D03*
Y43818D02*
D03*
X52202Y23464D02*
D03*
Y24364D02*
D03*
X51300Y23464D02*
D03*
Y24364D02*
D03*
X25278Y36956D02*
D03*
Y37856D02*
D03*
X26167Y36956D02*
D03*
Y37856D02*
D03*
X96342Y7968D02*
D03*
Y7068D02*
D03*
X90802Y35245D02*
D03*
Y34345D02*
D03*
X52905Y77079D02*
D03*
Y76179D02*
D03*
X36906Y55216D02*
D03*
Y56116D02*
D03*
X60129Y58402D02*
D03*
Y59302D02*
D03*
D158*
X43558Y41595D02*
D03*
Y40695D02*
D03*
X38478Y41595D02*
D03*
Y40695D02*
D03*
X39494Y41595D02*
D03*
Y40695D02*
D03*
X42542Y41595D02*
D03*
Y40695D02*
D03*
X40510Y41595D02*
D03*
Y40695D02*
D03*
X44574Y41595D02*
D03*
Y40695D02*
D03*
X45590Y41595D02*
D03*
Y40695D02*
D03*
X41526Y41595D02*
D03*
Y40695D02*
D03*
X38450Y43027D02*
D03*
Y43927D02*
D03*
X39466Y43027D02*
D03*
Y43927D02*
D03*
X42542Y42981D02*
D03*
Y43881D02*
D03*
X40510Y42981D02*
D03*
Y43881D02*
D03*
X44574Y42981D02*
D03*
Y43881D02*
D03*
X45590Y42981D02*
D03*
Y43881D02*
D03*
X43558Y42981D02*
D03*
Y43881D02*
D03*
X41526Y42981D02*
D03*
Y43881D02*
D03*
X49148Y50453D02*
D03*
Y51353D02*
D03*
X101586Y15156D02*
D03*
Y14256D02*
D03*
X59712Y73893D02*
D03*
Y74793D02*
D03*
X58554Y73870D02*
D03*
Y74770D02*
D03*
X58544Y72481D02*
D03*
Y71581D02*
D03*
X57299Y71556D02*
D03*
Y72456D02*
D03*
X55742Y71599D02*
D03*
Y72499D02*
D03*
X54513Y72433D02*
D03*
Y71533D02*
D03*
X50248Y72365D02*
D03*
Y71465D02*
D03*
X49174Y72372D02*
D03*
Y71472D02*
D03*
X48127D02*
D03*
Y72372D02*
D03*
X47048Y71472D02*
D03*
Y72372D02*
D03*
X45981Y71472D02*
D03*
Y72372D02*
D03*
X44932Y71472D02*
D03*
Y72372D02*
D03*
X43873Y71472D02*
D03*
Y72372D02*
D03*
X42806D02*
D03*
Y71472D02*
D03*
X41783Y72370D02*
D03*
Y71470D02*
D03*
X40513Y71449D02*
D03*
Y72349D02*
D03*
X50248Y75344D02*
D03*
Y74444D02*
D03*
X49248Y74452D02*
D03*
Y75352D02*
D03*
X48143Y74464D02*
D03*
Y75364D02*
D03*
X47015Y74464D02*
D03*
Y75364D02*
D03*
X45974Y74454D02*
D03*
Y75354D02*
D03*
X44963Y74454D02*
D03*
Y75354D02*
D03*
X43873Y74444D02*
D03*
Y75344D02*
D03*
X42799Y74419D02*
D03*
Y75319D02*
D03*
X102565Y21252D02*
D03*
Y20352D02*
D03*
X101523Y21252D02*
D03*
Y20352D02*
D03*
X103954Y42779D02*
D03*
Y41879D02*
D03*
X101922Y42814D02*
D03*
Y41914D02*
D03*
X103954Y44116D02*
D03*
Y45016D02*
D03*
X102938Y44180D02*
D03*
Y45080D02*
D03*
X101922Y44180D02*
D03*
Y45080D02*
D03*
X99890Y44116D02*
D03*
Y45016D02*
D03*
Y42814D02*
D03*
Y41914D02*
D03*
X98874Y42814D02*
D03*
Y41914D02*
D03*
Y44116D02*
D03*
Y45016D02*
D03*
X97858Y42814D02*
D03*
Y41914D02*
D03*
Y44116D02*
D03*
Y45016D02*
D03*
X101015Y36878D02*
D03*
Y35978D02*
D03*
X97137Y35973D02*
D03*
Y36873D02*
D03*
X97193Y55695D02*
D03*
Y54795D02*
D03*
X98247Y57393D02*
D03*
Y58293D02*
D03*
X100007Y57393D02*
D03*
Y58293D02*
D03*
X101236Y57390D02*
D03*
Y58290D02*
D03*
X102920Y57393D02*
D03*
Y58293D02*
D03*
X104902Y55695D02*
D03*
Y54795D02*
D03*
X92278Y55867D02*
D03*
Y54967D02*
D03*
X93396Y55898D02*
D03*
Y54998D02*
D03*
X58272Y51344D02*
D03*
Y50444D02*
D03*
X59319Y51344D02*
D03*
Y50444D02*
D03*
X60330Y51344D02*
D03*
Y50444D02*
D03*
X61412Y51344D02*
D03*
Y50444D02*
D03*
X62433Y51344D02*
D03*
Y50444D02*
D03*
X63520Y51344D02*
D03*
Y50444D02*
D03*
X64538Y51344D02*
D03*
Y50444D02*
D03*
X57210Y51344D02*
D03*
Y50444D02*
D03*
X56134D02*
D03*
Y51344D02*
D03*
X48174Y50453D02*
D03*
Y51353D02*
D03*
X47201Y50453D02*
D03*
Y51353D02*
D03*
X46241Y50425D02*
D03*
Y51325D02*
D03*
X45235Y50425D02*
D03*
Y51325D02*
D03*
X44237Y50396D02*
D03*
Y51297D02*
D03*
X59664Y71635D02*
D03*
Y72535D02*
D03*
X54483Y73870D02*
D03*
Y74770D02*
D03*
X43467Y10687D02*
D03*
Y9787D02*
D03*
X46007Y10682D02*
D03*
Y9782D02*
D03*
X52468Y10606D02*
D03*
Y9706D02*
D03*
X55016Y10606D02*
D03*
Y9706D02*
D03*
X18948Y43706D02*
D03*
Y42806D02*
D03*
X19989Y43739D02*
D03*
Y42839D02*
D03*
X20980Y43757D02*
D03*
Y42857D02*
D03*
X25024Y43818D02*
D03*
Y42918D02*
D03*
X26060Y43818D02*
D03*
Y42918D02*
D03*
X27112Y43828D02*
D03*
Y42928D02*
D03*
X28145Y43828D02*
D03*
Y42928D02*
D03*
X29151Y43828D02*
D03*
Y42928D02*
D03*
X30142Y43828D02*
D03*
Y42928D02*
D03*
X31137Y43828D02*
D03*
Y42928D02*
D03*
X47470Y21033D02*
D03*
Y21933D02*
D03*
X48887Y21958D02*
D03*
Y21058D02*
D03*
X45994Y24242D02*
D03*
Y23342D02*
D03*
X47470Y24260D02*
D03*
Y23360D02*
D03*
X50030Y23464D02*
D03*
Y24364D02*
D03*
X48887Y23387D02*
D03*
Y24287D02*
D03*
X62713Y6179D02*
D03*
Y7079D02*
D03*
X61087Y4968D02*
D03*
Y4068D02*
D03*
X59893Y4968D02*
D03*
Y4068D02*
D03*
X71449Y17126D02*
D03*
Y16226D02*
D03*
X72567Y17126D02*
D03*
Y16226D02*
D03*
X73710D02*
D03*
Y17126D02*
D03*
X74853Y16226D02*
D03*
Y17126D02*
D03*
X91629Y14564D02*
D03*
Y15464D02*
D03*
X53756Y43423D02*
D03*
Y44323D02*
D03*
X54780Y44346D02*
D03*
Y43446D02*
D03*
X97714Y14409D02*
D03*
Y15309D02*
D03*
D159*
X97276Y20010D02*
D03*
X98176D02*
D03*
X29260Y27686D02*
D03*
X30160D02*
D03*
X20312Y32923D02*
D03*
X19412D02*
D03*
X20312Y33685D02*
D03*
X19412D02*
D03*
X92323Y21153D02*
D03*
X93223D02*
D03*
X67198Y61262D02*
D03*
X66298D02*
D03*
X38730Y70147D02*
D03*
X37830D02*
D03*
X34729Y66372D02*
D03*
X35629D02*
D03*
X34729Y65524D02*
D03*
X35629D02*
D03*
X34729Y67289D02*
D03*
X35629D02*
D03*
X37822Y59309D02*
D03*
X38722D02*
D03*
X38730Y69192D02*
D03*
X37830D02*
D03*
X38730Y68166D02*
D03*
X37830D02*
D03*
X38730Y64523D02*
D03*
X37830D02*
D03*
X34670Y44856D02*
D03*
X35570D02*
D03*
X34665Y45897D02*
D03*
X35565D02*
D03*
X34703Y48031D02*
D03*
X35603D02*
D03*
X34678Y46946D02*
D03*
X35578D02*
D03*
X38456Y46990D02*
D03*
X37556D02*
D03*
X38473Y44856D02*
D03*
X37573D02*
D03*
X38473Y45897D02*
D03*
X37573D02*
D03*
X91625Y23291D02*
D03*
X92525D02*
D03*
X106134Y29552D02*
D03*
X105234D02*
D03*
X106134Y30441D02*
D03*
X105234D02*
D03*
X18219Y48402D02*
D03*
X19119D02*
D03*
X18219Y45963D02*
D03*
X19119D02*
D03*
X29260Y31330D02*
D03*
X30160D02*
D03*
X18219Y56316D02*
D03*
X19119D02*
D03*
X18219Y55366D02*
D03*
X19119D02*
D03*
X18219Y53975D02*
D03*
X19119D02*
D03*
X44552Y18868D02*
D03*
X43652D02*
D03*
X53485Y18858D02*
D03*
X52585D02*
D03*
X31524Y77343D02*
D03*
X30624D02*
D03*
X34721Y59278D02*
D03*
X35621D02*
D03*
X34729Y58003D02*
D03*
X35629D02*
D03*
X34729Y64541D02*
D03*
X35629D02*
D03*
X31608Y66548D02*
D03*
X30708D02*
D03*
X18219Y51231D02*
D03*
X19119D02*
D03*
X37637Y32410D02*
D03*
X38537D02*
D03*
X50934Y41757D02*
D03*
X51834D02*
D03*
X88571Y39070D02*
D03*
X89471D02*
D03*
X84891Y36192D02*
D03*
X85791D02*
D03*
X94584Y47447D02*
D03*
X95484D02*
D03*
X78799Y31320D02*
D03*
X77899D02*
D03*
X91625Y31752D02*
D03*
X92525D02*
D03*
X91625Y32689D02*
D03*
X92525D02*
D03*
X91625Y26822D02*
D03*
X92525D02*
D03*
X91625Y30784D02*
D03*
X92525D02*
D03*
X91625Y29801D02*
D03*
X92525D02*
D03*
X91625Y28829D02*
D03*
X92525D02*
D03*
X91625Y27863D02*
D03*
X92525D02*
D03*
X65055Y59182D02*
D03*
X65955D02*
D03*
X38730Y65521D02*
D03*
X37830D02*
D03*
X34722Y68160D02*
D03*
X35622D02*
D03*
D160*
X97276Y21280D02*
D03*
X98176D02*
D03*
X105910Y49326D02*
D03*
X105010D02*
D03*
X105910Y48051D02*
D03*
X105010D02*
D03*
X105933Y47035D02*
D03*
X105033D02*
D03*
X19119Y44985D02*
D03*
X18219D02*
D03*
X92323Y20010D02*
D03*
X93223D02*
D03*
X60936Y63225D02*
D03*
X61836D02*
D03*
X106134Y25908D02*
D03*
X105234D02*
D03*
X105234Y24927D02*
D03*
X106134D02*
D03*
X66270Y62562D02*
D03*
X67170D02*
D03*
X63862Y74193D02*
D03*
X64762D02*
D03*
X105234Y31496D02*
D03*
X106134D02*
D03*
X106134Y23825D02*
D03*
X105234D02*
D03*
X112715Y78483D02*
D03*
X111815D02*
D03*
X64104Y53144D02*
D03*
X65004D02*
D03*
X29984Y45684D02*
D03*
X30884D02*
D03*
X29984Y47970D02*
D03*
X30884D02*
D03*
X38722Y67292D02*
D03*
X37822D02*
D03*
X38722Y63543D02*
D03*
X37822D02*
D03*
X37837Y61396D02*
D03*
X38737D02*
D03*
X37853Y62481D02*
D03*
X38753D02*
D03*
X38725Y60271D02*
D03*
X37825D02*
D03*
X12170Y37465D02*
D03*
X13070D02*
D03*
X91622Y25397D02*
D03*
X92522D02*
D03*
X91625Y24384D02*
D03*
X92525D02*
D03*
X18219Y50292D02*
D03*
X19119D02*
D03*
Y49293D02*
D03*
X18219D02*
D03*
X19119Y47487D02*
D03*
X18219D02*
D03*
X29984Y46751D02*
D03*
X30884D02*
D03*
X31565Y84909D02*
D03*
X30665D02*
D03*
X30076Y33474D02*
D03*
X29176D02*
D03*
X17518Y77462D02*
D03*
X16618D02*
D03*
X17391Y74033D02*
D03*
X16491D02*
D03*
X17391Y70223D02*
D03*
X16491D02*
D03*
X17391Y67683D02*
D03*
X16491D02*
D03*
X17391Y66413D02*
D03*
X16491D02*
D03*
X17493Y84963D02*
D03*
X16593D02*
D03*
X31488Y75938D02*
D03*
X30588D02*
D03*
X31615Y74033D02*
D03*
X30715D02*
D03*
X33139Y72509D02*
D03*
X32239D02*
D03*
X33139Y71239D02*
D03*
X32239D02*
D03*
X31585Y70101D02*
D03*
X30685D02*
D03*
X31608Y68961D02*
D03*
X30708D02*
D03*
X31595Y65074D02*
D03*
X30695D02*
D03*
X30968Y51145D02*
D03*
X30068D02*
D03*
X12189Y44170D02*
D03*
X13089D02*
D03*
X12189Y42900D02*
D03*
X13089D02*
D03*
X12189Y41630D02*
D03*
X13089D02*
D03*
X12194Y39809D02*
D03*
X13094D02*
D03*
X13089Y36207D02*
D03*
X12189D02*
D03*
X78620Y16764D02*
D03*
X79520D02*
D03*
X79355Y36443D02*
D03*
X78455D02*
D03*
X94632Y44132D02*
D03*
X95532D02*
D03*
X94573Y45148D02*
D03*
X95473D02*
D03*
X95916Y49479D02*
D03*
X95016D02*
D03*
Y48463D02*
D03*
X95916D02*
D03*
X41676Y60317D02*
D03*
X40776D02*
D03*
X40781Y61381D02*
D03*
X41681D02*
D03*
X40804Y62478D02*
D03*
X41704D02*
D03*
X41658Y63560D02*
D03*
X40758D02*
D03*
X41658Y64551D02*
D03*
X40758D02*
D03*
X41658Y68132D02*
D03*
X40758D02*
D03*
X41625Y69182D02*
D03*
X40725D02*
D03*
X41636Y70198D02*
D03*
X40736D02*
D03*
X61836Y62230D02*
D03*
X60936D02*
D03*
X60962Y61290D02*
D03*
X61862D02*
D03*
D161*
X20562Y29337D02*
D03*
X19162D02*
D03*
X20562Y30607D02*
D03*
X19162D02*
D03*
X20562Y31877D02*
D03*
X19162D02*
D03*
X20562Y34671D02*
D03*
X19162D02*
D03*
X74052Y67934D02*
D03*
X72652D02*
D03*
X72680Y66690D02*
D03*
X74080D02*
D03*
X72604Y70977D02*
D03*
X74004D02*
D03*
X121347Y75181D02*
D03*
X119947D02*
D03*
X114867Y75308D02*
D03*
X116267D02*
D03*
X114867Y76959D02*
D03*
X116267D02*
D03*
X111565Y79880D02*
D03*
X112965D02*
D03*
Y84198D02*
D03*
X111565D02*
D03*
X40019Y54754D02*
D03*
X38619D02*
D03*
X85205Y68249D02*
D03*
X83805D02*
D03*
X29010Y32346D02*
D03*
X30410D02*
D03*
X29010Y28742D02*
D03*
X30410D02*
D03*
X37298Y36576D02*
D03*
X38698D02*
D03*
X71794Y42029D02*
D03*
X73194D02*
D03*
X89470Y37843D02*
D03*
X88070D02*
D03*
X84387Y34287D02*
D03*
X85787D02*
D03*
X97225Y60797D02*
D03*
X95825D02*
D03*
X95772Y46357D02*
D03*
X94372D02*
D03*
X84415Y77213D02*
D03*
X85815D02*
D03*
X77626Y32677D02*
D03*
X79026D02*
D03*
X66686Y57250D02*
D03*
X68086D02*
D03*
D162*
X97739Y12076D02*
D03*
Y13476D02*
D03*
X71043Y69374D02*
D03*
Y67974D02*
D03*
X91818Y75370D02*
D03*
Y76770D02*
D03*
X106022Y21601D02*
D03*
Y20201D02*
D03*
X104625Y21601D02*
D03*
Y20201D02*
D03*
X102301Y35825D02*
D03*
Y37225D02*
D03*
X88734Y46160D02*
D03*
Y44760D02*
D03*
X85897Y44763D02*
D03*
Y46163D02*
D03*
X84503Y44712D02*
D03*
Y46112D02*
D03*
X83236Y45045D02*
D03*
Y46445D02*
D03*
X98247Y54768D02*
D03*
Y56168D02*
D03*
X100007Y54768D02*
D03*
Y56168D02*
D03*
X101236Y54766D02*
D03*
Y56166D02*
D03*
X102920Y54768D02*
D03*
Y56168D02*
D03*
X90040Y48446D02*
D03*
Y49846D02*
D03*
X89651Y56180D02*
D03*
Y57580D02*
D03*
X88381Y56180D02*
D03*
Y57580D02*
D03*
X87111Y56180D02*
D03*
Y57580D02*
D03*
X84518Y56196D02*
D03*
Y57596D02*
D03*
X50243Y50478D02*
D03*
Y51878D02*
D03*
X62357Y72833D02*
D03*
Y74233D02*
D03*
X62042Y84052D02*
D03*
Y85452D02*
D03*
X53972Y75751D02*
D03*
Y77151D02*
D03*
X60449Y80806D02*
D03*
Y79406D02*
D03*
X41384Y57905D02*
D03*
Y59305D02*
D03*
X90421Y75370D02*
D03*
Y76770D02*
D03*
X22334Y26323D02*
D03*
Y27723D02*
D03*
X23604Y26323D02*
D03*
Y27723D02*
D03*
X24874D02*
D03*
Y26323D02*
D03*
X26144Y27723D02*
D03*
Y26323D02*
D03*
X27414D02*
D03*
Y27723D02*
D03*
X43611Y24174D02*
D03*
Y22774D02*
D03*
X35585Y32602D02*
D03*
Y31202D02*
D03*
X20312Y36726D02*
D03*
Y38126D02*
D03*
X21582Y36726D02*
D03*
Y38126D02*
D03*
X22852Y36726D02*
D03*
Y38126D02*
D03*
X91592Y12256D02*
D03*
Y13656D02*
D03*
X118465Y51822D02*
D03*
Y50422D02*
D03*
D163*
X98222Y9616D02*
D03*
X98722D02*
D03*
Y8316D02*
D03*
X98222D02*
D03*
X97722D02*
D03*
Y9616D02*
D03*
D164*
X111201Y6538D02*
D03*
Y7788D02*
D03*
X94844Y8347D02*
D03*
Y7097D02*
D03*
D165*
X109988Y5131D02*
D03*
X110638D02*
D03*
X111288D02*
D03*
X111938D02*
D03*
X112588D02*
D03*
X97482Y5170D02*
D03*
X98132D02*
D03*
X98782D02*
D03*
X99432D02*
D03*
X100082D02*
D03*
D166*
X110288Y2431D02*
D03*
X112288D02*
D03*
X97782Y2470D02*
D03*
X99782D02*
D03*
D167*
X89960Y32007D02*
D03*
Y29867D02*
D03*
X88087Y81105D02*
D03*
Y78965D02*
D03*
X83153Y31982D02*
D03*
Y29842D02*
D03*
X88285Y31994D02*
D03*
Y29854D02*
D03*
X86589Y31994D02*
D03*
Y29854D02*
D03*
X84879Y31990D02*
D03*
Y29850D02*
D03*
D168*
X95933Y12260D02*
D03*
Y13210D02*
D03*
Y14160D02*
D03*
X93733D02*
D03*
Y12260D02*
D03*
X74541Y14183D02*
D03*
Y13233D02*
D03*
Y12283D02*
D03*
X76741D02*
D03*
Y14183D02*
D03*
X87241Y36205D02*
D03*
Y35255D02*
D03*
Y34305D02*
D03*
X89441D02*
D03*
Y36205D02*
D03*
D169*
X78364Y83005D02*
D03*
Y80505D02*
D03*
Y78005D02*
D03*
Y75505D02*
D03*
X66934Y83005D02*
D03*
Y80505D02*
D03*
Y78005D02*
D03*
Y75505D02*
D03*
D170*
X92253Y49152D02*
D03*
Y52702D02*
D03*
D171*
X86973Y75032D02*
D03*
X84173D02*
D03*
D172*
X85369Y85728D02*
D03*
Y82928D02*
D03*
X88516Y85725D02*
D03*
Y82925D02*
D03*
X61950Y71105D02*
D03*
Y68305D02*
D03*
D173*
X72652Y69430D02*
D03*
X74052D02*
D03*
X67953Y71335D02*
D03*
X69353D02*
D03*
Y72636D02*
D03*
X67953D02*
D03*
X72680Y65450D02*
D03*
X74080D02*
D03*
X104971Y44884D02*
D03*
X106371D02*
D03*
X82002Y58801D02*
D03*
X83402D02*
D03*
X60514Y55277D02*
D03*
X61914D02*
D03*
X60511Y56537D02*
D03*
X61911D02*
D03*
X85231Y69596D02*
D03*
X83831D02*
D03*
X29010Y35902D02*
D03*
X30410D02*
D03*
X29010Y34607D02*
D03*
X30410D02*
D03*
X56653Y45999D02*
D03*
X58053D02*
D03*
X68766Y35114D02*
D03*
X70166D02*
D03*
X68766Y33745D02*
D03*
X70166D02*
D03*
X72162Y44117D02*
D03*
X73562D02*
D03*
X87184Y77191D02*
D03*
X88584D02*
D03*
X30410Y30012D02*
D03*
X29010D02*
D03*
D174*
X67703Y67591D02*
D03*
X68653D02*
D03*
X69603D02*
D03*
Y69791D02*
D03*
X67703D02*
D03*
D175*
X70840Y71314D02*
D03*
Y72714D02*
D03*
X64846Y64816D02*
D03*
Y66216D02*
D03*
X90032Y44760D02*
D03*
Y46160D02*
D03*
X90040Y54037D02*
D03*
Y52637D02*
D03*
X82801Y48446D02*
D03*
Y49846D02*
D03*
X85806Y56196D02*
D03*
Y57596D02*
D03*
X63601Y82612D02*
D03*
Y84012D02*
D03*
X79908Y14055D02*
D03*
Y12655D02*
D03*
X24188Y36739D02*
D03*
Y38139D02*
D03*
X27305Y36706D02*
D03*
Y38106D02*
D03*
X102989Y10073D02*
D03*
Y8673D02*
D03*
X104640Y10047D02*
D03*
Y8647D02*
D03*
X120139Y45797D02*
D03*
Y47197D02*
D03*
D176*
X74197Y72357D02*
D03*
X72447D02*
D03*
X86094Y81150D02*
D03*
X84344D02*
D03*
X113521Y75308D02*
D03*
X111771D02*
D03*
X113521Y76959D02*
D03*
X111771D02*
D03*
X79261Y38549D02*
D03*
X77511D02*
D03*
X103138Y60967D02*
D03*
X104888D02*
D03*
D177*
X69727Y64744D02*
D03*
X67127D02*
D03*
X87492Y16748D02*
D03*
X84892D02*
D03*
X49700Y43997D02*
D03*
X52300D02*
D03*
X80413Y34604D02*
D03*
X77813D02*
D03*
D178*
X63578Y60106D02*
D03*
Y58506D02*
D03*
D179*
X61239Y58509D02*
D03*
Y60109D02*
D03*
X69552Y62715D02*
D03*
Y61115D02*
D03*
X94996Y56492D02*
D03*
Y54892D02*
D03*
D180*
X65087Y61351D02*
D03*
X63437D02*
D03*
Y62601D02*
D03*
X65087D02*
D03*
X94488Y21270D02*
D03*
X96138D02*
D03*
Y20020D02*
D03*
X94488D02*
D03*
X97616Y77411D02*
D03*
D181*
X62534Y64961D02*
D03*
Y66661D02*
D03*
X82626Y85330D02*
D03*
Y83630D02*
D03*
X112900Y82889D02*
D03*
Y81189D02*
D03*
X60518Y85602D02*
D03*
Y83902D02*
D03*
X58740Y85602D02*
D03*
Y83902D02*
D03*
X56962Y85602D02*
D03*
Y83902D02*
D03*
X58740Y79142D02*
D03*
Y80842D02*
D03*
X30607Y22975D02*
D03*
Y24675D02*
D03*
X68097Y25412D02*
D03*
Y23712D02*
D03*
X83362Y21652D02*
D03*
Y19952D02*
D03*
X80264Y24701D02*
D03*
Y23001D02*
D03*
D182*
X63520Y76293D02*
D03*
Y80933D02*
D03*
D183*
X91186Y81003D02*
D03*
Y78203D02*
D03*
X104264Y35150D02*
D03*
Y37950D02*
D03*
X92583Y35150D02*
D03*
Y37950D02*
D03*
D184*
X90929Y83831D02*
D03*
Y85581D02*
D03*
X92379Y74154D02*
D03*
Y72404D02*
D03*
X90627Y74154D02*
D03*
Y72404D02*
D03*
X88773Y71134D02*
D03*
Y72884D02*
D03*
X87294Y44420D02*
D03*
Y46170D02*
D03*
X122933Y75195D02*
D03*
Y76945D02*
D03*
X118488Y75195D02*
D03*
Y76945D02*
D03*
X83693Y63867D02*
D03*
Y62117D02*
D03*
X81965Y62114D02*
D03*
Y63864D02*
D03*
X60449Y76310D02*
D03*
Y78060D02*
D03*
D185*
X86540Y71958D02*
D03*
X84250D02*
D03*
D186*
X115440Y80151D02*
D03*
Y84181D02*
D03*
D187*
X98720Y51211D02*
D03*
Y50711D02*
D03*
Y50211D02*
D03*
Y49711D02*
D03*
Y49211D02*
D03*
Y48711D02*
D03*
Y48211D02*
D03*
Y47711D02*
D03*
X103570D02*
D03*
Y48211D02*
D03*
Y48711D02*
D03*
Y49211D02*
D03*
Y49711D02*
D03*
Y50211D02*
D03*
Y50711D02*
D03*
Y51211D02*
D03*
D188*
X99395Y47036D02*
D03*
X99895D02*
D03*
X100395D02*
D03*
X100895D02*
D03*
X101395D02*
D03*
X101895D02*
D03*
X102395D02*
D03*
X102895D02*
D03*
Y51886D02*
D03*
X102395D02*
D03*
X101895D02*
D03*
X101395D02*
D03*
X100895D02*
D03*
X100395D02*
D03*
X99895D02*
D03*
X99395D02*
D03*
D189*
X101145Y49461D02*
D03*
D190*
X86459Y51196D02*
D03*
D191*
X84184Y53996D02*
D03*
X84834D02*
D03*
X85484D02*
D03*
X86134D02*
D03*
X86784D02*
D03*
X87434D02*
D03*
X88084D02*
D03*
X88734D02*
D03*
Y48396D02*
D03*
X88084D02*
D03*
X87434D02*
D03*
X86784D02*
D03*
X86134D02*
D03*
X85484D02*
D03*
X84834D02*
D03*
X84184D02*
D03*
D192*
X83701Y60368D02*
D03*
X81561D02*
D03*
D193*
X91054Y59665D02*
D03*
X93654D02*
D03*
X83906Y79197D02*
D03*
X86506D02*
D03*
D194*
X86752Y61778D02*
D03*
X89052D02*
D03*
X91352D02*
D03*
X33031Y20269D02*
D03*
X35331D02*
D03*
X37631D02*
D03*
D195*
X89052Y68128D02*
D03*
X35331Y26619D02*
D03*
D196*
X82042Y65910D02*
D03*
X79242D02*
D03*
X73817Y40276D02*
D03*
X71017D02*
D03*
D197*
X65012Y54681D02*
D03*
Y57181D02*
D03*
D198*
X49128Y29477D02*
D03*
X48628D02*
D03*
X48128D02*
D03*
X47628D02*
D03*
X47128D02*
D03*
X46628D02*
D03*
X46128D02*
D03*
X45628D02*
D03*
X45128D02*
D03*
X44628D02*
D03*
X44128D02*
D03*
X43628D02*
D03*
X43128D02*
D03*
X42628D02*
D03*
X49128Y29977D02*
D03*
X48628D02*
D03*
X48128D02*
D03*
X47628D02*
D03*
X47128D02*
D03*
X46628D02*
D03*
X46128D02*
D03*
X45628D02*
D03*
X45128D02*
D03*
X44628D02*
D03*
X44128D02*
D03*
X43628D02*
D03*
X43128D02*
D03*
X42628D02*
D03*
X49128Y30477D02*
D03*
X48628D02*
D03*
X48128D02*
D03*
X47628D02*
D03*
X47128D02*
D03*
X46628D02*
D03*
X46128D02*
D03*
X45628D02*
D03*
X45128D02*
D03*
X44628D02*
D03*
X44128D02*
D03*
X43628D02*
D03*
X43128D02*
D03*
X42628D02*
D03*
X49128Y30977D02*
D03*
X48628D02*
D03*
X48128D02*
D03*
X43628D02*
D03*
X43128D02*
D03*
X42628D02*
D03*
X49128Y31477D02*
D03*
X48628D02*
D03*
X48128D02*
D03*
X47128D02*
D03*
X46628D02*
D03*
X46128D02*
D03*
X45628D02*
D03*
X45128D02*
D03*
X44628D02*
D03*
X43628D02*
D03*
X43128D02*
D03*
X42628D02*
D03*
X49128Y31977D02*
D03*
X48628D02*
D03*
X48128D02*
D03*
X47128D02*
D03*
X44628D02*
D03*
X43628D02*
D03*
X43128D02*
D03*
X42628D02*
D03*
X49128Y32477D02*
D03*
X48628D02*
D03*
X48128D02*
D03*
X47128D02*
D03*
X44628D02*
D03*
X43628D02*
D03*
X43128D02*
D03*
X42628D02*
D03*
X49128Y32977D02*
D03*
X48628D02*
D03*
X48128D02*
D03*
X47128D02*
D03*
X44628D02*
D03*
X43628D02*
D03*
X43128D02*
D03*
X42628D02*
D03*
X49128Y33477D02*
D03*
X48628D02*
D03*
X48128D02*
D03*
X47128D02*
D03*
X44628D02*
D03*
X43628D02*
D03*
X43128D02*
D03*
X42628D02*
D03*
X49128Y33977D02*
D03*
X48628D02*
D03*
X48128D02*
D03*
X47128D02*
D03*
X46628D02*
D03*
X46128D02*
D03*
X45628D02*
D03*
X45128D02*
D03*
X44628D02*
D03*
X43628D02*
D03*
X43128D02*
D03*
X42628D02*
D03*
X49128Y34477D02*
D03*
X48628D02*
D03*
X48128D02*
D03*
X44128D02*
D03*
X43628D02*
D03*
X43128D02*
D03*
X42628D02*
D03*
X49128Y34977D02*
D03*
X48628D02*
D03*
X48128D02*
D03*
X47628D02*
D03*
X47128D02*
D03*
X46628D02*
D03*
X46128D02*
D03*
X45628D02*
D03*
X45128D02*
D03*
X44628D02*
D03*
X44128D02*
D03*
X43628D02*
D03*
X43128D02*
D03*
X42628D02*
D03*
X49128Y35477D02*
D03*
X48628D02*
D03*
X48128D02*
D03*
X47628D02*
D03*
X47128D02*
D03*
X46628D02*
D03*
X46128D02*
D03*
X45628D02*
D03*
X45128D02*
D03*
X44628D02*
D03*
X44128D02*
D03*
X43628D02*
D03*
X43128D02*
D03*
X42628D02*
D03*
X49128Y35977D02*
D03*
X48628D02*
D03*
X48128D02*
D03*
X47628D02*
D03*
X47128D02*
D03*
X46628D02*
D03*
X46128D02*
D03*
X45628D02*
D03*
X45128D02*
D03*
X44628D02*
D03*
X44128D02*
D03*
X43628D02*
D03*
X43128D02*
D03*
X42628D02*
D03*
D199*
X69907Y82255D02*
D03*
Y80255D02*
D03*
Y78255D02*
D03*
Y76255D02*
D03*
X81487Y82255D02*
D03*
Y80255D02*
D03*
Y78255D02*
D03*
Y76255D02*
D03*
D200*
X82016Y69697D02*
D03*
Y68427D02*
D03*
X75666D02*
D03*
Y69697D02*
D03*
D201*
X81396Y12612D02*
D03*
X76034Y16688D02*
D03*
X77534D02*
D03*
X100145Y15897D02*
D03*
D202*
X81396Y14112D02*
D03*
X63906Y6183D02*
D03*
Y7683D02*
D03*
X100145Y14397D02*
D03*
D203*
X66054Y72532D02*
D03*
X65404D02*
D03*
X64754D02*
D03*
X64104D02*
D03*
Y68132D02*
D03*
X64754D02*
D03*
X65404D02*
D03*
X66054D02*
D03*
D204*
X19618Y73972D02*
D03*
Y72702D02*
D03*
Y71432D02*
D03*
Y70162D02*
D03*
Y68892D02*
D03*
Y67622D02*
D03*
Y66352D02*
D03*
Y65082D02*
D03*
X28718Y73972D02*
D03*
Y72702D02*
D03*
Y71432D02*
D03*
Y70162D02*
D03*
Y68892D02*
D03*
Y67622D02*
D03*
Y66352D02*
D03*
Y65082D02*
D03*
X19630Y84955D02*
D03*
Y83685D02*
D03*
Y82415D02*
D03*
Y81145D02*
D03*
Y79875D02*
D03*
Y78605D02*
D03*
Y77335D02*
D03*
Y76065D02*
D03*
X28730Y84955D02*
D03*
Y83685D02*
D03*
Y82415D02*
D03*
Y81145D02*
D03*
Y79875D02*
D03*
Y78605D02*
D03*
Y77335D02*
D03*
Y76065D02*
D03*
D205*
X55016Y12433D02*
D03*
X53746D02*
D03*
X52476D02*
D03*
X51206D02*
D03*
Y17183D02*
D03*
X52476D02*
D03*
X53746D02*
D03*
X55016D02*
D03*
X46007Y12433D02*
D03*
X44737D02*
D03*
X43467D02*
D03*
X42197D02*
D03*
Y17183D02*
D03*
X43467D02*
D03*
X44737D02*
D03*
X46007D02*
D03*
D206*
X36830Y50186D02*
D03*
Y52786D02*
D03*
X71907Y11679D02*
D03*
Y14279D02*
D03*
D207*
X24072Y21473D02*
D03*
Y20523D02*
D03*
Y19573D02*
D03*
X26372D02*
D03*
Y20523D02*
D03*
Y21473D02*
D03*
X69048Y7508D02*
D03*
Y8458D02*
D03*
Y9408D02*
D03*
X66749D02*
D03*
Y8458D02*
D03*
Y7508D02*
D03*
D208*
X26884Y30596D02*
D03*
Y31096D02*
D03*
Y31596D02*
D03*
Y32096D02*
D03*
Y32596D02*
D03*
Y33096D02*
D03*
Y33596D02*
D03*
Y34096D02*
D03*
X26384Y30596D02*
D03*
Y31096D02*
D03*
Y31596D02*
D03*
Y32096D02*
D03*
Y32596D02*
D03*
Y33096D02*
D03*
Y33596D02*
D03*
Y34096D02*
D03*
X25884Y30596D02*
D03*
Y31096D02*
D03*
Y31596D02*
D03*
Y32096D02*
D03*
Y32596D02*
D03*
Y33096D02*
D03*
Y33596D02*
D03*
Y34096D02*
D03*
X25384Y30596D02*
D03*
Y31096D02*
D03*
Y31596D02*
D03*
Y32096D02*
D03*
Y32596D02*
D03*
Y33096D02*
D03*
Y33596D02*
D03*
Y34096D02*
D03*
X24884Y30596D02*
D03*
Y31096D02*
D03*
Y31596D02*
D03*
Y32096D02*
D03*
Y32596D02*
D03*
Y33096D02*
D03*
Y33596D02*
D03*
Y34096D02*
D03*
X24384Y30596D02*
D03*
Y31096D02*
D03*
Y31596D02*
D03*
Y32096D02*
D03*
Y32596D02*
D03*
Y33096D02*
D03*
Y33596D02*
D03*
Y34096D02*
D03*
X23884Y30596D02*
D03*
Y31096D02*
D03*
Y31596D02*
D03*
Y32096D02*
D03*
Y32596D02*
D03*
Y33096D02*
D03*
Y33596D02*
D03*
Y34096D02*
D03*
X23384Y30596D02*
D03*
Y31096D02*
D03*
Y31596D02*
D03*
Y32096D02*
D03*
Y32596D02*
D03*
Y33096D02*
D03*
Y33596D02*
D03*
Y34096D02*
D03*
X22884Y30596D02*
D03*
Y31096D02*
D03*
Y31596D02*
D03*
Y32096D02*
D03*
Y32596D02*
D03*
Y33096D02*
D03*
Y33596D02*
D03*
Y34096D02*
D03*
X94566Y23477D02*
D03*
Y24127D02*
D03*
Y24777D02*
D03*
Y25427D02*
D03*
Y26077D02*
D03*
Y26727D02*
D03*
Y27377D02*
D03*
Y28027D02*
D03*
Y28677D02*
D03*
Y29327D02*
D03*
Y29977D02*
D03*
Y30627D02*
D03*
Y31277D02*
D03*
Y31927D02*
D03*
Y32577D02*
D03*
X95216Y23477D02*
D03*
Y24127D02*
D03*
Y24777D02*
D03*
Y25427D02*
D03*
Y26077D02*
D03*
Y26727D02*
D03*
Y27377D02*
D03*
Y28027D02*
D03*
Y28677D02*
D03*
Y29327D02*
D03*
Y29977D02*
D03*
Y30627D02*
D03*
Y31277D02*
D03*
Y31927D02*
D03*
Y32577D02*
D03*
X95866Y23477D02*
D03*
Y24127D02*
D03*
Y24777D02*
D03*
Y25427D02*
D03*
Y26077D02*
D03*
Y26727D02*
D03*
Y27377D02*
D03*
Y28027D02*
D03*
Y28677D02*
D03*
Y29327D02*
D03*
Y29977D02*
D03*
Y30627D02*
D03*
Y31277D02*
D03*
Y31927D02*
D03*
Y32577D02*
D03*
X96516Y23477D02*
D03*
Y24127D02*
D03*
Y24777D02*
D03*
Y25427D02*
D03*
Y26077D02*
D03*
Y26727D02*
D03*
Y27377D02*
D03*
Y28027D02*
D03*
Y28677D02*
D03*
Y29327D02*
D03*
Y29977D02*
D03*
Y30627D02*
D03*
Y31277D02*
D03*
Y31927D02*
D03*
Y32577D02*
D03*
X97166Y23477D02*
D03*
Y24127D02*
D03*
Y24777D02*
D03*
Y25427D02*
D03*
Y30627D02*
D03*
Y31277D02*
D03*
Y31927D02*
D03*
Y32577D02*
D03*
X97816Y23477D02*
D03*
Y24127D02*
D03*
Y24777D02*
D03*
Y25427D02*
D03*
Y26727D02*
D03*
Y27377D02*
D03*
Y28027D02*
D03*
Y28677D02*
D03*
Y29327D02*
D03*
Y30627D02*
D03*
Y31277D02*
D03*
Y31927D02*
D03*
Y32577D02*
D03*
X98466Y23477D02*
D03*
Y24127D02*
D03*
Y24777D02*
D03*
Y25427D02*
D03*
Y26727D02*
D03*
Y27377D02*
D03*
Y28027D02*
D03*
Y28677D02*
D03*
Y29327D02*
D03*
Y30627D02*
D03*
Y31277D02*
D03*
Y31927D02*
D03*
Y32577D02*
D03*
X99116Y23477D02*
D03*
Y24127D02*
D03*
Y24777D02*
D03*
Y25427D02*
D03*
Y26727D02*
D03*
Y27377D02*
D03*
Y28027D02*
D03*
Y28677D02*
D03*
Y29327D02*
D03*
Y30627D02*
D03*
Y31277D02*
D03*
Y31927D02*
D03*
Y32577D02*
D03*
X99766Y23477D02*
D03*
Y24127D02*
D03*
Y24777D02*
D03*
Y25427D02*
D03*
Y26727D02*
D03*
Y27377D02*
D03*
Y28027D02*
D03*
Y28677D02*
D03*
Y29327D02*
D03*
Y30627D02*
D03*
Y31277D02*
D03*
Y31927D02*
D03*
Y32577D02*
D03*
X100416Y23477D02*
D03*
Y24127D02*
D03*
Y24777D02*
D03*
Y25427D02*
D03*
Y26727D02*
D03*
Y27377D02*
D03*
Y28027D02*
D03*
Y28677D02*
D03*
Y29327D02*
D03*
Y30627D02*
D03*
Y31277D02*
D03*
Y31927D02*
D03*
Y32577D02*
D03*
X101066Y23477D02*
D03*
Y24127D02*
D03*
Y24777D02*
D03*
Y25427D02*
D03*
Y30627D02*
D03*
Y31277D02*
D03*
Y31927D02*
D03*
Y32577D02*
D03*
X101716Y23477D02*
D03*
Y24127D02*
D03*
Y24777D02*
D03*
Y25427D02*
D03*
Y26077D02*
D03*
Y26727D02*
D03*
Y27377D02*
D03*
Y28027D02*
D03*
Y28677D02*
D03*
Y29327D02*
D03*
Y29977D02*
D03*
Y30627D02*
D03*
Y31277D02*
D03*
Y31927D02*
D03*
Y32577D02*
D03*
X102366Y23477D02*
D03*
Y24127D02*
D03*
Y24777D02*
D03*
Y25427D02*
D03*
Y26077D02*
D03*
Y26727D02*
D03*
Y27377D02*
D03*
Y28027D02*
D03*
Y28677D02*
D03*
Y29327D02*
D03*
Y29977D02*
D03*
Y30627D02*
D03*
Y31277D02*
D03*
Y31927D02*
D03*
Y32577D02*
D03*
X103016Y23477D02*
D03*
Y24127D02*
D03*
Y24777D02*
D03*
Y25427D02*
D03*
Y26077D02*
D03*
Y26727D02*
D03*
Y27377D02*
D03*
Y28027D02*
D03*
Y28677D02*
D03*
Y29327D02*
D03*
Y29977D02*
D03*
Y30627D02*
D03*
Y31277D02*
D03*
Y31927D02*
D03*
Y32577D02*
D03*
X103666Y23477D02*
D03*
Y24127D02*
D03*
Y24777D02*
D03*
Y25427D02*
D03*
Y26077D02*
D03*
Y26727D02*
D03*
Y27377D02*
D03*
Y28027D02*
D03*
Y28677D02*
D03*
Y29327D02*
D03*
Y29977D02*
D03*
Y30627D02*
D03*
Y31277D02*
D03*
Y31927D02*
D03*
Y32577D02*
D03*
D209*
X15244Y2851D02*
D03*
X22144Y1251D02*
D03*
X29570Y2851D02*
D03*
X36470Y1251D02*
D03*
D210*
X17944Y17251D02*
D03*
X32270Y17251D02*
D03*
D211*
X22144Y4001D02*
D03*
X15244Y5801D02*
D03*
X22144Y13201D02*
D03*
X36470Y4001D02*
D03*
X29570Y5801D02*
D03*
X36470Y13201D02*
D03*
D212*
X2815Y37719D02*
D03*
Y38989D02*
D03*
Y40259D02*
D03*
X6879D02*
D03*
Y38989D02*
D03*
Y37719D02*
D03*
Y41529D02*
D03*
Y42799D02*
D03*
Y44069D02*
D03*
Y45339D02*
D03*
X2815D02*
D03*
Y44069D02*
D03*
Y42799D02*
D03*
Y41529D02*
D03*
D213*
X68891Y5011D02*
D03*
X68241D02*
D03*
X67591D02*
D03*
X66941D02*
D03*
X66291D02*
D03*
D214*
X67591Y2336D02*
D03*
D215*
X9606Y41669D02*
D03*
X10256D02*
D03*
X10906D02*
D03*
Y43369D02*
D03*
X9606D02*
D03*
X9618Y36889D02*
D03*
X10268D02*
D03*
X10918D02*
D03*
Y38589D02*
D03*
X9618D02*
D03*
D216*
X63424Y11940D02*
D03*
X59995Y14480D02*
D03*
X63424Y17020D02*
D03*
X59995Y19560D02*
D03*
X63424Y22100D02*
D03*
X59995Y24640D02*
D03*
X63424Y29720D02*
D03*
X59996Y32260D02*
D03*
X63424Y34800D02*
D03*
X59995Y37340D02*
D03*
X63424Y39880D02*
D03*
X59995Y42420D02*
D03*
X63424Y44960D02*
D03*
X59995Y47500D02*
D03*
X108243Y29720D02*
D03*
X111671Y27180D02*
D03*
X108242Y24640D02*
D03*
X111671Y22100D02*
D03*
X108242Y19560D02*
D03*
X111671Y17020D02*
D03*
X108242Y14480D02*
D03*
X111671Y11940D02*
D03*
X111684Y33784D02*
D03*
X108255Y36324D02*
D03*
X111684Y38864D02*
D03*
X108255Y41404D02*
D03*
X111684Y43944D02*
D03*
X108255Y46484D02*
D03*
X111684Y49024D02*
D03*
X108256Y51564D02*
D03*
X111684Y54104D02*
D03*
X108256Y56644D02*
D03*
D217*
X70554Y26937D02*
D03*
Y24637D02*
D03*
Y22337D02*
D03*
D218*
X76904Y24637D02*
D03*
D219*
X60020Y8745D02*
D03*
X60970Y6545D02*
D03*
X59070D02*
D03*
X122748Y48011D02*
D03*
X123698Y45811D02*
D03*
X121798D02*
D03*
D220*
X85034Y20896D02*
D03*
Y19946D02*
D03*
Y18996D02*
D03*
X87634D02*
D03*
Y19946D02*
D03*
Y20896D02*
D03*
D221*
X86334Y19946D02*
D03*
D222*
X71493Y35064D02*
D03*
D223*
Y37624D02*
D03*
D224*
X73575Y35758D02*
D03*
Y36408D02*
D03*
Y37058D02*
D03*
Y37708D02*
D03*
X76375D02*
D03*
Y37058D02*
D03*
Y36408D02*
D03*
Y35758D02*
D03*
D225*
X80858Y38478D02*
D03*
X82458D02*
D03*
X78491Y29855D02*
D03*
X80091D02*
D03*
D226*
X73393Y32055D02*
D03*
X75593D02*
D03*
D227*
X104648Y15217D02*
D03*
X103148Y12217D02*
D03*
X104648D02*
D03*
X103148Y15217D02*
D03*
D228*
X109207Y72332D02*
D03*
X114307D02*
D03*
Y63552D02*
D03*
X109207D02*
D03*
X118097Y72332D02*
D03*
X123197D02*
D03*
Y63552D02*
D03*
X118097D02*
D03*
D229*
X95605Y63280D02*
D03*
X96875D02*
D03*
X98145D02*
D03*
X99415D02*
D03*
X100685D02*
D03*
X101955D02*
D03*
X103225D02*
D03*
X104495D02*
D03*
X95605Y72300D02*
D03*
X96875D02*
D03*
X98145D02*
D03*
X99415D02*
D03*
X100685D02*
D03*
X101955D02*
D03*
X103225D02*
D03*
X104495D02*
D03*
D230*
X48326Y2542D02*
D03*
X47676Y4492D02*
D03*
X47026Y2542D02*
D03*
X58572D02*
D03*
X57922Y4492D02*
D03*
X57272Y2542D02*
D03*
D231*
X71493Y37374D02*
D03*
D232*
X107788Y2431D02*
D03*
X114788D02*
D03*
X95282Y2470D02*
D03*
X102282D02*
D03*
D233*
X4878Y30175D02*
D03*
X3863Y22555D02*
D03*
X5893D02*
D03*
X4847Y36084D02*
D03*
Y46974D02*
D03*
Y38354D02*
D03*
Y44704D02*
D03*
X82600Y44000D02*
D03*
X47400D02*
D03*
D234*
X120650Y22860D02*
D03*
X40640Y2540D02*
D03*
X50800D02*
D03*
X6350Y17780D02*
D03*
Y12700D02*
D03*
X12827Y83642D02*
D03*
X123215Y28785D02*
D03*
Y31325D02*
D03*
Y33865D02*
D03*
X10236Y50276D02*
D03*
X86360Y5080D02*
D03*
X83820D02*
D03*
X81280D02*
D03*
X83820Y2540D02*
D03*
X86360D02*
D03*
X88900D02*
D03*
X81280D02*
D03*
X78740D02*
D03*
X76200D02*
D03*
Y5080D02*
D03*
X78740D02*
D03*
D235*
X123190Y22860D02*
D03*
X3810Y17780D02*
D03*
Y12700D02*
D03*
X7696Y50276D02*
D03*
X88900Y5080D02*
D03*
D236*
X5080D02*
D03*
X121920D02*
D03*
Y82918D02*
D03*
X5080D02*
D03*
D237*
X7618Y54878D02*
D03*
X9618Y56878D02*
D03*
X7618D02*
D03*
Y58878D02*
D03*
Y60878D02*
D03*
Y62878D02*
D03*
Y64878D02*
D03*
Y66878D02*
D03*
Y68878D02*
D03*
Y70878D02*
D03*
Y72878D02*
D03*
X9618Y58878D02*
D03*
Y60878D02*
D03*
Y62878D02*
D03*
Y64878D02*
D03*
Y66878D02*
D03*
Y68878D02*
D03*
Y70878D02*
D03*
Y72878D02*
D03*
D238*
Y54878D02*
D03*
D239*
X40640Y5080D02*
D03*
X50800D02*
D03*
X12827Y81102D02*
D03*
X123215Y36405D02*
D03*
D240*
X18694Y5001D02*
D03*
Y12001D02*
D03*
X33020Y5001D02*
D03*
Y12001D02*
D03*
D241*
X65366Y5336D02*
D03*
X69816D02*
D03*
D242*
X69966Y1686D02*
D03*
X65216D02*
D03*
D243*
X71579Y2336D02*
D03*
X63604D02*
D03*
D244*
X109226Y83811D02*
D03*
X93146D02*
D03*
D245*
X108246Y78491D02*
D03*
X105956D02*
D03*
X94126D02*
D03*
X98636Y76311D02*
D03*
X99656Y77411D02*
D03*
X100676Y76311D02*
D03*
X101696Y77411D02*
D03*
X102716Y76311D02*
D03*
X103736Y77411D02*
D03*
X104756Y76311D02*
D03*
X96416Y78491D02*
D03*
M02*
